<?xml version="1.0" encoding="UTF-8" standalone="no"?>
<svg width="242px" height="174px" viewBox="0 0 242 174" version="1.1" xmlns="http://www.w3.org/2000/svg" xmlns:xlink="http://www.w3.org/1999/xlink">
    <!-- Generator: Sketch 49.3 (51167) - http://www.bohemiancoding.com/sketch -->
    <title>Group 21 Copy</title>
    <desc>Created with Sketch.</desc>
    <defs>
        <polygon id="path-1" points="0 80 75 80 75 120 0 120 15 100"></polygon>
        <filter x="-8.0%" y="-15.0%" width="116.0%" height="130.0%" filterUnits="objectBoundingBox" id="filter-2">
            <feOffset dx="0" dy="0" in="SourceAlpha" result="shadowOffsetOuter1"></feOffset>
            <feGaussianBlur stdDeviation="2" in="shadowOffsetOuter1" result="shadowBlurOuter1"></feGaussianBlur>
            <feColorMatrix values="0 0 0 0 0   0 0 0 0 0   0 0 0 0 0  0 0 0 0.5 0" type="matrix" in="shadowBlurOuter1"></feColorMatrix>
        </filter>
        <polygon id="path-3" points="159 80 234 80 234 120 159 120 174 100"></polygon>
        <filter x="-8.0%" y="-15.0%" width="116.0%" height="130.0%" filterUnits="objectBoundingBox" id="filter-4">
            <feOffset dx="0" dy="0" in="SourceAlpha" result="shadowOffsetOuter1"></feOffset>
            <feGaussianBlur stdDeviation="2" in="shadowOffsetOuter1" result="shadowBlurOuter1"></feGaussianBlur>
            <feColorMatrix values="0 0 0 0 0   0 0 0 0 0   0 0 0 0 0  0 0 0 0.5 0" type="matrix" in="shadowBlurOuter1"></feColorMatrix>
        </filter>
        <path d="M61.7071201,0.0125464867 C61.1415575,0.0325461684 60.5860943,0.122544736 60.0710284,0.302541871 L3.69656025,20.7622162 C1.45450867,21.5822032 -0.0199937219,23.7021694 0.000204941038,26.0621319 L0.000204941038,91.1610957 C0.000204941038,106.410853 8.68562998,119.000653 20.0170799,129.710482 C31.3485297,140.420312 45.6087857,149.720164 58.717718,158.950017 C60.6769883,160.349994 63.3230131,160.349994 65.2822834,158.950017 C78.3912156,149.720164 92.6413723,140.420312 103.972822,129.710482 C115.304272,119.000653 123.999796,106.410853 123.999796,91.1610957 L123.999796,26.0621319 C124.019995,23.6921696 122.535393,21.5822032 120.293342,20.7622162 L63.928973,0.302541871 C63.2220198,0.0625456909 62.4645699,-0.0374527174 61.7071201,0.0125464867 Z" id="path-5"></path>
        <filter x="-8.9%" y="-4.4%" width="117.7%" height="113.8%" filterUnits="objectBoundingBox" id="filter-7">
            <feMorphology radius="3" operator="dilate" in="SourceAlpha" result="shadowSpreadOuter1"></feMorphology>
            <feOffset dx="0" dy="4" in="shadowSpreadOuter1" result="shadowOffsetOuter1"></feOffset>
            <feMorphology radius="3" operator="erode" in="SourceAlpha" result="shadowInner"></feMorphology>
            <feOffset dx="0" dy="4" in="shadowInner" result="shadowInner"></feOffset>
            <feComposite in="shadowOffsetOuter1" in2="shadowInner" operator="out" result="shadowOffsetOuter1"></feComposite>
            <feGaussianBlur stdDeviation="2" in="shadowOffsetOuter1" result="shadowBlurOuter1"></feGaussianBlur>
            <feColorMatrix values="0 0 0 0 0   0 0 0 0 0   0 0 0 0 0  0 0 0 0.5 0" type="matrix" in="shadowBlurOuter1"></feColorMatrix>
        </filter>
        <path d="M61.7071201,0.0125464867 C61.1415575,0.0325461684 60.5860943,0.122544736 60.0710284,0.302541871 L3.69656025,20.7622162 C1.45450867,21.5822032 -0.0199937219,23.7021694 0.000204941038,26.0621319 L0.000204941038,91.1610957 C0.000204941038,106.410853 8.68562998,119.000653 20.0170799,129.710482 C31.3485297,140.420312 45.6087857,149.720164 58.717718,158.950017 C60.6769883,160.349994 63.3230131,160.349994 65.2822834,158.950017 C78.3912156,149.720164 92.6413723,140.420312 103.972822,129.710482 C115.304272,119.000653 123.999796,106.410853 123.999796,91.1610957 L123.999796,26.0621319 C124.019995,23.6921696 122.535393,21.5822032 120.293342,20.7622162 L63.928973,0.302541871 C63.2220198,0.0625456909 62.4645699,-0.0374527174 61.7071201,0.0125464867 Z" id="path-8"></path>
        <rect id="path-10" x="31" y="98.5" width="172" height="40"></rect>
        <filter x="-3.5%" y="-15.0%" width="107.0%" height="130.0%" filterUnits="objectBoundingBox" id="filter-11">
            <feOffset dx="0" dy="0" in="SourceAlpha" result="shadowOffsetOuter1"></feOffset>
            <feGaussianBlur stdDeviation="2" in="shadowOffsetOuter1" result="shadowBlurOuter1"></feGaussianBlur>
            <feColorMatrix values="0 0 0 0 0   0 0 0 0 0   0 0 0 0 0  0 0 0 0.5 0" type="matrix" in="shadowBlurOuter1"></feColorMatrix>
        </filter>
    </defs>
    <g id="Final" stroke="none" stroke-width="1" fill="none" fill-rule="evenodd">
        <g id="Group-21-Copy" transform="translate(4.000000, 3.000000)">
            <g id="Rectangle-3-Copy-2">
                <use fill="black" fill-opacity="1" filter="url(#filter-2)" xlink:href="#path-1"></use>
                <use fill="#DA4A4A" fill-rule="evenodd" xlink:href="#path-1"></use>
            </g>
            <g id="Rectangle-3-Copy-4" transform="translate(196.500000, 100.000000) scale(-1, 1) translate(-196.500000, -100.000000) ">
                <use fill="black" fill-opacity="1" filter="url(#filter-4)" xlink:href="#path-3"></use>
                <use fill="#DA4A4A" fill-rule="evenodd" xlink:href="#path-3"></use>
            </g>
            <polygon id="Rectangle-3-Copy" fill="#BA3A3A" points="31 98.5 71 78.5 71 118.5 31 138.5"></polygon>
            <polygon id="Rectangle-3-Copy-3" fill="#BA3A3A" transform="translate(183.000000, 108.500000) scale(-1, 1) translate(-183.000000, -108.500000) " points="163 98.5 203 78.5 203 118.5 163 138.5"></polygon>
            <g id="Group-45" transform="translate(53.500000, 0.000000)">
                <mask id="mask-6" fill="white">
                    <use xlink:href="#path-5"></use>
                </mask>
                <g id="Mask">
                    <use fill="black" fill-opacity="1" filter="url(#filter-7)" xlink:href="#path-5"></use>
                    <use stroke="#FFFFFF" stroke-width="6" xlink:href="#path-5"></use>
                </g>
                <rect id="Rectangle-2-Copy-3" fill="#4990E2" mask="url(#mask-6)" x="-10" y="-10" width="144" height="180"></rect>
                <rect id="Rectangle-2" fill="#3D82C6" mask="url(#mask-6)" x="-10" y="-10" width="72" height="90"></rect>
                <rect id="Rectangle-2-Copy" fill="#3D82C6" mask="url(#mask-6)" x="62" y="80" width="72" height="90"></rect>
                <g id="Group-30" mask="url(#mask-6)">
                    <g id="Group-31">
                        <mask id="mask-9" fill="white">
                            <use xlink:href="#path-8"></use>
                        </mask>
                        <g id="Mask"></g>
                        <path d="M81.5031664,79.2873468 L80.5004798,35.9138934 C80.5004798,34.1149944 79.2972558,32.5159731 77.4924199,32.1162177 C75.085972,31.7164624 72.8800614,33.5153614 72.8800614,35.7140157 C72.8800614,35.7140157 72.0779121,67.6944422 71.8773748,76.8888148 C71.8773748,78.2879585 70.6741508,79.2873468 69.4709269,79.2873468 C68.0671656,79.2873468 67.064479,78.2879585 67.064479,76.8888148 C66.8639417,67.6944422 66.0617924,35.7140157 66.0617924,35.7140157 C66.0617924,33.3154837 63.8558818,31.5165848 61.4494339,32.1162177 C59.644598,32.5159731 58.441374,34.1149944 58.441374,35.9138934 L57.4386874,76.8888148 C57.4386874,78.2879585 56.2354634,79.2873468 55.0322395,79.2873468 C55.0322395,79.2873468 55.0322395,79.2873468 55.0322395,79.2873468 C53.6284782,79.2873468 52.6257916,78.2879585 52.6257916,76.8888148 C52.4252543,67.6944422 51.623105,35.7140157 51.623105,35.7140157 C51.623105,33.3154837 49.4171944,31.5165848 47.0107465,32.1162177 C45.2059106,32.5159731 44.0026866,34.1149944 44.0026866,35.9138934 L43,79.2873468 L43,84.8839214 C43,90.6803737 45.0053732,96.2769484 48.6150451,99.6748687 L56.0349261,106.870465 L48.8155824,208.208441 C48.2139704,215.603915 54.2300902,222 61.6499712,222 L63.0537325,222 C70.4736135,222 76.4897333,215.803792 75.8881213,208.208441 L68.6687776,106.870465 L76.0886586,99.6748687 C79.4977931,96.2769484 81.7037037,90.8802514 81.7037037,84.8839214 L81.5031664,79.2873468 Z" id="Shape" stroke="#4990E2" fill="#FFFFFF" fill-rule="nonzero" mask="url(#mask-9)"></path>
                    </g>
                </g>
            </g>
            <g id="Rectangle-3">
                <use fill="black" fill-opacity="1" filter="url(#filter-11)" xlink:href="#path-10"></use>
                <use fill="#DA4A4A" fill-rule="evenodd" xlink:href="#path-10"></use>
            </g>
            <path d="M46.6135798,111.715818 L46.6135798,116.734584 L52.5060952,116.734584 L52.5060952,121.509383 L46.6484467,121.509383 L46.6484467,131.337802 L41,131.337802 L41,106.662198 L53.0290995,106.662198 L53.0290995,111.715818 L46.6135798,111.715818 Z M58.5530214,131.337802 L58.5530214,106.662198 L64.1666011,106.662198 L64.1666011,131.337802 L58.5530214,131.337802 Z M81.3709529,131.337802 L78.0585922,121.509383 L76.4198453,121.509383 L76.4198453,131.337802 L71.0503343,131.337802 L71.0503343,106.662198 L78.965133,106.662198 C81.3593426,106.662198 83.2188949,107.283729 84.5438459,108.52681 C85.8687968,109.76989 86.5312623,111.622865 86.5312623,114.085791 C86.5312623,114.991962 86.4266625,115.80518 86.2174597,116.525469 C86.0082569,117.245759 85.7351352,117.861481 85.3980862,118.372654 C85.0610373,118.883827 84.6833158,119.302054 84.2649102,119.627346 C83.8465047,119.952638 83.4397276,120.184986 83.0445668,120.324397 L87.2634683,131.337802 L81.3709529,131.337802 Z M81.0222834,114.399464 C81.0222834,113.772115 80.9351169,113.260949 80.7607812,112.865952 C80.5864456,112.470954 80.3598126,112.157284 80.0808756,111.924933 C79.8019386,111.692582 79.4939502,111.535747 79.1569013,111.454424 C78.8198524,111.373101 78.4886196,111.33244 78.1631931,111.33244 L76.4198453,111.33244 L76.4198453,117.571046 L78.0585922,117.571046 C78.8489138,117.571046 79.5404348,117.321271 80.133176,116.821716 C80.7259172,116.32216 81.0222834,115.514751 81.0222834,114.399464 Z M102.619872,112.587131 C102.201466,112.099193 101.713334,111.721628 101.155459,111.454424 C100.597585,111.187219 100.016475,111.053619 99.4121117,111.053619 C98.7845034,111.053619 98.2208265,111.251115 97.7210644,111.646113 C97.2213022,112.04111 96.9714248,112.691684 96.9714248,113.597855 C96.9714248,114.364615 97.2271133,114.962911 97.7384978,115.392761 C98.2498824,115.822612 99.0053255,116.293116 100.00485,116.80429 C100.562724,117.083111 101.149645,117.414207 101.765631,117.797587 C102.381617,118.180967 102.945294,118.651472 103.456678,119.209115 C103.968063,119.766759 104.392273,120.434759 104.729322,121.213137 C105.066371,121.991514 105.234893,122.915097 105.234893,123.983914 C105.234893,125.308318 105.025694,126.475866 104.607288,127.486595 C104.188882,128.497324 103.625206,129.333777 102.916241,129.995979 C102.207276,130.65818 101.38791,131.157728 100.45812,131.494638 C99.5283302,131.831548 98.5636874,132 97.5641631,132 C96.0764989,132 94.7225123,131.721182 93.5021628,131.163539 C92.2818133,130.605895 91.2997372,129.955321 90.5559051,129.211796 L93.4149954,125.029491 C93.9496247,125.587134 94.5656014,126.034404 95.262944,126.371314 C95.9602866,126.708223 96.6692409,126.876676 97.3898283,126.876676 C98.0639261,126.876676 98.633414,126.655945 99.0983091,126.214477 C99.5632041,125.773009 99.7956482,125.157287 99.7956482,124.367292 C99.7956482,123.554062 99.5167153,122.909296 98.9588413,122.432976 C98.4009672,121.956655 97.587413,121.451298 96.5181544,120.91689 C95.8440566,120.591598 95.2106466,120.231459 94.6179054,119.836461 C94.0251642,119.441464 93.5021651,118.96515 93.0488924,118.407507 C92.5956197,117.849863 92.2411425,117.199289 91.9854503,116.455764 C91.729758,115.712239 91.6019138,114.829317 91.6019138,113.806971 C91.6019138,112.436097 91.8285467,111.256931 92.2818194,110.269437 C92.7350921,109.281943 93.3278244,108.474534 94.0600341,107.847185 C94.7922438,107.219836 95.6057979,106.75514 96.5007209,106.453083 C97.3956439,106.151026 98.2963646,106 99.2029099,106 C100.551106,106 101.759815,106.220731 102.829073,106.662198 C103.898332,107.103666 104.793241,107.707771 105.513829,108.474531 L102.619872,112.587131 Z M118.534146,111.402145 L118.534146,131.337802 L113.060034,131.337802 L113.060034,111.402145 L108.52733,111.402145 L108.52733,106.662198 L123.06685,106.662198 L123.06685,111.402145 L118.534146,111.402145 Z M141.924892,131.337802 L141.924892,113.144772 L138.228995,115.932976 L135.753441,111.61126 L142.51763,106.662198 L147.399004,106.662198 L147.399004,131.337802 L141.924892,131.337802 Z M172.204352,119 C172.204352,120.394109 172.093941,121.846284 171.873116,123.356568 C171.652291,124.866853 171.245514,126.255132 170.652772,127.521448 C170.060031,128.787763 169.234855,129.827521 168.177219,130.640751 C167.119582,131.453981 165.753974,131.86059 164.080351,131.86059 C162.406729,131.86059 161.04112,131.453981 159.983484,130.640751 C158.925848,129.827521 158.100671,128.787763 157.50793,127.521448 C156.915189,126.255132 156.514223,124.866853 156.30502,123.356568 C156.095818,121.846284 155.991218,120.394109 155.991218,119 C155.991218,117.605891 156.095818,116.153716 156.30502,114.643432 C156.514223,113.133147 156.915189,111.744868 157.50793,110.478552 C158.100671,109.212237 158.925848,108.172479 159.983484,107.359249 C161.04112,106.546019 162.406729,106.13941 164.080351,106.13941 C165.753974,106.13941 167.119582,106.546019 168.177219,107.359249 C169.234855,108.172479 170.060031,109.212237 170.652772,110.478552 C171.245514,111.744868 171.652291,113.133147 171.873116,114.643432 C172.093941,116.153716 172.204352,117.605891 172.204352,119 Z M166.625639,119 C166.625639,118.18677 166.596584,117.315465 166.538472,116.386059 C166.48036,115.456653 166.358327,114.596966 166.172369,113.806971 C165.986411,113.016975 165.730722,112.360592 165.405296,111.837802 C165.079869,111.315011 164.638225,111.053619 164.080351,111.053619 C163.522477,111.053619 163.080834,111.315011 162.755407,111.837802 C162.42998,112.360592 162.174292,113.016975 161.988334,113.806971 C161.802376,114.596966 161.680343,115.456653 161.622231,116.386059 C161.564119,117.315465 161.535064,118.18677 161.535064,119 C161.535064,119.836465 161.564119,120.719388 161.622231,121.648794 C161.680343,122.578199 161.802376,123.432078 161.988334,124.210456 C162.174292,124.988833 162.42998,125.639408 162.755407,126.162198 C163.080834,126.684989 163.522477,126.946381 164.080351,126.946381 C164.638225,126.946381 165.079869,126.684989 165.405296,126.162198 C165.730722,125.639408 165.986411,124.988833 166.172369,124.210456 C166.358327,123.432078 166.48036,122.578199 166.538472,121.648794 C166.596584,120.719388 166.625639,119.836465 166.625639,119 Z M193,119 C193,120.394109 192.889589,121.846284 192.668764,123.356568 C192.447939,124.866853 192.041162,126.255132 191.448421,127.521448 C190.855679,128.787763 190.030503,129.827521 188.972867,130.640751 C187.91523,131.453981 186.549622,131.86059 184.875999,131.86059 C183.202377,131.86059 181.836769,131.453981 180.779132,130.640751 C179.721496,129.827521 178.89632,128.787763 178.303578,127.521448 C177.710837,126.255132 177.309871,124.866853 177.100669,123.356568 C176.891466,121.846284 176.786866,120.394109 176.786866,119 C176.786866,117.605891 176.891466,116.153716 177.100669,114.643432 C177.309871,113.133147 177.710837,111.744868 178.303578,110.478552 C178.89632,109.212237 179.721496,108.172479 180.779132,107.359249 C181.836769,106.546019 183.202377,106.13941 184.875999,106.13941 C186.549622,106.13941 187.91523,106.546019 188.972867,107.359249 C190.030503,108.172479 190.855679,109.212237 191.448421,110.478552 C192.041162,111.744868 192.447939,113.133147 192.668764,114.643432 C192.889589,116.153716 193,117.605891 193,119 Z M187.421287,119 C187.421287,118.18677 187.392232,117.315465 187.33412,116.386059 C187.276008,115.456653 187.153975,114.596966 186.968017,113.806971 C186.782059,113.016975 186.52637,112.360592 186.200944,111.837802 C185.875517,111.315011 185.433874,111.053619 184.875999,111.053619 C184.318125,111.053619 183.876482,111.315011 183.551055,111.837802 C183.225629,112.360592 182.96994,113.016975 182.783982,113.806971 C182.598024,114.596966 182.475991,115.456653 182.417879,116.386059 C182.359767,117.315465 182.330712,118.18677 182.330712,119 C182.330712,119.836465 182.359767,120.719388 182.417879,121.648794 C182.475991,122.578199 182.598024,123.432078 182.783982,124.210456 C182.96994,124.988833 183.225629,125.639408 183.551055,126.162198 C183.876482,126.684989 184.318125,126.946381 184.875999,126.946381 C185.433874,126.946381 185.875517,126.684989 186.200944,126.162198 C186.52637,125.639408 186.782059,124.988833 186.968017,124.210456 C187.153975,123.432078 187.276008,122.578199 187.33412,121.648794 C187.392232,120.719388 187.421287,119.836465 187.421287,119 Z" id="FIRST-100" fill="#FFFFFF"></path>
        </g>
    </g>
</svg>