<?xml version="1.0" encoding="UTF-8" standalone="no"?>
<svg width="918px" height="250px" viewBox="0 0 918 250" version="1.1" xmlns="http://www.w3.org/2000/svg" xmlns:xlink="http://www.w3.org/1999/xlink">
    <!-- Generator: Sketch 49.3 (51167) - http://www.bohemiancoding.com/sketch -->
    <title>Group 7 Copy</title>
    <desc>Created with Sketch.</desc>
    <defs></defs>
    <g id="Final" stroke="none" stroke-width="1" fill="none" fill-rule="evenodd">
        <g id="Group-7-Copy">
            <text id="GOOD" font-family="AvenirNext-Bold, Avenir Next" font-size="53" font-weight="bold" letter-spacing="2.35555649" fill="#78A0C8">
                <tspan x="368" y="249">GOOD</tspan>
            </text>
            <polygon id="Triangle" fill="#82ADD7" points="459 184 471 196 447 196"></polygon>
            <g id="Group-3">
                <g id="Group" transform="translate(0.000000, 17.150059)" fill="#AAADBD">
                    <path d="M68.6002353,14.4655828 C38.7501453,14.4655828 14.462894,38.7483999 14.462894,68.599019 C14.462894,98.4472058 38.7501453,122.734888 68.6002353,122.734888 C98.4503252,122.734888 122.735144,98.4472058 122.735144,68.599019 C122.735144,38.7483999 98.4503252,14.4655828 68.6002353,14.4655828 M68.6002353,137.200471 C30.7719596,137.200471 0,106.425533 0,68.599019 C0,30.7749376 30.7719596,0 68.6002353,0 C106.428511,0 137.200471,30.7749376 137.200471,68.599019 C137.200471,106.425533 106.428511,137.200471 68.6002353,137.200471" id="Fill-66"></path>
                    <polygon id="1" points="65.4103243 93.1003193 65.4103243 55.3015896 56.9038951 57.3595967 54.3656864 47.0009612 68.9089363 42.8163468 78.444369 42.8163468 78.444369 93.1003193"></polygon>
                </g>
                <g id="Group-2" transform="translate(186.200639, 17.150059)" fill="#AAADBD">
                    <path d="M68.599019,14.4655828 C38.7508323,14.4655828 14.4631504,38.7483999 14.4631504,68.599019 C14.4631504,98.4472058 38.7508323,122.734888 68.599019,122.734888 C98.4472058,122.734888 122.734888,98.4472058 122.734888,68.599019 C122.734888,38.7483999 98.4472058,14.4655828 68.599019,14.4655828 M68.599019,137.200471 C30.7725051,137.200471 0,106.425533 0,68.599019 C0,30.7749376 30.7725051,0 68.599019,0 C106.425533,0 137.200471,30.7749376 137.200471,68.599019 C137.200471,106.425533 106.425533,137.200471 68.599019,137.200471" id="Fill-71"></path>
                    <path d="M48.9462679,93.1003193 L48.9462679,83.0160847 L67.1939304,68.8844362 C72.1331474,64.9742228 74.1225542,62.5732146 74.1225542,59.2804033 C74.1225542,55.9189918 71.7901462,53.9295849 68.2915342,53.9295849 C64.7929222,53.9295849 62.1861133,55.9189918 58.2758998,60.4466073 L49.289269,52.9691817 C54.5714871,46.1091581 59.785105,42.3361452 69.2519375,42.3361452 C80.0221744,42.3361452 87.4309998,48.7159671 87.4309998,58.1141993 L87.4309998,58.2513998 C87.4309998,66.3462275 83.2463855,70.4622416 75.5631591,76.1560612 L67.05673,82.1928819 L87.9112015,82.1928819 L87.9112015,93.1003193 L48.9462679,93.1003193 Z" id="2"></path>
                </g>
                <g id="Group-4" transform="translate(593.900185, 16.968577)" fill="#AAADBD">
                    <path d="M68.599019,14.4655828 C38.7508323,14.4655828 14.4631504,38.7483999 14.4631504,68.599019 C14.4631504,98.4472058 38.7508323,122.734888 68.599019,122.734888 C98.4472058,122.734888 122.734888,98.4472058 122.734888,68.599019 C122.734888,38.7483999 98.4472058,14.4655828 68.599019,14.4655828 M68.599019,137.200471 C30.7725051,137.200471 0,106.425533 0,68.599019 C0,30.7749376 30.7725051,0 68.599019,0 C106.425533,0 137.200471,30.7749376 137.200471,68.599019 C137.200471,106.425533 106.425533,137.200471 68.599019,137.200471" id="Fill-76"></path>
                    <path d="M71.6529457,93.1003193 L71.6529457,83.1532852 L47.3684624,83.1532852 L45.2418552,73.8236532 L71.447145,42.8163468 L84.4125895,42.8163468 L84.4125895,73.1376508 L90.7924114,73.1376508 L90.7924114,83.1532852 L84.4125895,83.1532852 L84.4125895,93.1003193 L71.6529457,93.1003193 Z M59.4421038,73.2062511 L71.6529457,73.2062511 L71.6529457,58.5944009 L59.4421038,73.2062511 Z" id="4"></path>
                </g>
                <g id="Group-4" transform="translate(780.554529, 16.968577)" fill="#AAADBD">
                    <path d="M68.599019,14.4655828 C38.7508323,14.4655828 14.4631504,38.7483999 14.4631504,68.599019 C14.4631504,98.4472058 38.7508323,122.734888 68.599019,122.734888 C98.4472058,122.734888 122.734888,98.4472058 122.734888,68.599019 C122.734888,38.7483999 98.4472058,14.4655828 68.599019,14.4655828 M68.599019,137.200471 C30.7725051,137.200471 0,106.425533 0,68.599019 C0,30.7749376 30.7725051,0 68.599019,0 C106.425533,0 137.200471,30.7749376 137.200471,68.599019 C137.200471,106.425533 106.425533,137.200471 68.599019,137.200471" id="Fill-76"></path>
                    <path d="M69.1200108,93.1914234 C60.43027,93.1914234 54.3406091,90.1808046 49.2088725,85.3911837 L56.8722659,76.4277502 C60.840809,79.848908 64.6725057,81.8331795 68.9147413,81.8331795 C73.5675159,81.8331795 76.4412885,79.5067922 76.4412885,75.7435187 L76.4412885,75.6066724 C76.4412885,71.9118219 73.2938233,69.6538578 68.777895,69.6538578 C65.698853,69.6538578 63.0987731,70.6802051 60.7723858,72.0486683 L52.9037229,67.53274 L54.3406091,42.4214418 L87.1153008,42.4214418 L87.1153008,53.4375699 L64.9461983,53.4375699 L64.4672362,61.2378096 C66.7252004,60.2798855 68.9147413,59.5956539 72.1990528,59.5956539 C81.2993326,59.5956539 89.3048418,64.5221211 89.3048418,75.4698261 L89.3048418,75.6066724 C89.3048418,86.5543773 81.0256399,93.1914234 69.1200108,93.1914234 Z" id="5"></path>
                </g>
                <g id="Group-17" transform="translate(371.611830, 0.000000)">
                    <path d="M171.500588,85.7551346 C171.500588,133.107788 133.110208,171.500588 85.7551346,171.500588 C38.3976409,171.500588 0,133.107788 0,85.7551346 C0,38.3952206 38.3976409,0 85.7551346,0 C133.110208,0 171.500588,38.3952206 171.500588,85.7551346" id="Fill-84" fill="#78A0C8"></path>
                    <path d="M164.150563,85.7547197 C164.150563,129.048574 129.050787,164.150563 85.7547197,164.150563 C42.4564397,164.150563 7.35002521,129.048574 7.35002521,85.7547197 C7.35002521,42.4542269 42.4564397,7.35002521 85.7547197,7.35002521 C129.050787,7.35002521 164.150563,42.4542269 164.150563,85.7547197" id="Fill-84" fill="#82ADD7"></path>
                    <path d="M154.350529,85.7541665 C154.350529,123.636289 123.638225,154.350529 85.7541665,154.350529 C47.8681715,154.350529 17.1500588,123.636289 17.1500588,85.7541665 C17.1500588,47.8662353 47.8681715,17.1500588 85.7541665,17.1500588 C123.638225,17.1500588 154.350529,47.8662353 154.350529,85.7541665" id="Fill-84" fill="#78A0C8"></path>
                    <path d="M86.911585,135.612862 C68.1823933,135.612862 55.1123818,128.741 45.8151571,118.365836 L62.5232131,101.792523 C69.3950748,109.068612 76.805906,113.110883 85.9683883,113.110883 C93.7834468,113.110883 98.7689151,109.068612 98.7689151,102.870462 L98.7689151,102.600977 C98.7689151,95.8638579 92.84025,91.9563287 82.0608591,91.9563287 L71.1467258,91.9563287 L67.373939,77.9431205 L90.1454023,56.9233082 L52.4175341,56.9233082 L52.4175341,35.6340111 L122.348833,35.6340111 L122.348833,54.3632028 L98.6341727,75.2482728 C112.512638,78.2126053 124.100484,85.7581789 124.100484,102.870462 L124.100484,103.139947 C124.100484,122.677593 108.605109,135.612862 86.911585,135.612862 Z" id="3-copy" fill="#FFFFFF"></path>
                </g>
            </g>
        </g>
    </g>
</svg>