<?xml version="1.0" encoding="UTF-8" standalone="no"?>
<svg width="917px" height="250px" viewBox="0 0 917 250" version="1.1" xmlns="http://www.w3.org/2000/svg" xmlns:xlink="http://www.w3.org/1999/xlink">
    <!-- Generator: Sketch 49.3 (51167) - http://www.bohemiancoding.com/sketch -->
    <title>Group 7 Copy</title>
    <desc>Created with Sketch.</desc>
    <defs></defs>
    <g id="Final" stroke="none" stroke-width="1" fill="none" fill-rule="evenodd">
        <g id="Group-7-Copy">
            <g id="Group-18">
                <g id="Group" transform="translate(0.000000, 17.155712)" fill="#AAADBD">
                    <path d="M68.6228467,14.4703508 C38.7629178,14.4703508 14.4676611,38.7611718 14.4676611,68.62163 C14.4676611,98.4796551 38.7629178,122.775342 68.6228467,122.775342 C98.4827755,122.775342 122.775599,98.4796551 122.775599,68.62163 C122.775599,38.7611718 98.4827755,14.4703508 68.6228467,14.4703508 M68.6228467,137.245693 C30.7821024,137.245693 0,106.460612 0,68.62163 C0,30.7850813 30.7821024,0 68.6228467,0 C106.463591,0 137.245693,30.7850813 137.245693,68.62163 C137.245693,106.460612 106.463591,137.245693 68.6228467,137.245693" id="Fill-66"></path>
                    <polygon id="1" points="65.4318843 93.1310062 65.4318843 55.3198177 56.9226513 57.3785031 54.383606 47.0164532 68.9316495 42.8304596 78.4702252 42.8304596 78.4702252 93.1310062"></polygon>
                </g>
                <g id="Group-2" transform="translate(186.262012, 17.155712)" fill="#AAADBD">
                    <path d="M68.62163,14.4703508 C38.763605,14.4703508 14.4679176,38.7611718 14.4679176,68.62163 C14.4679176,98.4796551 38.763605,122.775342 68.62163,122.775342 C98.4796551,122.775342 122.775342,98.4796551 122.775342,68.62163 C122.775342,38.7611718 98.4796551,14.4703508 68.62163,14.4703508 M68.62163,137.245693 C30.7826481,137.245693 0,106.460612 0,68.62163 C0,30.7850813 30.7826481,0 68.62163,0 C106.460612,0 137.245693,30.7850813 137.245693,68.62163 C137.245693,106.460612 106.460612,137.245693 68.62163,137.245693" id="Fill-71"></path>
                    <path d="M48.9624011,93.1310062 L48.9624011,83.0434477 L67.2160783,68.9071413 C72.1569233,64.995639 74.1469858,62.5938394 74.1469858,59.2999428 C74.1469858,55.9374233 71.813809,53.9473607 68.3140438,53.9473607 C64.8142787,53.9473607 62.2066105,55.9374233 58.2951082,60.4665312 L49.3055153,52.9866409 C54.5894745,46.1243562 59.8048109,42.3500997 69.2747637,42.3500997 C80.0485506,42.3500997 87.4598181,48.7320244 87.4598181,58.1333544 L87.4598181,58.2706001 C87.4598181,66.368096 83.2738244,70.4854668 75.5880656,76.1811631 L67.0788326,82.2199736 L87.940178,82.2199736 L87.940178,93.1310062 L48.9624011,93.1310062 Z" id="2"></path>
                </g>
                <g id="Group-4" transform="translate(558.786037, 17.155712)" fill="#AAADBD">
                    <path d="M68.62163,14.4703508 C38.763605,14.4703508 14.4679176,38.7611718 14.4679176,68.62163 C14.4679176,98.4796551 38.763605,122.775342 68.62163,122.775342 C98.4796551,122.775342 122.775342,98.4796551 122.775342,68.62163 C122.775342,38.7611718 98.4796551,14.4703508 68.62163,14.4703508 M68.62163,137.245693 C30.7826481,137.245693 0,106.460612 0,68.62163 C0,30.7850813 30.7826481,0 68.62163,0 C106.460612,0 137.245693,30.7850813 137.245693,68.62163 C137.245693,106.460612 106.460612,137.245693 68.62163,137.245693" id="Fill-76"></path>
                    <path d="M71.6765633,93.1310062 L71.6765633,83.1806934 L47.3840756,83.1806934 L45.2567674,73.8479863 L71.4706948,42.8304596 L84.4404128,42.8304596 L84.4404128,73.1617578 L90.8223375,73.1617578 L90.8223375,83.1806934 L84.4404128,83.1806934 L84.4404128,93.1310062 L71.6765633,93.1310062 Z M59.4616966,73.2303806 L71.6765633,73.2303806 L71.6765633,58.6137143 L59.4616966,73.2303806 Z" id="4"></path>
                </g>
                <g id="Group-3" transform="translate(372.524025, 17.155712)" fill="#AAADBD">
                    <path d="M68.62163,14.4703508 C38.763605,14.4703508 14.4679176,38.7611718 14.4679176,68.62163 C14.4679176,98.4796551 38.763605,122.775342 68.62163,122.775342 C98.4796551,122.775342 122.775342,98.4796551 122.775342,68.62163 C122.775342,38.7611718 98.4796551,14.4703508 68.62163,14.4703508 M68.62163,137.245693 C30.7826481,137.245693 0,106.460612 0,68.62163 C0,30.7850813 30.7826481,0 68.62163,0 C106.460612,0 137.245693,30.7850813 137.245693,68.62163 C137.245693,106.460612 106.460612,137.245693 68.62163,137.245693" id="Fill-81"></path>
                    <path d="M68.9659609,94.091726 C59.4273852,94.091726 52.7709691,90.5919609 48.0359927,85.3080017 L56.5452256,76.8673915 C60.0449908,80.5730252 63.8192474,82.6317106 68.485601,82.6317106 C72.4657261,82.6317106 75.0047714,80.5730252 75.0047714,77.4163743 L75.0047714,77.2791286 C75.0047714,73.8479863 71.9853661,71.8579237 66.4955384,71.8579237 L60.9370878,71.8579237 L59.0156481,64.7211477 L70.6129092,54.0159836 L51.3985121,54.0159836 L51.3985121,43.1735738 L87.0137696,43.1735738 L87.0137696,52.7121495 L74.9361485,63.3486907 C82.0043018,64.8583934 87.9058666,68.7012728 87.9058666,77.4163743 L87.9058666,77.55362 C87.9058666,87.5039328 80.0142392,94.091726 68.9659609,94.091726 Z" id="3"></path>
                </g>
                <g id="Group-17" transform="translate(745.048049, 0.000000)">
                    <path d="M171.557117,85.7834005 C171.557117,133.151662 133.154083,171.557117 85.7834005,171.557117 C38.4102971,171.557117 0,133.151662 0,85.7834005 C0,38.4078761 38.4102971,0 85.7834005,0 C133.154083,0 171.557117,38.4078761 171.557117,85.7834005" id="Fill-84" fill="#3C78B4"></path>
                    <path d="M164.204669,85.7829854 C164.204669,129.09111 129.093323,164.204669 85.7829854,164.204669 C42.4704338,164.204669 7.35244786,129.09111 7.35244786,85.7829854 C7.35244786,42.4682203 42.4704338,7.35244786 85.7829854,7.35244786 C129.093323,7.35244786 164.204669,42.4682203 164.204669,85.7829854" id="Fill-84" fill="#4687C8"></path>
                    <path d="M154.401405,85.782432 C154.401405,123.677041 123.678978,154.401405 85.782432,154.401405 C47.8839494,154.401405 17.1557117,123.677041 17.1557117,85.782432 C17.1557117,47.8820125 47.8839494,17.1557117 85.782432,17.1557117 C123.678978,17.1557117 154.401405,47.8820125 154.401405,85.782432" id="Fill-84" fill="#3C78B4"></path>
                    <path d="M84.2284172,136.682006 C67.1094678,136.682006 55.1127237,130.751031 45.0031079,121.31539 L60.1001342,103.657261 C67.9182371,110.397005 75.4667502,114.306056 83.8240326,114.306056 C92.9900843,114.306056 98.6514691,109.72303 98.6514691,102.309312 L98.6514691,102.039722 C98.6514691,94.7607988 92.4509047,90.3125678 83.5544428,90.3125678 C77.4886734,90.3125678 72.366468,92.334491 67.7834422,95.0303885 L52.2820313,86.1339266 L55.1127237,36.6642066 L119.67947,36.6642066 L119.67947,58.3661819 L76.0059297,58.3661819 L75.0623656,73.7327979 C79.5105965,71.8456696 83.8240326,70.4977209 90.2941867,70.4977209 C108.221905,70.4977209 123.992906,80.202952 123.992906,101.770132 L123.992906,102.039722 C123.992906,123.606903 107.682726,136.682006 84.2284172,136.682006 Z" id="5" fill="#FFFFFF"></path>
                </g>
            </g>
            <text id="EXCELLENT" font-family="AvenirNext-Bold, Avenir Next" font-size="53" font-weight="bold" letter-spacing="2.35555649" fill="#3C78B4">
                <tspan x="599" y="249">EXCELLENT</tspan>
            </text>
            <polygon id="Triangle" fill="#4687C8" points="831 184 843 196 819 196"></polygon>
        </g>
    </g>
</svg>