<?xml version="1.0" encoding="UTF-8" standalone="no"?>
<svg width="452px" height="138px" viewBox="0 0 452 138" version="1.1" xmlns="http://www.w3.org/2000/svg" xmlns:xlink="http://www.w3.org/1999/xlink">
    <!-- Generator: Sketch 49.3 (51167) - http://www.bohemiancoding.com/sketch -->
    <title>Group 6 Copy</title>
    <desc>Created with Sketch.</desc>
    <defs></defs>
    <g id="Final" stroke="none" stroke-width="1" fill="none" fill-rule="evenodd">
        <g id="Group-6-Copy">
            <g id="Group-12" transform="translate(0.000000, 28.702970)" fill="#CB202D">
                <path d="M271.953857,52.8101839 L269.967784,65.0421499 C266.902405,66.704259 261.162062,69.086783 254.531323,69.086783 C243.250882,69.086783 240.971368,63.0795537 242.752159,50.3233066 L245.626109,29.7933679 L240.06586,29.7933679 L241.641369,16.5115826 L247.694043,16.2148672 L249.977335,6.57538897 L267.10265,0.145717429 L264.930185,16.2148672 L276.706831,16.2148672 C276.300045,17.8820053 274.918483,26.9934308 274.529329,29.7933679 L263.043605,29.7933679 L260.47317,48.775609 C259.779241,53.6374666 260.170915,55.4014144 263.53603,55.4014144 C266.01201,55.4014144 269.674344,53.9542983 271.953857,52.8101839 Z M201.698001,68.1135314 C192.901095,69.1922678 187.107857,65.7121484 185.371145,57.7775263 C184.280505,52.7874273 185.794304,47.1008015 188.447858,43.7112054 C191.988031,39.2805909 197.769934,36.4341348 204.827609,35.5729059 C210.506242,34.8726073 215.2907,35.2196134 219.761569,36.0670124 L219.944182,35.3000786 C220.071381,34.075499 220.206137,32.8484048 220.023524,31.388716 C219.561324,27.6282257 216.59166,25.3902876 209.261955,26.2892346 C204.320071,26.8952381 199.611176,28.6855886 195.950102,30.7085337 L192.398595,19.9915763 C197.349294,17.1451202 203.595916,14.981361 210.748046,14.1138457 C224.39364,12.4341348 233.975152,16.7867987 235.201807,26.7720258 C235.527992,29.427377 235.569552,32.2436587 235.232033,34.7921421 C233.481467,47.1410341 232.355564,56.4360207 231.86062,62.663272 C231.783797,63.6313689 231.800169,65.2859343 231.885808,67.6357693 L214.941847,67.6219393 C215.309591,66.6425271 215.630738,65.3286814 215.915363,63.6728587 C216.106791,62.5865787 216.251622,61.2111268 216.337261,59.5414741 C212.746713,64.4473362 207.835055,67.3541411 201.698001,68.1135314 M207.00637,58.632469 C213.234101,57.8680497 217.521097,51.8645922 218.551286,45.8799937 L218.730121,44.2769763 C216.0476,43.6760019 212.182502,43.2246425 208.424454,43.68606 C204.854056,44.1248468 201.871798,45.6059092 200.278658,47.7545812 C199.07845,49.2934779 198.462604,51.1353764 198.737153,53.3318246 C199.138901,56.6321546 202.788641,59.1492063 207.00637,58.632469 M183.031433,31.9747289 C184.314761,23.1587616 183.625869,15.1776206 173.829,15.1776206 C166.691983,15.1776206 158.973123,21.189879 153.529998,31.2505422 C154.72139,22.9538268 154.027461,15.1776206 144.31875,15.1776206 C136.997861,15.1776206 129.085053,21.5092252 123.633113,31.9747289 C125.024749,25.1301587 124.727531,17.3577243 124.324523,15.6956153 C118.686191,16.6297658 113.744307,17.1477605 106.812572,17.3577243 C107.009039,22.121515 106.710561,28.3487663 105.821425,34.2516423 L103.541912,49.805312 C102.656554,55.9219236 101.660369,62.9752004 100.665443,67.4359893 L119.084161,67.4359893 C119.183654,64.7353764 119.873805,60.4858086 120.371268,56.7542354 L121.955592,46.0775106 C123.243958,39.1285871 128.781538,30.9399969 133.039568,30.9399969 C135.50925,30.9399969 135.409758,33.318749 134.724644,37.7820525 L132.940075,49.805312 C132.053458,55.9219236 131.061051,62.9752004 130.071163,67.4359893 L148.68131,67.4359893 C148.775765,64.7353764 149.371461,60.4858086 149.865146,56.7542354 L151.457027,46.0775106 C152.736577,39.1285871 158.285491,30.9399969 162.534705,30.9399969 C165.016982,30.9399969 164.91497,33.2118812 164.513222,36.3336791 L160.075098,67.4359893 L177.063138,67.4359893 L183.031433,31.9747289 Z M326.786854,37.5205406 C326.786854,54.9663995 314.449776,69.4627063 298.10151,69.4627063 C283.46099,69.4627063 275.943635,59.4787364 275.943635,46.4609775 C275.943635,29.124501 288.380205,14.6281942 304.626459,14.6281942 C319.469742,14.6281942 326.786854,24.607135 326.786854,37.5205406 Z M293.76036,46.1127141 C293.76036,52.4355178 295.840888,55.6478391 299.397432,55.6478391 C304.160481,55.6478391 307.914751,47.9822725 307.914751,38.6445387 C307.914751,32.2236681 305.84178,29.1106711 302.374653,29.1106711 C297.617901,29.1106711 293.76036,36.6794279 293.76036,46.1127141 Z M99.7851228,37.8914349 C99.7851228,55.0908691 87.6079886,69.3998428 71.473821,69.3998428 C57.0159141,69.3998428 49.595532,59.5554298 49.595532,46.6986013 C49.595532,29.5922049 61.8708994,15.2907748 77.904315,15.2907748 C92.5498724,15.2907748 99.7851228,25.1377023 99.7851228,37.8914349 Z M67.4198138,46.1127141 C67.4198138,52.4355178 69.4915261,55.6478391 73.0631832,55.6478391 C77.8048225,55.6478391 81.5679083,47.9822725 81.5679083,38.6445387 C81.5679083,32.2236681 79.4898991,29.1106711 76.0240315,29.1106711 C71.2735764,29.1106711 67.4198138,36.6794279 67.4198138,46.1127141 Z M49.8965285,16.5254125 L49.595532,25.9624705 L24.9490829,52.7058306 C35.2421554,52.7058306 41.7771796,52.6077636 45.5364873,52.3927707 C44.4483661,57.4784221 43.5579706,61.6248939 42.6650563,67.8420871 C37.7143567,67.4359893 30.0005344,67.3266069 22.2816746,67.3266069 C13.6636035,67.3266069 6.14372881,67.4359893 0.101129784,67.8420871 L0.297596113,58.3069621 L24.9490829,31.6666981 C14.1635851,31.6666981 10.2027736,31.7685369 5.74198036,31.8666038 C6.7419436,27.1002986 7.43587275,21.8147415 8.1260237,16.5254125 C15.9443761,16.8384724 19.0072358,16.9465975 29.2108909,16.9465975 C38.6123086,16.9465975 43.9521626,16.8384724 49.8965285,16.5254125 Z" id="Fill-61"></path>
            </g>
            <g id="Group-5" fill="#9296A7">
                <path d="M11.002445,9.52458746 L8.80400571,4.20940594 L6.5824249,9.52458746 L11.002445,9.52458746 Z M7.31633999,0.250660066 L10.3776254,0.250660066 L17.1250159,16.0229373 L13.6537959,16.0229373 L12.1892717,12.4519802 L5.39725122,12.4519802 L3.93272697,16.0229373 L0.547460983,16.0229373 L7.31633999,0.250660066 Z" id="Fill-99"></path>
                <polygon id="Fill-100" points="21.9485241 0.358415842 24.988321 0.358415842 32.5539277 10.2346535 32.5539277 0.358415842 35.8300982 0.358415842 35.8300982 16.0234323 33.0068392 16.0234323 25.2032061 5.82376238 25.2032061 16.0234323 21.9485241 16.0234323"></polygon>
                <polygon id="Fill-101" points="51.1955362 16.0231023 54.5146837 16.0231023 54.5146837 0.358085809 51.1955362 0.358085809"></polygon>
                <polygon id="Fill-102" points="60.8286676 0.358415842 63.8684645 0.358415842 71.4340712 10.2346535 71.4340712 0.358415842 74.7102417 0.358415842 74.7102417 16.0234323 71.8853298 16.0234323 64.0833496 5.82376238 64.0833496 16.0234323 60.8286676 16.0234323"></polygon>
                <polygon id="Fill-103" points="81.0232338 16.0231023 84.3423813 16.0231023 84.3423813 0.358085809 81.0232338 0.358085809"></polygon>
                <polygon id="Fill-104" points="94.3431314 3.41221122 89.5131767 3.41221122 89.5131767 0.357755776 102.469092 0.357755776 102.469092 3.41221122 97.6622789 3.41221122 97.6622789 16.0244224 94.3431314 16.0244224"></polygon>
                <polygon id="Fill-105" points="107.639226 16.0231023 110.958374 16.0231023 110.958374 0.358085809 107.639226 0.358085809"></polygon>
                <path d="M126.369268,9.52458746 L124.170829,4.20940594 L121.950901,9.52458746 L126.369268,9.52458746 Z M122.684816,0.250660066 L125.746102,0.250660066 L132.493492,16.0229373 L129.020619,16.0229373 L127.557748,12.4519802 L120.764075,12.4519802 L119.29955,16.0229373 L115.914284,16.0229373 L122.684816,0.250660066 Z" id="Fill-106"></path>
                <polygon id="Fill-107" points="138.998889 3.41221122 134.168934 3.41221122 134.168934 0.357755776 147.126503 0.357755776 147.126503 3.41221122 142.318037 3.41221122 142.318037 16.0244224 138.998889 16.0244224"></polygon>
                <polygon id="Fill-108" points="152.295645 16.0231023 155.616446 16.0231023 155.616446 0.358085809 152.295645 0.358085809"></polygon>
                <polygon id="Fill-109" points="160.571364 0.358415842 164.237634 0.358415842 168.460952 11.5910891 172.687575 0.358415842 176.264585 0.358415842 169.884152 16.1323432 166.95345 16.1323432"></polygon>
                <polygon id="Fill-110" points="181.070406 0.358415842 192.860983 0.358415842 192.860983 3.30561056 184.344924 3.30561056 184.344924 6.6620462 191.847718 6.6620462 191.847718 9.60924092 184.344924 9.60924092 184.344924 13.0745875 192.968426 13.0745875 192.968426 16.0234323 181.070406 16.0234323"></polygon>
                <path d="M214.755952,9.50363036 L210.6814,9.50363036 L210.6814,13.1191419 L214.884883,13.1191419 C216.479991,13.1191419 217.451932,12.5382838 217.451932,11.3320132 L217.451932,11.2907591 C217.451932,10.170297 216.608922,9.50363036 214.755952,9.50363036 Z M216.567598,4.93927393 C216.567598,3.88646865 215.72624,3.26270627 214.218739,3.26270627 L210.6814,3.26270627 L210.6814,6.74785479 L214.002201,6.74785479 C215.574168,6.74785479 216.567598,6.20990099 216.567598,4.98547855 L216.567598,4.93927393 Z M207.469695,0.358415842 L214.691486,0.358415842 C216.479991,0.358415842 217.903191,0.853465347 218.809014,1.73630363 C219.521441,2.46567657 219.865257,3.32706271 219.865257,4.4029703 L219.865257,4.44587459 C219.865257,6.2330033 218.894968,7.22145215 217.77426,7.84686469 C219.584253,8.51353135 220.747938,9.5679868 220.747938,11.6752475 L220.747938,11.719802 C220.747938,14.5811881 218.420568,16.0234323 214.884883,16.0234323 L207.469695,16.0234323 L207.469695,0.358415842 Z" id="Fill-111"></path>
                <polygon id="Fill-112" points="229.755258 9.84686469 223.698806 0.358415842 227.579961 0.358415842 231.439627 6.76930693 235.381941 0.358415842 239.155653 0.358415842 233.076059 9.78415842 233.076059 16.0234323 229.755258 16.0234323"></polygon>
            </g>
            <path d="M6.7,133.225 C4.4,133.225 2.775,132.225 2.775,129.25 L2.775,121.9 L1,121.9 L1,119.3 L2.775,119.3 L2.775,115.5 L5.775,115.5 L5.775,119.3 L9.525,119.3 L9.525,121.9 L5.775,121.9 L5.775,128.775 C5.775,130.025 6.425,130.55 7.525,130.55 C8.225,130.55 8.85,130.375 9.475,130.075 L9.475,132.55 C8.7,132.975 7.85,133.225 6.7,133.225 Z M12.95,133 L12.95,114.025 L15.95,114.025 L15.95,121.45 C16.85,120.15 18.15,119.025 20.3,119.025 C23.4,119.025 25.225,121.1 25.225,124.3 L25.225,133 L22.2,133 L22.2,125.2 C22.2,123.025 21.1,121.775 19.175,121.775 C17.275,121.775 15.95,123.075 15.95,125.25 L15.95,133 L12.95,133 Z M35.5,133.3 C31.55,133.3 28.5,130.425 28.5,126.2 L28.5,126.15 C28.5,122.225 31.275,119.025 35.175,119.025 C39.5,119.025 41.7,122.425 41.7,126.375 C41.7,126.65 41.7,126.925 41.675,127.225 L31.525,127.225 C31.85,129.55 33.475,130.825 35.55,130.825 C37.125,130.825 38.25,130.25 39.325,129.175 L41.125,130.75 C39.8,132.3 38.025,133.3 35.5,133.3 Z M31.475,125.225 L38.725,125.225 C38.5,123.125 37.3,121.5 35.15,121.5 C33.175,121.5 31.775,123.025 31.475,125.225 Z M59.625,133.3 C55.45,133.3 52.375,130.125 52.375,126.225 L52.375,126.175 C52.375,122.275 55.475,119.025 59.675,119.025 C63.85,119.025 66.925,122.2 66.925,126.125 L66.925,126.175 C66.925,130.075 63.825,133.3 59.625,133.3 Z M59.675,130.675 C62.25,130.675 63.925,128.65 63.925,126.225 L63.925,126.175 C63.925,123.725 62.125,121.65 59.625,121.65 C57.05,121.65 55.375,123.7 55.375,126.125 L55.375,126.175 C55.375,128.625 57.175,130.675 59.675,130.675 Z M70.375,133 L70.375,119.3 L73.375,119.3 L73.375,121.45 C74.275,120.15 75.575,119.025 77.725,119.025 C80.825,119.025 82.65,121.1 82.65,124.3 L82.65,133 L79.625,133 L79.625,125.2 C79.625,123.025 78.525,121.775 76.6,121.775 C74.7,121.775 73.375,123.075 73.375,125.25 L73.375,133 L70.375,133 Z M86.85,133 L86.85,114.025 L89.875,114.025 L89.875,133 L86.85,133 Z M100.175,129.625 L103.825,119.3 L106.975,119.3 L101.5,133.375 C100.4,136.2 99.175,137.25 96.975,137.25 C95.7,137.25 94.75,136.95 93.775,136.425 L94.8,134.15 C95.375,134.475 96,134.7 96.675,134.7 C97.6,134.7 98.15,134.275 98.725,133 L92.95,119.3 L96.175,119.3 L100.175,129.625 Z M118.65,133 L118.65,121.9 L116.925,121.9 L116.925,119.375 L118.65,119.375 L118.65,118.35 C118.65,116.825 119.05,115.675 119.8,114.95 C120.5,114.25 121.525,113.875 122.85,113.875 C123.95,113.875 124.675,114 125.375,114.225 L125.375,116.775 C124.725,116.575 124.175,116.45 123.5,116.45 C122.275,116.45 121.65,117.125 121.65,118.6 L121.65,119.4 L125.325,119.4 L125.325,121.9 L121.675,121.9 L121.675,133 L118.65,133 Z M134.15,133.3 C129.975,133.3 126.9,130.125 126.9,126.225 L126.9,126.175 C126.9,122.275 130,119.025 134.2,119.025 C138.375,119.025 141.45,122.2 141.45,126.125 L141.45,126.175 C141.45,130.075 138.35,133.3 134.15,133.3 Z M134.2,130.675 C136.775,130.675 138.45,128.65 138.45,126.225 L138.45,126.175 C138.45,123.725 136.65,121.65 134.15,121.65 C131.575,121.65 129.9,123.7 129.9,126.125 L129.9,126.175 C129.9,128.625 131.7,130.675 134.2,130.675 Z M151.4,133.3 C147.225,133.3 144.15,130.125 144.15,126.225 L144.15,126.175 C144.15,122.275 147.25,119.025 151.45,119.025 C155.625,119.025 158.7,122.2 158.7,126.125 L158.7,126.175 C158.7,130.075 155.6,133.3 151.4,133.3 Z M151.45,130.675 C154.025,130.675 155.7,128.65 155.7,126.225 L155.7,126.175 C155.7,123.725 153.9,121.65 151.4,121.65 C148.825,121.65 147.15,123.7 147.15,126.125 L147.15,126.175 C147.15,128.625 148.95,130.675 151.45,130.675 Z M168.525,130.675 C170.7,130.675 172.625,128.875 172.625,126.175 L172.625,126.125 C172.625,123.425 170.7,121.625 168.525,121.625 C166.325,121.625 164.5,123.35 164.5,126.125 L164.5,126.175 C164.5,128.9 166.35,130.675 168.525,130.675 Z M167.825,133.275 C164.6,133.275 161.45,130.725 161.45,126.175 L161.45,126.125 C161.45,121.6 164.55,119.025 167.825,119.025 C170.125,119.025 171.575,120.175 172.55,121.475 L172.55,114.025 L175.575,114.025 L175.575,133 L172.55,133 L172.55,130.65 C171.525,132.125 170.075,133.275 167.825,133.275 Z M192.55,131.075 C194.7,131.075 196.325,129.85 196.325,128.075 L196.325,127.075 C195.5,126.775 194.4,126.525 193.1,126.525 C191.025,126.525 189.8,127.425 189.8,128.875 L189.8,128.925 C189.8,130.3 191.025,131.075 192.55,131.075 Z M191.75,133.275 C189.175,133.275 186.85,131.8 186.85,129.05 L186.85,129 C186.85,126.05 189.175,124.6 192.525,124.6 C194.075,124.6 195.2,124.825 196.275,125.175 L196.275,124.825 C196.275,122.825 195.05,121.75 192.8,121.75 C191.25,121.75 190.1,122.075 188.85,122.6 L188.05,120.25 C189.55,119.575 191.025,119.125 193.2,119.125 C195.225,119.125 196.75,119.675 197.725,120.65 C198.725,121.625 199.175,123.05 199.175,124.85 L199.175,133 L196.25,133 L196.25,131.25 C195.325,132.375 193.875,133.275 191.75,133.275 Z M210.25,130.675 C212.45,130.675 214.275,128.95 214.275,126.175 L214.275,126.125 C214.275,123.4 212.425,121.625 210.25,121.625 C208.075,121.625 206.15,123.425 206.15,126.125 L206.15,126.175 C206.15,128.875 208.075,130.675 210.25,130.675 Z M203.2,137.15 L203.2,119.3 L206.2,119.3 L206.2,121.65 C207.225,120.175 208.7,119.025 210.95,119.025 C214.175,119.025 217.325,121.575 217.325,126.125 L217.325,126.175 C217.325,130.7 214.2,133.275 210.95,133.275 C208.65,133.275 207.2,132.125 206.2,130.825 L206.2,137.15 L203.2,137.15 Z M227.875,130.675 C230.075,130.675 231.9,128.95 231.9,126.175 L231.9,126.125 C231.9,123.4 230.05,121.625 227.875,121.625 C225.7,121.625 223.775,123.425 223.775,126.125 L223.775,126.175 C223.775,128.875 225.7,130.675 227.875,130.675 Z M220.825,137.15 L220.825,119.3 L223.825,119.3 L223.825,121.65 C224.85,120.175 226.325,119.025 228.575,119.025 C231.8,119.025 234.95,121.575 234.95,126.125 L234.95,126.175 C234.95,130.7 231.825,133.275 228.575,133.275 C226.275,133.275 224.825,132.125 223.825,130.825 L223.825,137.15 L220.825,137.15 Z M252.375,129.625 L256.025,119.3 L259.175,119.3 L253.7,133.375 C252.6,136.2 251.375,137.25 249.175,137.25 C247.9,137.25 246.95,136.95 245.975,136.425 L247,134.15 C247.575,134.475 248.2,134.7 248.875,134.7 C249.8,134.7 250.35,134.275 250.925,133 L245.15,119.3 L248.375,119.3 L252.375,129.625 Z M267.875,133.3 C263.7,133.3 260.625,130.125 260.625,126.225 L260.625,126.175 C260.625,122.275 263.725,119.025 267.925,119.025 C272.1,119.025 275.175,122.2 275.175,126.125 L275.175,126.175 C275.175,130.075 272.075,133.3 267.875,133.3 Z M267.925,130.675 C270.5,130.675 272.175,128.65 272.175,126.225 L272.175,126.175 C272.175,123.725 270.375,121.65 267.875,121.65 C265.3,121.65 263.625,123.7 263.625,126.125 L263.625,126.175 C263.625,128.625 265.425,130.675 267.925,130.675 Z M283.4,133.275 C280.275,133.275 278.45,131.2 278.45,128 L278.45,119.3 L281.475,119.3 L281.475,127.1 C281.475,129.275 282.6,130.525 284.5,130.525 C286.4,130.525 287.725,129.225 287.725,127.05 L287.725,119.3 L290.725,119.3 L290.725,133 L287.725,133 L287.725,130.85 C286.825,132.15 285.55,133.275 283.4,133.275 Z M294.5,122.5 L295.125,114.8 L298.6,114.8 L298.6,114.925 L296.1,122.5 L294.5,122.5 Z M302.225,133 L302.225,114.025 L305.25,114.025 L305.25,133 L302.225,133 Z M309.8,133 L309.8,114.025 L312.825,114.025 L312.825,133 L309.8,133 Z M331.45,133.3 C327.5,133.3 324.45,130.425 324.45,126.2 L324.45,126.15 C324.45,122.225 327.225,119.025 331.125,119.025 C335.45,119.025 337.65,122.425 337.65,126.375 C337.65,126.65 337.65,126.925 337.625,127.225 L327.475,127.225 C327.8,129.55 329.425,130.825 331.5,130.825 C333.075,130.825 334.2,130.25 335.275,129.175 L337.075,130.75 C335.75,132.3 333.975,133.3 331.45,133.3 Z M327.425,125.225 L334.675,125.225 C334.45,123.125 333.25,121.5 331.1,121.5 C329.125,121.5 327.725,123.025 327.425,125.225 Z M344.775,133.1 L339.125,119.3 L342.375,119.3 L346.15,129.5 L349.975,119.3 L353.15,119.3 L347.5,133.1 L344.775,133.1 Z M361.525,133.3 C357.575,133.3 354.525,130.425 354.525,126.2 L354.525,126.15 C354.525,122.225 357.3,119.025 361.2,119.025 C365.525,119.025 367.725,122.425 367.725,126.375 C367.725,126.65 367.725,126.925 367.7,127.225 L357.55,127.225 C357.875,129.55 359.5,130.825 361.575,130.825 C363.15,130.825 364.275,130.25 365.35,129.175 L367.15,130.75 C365.825,132.3 364.05,133.3 361.525,133.3 Z M357.5,125.225 L364.75,125.225 C364.525,123.125 363.325,121.5 361.175,121.5 C359.2,121.5 357.8,123.025 357.5,125.225 Z M371.15,133 L371.15,119.3 L374.15,119.3 L374.15,122.45 C375.05,120.375 376.675,118.95 379.1,119.05 L379.1,122.225 L378.925,122.225 C376.15,122.225 374.15,124.075 374.15,127.75 L374.15,133 L371.15,133 Z M390.05,133 L390.05,119.3 L393.05,119.3 L393.05,121.45 C393.95,120.15 395.25,119.025 397.4,119.025 C400.5,119.025 402.325,121.1 402.325,124.3 L402.325,133 L399.3,133 L399.3,125.2 C399.3,123.025 398.2,121.775 396.275,121.775 C394.375,121.775 393.05,123.075 393.05,125.25 L393.05,133 L390.05,133 Z M412.6,133.3 C408.65,133.3 405.6,130.425 405.6,126.2 L405.6,126.15 C405.6,122.225 408.375,119.025 412.275,119.025 C416.6,119.025 418.8,122.425 418.8,126.375 C418.8,126.65 418.8,126.925 418.775,127.225 L408.625,127.225 C408.95,129.55 410.575,130.825 412.65,130.825 C414.225,130.825 415.35,130.25 416.425,129.175 L418.225,130.75 C416.9,132.3 415.125,133.3 412.6,133.3 Z M408.575,125.225 L415.825,125.225 C415.6,123.125 414.4,121.5 412.25,121.5 C410.275,121.5 408.875,123.025 408.575,125.225 Z M428.475,133.3 C424.525,133.3 421.475,130.425 421.475,126.2 L421.475,126.15 C421.475,122.225 424.25,119.025 428.15,119.025 C432.475,119.025 434.675,122.425 434.675,126.375 C434.675,126.65 434.675,126.925 434.65,127.225 L424.5,127.225 C424.825,129.55 426.45,130.825 428.525,130.825 C430.1,130.825 431.225,130.25 432.3,129.175 L434.1,130.75 C432.775,132.3 431,133.3 428.475,133.3 Z M424.45,125.225 L431.7,125.225 C431.475,123.125 430.275,121.5 428.125,121.5 C426.15,121.5 424.75,123.025 424.45,125.225 Z M444.475,130.675 C446.65,130.675 448.575,128.875 448.575,126.175 L448.575,126.125 C448.575,123.425 446.65,121.625 444.475,121.625 C442.275,121.625 440.45,123.35 440.45,126.125 L440.45,126.175 C440.45,128.9 442.3,130.675 444.475,130.675 Z M443.775,133.275 C440.55,133.275 437.4,130.725 437.4,126.175 L437.4,126.125 C437.4,121.6 440.5,119.025 443.775,119.025 C446.075,119.025 447.525,120.175 448.5,121.475 L448.5,114.025 L451.525,114.025 L451.525,133 L448.5,133 L448.5,130.65 C447.475,132.125 446.025,133.275 443.775,133.275 Z" id="the-only-food-app-yo" fill="#000000"></path>
        </g>
    </g>
</svg>