<?xml version="1.0" encoding="UTF-8" standalone="no"?>
<svg width="139px" height="104px" viewBox="0 0 139 104" version="1.1" xmlns="http://www.w3.org/2000/svg" xmlns:xlink="http://www.w3.org/1999/xlink">
    <!-- Generator: Sketch 49.3 (51167) - http://www.bohemiancoding.com/sketch -->
    <title>Group 21 Copy</title>
    <desc>Created with Sketch.</desc>
    <defs>
        <polygon id="path-1" points="0 45 42.1153846 45 42.1153846 67.5 0 67.5 8.42307692 56.25"></polygon>
        <filter x="-14.2%" y="-26.7%" width="128.5%" height="153.3%" filterUnits="objectBoundingBox" id="filter-2">
            <feOffset dx="0" dy="0" in="SourceAlpha" result="shadowOffsetOuter1"></feOffset>
            <feGaussianBlur stdDeviation="2" in="shadowOffsetOuter1" result="shadowBlurOuter1"></feGaussianBlur>
            <feColorMatrix values="0 0 0 0 0   0 0 0 0 0   0 0 0 0 0  0 0 0 0.5 0" type="matrix" in="shadowBlurOuter1"></feColorMatrix>
        </filter>
        <polygon id="path-3" points="89.2846154 45 131.4 45 131.4 67.5 89.2846154 67.5 97.7076923 56.25"></polygon>
        <filter x="-14.2%" y="-26.7%" width="128.5%" height="153.3%" filterUnits="objectBoundingBox" id="filter-4">
            <feOffset dx="0" dy="0" in="SourceAlpha" result="shadowOffsetOuter1"></feOffset>
            <feGaussianBlur stdDeviation="2" in="shadowOffsetOuter1" result="shadowBlurOuter1"></feGaussianBlur>
            <feColorMatrix values="0 0 0 0 0   0 0 0 0 0   0 0 0 0 0  0 0 0 0.5 0" type="matrix" in="shadowBlurOuter1"></feColorMatrix>
        </filter>
        <path d="M34.6509213,0.00705739879 C34.3333361,0.0183072197 34.0214222,0.068931414 33.7321929,0.170179802 L2.07576076,11.6787466 C0.81676256,12.1399893 -0.0112272438,13.3324703 0.000115082275,14.6599492 L0.000115082275,51.2781163 C0.000115082275,59.8561048 4.8773153,66.9378671 11.2403602,72.9621462 C17.6034052,78.9864253 25.6110874,84.217592 32.972257,89.4093844 C34.0724626,90.1968719 35.5583074,90.1968719 36.658513,89.4093844 C44.0196826,84.217592 52.0216937,78.9864253 58.3847386,72.9621462 C64.7477835,66.9378671 69.6306549,59.8561048 69.6306549,51.2781163 L69.6306549,14.6599492 C69.6419972,13.3268454 68.8083363,12.1399893 67.5493381,11.6787466 L35.8985771,0.170179802 C35.5015957,0.0351819511 35.0762585,-0.0210671536 34.6509213,0.00705739879 Z" id="path-5"></path>
        <filter x="-15.8%" y="-7.8%" width="131.6%" height="124.4%" filterUnits="objectBoundingBox" id="filter-7">
            <feMorphology radius="3" operator="dilate" in="SourceAlpha" result="shadowSpreadOuter1"></feMorphology>
            <feOffset dx="0" dy="4" in="shadowSpreadOuter1" result="shadowOffsetOuter1"></feOffset>
            <feMorphology radius="3" operator="erode" in="SourceAlpha" result="shadowInner"></feMorphology>
            <feOffset dx="0" dy="4" in="shadowInner" result="shadowInner"></feOffset>
            <feComposite in="shadowOffsetOuter1" in2="shadowInner" operator="out" result="shadowOffsetOuter1"></feComposite>
            <feGaussianBlur stdDeviation="2" in="shadowOffsetOuter1" result="shadowBlurOuter1"></feGaussianBlur>
            <feColorMatrix values="0 0 0 0 0   0 0 0 0 0   0 0 0 0 0  0 0 0 0.5 0" type="matrix" in="shadowBlurOuter1"></feColorMatrix>
        </filter>
        <path d="M34.6509213,0.00705739879 C34.3333361,0.0183072197 34.0214222,0.068931414 33.7321929,0.170179802 L2.07576076,11.6787466 C0.81676256,12.1399893 -0.0112272438,13.3324703 0.000115082275,14.6599492 L0.000115082275,51.2781163 C0.000115082275,59.8561048 4.8773153,66.9378671 11.2403602,72.9621462 C17.6034052,78.9864253 25.6110874,84.217592 32.972257,89.4093844 C34.0724626,90.1968719 35.5583074,90.1968719 36.658513,89.4093844 C44.0196826,84.217592 52.0216937,78.9864253 58.3847386,72.9621462 C64.7477835,66.9378671 69.6306549,59.8561048 69.6306549,51.2781163 L69.6306549,14.6599492 C69.6419972,13.3268454 68.8083363,12.1399893 67.5493381,11.6787466 L35.8985771,0.170179802 C35.5015957,0.0351819511 35.0762585,-0.0210671536 34.6509213,0.00705739879 Z" id="path-8"></path>
        <rect id="path-10" x="17.4076923" y="55.40625" width="96.5846154" height="22.5"></rect>
        <filter x="-6.2%" y="-26.7%" width="112.4%" height="153.3%" filterUnits="objectBoundingBox" id="filter-11">
            <feOffset dx="0" dy="0" in="SourceAlpha" result="shadowOffsetOuter1"></feOffset>
            <feGaussianBlur stdDeviation="2" in="shadowOffsetOuter1" result="shadowBlurOuter1"></feGaussianBlur>
            <feColorMatrix values="0 0 0 0 0   0 0 0 0 0   0 0 0 0 0  0 0 0 0.5 0" type="matrix" in="shadowBlurOuter1"></feColorMatrix>
        </filter>
    </defs>
    <g id="Final" stroke="none" stroke-width="1" fill="none" fill-rule="evenodd">
        <g id="Group-21-Copy" transform="translate(4.000000, 3.000000)">
            <g id="Rectangle-3-Copy-2">
                <use fill="black" fill-opacity="1" filter="url(#filter-2)" xlink:href="#path-1"></use>
                <use fill="#DA4A4A" fill-rule="evenodd" xlink:href="#path-1"></use>
            </g>
            <g id="Rectangle-3-Copy-4" transform="translate(110.342308, 56.250000) scale(-1, 1) translate(-110.342308, -56.250000) ">
                <use fill="black" fill-opacity="1" filter="url(#filter-4)" xlink:href="#path-3"></use>
                <use fill="#DA4A4A" fill-rule="evenodd" xlink:href="#path-3"></use>
            </g>
            <polygon id="Rectangle-3-Copy" fill="#BA3A3A" points="17.4076923 55.40625 39.8692308 44.15625 39.8692308 66.65625 17.4076923 77.90625"></polygon>
            <polygon id="Rectangle-3-Copy-3" fill="#BA3A3A" transform="translate(102.761538, 61.031250) scale(-1, 1) translate(-102.761538, -61.031250) " points="91.5307692 55.40625 113.992308 44.15625 113.992308 66.65625 91.5307692 77.90625"></polygon>
            <g id="Group-45" transform="translate(30.042308, 0.000000)">
                <mask id="mask-6" fill="white">
                    <use xlink:href="#path-5"></use>
                </mask>
                <g id="Mask">
                    <use fill="black" fill-opacity="1" filter="url(#filter-7)" xlink:href="#path-5"></use>
                    <use stroke="#FFFFFF" stroke-width="6" xlink:href="#path-5"></use>
                </g>
                <rect id="Rectangle-2-Copy-3" fill="#4990E2" mask="url(#mask-6)" x="-5.61538462" y="-5.625" width="80.8615385" height="101.25"></rect>
                <rect id="Rectangle-2" fill="#3D82C6" mask="url(#mask-6)" x="-5.61538462" y="-5.625" width="40.4307692" height="50.625"></rect>
                <rect id="Rectangle-2-Copy" fill="#3D82C6" mask="url(#mask-6)" x="34.8153846" y="45" width="40.4307692" height="50.625"></rect>
                <g id="Group-30" mask="url(#mask-6)">
                    <g id="Group-31">
                        <mask id="mask-9" fill="white">
                            <use xlink:href="#path-8"></use>
                        </mask>
                        <g id="Mask"></g>
                        <path d="M45.7671627,44.5991326 L45.2041156,20.201565 C45.2041156,19.1896844 44.528459,18.2902349 43.5149742,18.0653725 C42.1636612,17.8405101 40.9249576,18.8523908 40.9249576,20.0891338 C40.9249576,20.0891338 40.4745199,38.0781237 40.3619105,43.2499583 C40.3619105,44.0369766 39.6862539,44.5991326 39.0105974,44.5991326 C38.2223315,44.5991326 37.6592844,44.0369766 37.6592844,43.2499583 C37.5466749,38.0781237 37.0962372,20.0891338 37.0962372,20.0891338 C37.0962372,18.7399596 35.8575336,17.7280789 34.5062206,18.0653725 C33.4927358,18.2902349 32.8170793,19.1896844 32.8170793,20.201565 L32.2540322,43.2499583 C32.2540322,44.0369766 31.5783756,44.5991326 30.9027191,44.5991326 C30.9027191,44.5991326 30.9027191,44.5991326 30.9027191,44.5991326 C30.1144532,44.5991326 29.551406,44.0369766 29.551406,43.2499583 C29.4387966,38.0781237 28.9883589,20.0891338 28.9883589,20.0891338 C28.9883589,18.7399596 27.7496553,17.7280789 26.3983423,18.0653725 C25.3848575,18.2902349 24.709201,19.1896844 24.709201,20.201565 L24.1461538,44.5991326 L24.1461538,47.7472058 C24.1461538,51.0077102 25.2722481,54.1557835 27.2992176,56.0671136 L31.4657662,60.1146364 L27.4118271,117.117248 C27.0739988,121.277202 30.4522814,124.875 34.61883,124.875 L35.4070959,124.875 C39.5736445,124.875 42.9519271,121.389633 42.6140989,117.117248 L38.5601597,60.1146364 L42.7267083,56.0671136 C44.6410684,54.1557835 45.8797721,51.1201414 45.8797721,47.7472058 L45.7671627,44.5991326 Z" id="Shape" stroke="#4990E2" fill="#FFFFFF" fill-rule="nonzero" mask="url(#mask-9)"></path>
                    </g>
                </g>
            </g>
            <g id="Rectangle-3">
                <use fill="black" fill-opacity="1" filter="url(#filter-11)" xlink:href="#path-10"></use>
                <use fill="#DA4A4A" fill-rule="evenodd" xlink:href="#path-10"></use>
            </g>
            <path d="M26.1753179,62.8401475 L26.1753179,65.6632038 L29.4841919,65.6632038 L29.4841919,68.3490282 L26.194897,68.3490282 L26.194897,73.8775134 L23.0230769,73.8775134 L23.0230769,59.9974866 L29.7778789,59.9974866 L29.7778789,62.8401475 L26.1753179,62.8401475 Z M32.8797735,73.8775134 L32.8797735,59.9974866 L36.0320145,59.9974866 L36.0320145,73.8775134 L32.8797735,73.8775134 Z M45.6929197,73.8775134 L43.8329018,68.3490282 L42.9126824,68.3490282 L42.9126824,73.8775134 L39.8974954,73.8775134 L39.8974954,59.9974866 L44.3419593,59.9974866 C45.6864001,59.9974866 46.7306102,60.3470977 47.4746211,61.0463304 C48.218632,61.7455631 48.5906319,62.7878617 48.5906319,64.1732574 C48.5906319,64.6829784 48.5318951,65.1404135 48.4144197,65.5455764 C48.2969443,65.9507393 48.1435759,66.297083 47.95431,66.584618 C47.765044,66.8721529 47.5529389,67.1074053 47.317988,67.290382 C47.0830372,67.4733588 46.8546163,67.6040546 46.6327183,67.6824732 L49.0017938,73.8775134 L45.6929197,73.8775134 Z M45.4971284,64.3496984 C45.4971284,63.9968146 45.448181,63.709284 45.3502848,63.4870979 C45.2523887,63.2649118 45.1251256,63.0884725 44.9684917,62.9577748 C44.8118578,62.8270771 44.6389105,62.7388575 44.4496446,62.6931133 C44.2603786,62.6473691 44.0743787,62.6244973 43.8916392,62.6244973 L42.9126824,62.6244973 L42.9126824,66.1337131 L43.8329018,66.1337131 C44.2766978,66.1337131 44.6650134,65.9932152 44.9978604,65.7122151 C45.3307074,65.4312151 45.4971284,64.9770474 45.4971284,64.3496984 Z M57.6250048,63.3302614 C57.390054,63.0557962 57.1159488,62.8434156 56.8026811,62.6931133 C56.4894133,62.5428109 56.1630976,62.4676609 55.8237243,62.4676609 C55.471298,62.4676609 55.1547718,62.5787522 54.8741361,62.8009383 C54.5935005,63.0231244 54.4531847,63.3890725 54.4531847,63.8987936 C54.4531847,64.330096 54.5967636,64.6666375 54.8839257,64.9084283 C55.1710878,65.150219 55.5952982,65.4148779 56.1565696,65.7024129 C56.4698373,65.8592501 56.7994161,66.0454915 57.145316,66.2611428 C57.4912158,66.476794 57.807742,66.7414529 58.0949041,67.0551273 C58.3820662,67.3688018 58.6202766,67.7445521 58.8095425,68.1823894 C58.9988085,68.6202267 59.09344,69.1397423 59.09344,69.7409517 C59.09344,70.4859287 58.9759664,71.1426748 58.7410156,71.7112098 C58.5060647,72.2797448 58.1895385,72.7502495 57.7914274,73.1227379 C57.3933164,73.4952264 56.9332113,73.7762222 56.4110983,73.9657339 C55.8889854,74.1552456 55.3473014,74.25 54.78603,74.25 C53.9506494,74.25 53.1903338,74.0931651 52.5050606,73.7794906 C51.8197875,73.4658161 51.268314,73.099868 50.8506236,72.6816354 L52.4561128,70.3290885 C52.7563277,70.642763 53.1022223,70.8943523 53.493807,71.0838639 C53.8853917,71.2733756 54.2834968,71.36813 54.6881343,71.36813 C55.0666662,71.36813 55.3864556,71.2439691 55.647512,70.9956434 C55.9085685,70.7473178 56.0390947,70.4009741 56.0390947,69.9566019 C56.0390947,69.4991599 55.8824632,69.1364792 55.5691955,68.8685489 C55.2559277,68.6006186 54.7990858,68.3163554 54.1986559,68.0157507 C53.8201241,67.8327739 53.46444,67.6301955 53.131593,67.4080094 C52.798746,67.1858233 52.5050619,66.917897 52.2505319,66.6042225 C51.9960018,66.290548 51.7969493,65.9245999 51.6533682,65.5063673 C51.5097872,65.0881346 51.4379977,64.5914908 51.4379977,64.0164209 C51.4379977,63.2453045 51.5652608,62.5820236 51.8197909,62.0265583 C52.0743209,61.4710931 52.4071629,61.0169254 52.8183268,60.6640416 C53.2294907,60.3111578 53.6863327,60.0497663 54.1888664,59.8798592 C54.6914,59.7099522 55.1971893,59.625 55.7062494,59.625 C56.4633132,59.625 57.1420498,59.749161 57.7424796,59.9974866 C58.3429095,60.2458122 58.8454356,60.5856212 59.2500731,61.0169236 L57.6250048,63.3302614 Z M66.561482,62.6637064 L66.561482,73.8775134 L63.4875576,73.8775134 L63.4875576,62.6637064 L60.9422699,62.6637064 L60.9422699,59.9974866 L69.1067697,59.9974866 L69.1067697,62.6637064 L66.561482,62.6637064 Z M79.6962854,73.8775134 L79.6962854,63.6439343 L77.620897,65.2122989 L76.2307783,62.7813338 L80.0291307,59.9974866 L82.7702098,59.9974866 L82.7702098,73.8775134 L79.6962854,73.8775134 Z M96.6993668,66.9375 C96.6993668,67.7216862 96.6373668,68.5385346 96.513365,69.3880697 C96.3893632,70.2376048 96.1609422,71.0185119 95.8280952,71.7308143 C95.4952482,72.4431168 95.03188,73.0279803 94.4379765,73.4854223 C93.8440731,73.9428642 93.0772313,74.1715818 92.137428,74.1715818 C91.1976248,74.1715818 90.430783,73.9428642 89.8368795,73.4854223 C89.2429761,73.0279803 88.7796078,72.4431168 88.4467608,71.7308143 C88.1139139,71.0185119 87.888756,70.2376048 87.7712806,69.3880697 C87.6538052,68.5385346 87.5950684,67.7216862 87.5950684,66.9375 C87.5950684,66.1533138 87.6538052,65.3364654 87.7712806,64.4869303 C87.888756,63.6373952 88.1139139,62.8564881 88.4467608,62.1441857 C88.7796078,61.4318832 89.2429761,60.8470197 89.8368795,60.3895777 C90.430783,59.9321358 91.1976248,59.7034182 92.137428,59.7034182 C93.0772313,59.7034182 93.8440731,59.9321358 94.4379765,60.3895777 C95.03188,60.8470197 95.4952482,61.4318832 95.8280952,62.1441857 C96.1609422,62.8564881 96.3893632,63.6373952 96.513365,64.4869303 C96.6373668,65.3364654 96.6993668,66.1533138 96.6993668,66.9375 Z M93.566705,66.9375 C93.566705,66.480058 93.5503892,65.989949 93.5177571,65.4671582 C93.4851251,64.9443674 93.4165988,64.4607931 93.3121762,64.0164209 C93.2077536,63.5720487 93.0641747,63.2028332 92.8814352,62.9087634 C92.6986957,62.6146936 92.4506958,62.4676609 92.137428,62.4676609 C91.8241603,62.4676609 91.5761604,62.6146936 91.3934209,62.9087634 C91.2106813,63.2028332 91.0671024,63.5720487 90.9626799,64.0164209 C90.8582573,64.4607931 90.789731,64.9443674 90.7570989,65.4671582 C90.7244669,65.989949 90.7081511,66.480058 90.7081511,66.9375 C90.7081511,67.4080117 90.7244669,67.9046556 90.7570989,68.4274464 C90.789731,68.9502372 90.8582573,69.4305441 90.9626799,69.8683814 C91.0671024,70.3062187 91.2106813,70.6721668 91.3934209,70.9662366 C91.5761604,71.2603064 91.8241603,71.4073391 92.137428,71.4073391 C92.4506958,71.4073391 92.6986957,71.2603064 92.8814352,70.9662366 C93.0641747,70.6721668 93.2077536,70.3062187 93.3121762,69.8683814 C93.4165988,69.4305441 93.4851251,68.9502372 93.5177571,68.4274464 C93.5503892,67.9046556 93.566705,67.4080117 93.566705,66.9375 Z M108.376923,66.9375 C108.376923,67.7216862 108.314923,68.5385346 108.190921,69.3880697 C108.066919,70.2376048 107.838498,71.0185119 107.505652,71.7308143 C107.172805,72.4431168 106.709436,73.0279803 106.115533,73.4854223 C105.521629,73.9428642 104.754788,74.1715818 103.814984,74.1715818 C102.875181,74.1715818 102.108339,73.9428642 101.514436,73.4854223 C100.920532,73.0279803 100.457164,72.4431168 100.124317,71.7308143 C99.7914701,71.0185119 99.5663123,70.2376048 99.4488369,69.3880697 C99.3313615,68.5385346 99.2726247,67.7216862 99.2726247,66.9375 C99.2726247,66.1533138 99.3313615,65.3364654 99.4488369,64.4869303 C99.5663123,63.6373952 99.7914701,62.8564881 100.124317,62.1441857 C100.457164,61.4318832 100.920532,60.8470197 101.514436,60.3895777 C102.108339,59.9321358 102.875181,59.7034182 103.814984,59.7034182 C104.754788,59.7034182 105.521629,59.9321358 106.115533,60.3895777 C106.709436,60.8470197 107.172805,61.4318832 107.505652,62.1441857 C107.838498,62.8564881 108.066919,63.6373952 108.190921,64.4869303 C108.314923,65.3364654 108.376923,66.1533138 108.376923,66.9375 Z M105.244261,66.9375 C105.244261,66.480058 105.227945,65.989949 105.195313,65.4671582 C105.162681,64.9443674 105.094155,64.4607931 104.989732,64.0164209 C104.88531,63.5720487 104.741731,63.2028332 104.558992,62.9087634 C104.376252,62.6146936 104.128252,62.4676609 103.814984,62.4676609 C103.501717,62.4676609 103.253717,62.6146936 103.070977,62.9087634 C102.888238,63.2028332 102.744659,63.5720487 102.640236,64.0164209 C102.535814,64.4607931 102.467287,64.9443674 102.434655,65.4671582 C102.402023,65.989949 102.385707,66.480058 102.385707,66.9375 C102.385707,67.4080117 102.402023,67.9046556 102.434655,68.4274464 C102.467287,68.9502372 102.535814,69.4305441 102.640236,69.8683814 C102.744659,70.3062187 102.888238,70.6721668 103.070977,70.9662366 C103.253717,71.2603064 103.501717,71.4073391 103.814984,71.4073391 C104.128252,71.4073391 104.376252,71.2603064 104.558992,70.9662366 C104.741731,70.6721668 104.88531,70.3062187 104.989732,69.8683814 C105.094155,69.4305441 105.162681,68.9502372 105.195313,68.4274464 C105.227945,67.9046556 105.244261,67.4080117 105.244261,66.9375 Z" id="FIRST-100" fill="#FFFFFF"></path>
        </g>
    </g>
</svg>