<?xml version="1.0" encoding="UTF-8" standalone="no"?>
<svg width="301px" height="65px" viewBox="0 0 301 65" version="1.1" xmlns="http://www.w3.org/2000/svg" xmlns:xlink="http://www.w3.org/1999/xlink">
    <!-- Generator: Sketch 49.3 (51167) - http://www.bohemiancoding.com/sketch -->
    <title>Group 60 Copy</title>
    <desc>Created with Sketch.</desc>
    <defs>
        <circle id="path-1" cx="20.121308" cy="20.121308" r="20.121308"></circle>
        <filter x="-50.9%" y="-41.0%" width="201.9%" height="201.9%" filterUnits="objectBoundingBox" id="filter-2">
            <feMorphology radius="0.5" operator="dilate" in="SourceAlpha" result="shadowSpreadOuter1"></feMorphology>
            <feOffset dx="0" dy="4" in="shadowSpreadOuter1" result="shadowOffsetOuter1"></feOffset>
            <feGaussianBlur stdDeviation="6" in="shadowOffsetOuter1" result="shadowBlurOuter1"></feGaussianBlur>
            <feComposite in="shadowBlurOuter1" in2="SourceAlpha" operator="out" result="shadowBlurOuter1"></feComposite>
            <feColorMatrix values="0 0 0 0 0.819607843   0 0 0 0 0.819607843   0 0 0 0 0.819607843  0 0 0 0.154098732 0" type="matrix" in="shadowBlurOuter1"></feColorMatrix>
        </filter>
        <circle id="path-3" cx="20.121308" cy="20.121308" r="20.121308"></circle>
        <filter x="-50.9%" y="-41.0%" width="201.9%" height="201.9%" filterUnits="objectBoundingBox" id="filter-4">
            <feMorphology radius="0.5" operator="dilate" in="SourceAlpha" result="shadowSpreadOuter1"></feMorphology>
            <feOffset dx="0" dy="4" in="shadowSpreadOuter1" result="shadowOffsetOuter1"></feOffset>
            <feGaussianBlur stdDeviation="6" in="shadowOffsetOuter1" result="shadowBlurOuter1"></feGaussianBlur>
            <feComposite in="shadowBlurOuter1" in2="SourceAlpha" operator="out" result="shadowBlurOuter1"></feComposite>
            <feColorMatrix values="0 0 0 0 0.819607843   0 0 0 0 0.819607843   0 0 0 0 0.819607843  0 0 0 0.154098732 0" type="matrix" in="shadowBlurOuter1"></feColorMatrix>
        </filter>
        <circle id="path-5" cx="20.121308" cy="20.121308" r="20.121308"></circle>
        <filter x="-50.9%" y="-41.0%" width="201.9%" height="201.9%" filterUnits="objectBoundingBox" id="filter-6">
            <feMorphology radius="0.5" operator="dilate" in="SourceAlpha" result="shadowSpreadOuter1"></feMorphology>
            <feOffset dx="0" dy="4" in="shadowSpreadOuter1" result="shadowOffsetOuter1"></feOffset>
            <feGaussianBlur stdDeviation="6" in="shadowOffsetOuter1" result="shadowBlurOuter1"></feGaussianBlur>
            <feComposite in="shadowBlurOuter1" in2="SourceAlpha" operator="out" result="shadowBlurOuter1"></feComposite>
            <feColorMatrix values="0 0 0 0 0.819607843   0 0 0 0 0.819607843   0 0 0 0 0.819607843  0 0 0 0.154098732 0" type="matrix" in="shadowBlurOuter1"></feColorMatrix>
        </filter>
        <circle id="path-7" cx="20.121308" cy="20.121308" r="20.121308"></circle>
        <filter x="-50.9%" y="-41.0%" width="201.9%" height="201.9%" filterUnits="objectBoundingBox" id="filter-8">
            <feMorphology radius="0.5" operator="dilate" in="SourceAlpha" result="shadowSpreadOuter1"></feMorphology>
            <feOffset dx="0" dy="4" in="shadowSpreadOuter1" result="shadowOffsetOuter1"></feOffset>
            <feGaussianBlur stdDeviation="6" in="shadowOffsetOuter1" result="shadowBlurOuter1"></feGaussianBlur>
            <feComposite in="shadowBlurOuter1" in2="SourceAlpha" operator="out" result="shadowBlurOuter1"></feComposite>
            <feColorMatrix values="0 0 0 0 0.819607843   0 0 0 0 0.819607843   0 0 0 0 0.819607843  0 0 0 0.154098732 0" type="matrix" in="shadowBlurOuter1"></feColorMatrix>
        </filter>
    </defs>
    <g id="Final" stroke="none" stroke-width="1" fill="none" fill-rule="evenodd">
        <g id="Group-60-Copy" transform="translate(11.000000, 8.000000)">
            <g id="Group-7" transform="translate(0.804852, 0.000000)">
                <g id="Call">
                    <g id="Oval">
                        <use fill="black" fill-opacity="1" filter="url(#filter-2)" xlink:href="#path-1"></use>
                        <use fill="#FFFFFF" fill-rule="evenodd" xlink:href="#path-1"></use>
                        <circle stroke="#D1D1D1" stroke-width="0.5" cx="20.121308" cy="20.121308" r="20.371308"></circle>
                    </g>
                    <path d="M17.0431565,18.2140735 C16.8412953,18.4338006 16.8134524,18.6771942 16.9600918,18.9372935 C18.0072178,20.797433 19.4666511,22.2596506 21.2977875,23.2838062 C21.5650796,23.4332299 21.807081,23.4032988 22.0372492,23.1914605 L23.3737096,21.9635875 L25.5456899,24.1353357 L25.3867532,24.3040174 C25.1990454,24.5037904 25.0097135,24.7058836 24.8169013,24.9042645 C24.7264118,24.9970742 24.6326739,25.0870997 24.5389361,25.1768931 C24.4250121,25.2859446 24.3110881,25.394996 24.2029648,25.5096161 C23.9653718,25.7615946 23.6653643,25.8632212 23.2593216,25.8277215 C22.5217161,25.7643789 21.8632309,25.4829333 21.3165815,25.2158732 C20.1344173,24.6381325 19.0343897,23.8566744 17.9536202,22.8271822 C16.8916446,21.8153239 16.0157526,20.7101918 15.3510027,19.5424131 C15.0333613,18.9839304 14.6472728,18.237044 14.4799832,17.409413 C14.4389149,17.2061596 14.420817,16.9817921 14.4217451,16.6824806 C14.4222091,16.4662339 14.5136267,16.2639086 14.6934456,16.0817695 C15.0196719,15.7511348 15.344506,15.4191079 15.6691081,15.087081 L16.077007,14.6708293 L18.276134,16.8704204 L17.0431565,18.2140735 Z M26.7640499,23.7295251 C25.7869952,22.7510782 24.8085484,21.7733275 23.8298696,20.7955768 C23.7855529,20.7517242 23.7405402,20.7152963 23.6959915,20.6881495 C23.4709279,20.550327 23.2129168,20.5816503 23.0052549,20.7712142 C22.5242684,21.2095083 22.044906,21.6498905 21.5525503,22.1044263 C21.4414106,22.0290184 21.3293428,21.9554667 21.217043,21.8819149 C21.0402405,21.7659027 20.8632059,21.6498905 20.6910438,21.5271496 C19.703084,20.8241158 18.8682603,19.8969464 18.1403998,18.694132 L18.6093211,18.1813581 C18.884734,17.8808865 19.160611,17.580647 19.4348638,17.2787833 C19.7163094,16.9687987 19.7093486,16.6741277 19.4130535,16.3780646 L16.5424479,13.5076911 C16.5113566,13.4763678 16.4802654,13.4450445 16.4468538,13.4176656 C16.2830446,13.2816993 16.1006735,13.2450395 15.9324558,13.3141827 C15.8127312,13.364068 15.6897583,13.4489889 15.5860434,13.5536319 C15.3623719,13.7793916 15.1412527,14.0074716 14.9201334,14.2357836 C14.6055084,14.5603857 14.2804422,14.8958929 13.9537519,15.2179427 C13.47903,15.6859359 13.2593029,16.2490591 13.2822733,16.9404917 C13.297819,17.4163737 13.393181,17.9078014 13.5734639,18.4421535 C13.8609421,19.2964673 14.3085172,20.1526372 14.9414797,21.0607806 C15.8185318,22.3178887 16.9030138,23.4845073 18.1645303,24.528385 C19.161075,25.3532317 20.1251363,25.966008 21.111704,26.4022139 C21.9203089,26.7597634 22.615222,26.9372621 23.2987658,26.9606965 C23.3361217,26.9618567 23.3730136,26.9625527 23.4094414,26.9625527 C24.0173453,26.9625527 24.499724,26.784358 24.881172,26.4186876 C25.4415109,25.8827113 25.9951211,25.3393102 26.5487312,24.7959091 L26.7614976,24.5870872 C26.8916633,24.4590097 26.9612706,24.3116742 26.9619667,24.1608584 C26.9626627,24.0093465 26.8944476,23.8601548 26.7640499,23.7295251 L26.7640499,23.7295251 Z" id="Fill-1" fill="#48BA5A"></path>
                </g>
                <path d="M16.5340812,50.7910105 C16.445547,50.6552581 16.3127477,50.5416409 16.1356793,50.4501556 C15.9586109,50.3586703 15.7697408,50.3129283 15.5690633,50.3129283 C15.3506789,50.3129283 15.1573822,50.3542436 14.9891672,50.4368755 C14.8209522,50.5195074 14.6778241,50.6301735 14.5597785,50.7688771 C14.4417329,50.9075807 14.3517245,51.0684154 14.2897505,51.2513861 C14.2277766,51.4343568 14.1967901,51.626178 14.1967901,51.8268555 C14.1967901,52.027533 14.2277766,52.2193542 14.2897505,52.4023249 C14.3517245,52.5852956 14.4417329,52.7461303 14.5597785,52.8848339 C14.6778241,53.0235374 14.8224278,53.1342035 14.9935939,53.2168354 C15.16476,53.2994674 15.3595323,53.3407827 15.5779167,53.3407827 C15.7903987,53.3407827 15.9836955,53.2994674 16.1578128,53.2168354 C16.33193,53.1342035 16.4750582,53.0220619 16.5872015,52.8804072 L17.1449641,53.3850496 C16.9678957,53.5916294 16.7465636,53.7524641 16.480961,53.8675585 C16.2153584,53.982653 15.9143466,54.0401994 15.5779167,54.0401994 C15.2532913,54.0401994 14.9537551,53.9870796 14.6792991,53.8808386 C14.404843,53.7745976 14.1672798,53.6255672 13.9666023,53.4337431 C13.7659248,53.241919 13.6080412,53.010258 13.4929467,52.7387532 C13.3778523,52.4672483 13.3203059,52.1632854 13.3203059,51.8268555 C13.3203059,51.4963278 13.3763767,51.1953161 13.48852,50.9238112 C13.6006634,50.6523063 13.7570714,50.4191698 13.9577489,50.2243945 C14.1584265,50.0296193 14.3959897,49.8791134 14.6704457,49.7728724 C14.9449017,49.6666313 15.2414868,49.6135116 15.5602099,49.6135116 C15.8553239,49.6135116 16.1489579,49.6725335 16.4411208,49.7905791 C16.7332836,49.9086247 16.9649446,50.0797883 17.1361108,50.3040749 L16.5340812,50.7910105 Z M20.5800738,51.2071192 C20.5800738,50.8942984 20.4856388,50.6626374 20.2967658,50.5121292 C20.1078929,50.3616211 19.8570497,50.2863681 19.5442289,50.2863681 C19.3081377,50.2863681 19.08533,50.3321101 18.8757991,50.4235955 C18.6662681,50.5150808 18.4906779,50.6316491 18.3490232,50.7733038 L17.9063544,50.2421013 C18.1129342,50.047326 18.3652529,49.8938691 18.663318,49.7817257 C18.9613832,49.6695824 19.2815771,49.6135116 19.6239093,49.6135116 C19.9249256,49.6135116 20.1860975,49.6563025 20.407433,49.7418855 C20.6287685,49.8274686 20.8102609,49.9440369 20.9519156,50.0915939 C21.0935703,50.2391509 21.1998098,50.4132655 21.2706371,50.613943 C21.3414645,50.8146206 21.3768776,51.0300505 21.3768776,51.2602395 L21.3768776,53.0928882 C21.3768776,53.2345429 21.3813043,53.3835732 21.3901577,53.5399836 C21.3990111,53.6963941 21.4152421,53.8247667 21.4388513,53.9251055 L20.6863143,53.9251055 C20.6390961,53.724428 20.6154873,53.5237535 20.6154873,53.3230759 L20.5889272,53.3230759 C20.4354679,53.5473626 20.2421712,53.7214772 20.0090311,53.8454251 C19.7758911,53.969373 19.4999636,54.031346 19.1812405,54.031346 C19.0159767,54.031346 18.8433376,54.0092128 18.663318,53.9649457 C18.4832985,53.9206786 18.3195127,53.8483767 18.1719557,53.748038 C18.0243987,53.6476992 17.9019282,53.5148999 17.8045406,53.3496361 C17.707153,53.1843722 17.6584599,52.9807466 17.6584599,52.7387532 C17.6584599,52.4200301 17.7440417,52.1677114 17.9152078,51.9817896 C18.0863739,51.7958677 18.3106572,51.6542151 18.5880643,51.5568275 C18.8654715,51.4594399 19.1782876,51.3959914 19.5265222,51.36648 C19.8747567,51.3369686 20.225937,51.3222131 20.5800738,51.3222131 L20.5800738,51.2071192 Z M20.3764462,51.9242426 C20.1698664,51.9242426 19.955912,51.9330959 19.7345765,51.9508027 C19.513241,51.9685096 19.3125665,52.0039227 19.1325469,52.0570432 C18.9525274,52.1101638 18.8034971,52.1898434 18.6854515,52.2960844 C18.5674059,52.4023254 18.508384,52.543978 18.508384,52.7210464 C18.508384,52.8449943 18.5334683,52.9482826 18.5836377,53.0309146 C18.633807,53.1135465 18.7002067,53.1814217 18.7828386,53.2345422 C18.8654705,53.2876627 18.9569545,53.3245514 19.0572932,53.3452094 C19.157632,53.3658674 19.2609204,53.3761962 19.3671614,53.3761962 C19.7567119,53.3761962 20.0562481,53.2596279 20.265779,53.0264879 C20.4753099,52.7933478 20.5800738,52.4997138 20.5800738,52.145577 L20.5800738,51.9242426 L20.3764462,51.9242426 Z M23.6167816,53.9251055 L22.7845643,53.9251055 L22.7845643,47.2319536 L23.6167816,47.2319536 L23.6167816,53.9251055 Z M25.9186593,53.9251055 L25.086442,53.9251055 L25.086442,47.2319536 L25.9186593,47.2319536 L25.9186593,53.9251055 Z" id="call" fill="#33373D"></path>
            </g>
            <g id="Group-10" transform="translate(76.656118, 0.000000)">
                <g id="Group-15" transform="translate(0.207278, 0.000000)">
                    <g id="Oval">
                        <use fill="black" fill-opacity="1" filter="url(#filter-4)" xlink:href="#path-3"></use>
                        <use fill="#FFFFFF" fill-rule="evenodd" xlink:href="#path-3"></use>
                        <circle stroke="#D1D1D1" stroke-width="0.5" cx="20.121308" cy="20.121308" r="20.371308"></circle>
                    </g>
                    <path d="M26.86963,14.2226158 C26.0267296,13.3597334 24.910825,12.8881175 23.7198443,12.8881175 C22.5288636,12.8881175 21.4095464,13.3632268 20.566646,14.2261093 L20.1264268,14.6767645 L19.6793824,14.2191224 C18.836482,13.3562399 17.7137523,12.8776371 16.5227716,12.8776371 C15.3352034,12.8776371 14.2158863,13.3527465 13.3763985,14.2121355 C12.533498,15.0750179 12.0693909,16.2208698 12.0728035,17.4400843 C12.0728035,18.6592987 12.5403232,19.8016572 13.3832236,20.6645397 L19.7919967,27.2252409 C19.880723,27.3160706 20.0001623,27.3649789 20.1161891,27.3649789 C20.2322159,27.3649789 20.3516552,27.319564 20.4403816,27.2287343 L26.8628049,20.6785135 C27.7057053,19.815631 28.1698124,18.6697791 28.1698124,17.4505646 C28.173225,16.2313502 27.7125304,15.0854982 26.86963,14.2226158 Z M25.9013991,20.0120719 L20.1164527,25.91096 L14.3444552,20.00213 C13.7099563,19.3525895 13.3603345,18.4909542 13.3603345,17.5729811 C13.3603345,16.6550081 13.7067191,15.7933728 14.341218,15.1471463 C14.9724796,14.5009198 15.8141618,14.1430097 16.7076398,14.1430097 C17.6043551,14.1430097 18.4492745,14.5009198 19.0837734,15.1504603 L19.8153894,15.8994202 C19.9869631,16.0750612 20.2621285,16.0750612 20.4337021,15.8994202 L21.1588437,15.1570882 C21.7933426,14.5075477 22.638262,14.1496377 23.53174,14.1496377 C24.4252181,14.1496377 25.2669002,14.5075477 25.9013991,15.1537742 C26.535898,15.8033147 26.8822826,16.6649501 26.8822826,17.5829231 C26.8855198,18.5008961 26.535898,19.3625314 25.9013991,20.0120719 Z" id="Shape" fill="#ED3C4C" fill-rule="nonzero"></path>
                </g>
                <path d="M1.05921466,53.2611023 L1.05921466,53.9251055 L0.253557489,53.9251055 L0.253557489,47.2319536 L1.08577479,47.2319536 L1.08577479,50.3571951 L1.11233492,50.3571951 C1.25398963,50.1506154 1.45171304,49.9750252 1.70551108,49.8304193 C1.95930911,49.6858134 2.26032087,49.6135116 2.60855538,49.6135116 C2.92137621,49.6135116 3.20615694,49.6695824 3.46290612,49.7817257 C3.71965529,49.8938691 3.94098747,50.0502771 4.12690928,50.2509546 C4.3128311,50.4516322 4.45595924,50.6862443 4.556298,50.954798 C4.65663675,51.2233517 4.70680538,51.5110836 4.70680538,51.8180021 C4.70680538,52.1249207 4.65663675,52.414128 4.556298,52.6856329 C4.45595924,52.9571378 4.31430665,53.1932254 4.13133597,53.393903 C3.94836529,53.5945805 3.72703312,53.7524641 3.46733281,53.8675585 C3.20763249,53.982653 2.91547402,54.0401994 2.59084863,54.0401994 C2.28983236,54.0401994 2.00357608,53.9737997 1.7320712,53.8409984 C1.46056633,53.7081971 1.24218525,53.5149004 1.07692141,53.2611023 L1.05921466,53.2611023 Z M3.84802795,51.8180021 C3.84802795,51.6232269 3.818517,51.4343568 3.7594942,51.2513861 C3.7004714,51.0684154 3.61193853,50.9061051 3.49389293,50.7644504 C3.37584734,50.6227957 3.2297681,50.5106541 3.05565084,50.4280222 C2.88153359,50.3453902 2.67938353,50.3040749 2.44919462,50.3040749 C2.23671255,50.3040749 2.04341578,50.3453902 1.86929852,50.4280222 C1.69518127,50.5106541 1.54615094,50.6227957 1.42220306,50.7644504 C1.29825518,50.9061051 1.20234457,51.0684154 1.13446835,51.2513861 C1.06659214,51.4343568 1.03265454,51.626178 1.03265454,51.8268555 C1.03265454,52.027533 1.06659214,52.2193542 1.13446835,52.4023249 C1.20234457,52.5852956 1.29825518,52.7461303 1.42220306,52.8848339 C1.54615094,53.0235374 1.69518127,53.1342035 1.86929852,53.2168354 C2.04341578,53.2994674 2.23671255,53.3407827 2.44919462,53.3407827 C2.67938353,53.3407827 2.88153359,53.2979918 3.05565084,53.2124088 C3.2297681,53.1268257 3.37584734,53.0132085 3.49389293,52.8715538 C3.61193853,52.7298991 3.7004714,52.5675888 3.7594942,52.3846181 C3.818517,52.2016475 3.84802795,52.0127773 3.84802795,51.8180021 Z M10.1162178,51.8180021 C10.1162178,52.1426275 10.0586715,52.4406882 9.943577,52.712193 C9.82848255,52.9836979 9.66912338,53.21831 9.46549473,53.4160364 C9.26186607,53.6137628 9.02135177,53.7672197 8.74394462,53.8764119 C8.46653747,53.9856041 8.1684768,54.0401994 7.84975369,54.0401994 C7.53103058,54.0401994 7.23296992,53.9856041 6.95556276,53.8764119 C6.67815561,53.7672197 6.43911686,53.6137628 6.23843935,53.4160364 C6.03776183,53.21831 5.87987821,52.9836979 5.76478376,52.712193 C5.6496893,52.4406882 5.59214293,52.1426275 5.59214293,51.8180021 C5.59214293,51.4933767 5.6496893,51.1967916 5.76478376,50.9282379 C5.87987821,50.6596841 6.03776183,50.4280231 6.23843935,50.2332479 C6.43911686,50.0384727 6.67815561,49.8864912 6.95556276,49.7772991 C7.23296992,49.6681069 7.53103058,49.6135116 7.84975369,49.6135116 C8.1684768,49.6135116 8.46653747,49.6681069 8.74394462,49.7772991 C9.02135177,49.8864912 9.26186607,50.0384727 9.46549473,50.2332479 C9.66912338,50.4280231 9.82848255,50.6596841 9.943577,50.9282379 C10.0586715,51.1967916 10.1162178,51.4933767 10.1162178,51.8180021 Z M9.24858703,51.8180021 C9.24858703,51.6173246 9.21760052,51.4255034 9.15562658,51.2425327 C9.09365264,51.059562 9.00364423,50.8987273 8.88559863,50.7600237 C8.76755303,50.6213202 8.6214738,50.5106541 8.44735654,50.4280222 C8.27323928,50.3453902 8.07404033,50.3040749 7.84975369,50.3040749 C7.62546706,50.3040749 7.4262681,50.3453902 7.25215084,50.4280222 C7.07803359,50.5106541 6.93195435,50.6213202 6.81390876,50.7600237 C6.69586316,50.8987273 6.60585474,51.059562 6.5438808,51.2425327 C6.48190686,51.4255034 6.45092036,51.6173246 6.45092036,51.8180021 C6.45092036,52.0186796 6.48190686,52.2105008 6.5438808,52.3934715 C6.60585474,52.5764422 6.69586316,52.7387525 6.81390876,52.8804072 C6.93195435,53.0220619 7.07803359,53.1342035 7.25215084,53.2168354 C7.4262681,53.2994674 7.62546706,53.3407827 7.84975369,53.3407827 C8.07404033,53.3407827 8.27323928,53.2994674 8.44735654,53.2168354 C8.6214738,53.1342035 8.76755303,53.0220619 8.88559863,52.8804072 C9.00364423,52.7387525 9.09365264,52.5764422 9.15562658,52.3934715 C9.21760052,52.2105008 9.24858703,52.0186796 9.24858703,51.8180021 Z M15.5167769,51.8180021 C15.5167769,52.1426275 15.4592305,52.4406882 15.3441361,52.712193 C15.2290416,52.9836979 15.0696825,53.21831 14.8660538,53.4160364 C14.6624251,53.6137628 14.4219108,53.7672197 14.1445037,53.8764119 C13.8670965,53.9856041 13.5690359,54.0401994 13.2503128,54.0401994 C12.9315897,54.0401994 12.633529,53.9856041 12.3561218,53.8764119 C12.0787147,53.7672197 11.8396759,53.6137628 11.6389984,53.4160364 C11.4383209,53.21831 11.2804373,52.9836979 11.1653428,52.712193 C11.0502484,52.4406882 10.992702,52.1426275 10.992702,51.8180021 C10.992702,51.4933767 11.0502484,51.1967916 11.1653428,50.9282379 C11.2804373,50.6596841 11.4383209,50.4280231 11.6389984,50.2332479 C11.8396759,50.0384727 12.0787147,49.8864912 12.3561218,49.7772991 C12.633529,49.6681069 12.9315897,49.6135116 13.2503128,49.6135116 C13.5690359,49.6135116 13.8670965,49.6681069 14.1445037,49.7772991 C14.4219108,49.8864912 14.6624251,50.0384727 14.8660538,50.2332479 C15.0696825,50.4280231 15.2290416,50.6596841 15.3441361,50.9282379 C15.4592305,51.1967916 15.5167769,51.4933767 15.5167769,51.8180021 Z M14.6491461,51.8180021 C14.6491461,51.6173246 14.6181596,51.4255034 14.5561857,51.2425327 C14.4942117,51.059562 14.4042033,50.8987273 14.2861577,50.7600237 C14.1681121,50.6213202 14.0220329,50.5106541 13.8479156,50.4280222 C13.6737984,50.3453902 13.4745994,50.3040749 13.2503128,50.3040749 C13.0260261,50.3040749 12.8268272,50.3453902 12.6527099,50.4280222 C12.4785927,50.5106541 12.3325134,50.6213202 12.2144678,50.7600237 C12.0964222,50.8987273 12.0064138,51.059562 11.9444399,51.2425327 C11.8824659,51.4255034 11.8514794,51.6173246 11.8514794,51.8180021 C11.8514794,52.0186796 11.8824659,52.2105008 11.9444399,52.3934715 C12.0064138,52.5764422 12.0964222,52.7387525 12.2144678,52.8804072 C12.3325134,53.0220619 12.4785927,53.1342035 12.6527099,53.2168354 C12.8268272,53.2994674 13.0260261,53.3407827 13.2503128,53.3407827 C13.4745994,53.3407827 13.6737984,53.2994674 13.8479156,53.2168354 C14.0220329,53.1342035 14.1681121,53.0220619 14.2861577,52.8804072 C14.4042033,52.7387525 14.4942117,52.5764422 14.5561857,52.3934715 C14.6181596,52.2105008 14.6491461,52.0186796 14.6491461,51.8180021 Z M17.5176398,51.5524008 L17.5441999,51.5524008 L19.3060216,49.7286055 L20.4215469,49.7286055 L18.4560976,51.6320812 L20.5897611,53.9251055 L19.4388223,53.9251055 L17.5441999,51.7471751 L17.5176398,51.7471751 L17.5176398,53.9251055 L16.6854225,53.9251055 L16.6854225,47.2319536 L17.5176398,47.2319536 L17.5176398,51.5524008 Z M22.1479552,50.4191688 C22.2541962,50.1948821 22.4238842,50.0045365 22.6570243,49.8481261 C22.8901643,49.6917156 23.1660918,49.6135116 23.4848149,49.6135116 C23.7681243,49.6135116 24.0233941,49.6784357 24.2506319,49.8082859 C24.4778696,49.938136 24.6564109,50.153566 24.7862611,50.4545823 C24.9279158,50.1830774 25.1256392,49.9750252 25.3794372,49.8304193 C25.6332353,49.6858134 25.9106383,49.6135116 26.2116545,49.6135116 C26.4831594,49.6135116 26.716296,49.6592536 26.9110712,49.7507389 C27.1058464,49.8422243 27.2681567,49.9646947 27.3980069,50.118154 C27.527857,50.2716133 27.6237676,50.4516301 27.6857416,50.6582099 C27.7477155,50.8647897 27.778702,51.0861219 27.778702,51.3222131 L27.778702,53.9251055 L26.9464847,53.9251055 L26.9464847,51.5966677 C26.9464847,51.4255016 26.9317292,51.2631913 26.9022178,51.1097321 C26.8727064,50.9562728 26.8225378,50.8205224 26.7517104,50.7024768 C26.6808831,50.5844312 26.586448,50.4899961 26.4684024,50.4191688 C26.3503568,50.3483414 26.199851,50.3129283 26.0168803,50.3129283 C25.8280073,50.3129283 25.6656971,50.3527681 25.5299446,50.4324488 C25.3941922,50.5121296 25.2835261,50.615418 25.197943,50.742317 C25.11236,50.869216 25.050387,51.0123441 25.0120222,51.1717057 C24.9736573,51.3310673 24.9544752,51.4933775 24.9544752,51.6586414 L24.9544752,53.9251055 L24.1222579,53.9251055 L24.1222579,51.4284536 C24.1222579,51.2631898 24.1075024,51.1126839 24.077991,50.9769314 C24.0484796,50.841179 23.998311,50.7246107 23.9274836,50.6272231 C23.8566563,50.5298355 23.7651723,50.453107 23.653029,50.3970353 C23.5408857,50.3409637 23.4021842,50.3129283 23.2369204,50.3129283 C22.9300018,50.3129283 22.674732,50.4383498 22.4711034,50.6891967 C22.2674747,50.9400436 22.1656619,51.274993 22.1656619,51.6940549 L22.1656619,53.9251055 L21.3334446,53.9251055 L21.3334446,50.6316498 C21.3334446,50.5195065 21.3304935,50.3749028 21.3245912,50.1978344 C21.318689,50.020766 21.3098357,49.8643579 21.2980311,49.7286055 L22.0859815,49.7286055 C22.0977861,49.8348465 22.1066394,49.9543659 22.1125417,50.0871672 C22.1184439,50.2199685 22.121395,50.3306346 22.121395,50.4191688 L22.1479552,50.4191688 Z M31.7981345,51.2071192 C31.7981345,50.8942984 31.7036994,50.6626374 31.5148265,50.5121292 C31.3259535,50.3616211 31.0751104,50.2863681 30.7622896,50.2863681 C30.5261984,50.2863681 30.3033906,50.3321101 30.0938597,50.4235955 C29.8843288,50.5150808 29.7087386,50.6316491 29.5670839,50.7733038 L29.1244151,50.2421013 C29.3309949,50.047326 29.5833136,49.8938691 29.8813787,49.7817257 C30.1794438,49.6695824 30.4996377,49.6135116 30.8419699,49.6135116 C31.1429862,49.6135116 31.4041582,49.6563025 31.6254937,49.7418855 C31.8468292,49.8274686 32.0283215,49.9440369 32.1699763,50.0915939 C32.311631,50.2391509 32.4178704,50.4132655 32.4886978,50.613943 C32.5595251,50.8146206 32.5949383,51.0300505 32.5949383,51.2602395 L32.5949383,53.0928882 C32.5949383,53.2345429 32.5993649,53.3835732 32.6082184,53.5399836 C32.6170718,53.6963941 32.6333028,53.8247667 32.6569119,53.9251055 L31.904375,53.9251055 C31.8571568,53.724428 31.833548,53.5237535 31.833548,53.3230759 L31.8069879,53.3230759 C31.6535286,53.5473626 31.4602318,53.7214772 31.2270918,53.8454251 C30.9939517,53.969373 30.7180243,54.031346 30.3993012,54.031346 C30.2340373,54.031346 30.0613982,54.0092128 29.8813787,53.9649457 C29.7013592,53.9206786 29.5375733,53.8483767 29.3900164,53.748038 C29.2424594,53.6476992 29.1199889,53.5148999 29.0226013,53.3496361 C28.9252136,53.1843722 28.8765206,52.9807466 28.8765206,52.7387532 C28.8765206,52.4200301 28.9621023,52.1677114 29.1332685,51.9817896 C29.3044346,51.7958677 29.5287178,51.6542151 29.806125,51.5568275 C30.0835322,51.4594399 30.3963483,51.3959914 30.7445828,51.36648 C31.0928173,51.3369686 31.4439977,51.3222131 31.7981345,51.3222131 L31.7981345,51.2071192 Z M31.5945069,51.9242426 C31.3879271,51.9242426 31.1739726,51.9330959 30.9526371,51.9508027 C30.7313016,51.9685096 30.5306271,52.0039227 30.3506076,52.0570432 C30.1705881,52.1101638 30.0215577,52.1898434 29.9035121,52.2960844 C29.7854665,52.4023254 29.7264446,52.543978 29.7264446,52.7210464 C29.7264446,52.8449943 29.7515289,52.9482826 29.8016983,53.0309146 C29.8518677,53.1135465 29.9182673,53.1814217 30.0008993,53.2345422 C30.0835312,53.2876627 30.1750151,53.3245514 30.2753539,53.3452094 C30.3756927,53.3658674 30.478981,53.3761962 30.585222,53.3761962 C30.9747725,53.3761962 31.2743087,53.2596279 31.4838397,53.0264879 C31.6933706,52.7933478 31.7981345,52.4997138 31.7981345,52.145577 L31.7981345,51.9242426 L31.5945069,51.9242426 Z M33.9849182,50.6316498 C33.9849182,50.5195065 33.9819672,50.3749028 33.9760649,50.1978344 C33.9701626,50.020766 33.9613093,49.8643579 33.9495047,49.7286055 L34.7374552,49.7286055 C34.7492597,49.8348465 34.758113,49.957317 34.7640153,50.0960206 C34.7699176,50.2347241 34.7728687,50.3483413 34.7728687,50.4368755 L34.7994288,50.4368755 C34.9174744,50.1889798 35.0901135,49.9897808 35.3173513,49.8392727 C35.544589,49.6887645 35.7998588,49.6135116 36.0831682,49.6135116 C36.2130184,49.6135116 36.3222089,49.625316 36.4107431,49.6489251 L36.3753296,50.4191688 C36.257284,50.3896574 36.1303869,50.3749019 35.9946345,50.3749019 C35.793957,50.3749019 35.6198423,50.4117906 35.4722853,50.4855691 C35.3247283,50.5593476 35.2022579,50.6582093 35.1048703,50.7821572 C35.0074826,50.9061051 34.9351808,51.0492332 34.8879626,51.2115459 C34.8407443,51.3738586 34.8171355,51.5435466 34.8171355,51.720615 L34.8171355,53.9251055 L33.9849182,53.9251055 L33.9849182,50.6316498 Z M38.0397642,51.5524008 L38.0663244,51.5524008 L39.8281461,49.7286055 L40.9436714,49.7286055 L38.978222,51.6320812 L41.1118855,53.9251055 L39.9609467,53.9251055 L38.0663244,51.7471751 L38.0397642,51.7471751 L38.0397642,53.9251055 L37.2075469,53.9251055 L37.2075469,47.2319536 L38.0397642,47.2319536 L38.0397642,51.5524008 Z" id="bookmark" fill="#33373D"></path>
            </g>
            <g id="Group-13" transform="translate(157.751055, 0.000000)">
                <g id="Group-11" transform="translate(2.816983, 0.000000)">
                    <g id="Oval">
                        <use fill="black" fill-opacity="1" filter="url(#filter-6)" xlink:href="#path-5"></use>
                        <use fill="#FFFFFF" fill-rule="evenodd" xlink:href="#path-5"></use>
                        <circle stroke="#D1D1D1" stroke-width="0.5" cx="20.121308" cy="20.121308" r="20.371308"></circle>
                    </g>
                    <path d="M20.0972436,24.1499237 L23.7152869,26.0725859 C23.8227335,26.1304806 23.9112189,26.0869963 23.9544504,26.0564057 C23.9971762,26.0255622 24.065942,25.9560379 24.0457168,25.8344336 L23.3712049,21.7936828 L26.31777,18.9469798 C26.4065083,18.8615282 26.3926034,18.764447 26.3766761,18.7141367 C26.3604959,18.6640792 26.3154947,18.5768579 26.1938904,18.558908 L22.1422686,17.9511394 L20.3450029,14.2693867 C20.291406,14.1586535 20.1948304,14.1419677 20.141992,14.1417148 L20.1409807,14.1417148 C20.0878895,14.1417148 19.9920724,14.1584007 19.9374642,14.267617 L18.1083438,17.9331895 L14.05116,18.5042998 C13.9293029,18.5212385 13.8832905,18.6079542 13.8666046,18.6580117 C13.8501716,18.708322 13.8355083,18.8051503 13.9232353,18.8913604 L16.8445189,21.7641034 L16.1336016,25.7990394 C16.1123651,25.9203909 16.1806253,25.9906736 16.2230983,26.0217699 C16.2658241,26.0531191 16.3530455,26.0966033 16.4622618,26.0404783 L20.0972436,24.1499237 Z M23.8227335,27.3649789 C23.5838228,27.3649789 23.343648,27.3068313 23.1219288,27.1890193 L20.0909233,25.5778258 L17.0455073,27.1617152 C16.5386121,27.4261603 15.9366583,27.3791366 15.4755227,27.041375 C15.0143872,26.7031078 14.7896342,26.1431214 14.8887379,25.5795956 L15.4841185,22.1991989 L13.036864,19.7926478 C12.6293254,19.3916824 12.4869902,18.8051503 12.6662364,18.2621025 C12.8454827,17.7190547 13.3083879,17.332247 13.8749475,17.2526101 L17.2737997,16.7742831 L18.8066203,13.7030799 C19.0609527,13.1934037 19.571893,12.8776371 20.1407279,12.8776371 L20.1478068,12.8776371 C20.7196755,12.8804181 21.2303629,13.2009882 21.4814087,13.7149622 L22.9866725,16.7998174 L26.3812267,17.3084823 C26.9467751,17.3931755 27.4061409,17.7840283 27.5805837,18.3290986 C27.7547736,18.8736633 27.6076349,19.4586785 27.1960512,19.8561045 L24.7275603,22.2409135 L25.292603,25.6266192 C25.3866504,26.1903979 25.1570939,26.7483618 24.6929246,27.0825839 C24.4322717,27.2699203 24.1286403,27.3649789 23.8227335,27.3649789 L23.8227335,27.3649789 Z" id="Fill-1" fill="#DEB33B"></path>
                </g>
                <path d="M3.66449262,51.2071192 C3.66449262,50.8942984 3.57005755,50.6626374 3.3811846,50.5121292 C3.19231164,50.3616211 2.94146851,50.2863681 2.62864768,50.2863681 C2.39255648,50.2863681 2.16974876,50.3321101 1.96021783,50.4235955 C1.75068689,50.5150808 1.5750967,50.6316491 1.43344198,50.7733038 L0.990773207,50.2421013 C1.197353,50.047326 1.44967168,49.8938691 1.74773681,49.7817257 C2.04580195,49.6695824 2.36599583,49.6135116 2.70832806,49.6135116 C3.00934433,49.6135116 3.2705163,49.6563025 3.49185179,49.7418855 C3.71318729,49.8274686 3.89467967,49.9440369 4.03633439,50.0915939 C4.1779891,50.2391509 4.28422855,50.4132655 4.35505591,50.613943 C4.42588327,50.8146206 4.46129641,51.0300505 4.46129641,51.2602395 L4.46129641,53.0928882 C4.46129641,53.2345429 4.46572306,53.3835732 4.47457648,53.5399836 C4.4834299,53.6963941 4.49966092,53.8247667 4.52327004,53.9251055 L3.77073312,53.9251055 C3.72351488,53.724428 3.69990612,53.5237535 3.69990612,53.3230759 L3.67334599,53.3230759 C3.51988672,53.5473626 3.32658995,53.7214772 3.09344989,53.8454251 C2.86030984,53.969373 2.5843824,54.031346 2.26565928,54.031346 C2.10039545,54.031346 1.92775635,54.0092128 1.74773681,53.9649457 C1.56771728,53.9206786 1.40393147,53.8483767 1.25637447,53.748038 C1.10881748,53.6476992 0.986347006,53.5148999 0.888959388,53.3496361 C0.79157177,53.1843722 0.742878692,52.9807466 0.742878692,52.7387532 C0.742878692,52.4200301 0.828460466,52.1677114 0.999626582,51.9817896 C1.1707927,51.7958677 1.39507597,51.6542151 1.67248312,51.5568275 C1.94989028,51.4594399 2.26270642,51.3959914 2.61094093,51.36648 C2.95917544,51.3369686 3.31035582,51.3222131 3.66449262,51.3222131 L3.66449262,51.2071192 Z M3.46086498,51.9242426 C3.25428518,51.9242426 3.04033075,51.9330959 2.81899525,51.9508027 C2.59765976,51.9685096 2.39698525,52.0039227 2.21696572,52.0570432 C2.03694618,52.1101638 1.88791585,52.1898434 1.76987025,52.2960844 C1.65182466,52.4023254 1.59280274,52.543978 1.59280274,52.7210464 C1.59280274,52.8449943 1.61788706,52.9482826 1.66805643,53.0309146 C1.71822581,53.1135465 1.78462547,53.1814217 1.86725738,53.2345422 C1.9498893,53.2876627 2.04137327,53.3245514 2.14171203,53.3452094 C2.24205078,53.3658674 2.34533913,53.3761962 2.45158017,53.3761962 C2.84113064,53.3761962 3.14066685,53.2596279 3.35019778,53.0264879 C3.55972872,52.7933478 3.66449262,52.4997138 3.66449262,52.145577 L3.66449262,51.9242426 L3.46086498,51.9242426 Z M9.19785232,53.2611023 C9.03849076,53.5149004 8.82158523,53.7081971 8.54712922,53.8409984 C8.27267321,53.9737997 7.98494138,54.0401994 7.68392511,54.0401994 C7.35929971,54.0401994 7.06714124,53.982653 6.80744093,53.8675585 C6.54774061,53.7524641 6.32640844,53.5945805 6.14343776,53.393903 C5.96046709,53.1932254 5.8188145,52.9571378 5.71847574,52.6856329 C5.61813698,52.414128 5.56796835,52.1249207 5.56796835,51.8180021 C5.56796835,51.5110836 5.61813698,51.2233517 5.71847574,50.954798 C5.8188145,50.6862443 5.96194264,50.4516322 6.14786445,50.2509546 C6.33378627,50.0502771 6.55659399,49.8938691 6.8162943,49.7817257 C7.07599462,49.6695824 7.3622509,49.6135116 7.67507173,49.6135116 C8.01740396,49.6135116 8.31546462,49.6858134 8.56926266,49.8304193 C8.82306069,49.9750252 9.0237352,50.1506154 9.17129219,50.3571951 L9.18899895,50.3571951 L9.18899895,47.2319536 L10.0212162,47.2319536 L10.0212162,53.9251055 L9.21555907,53.9251055 L9.21555907,53.2611023 L9.19785232,53.2611023 Z M6.43559916,51.8180021 C6.43559916,52.0127773 6.46511011,52.2016475 6.52413291,52.3846181 C6.58315571,52.5675888 6.67168858,52.7298991 6.78973418,52.8715538 C6.90777977,53.0132085 7.05238346,53.1268257 7.22354958,53.2124088 C7.39471569,53.2979918 7.5953902,53.3407827 7.82557911,53.3407827 C8.03806119,53.3407827 8.23135796,53.2994674 8.40547521,53.2168354 C8.57959247,53.1342035 8.7286228,53.0235374 8.85257068,52.8848339 C8.97651855,52.7461303 9.07242916,52.5852956 9.14030538,52.4023249 C9.2081816,52.2193542 9.2421192,52.027533 9.2421192,51.8268555 C9.2421192,51.626178 9.2081816,51.4343568 9.14030538,51.2513861 C9.07242916,51.0684154 8.97651855,50.9061051 8.85257068,50.7644504 C8.7286228,50.6227957 8.57959247,50.5106541 8.40547521,50.4280222 C8.23135796,50.3453902 8.03806119,50.3040749 7.82557911,50.3040749 C7.5953902,50.3040749 7.39471569,50.3453902 7.22354958,50.4280222 C7.05238346,50.5106541 6.90777977,50.6227957 6.78973418,50.7644504 C6.67168858,50.9061051 6.58315571,51.0684154 6.52413291,51.2513861 C6.46511011,51.4343568 6.43559916,51.6232269 6.43559916,51.8180021 Z M14.8197458,53.2611023 C14.6603842,53.5149004 14.4434787,53.7081971 14.1690227,53.8409984 C13.8945667,53.9737997 13.6068348,54.0401994 13.3058186,54.0401994 C12.9811932,54.0401994 12.6890347,53.982653 12.4293344,53.8675585 C12.1696341,53.7524641 11.9483019,53.5945805 11.7653312,53.393903 C11.5823605,53.1932254 11.440708,52.9571378 11.3403692,52.6856329 C11.2400304,52.414128 11.1898618,52.1249207 11.1898618,51.8180021 C11.1898618,51.5110836 11.2400304,51.2233517 11.3403692,50.954798 C11.440708,50.6862443 11.5838361,50.4516322 11.7697579,50.2509546 C11.9556797,50.0502771 12.1784874,49.8938691 12.4381878,49.7817257 C12.6978881,49.6695824 12.9841444,49.6135116 13.2969652,49.6135116 C13.6392974,49.6135116 13.9373581,49.6858134 14.1911561,49.8304193 C14.4449542,49.9750252 14.6456287,50.1506154 14.7931857,50.3571951 L14.8108924,50.3571951 L14.8108924,47.2319536 L15.6431097,47.2319536 L15.6431097,53.9251055 L14.8374525,53.9251055 L14.8374525,53.2611023 L14.8197458,53.2611023 Z M12.0574926,51.8180021 C12.0574926,52.0127773 12.0870036,52.2016475 12.1460264,52.3846181 C12.2050492,52.5675888 12.293582,52.7298991 12.4116276,52.8715538 C12.5296732,53.0132085 12.6742769,53.1268257 12.845443,53.2124088 C13.0166092,53.2979918 13.2172837,53.3407827 13.4474726,53.3407827 C13.6599546,53.3407827 13.8532514,53.2994674 14.0273687,53.2168354 C14.2014859,53.1342035 14.3505163,53.0235374 14.4744641,52.8848339 C14.598412,52.7461303 14.6943226,52.5852956 14.7621988,52.4023249 C14.8300751,52.2193542 14.8640127,52.027533 14.8640127,51.8268555 C14.8640127,51.626178 14.8300751,51.4343568 14.7621988,51.2513861 C14.6943226,51.0684154 14.598412,50.9061051 14.4744641,50.7644504 C14.3505163,50.6227957 14.2014859,50.5106541 14.0273687,50.4280222 C13.8532514,50.3453902 13.6599546,50.3040749 13.4474726,50.3040749 C13.2172837,50.3040749 13.0166092,50.3453902 12.845443,50.4280222 C12.6742769,50.5106541 12.5296732,50.6227957 12.4116276,50.7644504 C12.293582,50.9061051 12.2050492,51.0684154 12.1460264,51.2513861 C12.0870036,51.4343568 12.0574926,51.6232269 12.0574926,51.8180021 Z M19.3084072,50.6316498 C19.3084072,50.5195065 19.3054561,50.3749028 19.2995538,50.1978344 C19.2936515,50.020766 19.2847982,49.8643579 19.2729937,49.7286055 L20.0609441,49.7286055 C20.0727487,49.8348465 20.0816019,49.957317 20.0875042,50.0960206 C20.0934065,50.2347241 20.0963576,50.3483413 20.0963576,50.4368755 L20.1229177,50.4368755 C20.2409633,50.1889798 20.4136024,49.9897808 20.6408402,49.8392727 C20.868078,49.6887645 21.1233477,49.6135116 21.4066572,49.6135116 C21.5365073,49.6135116 21.6456979,49.625316 21.7342321,49.6489251 L21.6988186,50.4191688 C21.580773,50.3896574 21.4538759,50.3749019 21.3181234,50.3749019 C21.1174459,50.3749019 20.9433313,50.4117906 20.7957743,50.4855691 C20.6482173,50.5593476 20.5257468,50.6582093 20.4283592,50.7821572 C20.3309716,50.9061051 20.2586697,51.0492332 20.2114515,51.2115459 C20.1642332,51.3738586 20.1406245,51.5435466 20.1406245,51.720615 L20.1406245,53.9251055 L19.3084072,53.9251055 L19.3084072,50.6316498 Z M25.5854504,51.4550137 C25.5795481,51.2897499 25.5515127,51.1348174 25.5013434,50.9902115 C25.451174,50.8456056 25.3773966,50.7201841 25.280009,50.613943 C25.1826213,50.507702 25.0616264,50.4235958 24.9170206,50.3616218 C24.7724147,50.2996479 24.6027267,50.2686614 24.4079515,50.2686614 C24.2308831,50.2686614 24.0641462,50.2996479 23.9077358,50.3616218 C23.7513253,50.4235958 23.6155749,50.507702 23.5004805,50.613943 C23.385386,50.7201841 23.290951,50.8456056 23.2171725,50.9902115 C23.143394,51.1348174 23.1006031,51.2897499 23.0887985,51.4550137 L25.5854504,51.4550137 Z M26.4265211,51.791442 L26.4265211,51.933096 C26.4265211,51.9803142 26.42357,52.0275318 26.4176677,52.07475 L23.0887985,52.07475 C23.0947008,52.2518184 23.1345406,52.4185553 23.2083191,52.5749657 C23.2820976,52.7313761 23.3809593,52.8671265 23.5049072,52.982221 C23.6288551,53.0973154 23.7719832,53.1873239 23.9342959,53.2522489 C24.0966086,53.317174 24.2692477,53.3496361 24.4522184,53.3496361 C24.7355278,53.3496361 24.9804687,53.2876631 25.1870485,53.1637152 C25.3936283,53.0397673 25.5559386,52.8892614 25.6739842,52.712193 L26.258307,53.1814219 C26.0340203,53.4765359 25.7698973,53.6934415 25.4659299,53.832145 C25.1619624,53.9708486 24.824062,54.0401994 24.4522184,54.0401994 C24.1334952,54.0401994 23.8383857,53.9870796 23.5668808,53.8808386 C23.2953759,53.7745976 23.0622394,53.6255672 22.8674641,53.4337431 C22.6726889,53.241919 22.5192319,53.010258 22.4070886,52.7387532 C22.2949453,52.4672483 22.2388745,52.1662365 22.2388745,51.8357089 C22.2388745,51.5110835 22.2934697,51.2115473 22.4026619,50.9370912 C22.5118541,50.6626352 22.6638355,50.4280231 22.8586108,50.2332479 C23.053386,50.0384727 23.2835715,49.8864912 23.5491741,49.7772991 C23.8147766,49.6681069 24.1010329,49.6135116 24.4079515,49.6135116 C24.71487,49.6135116 24.9937486,49.6636802 25.2445955,49.764019 C25.4954424,49.8643577 25.7079212,50.0089614 25.8820385,50.1978344 C26.0561558,50.3867073 26.1904306,50.6154173 26.2848671,50.883971 C26.3793036,51.1525247 26.4265211,51.455012 26.4265211,51.791442 Z M29.560616,53.9251055 L28.6575717,53.9251055 L26.9488703,49.7286055 L27.8696213,49.7286055 L29.1002405,53.0309146 L29.1179473,53.0309146 L30.3574198,49.7286055 L31.2427574,49.7286055 L29.560616,53.9251055 Z M32.8894852,53.9251055 L32.0572679,53.9251055 L32.0572679,49.7286055 L32.8894852,49.7286055 L32.8894852,53.9251055 Z M33.0311392,48.2146783 C33.0311392,48.3681375 32.976544,48.4950347 32.8673518,48.5953734 C32.7581596,48.6957122 32.6268359,48.7458808 32.4733766,48.7458808 C32.3199173,48.7458808 32.1900691,48.6942366 32.0838281,48.5909467 C31.977587,48.4876568 31.9244673,48.3622353 31.9244673,48.2146783 C31.9244673,48.061219 31.977587,47.9328463 32.0838281,47.8295564 C32.1900691,47.7262665 32.3199173,47.6746224 32.4733766,47.6746224 C32.6268359,47.6746224 32.7581596,47.7262665 32.8673518,47.8295564 C32.976544,47.9328463 33.0311392,48.061219 33.0311392,48.2146783 Z M37.4135601,51.4550137 C37.4076578,51.2897499 37.3796224,51.1348174 37.3294531,50.9902115 C37.2792837,50.8456056 37.2055063,50.7201841 37.1081187,50.613943 C37.0107311,50.507702 36.8897361,50.4235958 36.7451303,50.3616218 C36.6005244,50.2996479 36.4308364,50.2686614 36.2360612,50.2686614 C36.0589928,50.2686614 35.8922559,50.2996479 35.7358455,50.3616218 C35.579435,50.4235958 35.4436846,50.507702 35.3285902,50.613943 C35.2134957,50.7201841 35.1190607,50.8456056 35.0452822,50.9902115 C34.9715037,51.1348174 34.9287128,51.2897499 34.9169082,51.4550137 L37.4135601,51.4550137 Z M38.2546308,51.791442 L38.2546308,51.933096 C38.2546308,51.9803142 38.2516797,52.0275318 38.2457774,52.07475 L34.9169082,52.07475 C34.9228105,52.2518184 34.9626503,52.4185553 35.0364288,52.5749657 C35.1102073,52.7313761 35.209069,52.8671265 35.3330169,52.982221 C35.4569648,53.0973154 35.6000929,53.1873239 35.7624056,53.2522489 C35.9247183,53.317174 36.0973574,53.3496361 36.2803281,53.3496361 C36.5636375,53.3496361 36.8085784,53.2876631 37.0151582,53.1637152 C37.221738,53.0397673 37.3840483,52.8892614 37.5020939,52.712193 L38.0864167,53.1814219 C37.86213,53.4765359 37.598007,53.6934415 37.2940396,53.832145 C36.9900721,53.9708486 36.6521717,54.0401994 36.2803281,54.0401994 C35.9616049,54.0401994 35.6664954,53.9870796 35.3949905,53.8808386 C35.1234856,53.7745976 34.8903491,53.6255672 34.6955738,53.4337431 C34.5007986,53.241919 34.3473416,53.010258 34.2351983,52.7387532 C34.123055,52.4672483 34.0669842,52.1662365 34.0669842,51.8357089 C34.0669842,51.5110835 34.1215794,51.2115473 34.2307716,50.9370912 C34.3399638,50.6626352 34.4919452,50.4280231 34.6867205,50.2332479 C34.8814957,50.0384727 35.1116812,49.8864912 35.3772838,49.7772991 C35.6428863,49.6681069 35.9291426,49.6135116 36.2360612,49.6135116 C36.5429797,49.6135116 36.8218583,49.6636802 37.0727052,49.764019 C37.3235521,49.8643577 37.536031,50.0089614 37.7101482,50.1978344 C37.8842655,50.3867073 38.0185403,50.6154173 38.1129768,50.883971 C38.2074133,51.1525247 38.2546308,51.455012 38.2546308,51.791442 Z M39.7242911,49.7286055 L40.6716023,52.9335274 L40.6893091,52.9335274 L41.6897405,49.7286055 L42.5662247,49.7286055 L43.5843629,52.9335274 L43.6020696,52.9335274 L44.5493808,49.7286055 L45.425865,49.7286055 L44.035885,53.9251055 L43.1682542,53.9251055 L42.1324093,50.7733038 L42.1147025,50.7733038 L41.087711,53.9251055 L40.2200802,53.9251055 L38.8212468,49.7286055 L39.7242911,49.7286055 Z" id="add-review" fill="#33373D"></path>
            </g>
            <g id="Group-5" transform="translate(236.407173, 0.000000)">
                <g id="Group-6" transform="translate(1.225475, 0.000000)">
                    <g id="Oval">
                        <use fill="black" fill-opacity="1" filter="url(#filter-8)" xlink:href="#path-7"></use>
                        <use fill="#FFFFFF" fill-rule="evenodd" xlink:href="#path-7"></use>
                        <circle stroke="#D1D1D1" stroke-width="0.5" cx="20.121308" cy="20.121308" r="20.371308"></circle>
                    </g>
                    <g id="Group-42" transform="translate(12.072785, 12.072785)" fill="#4990E2">
                        <path d="M2.92304875,2.16276898 C2.32802043,2.16276898 1.84387377,2.8348212 1.84387377,3.6607512 L1.84387377,13.1854275 C1.84387377,14.0109996 2.32802043,14.682694 2.92304875,14.682694 L13.6157186,14.682694 C14.2104724,14.682694 14.6946191,14.0109996 14.6946191,13.1854275 L14.6946191,3.6607512 C14.6946191,2.8348212 14.2104724,2.16276898 13.6157186,2.16276898 L2.92304875,2.16276898 Z M13.6157186,15.9932373 L2.92304875,15.9932373 C1.57133543,15.9932373 0.471575997,14.6009064 0.471575997,12.889556 L0.471575997,3.89482831 C0.471575997,2.18314001 1.57133543,0.790471203 2.92304875,0.790471203 L13.6157186,0.790471203 C14.9674319,0.790471203 16.0669169,2.18314001 16.0669169,3.89482831 L16.0669169,12.889556 C16.0669169,14.6009064 14.9674319,15.9932373 13.6157186,15.9932373 L13.6157186,15.9932373 Z M8.45058185,12.4837903 C6.28689175,12.4837903 4.52666855,10.7362248 4.52666855,8.58835698 C4.52666855,6.44009356 6.28689175,4.69252814 8.45058185,4.69252814 C10.6142719,4.69252814 12.3744952,6.44009356 12.3744952,8.58835698 C12.3744952,10.7362248 10.6142719,12.4837903 8.45058185,12.4837903 M8.45058185,6.26692396 C7.15172422,6.26692396 6.09511575,7.30821233 6.09511575,8.58839858 C6.09511575,9.86810608 7.15172422,10.9093944 8.45058185,10.9093944 C9.74943948,10.9093944 10.806048,9.86810608 10.806048,8.58839858 C10.806048,7.30821233 9.74943948,6.26692396 8.45058185,6.26692396" id="Combined-Shape"></path>
                        <path d="M12.3674404,5.36568214 C11.8743242,5.36568214 11.4731601,4.96740284 11.4731601,4.47789253 C11.4731601,3.98829206 11.8743242,3.59001277 12.3674404,3.59001277 C12.8605567,3.59001277 13.2617208,3.98829206 13.2617208,4.47789253 C13.2617208,4.96740284 12.8605567,5.36568214 12.3674404,5.36568214" id="Fill-4"></path>
                    </g>
                </g>
                <path d="M3.29917669,51.2071192 C3.29917669,50.8942984 3.20474163,50.6626374 3.01586867,50.5121292 C2.82699572,50.3616211 2.57615258,50.2863681 2.26333175,50.2863681 C2.02724056,50.2863681 1.80443283,50.3321101 1.5949019,50.4235955 C1.38537096,50.5150808 1.20978077,50.6316491 1.06812605,50.7733038 L0.625457278,50.2421013 C0.832037074,50.047326 1.08435575,49.8938691 1.38242089,49.7817257 C1.68048602,49.6695824 2.0006799,49.6135116 2.34301213,49.6135116 C2.6440284,49.6135116 2.90520037,49.6563025 3.12653586,49.7418855 C3.34787136,49.8274686 3.52936374,49.9440369 3.67101846,50.0915939 C3.81267318,50.2391509 3.91891262,50.4132655 3.98973998,50.613943 C4.06056734,50.8146206 4.09598049,51.0300505 4.09598049,51.2602395 L4.09598049,53.0928882 C4.09598049,53.2345429 4.10040713,53.3835732 4.10926055,53.5399836 C4.11811397,53.6963941 4.13434499,53.8247667 4.15795411,53.9251055 L3.40541719,53.9251055 C3.35819896,53.724428 3.33459019,53.5237535 3.33459019,53.3230759 L3.30803006,53.3230759 C3.15457079,53.5473626 2.96127402,53.7214772 2.72813397,53.8454251 C2.49499391,53.969373 2.21906647,54.031346 1.90034335,54.031346 C1.73507952,54.031346 1.56244042,54.0092128 1.38242089,53.9649457 C1.20240135,53.9206786 1.03861554,53.8483767 0.891058544,53.748038 C0.743501548,53.6476992 0.621031078,53.5148999 0.52364346,53.3496361 C0.426255842,53.1843722 0.377562764,52.9807466 0.377562764,52.7387532 C0.377562764,52.4200301 0.463144538,52.1677114 0.634310654,51.9817896 C0.80547677,51.7958677 1.02976004,51.6542151 1.30716719,51.5568275 C1.58457435,51.4594399 1.89739049,51.3959914 2.245625,51.36648 C2.59385951,51.3369686 2.9450399,51.3222131 3.29917669,51.3222131 L3.29917669,51.2071192 Z M3.09554905,51.9242426 C2.88896926,51.9242426 2.67501482,51.9330959 2.45367932,51.9508027 C2.23234383,51.9685096 2.03166932,52.0039227 1.85164979,52.0570432 C1.67163025,52.1101638 1.52259992,52.1898434 1.40455432,52.2960844 C1.28650873,52.4023254 1.22748681,52.543978 1.22748681,52.7210464 C1.22748681,52.8449943 1.25257113,52.9482826 1.30274051,53.0309146 C1.35290989,53.1135465 1.41930954,53.1814217 1.50194146,53.2345422 C1.58457337,53.2876627 1.67605734,53.3245514 1.7763961,53.3452094 C1.87673485,53.3658674 1.9800232,53.3761962 2.08626424,53.3761962 C2.47581471,53.3761962 2.77535092,53.2596279 2.98488186,53.0264879 C3.19441279,52.7933478 3.29917669,52.4997138 3.29917669,52.145577 L3.29917669,51.9242426 L3.09554905,51.9242426 Z M8.83253639,53.2611023 C8.67317484,53.5149004 8.4562693,53.7081971 8.18181329,53.8409984 C7.90735728,53.9737997 7.61962545,54.0401994 7.31860918,54.0401994 C6.99398378,54.0401994 6.70182531,53.982653 6.442125,53.8675585 C6.18242469,53.7524641 5.96109251,53.5945805 5.77812184,53.393903 C5.59515116,53.1932254 5.45349857,52.9571378 5.35315981,52.6856329 C5.25282105,52.414128 5.20265243,52.1249207 5.20265243,51.8180021 C5.20265243,51.5110836 5.25282105,51.2233517 5.35315981,50.954798 C5.45349857,50.6862443 5.59662671,50.4516322 5.78254852,50.2509546 C5.96847034,50.0502771 6.19127806,49.8938691 6.45097838,49.7817257 C6.71067869,49.6695824 6.99693497,49.6135116 7.3097558,49.6135116 C7.65208803,49.6135116 7.9501487,49.6858134 8.20394673,49.8304193 C8.45774476,49.9750252 8.65841927,50.1506154 8.80597627,50.3571951 L8.82368302,50.3571951 L8.82368302,47.2319536 L9.65590032,47.2319536 L9.65590032,53.9251055 L8.85024314,53.9251055 L8.85024314,53.2611023 L8.83253639,53.2611023 Z M6.07028323,51.8180021 C6.07028323,52.0127773 6.09979418,52.2016475 6.15881698,52.3846181 C6.21783978,52.5675888 6.30637265,52.7298991 6.42441825,52.8715538 C6.54246385,53.0132085 6.68706753,53.1268257 6.85823365,53.2124088 C7.02939977,53.2979918 7.23007427,53.3407827 7.46026319,53.3407827 C7.67274526,53.3407827 7.86604203,53.2994674 8.04015928,53.2168354 C8.21427654,53.1342035 8.36330687,53.0235374 8.48725475,52.8848339 C8.61120262,52.7461303 8.70711323,52.5852956 8.77498945,52.4023249 C8.84286567,52.2193542 8.87680327,52.027533 8.87680327,51.8268555 C8.87680327,51.626178 8.84286567,51.4343568 8.77498945,51.2513861 C8.70711323,51.0684154 8.61120262,50.9061051 8.48725475,50.7644504 C8.36330687,50.6227957 8.21427654,50.5106541 8.04015928,50.4280222 C7.86604203,50.3453902 7.67274526,50.3040749 7.46026319,50.3040749 C7.23007427,50.3040749 7.02939977,50.3453902 6.85823365,50.4280222 C6.68706753,50.5106541 6.54246385,50.6227957 6.42441825,50.7644504 C6.30637265,50.9061051 6.21783978,51.0684154 6.15881698,51.2513861 C6.09979418,51.4343568 6.07028323,51.6232269 6.07028323,51.8180021 Z M14.4544299,53.2611023 C14.2950683,53.5149004 14.0781628,53.7081971 13.8037068,53.8409984 C13.5292507,53.9737997 13.2415189,54.0401994 12.9405026,54.0401994 C12.6158772,54.0401994 12.3237188,53.982653 12.0640185,53.8675585 C11.8043181,53.7524641 11.582986,53.5945805 11.4000153,53.393903 C11.2170446,53.1932254 11.075392,52.9571378 10.9750533,52.6856329 C10.8747145,52.414128 10.8245459,52.1249207 10.8245459,51.8180021 C10.8245459,51.5110836 10.8747145,51.2233517 10.9750533,50.954798 C11.075392,50.6862443 11.2185202,50.4516322 11.404442,50.2509546 C11.5903638,50.0502771 11.8131715,49.8938691 12.0728718,49.7817257 C12.3325721,49.6695824 12.6188284,49.6135116 12.9316493,49.6135116 C13.2739815,49.6135116 13.5720422,49.6858134 13.8258402,49.8304193 C14.0796382,49.9750252 14.2803127,50.1506154 14.4278697,50.3571951 L14.4455765,50.3571951 L14.4455765,47.2319536 L15.2777938,47.2319536 L15.2777938,53.9251055 L14.4721366,53.9251055 L14.4721366,53.2611023 L14.4544299,53.2611023 Z M11.6921767,51.8180021 C11.6921767,52.0127773 11.7216876,52.2016475 11.7807104,52.3846181 C11.8397332,52.5675888 11.9282661,52.7298991 12.0463117,52.8715538 C12.1643573,53.0132085 12.308961,53.1268257 12.4801271,53.2124088 C12.6512932,53.2979918 12.8519677,53.3407827 13.0821566,53.3407827 C13.2946387,53.3407827 13.4879355,53.2994674 13.6620527,53.2168354 C13.83617,53.1342035 13.9852003,53.0235374 14.1091482,52.8848339 C14.2330961,52.7461303 14.3290067,52.5852956 14.3968829,52.4023249 C14.4647591,52.2193542 14.4986967,52.027533 14.4986967,51.8268555 C14.4986967,51.626178 14.4647591,51.4343568 14.3968829,51.2513861 C14.3290067,51.0684154 14.2330961,50.9061051 14.1091482,50.7644504 C13.9852003,50.6227957 13.83617,50.5106541 13.6620527,50.4280222 C13.4879355,50.3453902 13.2946387,50.3040749 13.0821566,50.3040749 C12.8519677,50.3040749 12.6512932,50.3453902 12.4801271,50.4280222 C12.308961,50.5106541 12.1643573,50.6227957 12.0463117,50.7644504 C11.9282661,50.9061051 11.8397332,51.0684154 11.7807104,51.2513861 C11.7216876,51.4343568 11.6921767,51.6232269 11.6921767,51.8180021 Z M19.7753085,56.0499156 L18.9430912,56.0499156 L18.9430912,49.7286055 L19.7576018,49.7286055 L19.7576018,50.3837553 L19.7841619,50.3837553 C19.9199144,50.1594686 20.1191133,49.9750252 20.3817648,49.8304193 C20.6444162,49.6858134 20.9498546,49.6135116 21.2980891,49.6135116 C21.61091,49.6135116 21.8956907,49.6695824 22.1524399,49.7817257 C22.409189,49.8938691 22.6305212,50.0502771 22.816443,50.2509546 C23.0023649,50.4516322 23.145493,50.6862443 23.2458318,50.954798 C23.3461705,51.2233517 23.3963391,51.5110836 23.3963391,51.8180021 C23.3963391,52.1249207 23.3461705,52.414128 23.2458318,52.6856329 C23.145493,52.9571378 23.0038404,53.1932254 22.8208697,53.393903 C22.637899,53.5945805 22.4165669,53.7524641 22.1568666,53.8675585 C21.8971662,53.982653 21.6050078,54.0401994 21.2803824,54.0401994 C20.9793661,54.0401994 20.6960609,53.9752753 20.4304583,53.8454251 C20.1648557,53.7155749 19.9553279,53.532607 19.8018687,53.2965158 L19.7753085,53.2965158 L19.7753085,56.0499156 Z M22.5375617,51.8180021 C22.5375617,51.6232269 22.5080508,51.4343568 22.449028,51.2513861 C22.3900052,51.0684154 22.3014723,50.9061051 22.1834267,50.7644504 C22.0653811,50.6227957 21.9193019,50.5106541 21.7451846,50.4280222 C21.5710673,50.3453902 21.3689173,50.3040749 21.1387284,50.3040749 C20.9262463,50.3040749 20.7329495,50.3453902 20.5588323,50.4280222 C20.384715,50.5106541 20.2356847,50.6227957 20.1117368,50.7644504 C19.9877889,50.9061051 19.8918783,51.0684154 19.8240021,51.2513861 C19.7561259,51.4343568 19.7221883,51.626178 19.7221883,51.8268555 C19.7221883,52.027533 19.7561259,52.2193542 19.8240021,52.4023249 C19.8918783,52.5852956 19.9877889,52.7461303 20.1117368,52.8848339 C20.2356847,53.0235374 20.384715,53.1342035 20.5588323,53.2168354 C20.7329495,53.2994674 20.9262463,53.3407827 21.1387284,53.3407827 C21.3689173,53.3407827 21.5710673,53.2979918 21.7451846,53.2124088 C21.9193019,53.1268257 22.0653811,53.0132085 22.1834267,52.8715538 C22.3014723,52.7298991 22.3900052,52.5675888 22.449028,52.3846181 C22.5080508,52.2016475 22.5375617,52.0127773 22.5375617,51.8180021 Z M25.4237621,50.3660485 C25.5241009,50.1594687 25.6952644,49.982403 25.9372579,49.834846 C26.1792514,49.687289 26.4507522,49.6135116 26.7517685,49.6135116 C27.0232733,49.6135116 27.2564099,49.6592536 27.4511851,49.7507389 C27.6459604,49.8422243 27.8082706,49.9646947 27.9381208,50.118154 C28.0679709,50.2716133 28.1638815,50.4516301 28.2258555,50.6582099 C28.2878294,50.8647897 28.3188159,51.0861219 28.3188159,51.3222131 L28.3188159,53.9251055 L27.4865986,53.9251055 L27.4865986,51.6055211 C27.4865986,51.434355 27.4733187,51.2720447 27.4467584,51.1185854 C27.4201982,50.9651262 27.3715051,50.8293758 27.3006777,50.7113302 C27.2298504,50.5932846 27.1339398,50.4988495 27.012943,50.4280222 C26.8919463,50.3571948 26.7340627,50.3217816 26.5392874,50.3217816 C26.2087598,50.3217816 25.937259,50.4472032 25.7247769,50.6980501 C25.5122948,50.948897 25.4060554,51.2838464 25.4060554,51.7029082 L25.4060554,53.9251055 L24.5738381,53.9251055 L24.5738381,47.2319536 L25.4060554,47.2319536 L25.4060554,50.3660485 L25.4237621,50.3660485 Z M33.9761229,51.8180021 C33.9761229,52.1426275 33.9185765,52.4406882 33.8034821,52.712193 C33.6883876,52.9836979 33.5290284,53.21831 33.3253998,53.4160364 C33.1217711,53.6137628 32.8812568,53.7672197 32.6038497,53.8764119 C32.3264425,53.9856041 32.0283819,54.0401994 31.7096588,54.0401994 C31.3909356,54.0401994 31.092875,53.9856041 30.8154678,53.8764119 C30.5380607,53.7672197 30.2990219,53.6137628 30.0983444,53.4160364 C29.8976669,53.21831 29.7397833,52.9836979 29.6246888,52.712193 C29.5095944,52.4406882 29.452048,52.1426275 29.452048,51.8180021 C29.452048,51.4933767 29.5095944,51.1967916 29.6246888,50.9282379 C29.7397833,50.6596841 29.8976669,50.4280231 30.0983444,50.2332479 C30.2990219,50.0384727 30.5380607,49.8864912 30.8154678,49.7772991 C31.092875,49.6681069 31.3909356,49.6135116 31.7096588,49.6135116 C32.0283819,49.6135116 32.3264425,49.6681069 32.6038497,49.7772991 C32.8812568,49.8864912 33.1217711,50.0384727 33.3253998,50.2332479 C33.5290284,50.4280231 33.6883876,50.6596841 33.8034821,50.9282379 C33.9185765,51.1967916 33.9761229,51.4933767 33.9761229,51.8180021 Z M33.1084921,51.8180021 C33.1084921,51.6173246 33.0775056,51.4255034 33.0155316,51.2425327 C32.9535577,51.059562 32.8635493,50.8987273 32.7455037,50.7600237 C32.6274581,50.6213202 32.4813789,50.5106541 32.3072616,50.4280222 C32.1331443,50.3453902 31.9339454,50.3040749 31.7096588,50.3040749 C31.4853721,50.3040749 31.2861732,50.3453902 31.1120559,50.4280222 C30.9379387,50.5106541 30.7918594,50.6213202 30.6738138,50.7600237 C30.5557682,50.8987273 30.4657598,51.059562 30.4037859,51.2425327 C30.3418119,51.4255034 30.3108254,51.6173246 30.3108254,51.8180021 C30.3108254,52.0186796 30.3418119,52.2105008 30.4037859,52.3934715 C30.4657598,52.5764422 30.5557682,52.7387525 30.6738138,52.8804072 C30.7918594,53.0220619 30.9379387,53.1342035 31.1120559,53.2168354 C31.2861732,53.2994674 31.4853721,53.3407827 31.7096588,53.3407827 C31.9339454,53.3407827 32.1331443,53.2994674 32.3072616,53.2168354 C32.4813789,53.1342035 32.6274581,53.0220619 32.7455037,52.8804072 C32.8635493,52.7387525 32.9535577,52.5764422 33.0155316,52.3934715 C33.0775056,52.2105008 33.1084921,52.0186796 33.1084921,51.8180021 Z M37.1810448,50.4103154 L36.0655195,50.4103154 L36.0655195,52.5970992 C36.0655195,52.8508972 36.112737,53.0323896 36.2071735,53.1415818 C36.30161,53.2507739 36.4521159,53.3053692 36.6586957,53.3053692 C36.7354253,53.3053692 36.818056,53.2965159 36.9065902,53.2788091 C36.9951244,53.2611022 37.074804,53.2345424 37.1456313,53.1991287 L37.1721915,53.8808386 C37.0718527,53.9162523 36.9611866,53.9442877 36.8401899,53.9649457 C36.7191931,53.9856037 36.5937716,53.9959325 36.4639214,53.9959325 C36.0684687,53.9959325 35.7659814,53.8867419 35.5564504,53.6683576 C35.3469195,53.4499732 35.2421556,53.1224016 35.2421556,52.6856329 L35.2421556,50.4103154 L34.4364984,50.4103154 L34.4364984,49.7286055 L35.2421556,49.7286055 L35.2421556,48.5245464 L36.0655195,48.5245464 L36.0655195,49.7286055 L37.1810448,49.7286055 L37.1810448,50.4103154 Z M42.2894425,51.8180021 C42.2894425,52.1426275 42.2318961,52.4406882 42.1168017,52.712193 C42.0017072,52.9836979 41.8423481,53.21831 41.6387194,53.4160364 C41.4350908,53.6137628 41.1945765,53.7672197 40.9171693,53.8764119 C40.6397622,53.9856041 40.3417015,54.0401994 40.0229784,54.0401994 C39.7042553,54.0401994 39.4061946,53.9856041 39.1287874,53.8764119 C38.8513803,53.7672197 38.6123415,53.6137628 38.411664,53.4160364 C38.2109865,53.21831 38.0531029,52.9836979 37.9380084,52.712193 C37.822914,52.4406882 37.7653676,52.1426275 37.7653676,51.8180021 C37.7653676,51.4933767 37.822914,51.1967916 37.9380084,50.9282379 C38.0531029,50.6596841 38.2109865,50.4280231 38.411664,50.2332479 C38.6123415,50.0384727 38.8513803,49.8864912 39.1287874,49.7772991 C39.4061946,49.6681069 39.7042553,49.6135116 40.0229784,49.6135116 C40.3417015,49.6135116 40.6397622,49.6681069 40.9171693,49.7772991 C41.1945765,49.8864912 41.4350908,50.0384727 41.6387194,50.2332479 C41.8423481,50.4280231 42.0017072,50.6596841 42.1168017,50.9282379 C42.2318961,51.1967916 42.2894425,51.4933767 42.2894425,51.8180021 Z M41.4218117,51.8180021 C41.4218117,51.6173246 41.3908252,51.4255034 41.3288513,51.2425327 C41.2668773,51.059562 41.1768689,50.8987273 41.0588233,50.7600237 C40.9407777,50.6213202 40.7946985,50.5106541 40.6205812,50.4280222 C40.446464,50.3453902 40.247265,50.3040749 40.0229784,50.3040749 C39.7986917,50.3040749 39.5994928,50.3453902 39.4253755,50.4280222 C39.2512583,50.5106541 39.105179,50.6213202 38.9871334,50.7600237 C38.8690878,50.8987273 38.7790794,51.059562 38.7171055,51.2425327 C38.6551315,51.4255034 38.624145,51.6173246 38.624145,51.8180021 C38.624145,52.0186796 38.6551315,52.2105008 38.7171055,52.3934715 C38.7790794,52.5764422 38.8690878,52.7387525 38.9871334,52.8804072 C39.105179,53.0220619 39.2512583,53.1342035 39.4253755,53.2168354 C39.5994928,53.2994674 39.7986917,53.3407827 40.0229784,53.3407827 C40.247265,53.3407827 40.446464,53.2994674 40.6205812,53.2168354 C40.7946985,53.1342035 40.9407777,53.0220619 41.0588233,52.8804072 C41.1768689,52.7387525 41.2668773,52.5764422 41.3288513,52.3934715 C41.3908252,52.2105008 41.4218117,52.0186796 41.4218117,51.8180021 Z" id="add-photo" fill="#33373D"></path>
            </g>
        </g>
    </g>
</svg>