<?xml version="1.0" encoding="UTF-8" standalone="no"?>
<svg width="450px" height="103px" viewBox="0 0 450 103" version="1.1" xmlns="http://www.w3.org/2000/svg" xmlns:xlink="http://www.w3.org/1999/xlink">
    <!-- Generator: Sketch 49.3 (51167) - http://www.bohemiancoding.com/sketch -->
    <title>Group 16 Copy</title>
    <desc>Created with Sketch.</desc>
    <defs>
        <rect id="path-1" x="0" y="0" width="420" height="73.5" rx="8"></rect>
        <filter x="-5.4%" y="-30.6%" width="110.7%" height="161.2%" filterUnits="objectBoundingBox" id="filter-2">
            <feOffset dx="0" dy="0" in="SourceAlpha" result="shadowOffsetOuter1"></feOffset>
            <feGaussianBlur stdDeviation="7.5" in="shadowOffsetOuter1" result="shadowBlurOuter1"></feGaussianBlur>
            <feColorMatrix values="0 0 0 0 0   0 0 0 0 0   0 0 0 0 0  0 0 0 0.2 0" type="matrix" in="shadowBlurOuter1"></feColorMatrix>
        </filter>
    </defs>
    <g id="Final" stroke="none" stroke-width="1" fill="none" fill-rule="evenodd">
        <g id="Group-16-Copy" transform="translate(15.000000, 15.000000)">
            <g id="Rectangle">
                <use fill="black" fill-opacity="1" filter="url(#filter-2)" xlink:href="#path-1"></use>
                <use fill="#FFFFFF" fill-rule="evenodd" xlink:href="#path-1"></use>
            </g>
            <path d="M322,31.7344913 L323.641439,31.7344913 L323.641439,35.7208437 L323.680521,35.7208437 L327.5366,31.7344913 L329.751241,31.7344913 L325.439206,35.9944169 L330.037841,40.9578164 L327.73201,40.9578164 L323.680521,36.3331266 L323.641439,36.3331266 L323.641439,40.9578164 L322,40.9578164 L322,31.7344913 Z M330.975806,31.7344913 L333.151365,31.7344913 L337.437345,38.6389578 L337.4634,38.6389578 L337.4634,31.7344913 L339.104839,31.7344913 L339.104839,40.9578164 L337.020471,40.9578164 L332.6433,33.8318859 L332.617246,33.8318859 L332.617246,40.9578164 L330.975806,40.9578164 L330.975806,31.7344913 Z M340.694169,36.3200993 C340.694169,35.5818822 340.817927,34.9153256 341.065447,34.3204094 C341.312966,33.7254933 341.656015,33.2196051 342.094603,32.8027295 C342.533191,32.385854 343.054277,32.0645173 343.657878,31.8387097 C344.261479,31.6129021 344.919351,31.5 345.631514,31.5 C346.352361,31.5 347.016746,31.6129021 347.62469,31.8387097 C348.232633,32.0645173 348.758062,32.385854 349.200993,32.8027295 C349.643923,33.2196051 349.989143,33.7254933 350.236663,34.3204094 C350.484182,34.9153256 350.60794,35.5818822 350.60794,36.3200993 C350.60794,37.0409465 350.484182,37.6988184 350.236663,38.2937345 C349.989143,38.8886506 349.643923,39.4010524 349.200993,39.8309553 C348.758062,40.2608582 348.232633,40.5952221 347.62469,40.8340571 C347.016746,41.072892 346.352361,41.1923077 345.631514,41.1923077 C344.919351,41.1923077 344.261479,41.072892 343.657878,40.8340571 C343.054277,40.5952221 342.533191,40.2608582 342.094603,39.8309553 C341.656015,39.4010524 341.312966,38.8886506 341.065447,38.2937345 C340.817927,37.6988184 340.694169,37.0409465 340.694169,36.3200993 Z M342.478908,36.3200993 C342.478908,36.815139 342.5549,37.2689185 342.706886,37.6814516 C342.858872,38.0939847 343.075991,38.4522317 343.358251,38.7562035 C343.64051,39.0601752 343.974874,39.2968354 344.361352,39.4661911 C344.747831,39.6355468 345.175556,39.7202233 345.644541,39.7202233 C346.113526,39.7202233 346.543422,39.6355468 346.934243,39.4661911 C347.325064,39.2968354 347.661599,39.0601752 347.943859,38.7562035 C348.226118,38.4522317 348.443237,38.0939847 348.595223,37.6814516 C348.747209,37.2689185 348.823201,36.815139 348.823201,36.3200993 C348.823201,35.8424294 348.747209,35.3995058 348.595223,34.9913151 C348.443237,34.5831245 348.228289,34.2270487 347.950372,33.9230769 C347.672455,33.6191052 347.338091,33.3802738 346.94727,33.2065757 C346.55645,33.0328775 346.122211,32.9460298 345.644541,32.9460298 C345.166871,32.9460298 344.734803,33.0328775 344.348325,33.2065757 C343.961847,33.3802738 343.629654,33.6191052 343.351737,33.9230769 C343.07382,34.2270487 342.858872,34.5831245 342.706886,34.9913151 C342.5549,35.3995058 342.478908,35.8424294 342.478908,36.3200993 Z M351.259305,31.7344913 L353.057072,31.7344913 L354.841811,38.5086849 L354.867866,38.5086849 L356.900124,31.7344913 L358.593672,31.7344913 L360.586849,38.5086849 L360.612903,38.5086849 L362.436725,31.7344913 L364.182382,31.7344913 L361.485732,40.9578164 L359.896402,40.9578164 L357.733871,34.0403226 L357.707816,34.0403226 L355.545285,40.9578164 L353.955955,40.9578164 L351.259305,31.7344913 Z M368.377171,31.7344913 L370.943548,31.7344913 L373.340571,38.2872208 L373.379653,38.2872208 L375.75062,31.7344913 L378.330025,31.7344913 L378.330025,40.9578164 L376.701613,40.9578164 L376.701613,33.5452854 L376.675558,33.5452854 L373.87469,40.9578164 L372.728288,40.9578164 L369.966501,33.5452854 L369.940447,33.5452854 L369.940447,40.9578164 L368.377171,40.9578164 L368.377171,31.7344913 Z M379.919355,36.3200993 C379.919355,35.5818822 380.043113,34.9153256 380.290633,34.3204094 C380.538153,33.7254933 380.881201,33.2196051 381.319789,32.8027295 C381.758377,32.385854 382.279463,32.0645173 382.883065,31.8387097 C383.486666,31.6129021 384.144537,31.5 384.8567,31.5 C385.577547,31.5 386.241932,31.6129021 386.849876,31.8387097 C387.457819,32.0645173 387.983248,32.385854 388.426179,32.8027295 C388.869109,33.2196051 389.214329,33.7254933 389.461849,34.3204094 C389.709368,34.9153256 389.833127,35.5818822 389.833127,36.3200993 C389.833127,37.0409465 389.709368,37.6988184 389.461849,38.2937345 C389.214329,38.8886506 388.869109,39.4010524 388.426179,39.8309553 C387.983248,40.2608582 387.457819,40.5952221 386.849876,40.8340571 C386.241932,41.072892 385.577547,41.1923077 384.8567,41.1923077 C384.144537,41.1923077 383.486666,41.072892 382.883065,40.8340571 C382.279463,40.5952221 381.758377,40.2608582 381.319789,39.8309553 C380.881201,39.4010524 380.538153,38.8886506 380.290633,38.2937345 C380.043113,37.6988184 379.919355,37.0409465 379.919355,36.3200993 Z M381.704094,36.3200993 C381.704094,36.815139 381.780086,37.2689185 381.932072,37.6814516 C382.084058,38.0939847 382.301177,38.4522317 382.583437,38.7562035 C382.865696,39.0601752 383.20006,39.2968354 383.586538,39.4661911 C383.973017,39.6355468 384.400742,39.7202233 384.869727,39.7202233 C385.338712,39.7202233 385.768608,39.6355468 386.159429,39.4661911 C386.55025,39.2968354 386.886785,39.0601752 387.169045,38.7562035 C387.451304,38.4522317 387.668424,38.0939847 387.820409,37.6814516 C387.972395,37.2689185 388.048387,36.815139 388.048387,36.3200993 C388.048387,35.8424294 387.972395,35.3995058 387.820409,34.9913151 C387.668424,34.5831245 387.453475,34.2270487 387.175558,33.9230769 C386.897641,33.6191052 386.563277,33.3802738 386.172457,33.2065757 C385.781636,33.0328775 385.347397,32.9460298 384.869727,32.9460298 C384.392057,32.9460298 383.95999,33.0328775 383.573511,33.2065757 C383.187033,33.3802738 382.85484,33.6191052 382.576923,33.9230769 C382.299006,34.2270487 382.084058,34.5831245 381.932072,34.9913151 C381.780086,35.3995058 381.704094,35.8424294 381.704094,36.3200993 Z M391.422457,31.7344913 L394.627171,31.7344913 C395.061417,31.7344913 395.482628,31.7800864 395.890819,31.8712779 C396.299009,31.9624694 396.661599,32.1122818 396.978598,32.3207196 C397.295597,32.5291574 397.549627,32.8027278 397.740695,33.1414392 C397.931763,33.4801506 398.027295,33.8926775 398.027295,34.3790323 C398.027295,35.0477701 397.838401,35.5927398 397.460608,36.0139578 C397.082814,36.4351758 396.568241,36.7196022 395.916873,36.8672457 L398.379032,40.9578164 L396.398883,40.9578164 L394.262407,37.0496278 L393.063896,37.0496278 L393.063896,40.9578164 L391.422457,40.9578164 L391.422457,31.7344913 Z M394.405707,35.7078164 C394.6402,35.7078164 394.874689,35.6904468 395.109181,35.6557072 C395.343674,35.6209676 395.554279,35.5558317 395.741005,35.4602978 C395.92773,35.3647638 396.081885,35.2279786 396.203474,35.049938 C396.325063,34.8718974 396.385856,34.643922 396.385856,34.366005 C396.385856,34.1141427 396.329405,33.9078792 396.216501,33.7472084 C396.103597,33.5865377 395.960299,33.4584372 395.7866,33.3629032 C395.612902,33.2673692 395.415324,33.2022334 395.193859,33.1674938 C394.972393,33.1327542 394.757445,33.1153846 394.549007,33.1153846 L393.063896,33.1153846 L393.063896,35.7078164 L394.405707,35.7078164 Z M399.616625,31.7344913 L405.726427,31.7344913 L405.726427,33.1674938 L401.258065,33.1674938 L401.258065,35.5124069 L405.491935,35.5124069 L405.491935,36.8933002 L401.258065,36.8933002 L401.258065,39.4987593 L405.960918,39.4987593 L405.960918,40.9578164 L399.616625,40.9578164 L399.616625,31.7344913 Z" id="Know-More" fill="#01B460"></path>
            <g id="Group-9" transform="translate(14.000000, 14.000000)">
                <path d="M53.8726087,3.39043478 L60.1315217,3.39043478 L60.1315217,4.89695652 L55.5982609,4.89695652 L55.5982609,7.55391304 L59.8713043,7.55391304 L59.8713043,9.00565217 L55.5982609,9.00565217 L55.5982609,13.0869565 L53.8726087,13.0869565 L53.8726087,3.39043478 Z M61.2545652,8.21130435 C61.2545652,7.43521351 61.3846726,6.73445965 61.6448913,6.10902174 C61.90511,5.48358383 62.2657586,4.95174132 62.7268478,4.51347826 C63.1879371,4.0752152 63.7357577,3.73739249 64.3703261,3.5 C65.0048945,3.26260751 65.696518,3.14391304 66.4452174,3.14391304 C67.2030473,3.14391304 67.9015185,3.26260751 68.5406522,3.5 C69.1797858,3.73739249 69.7321716,4.0752152 70.1978261,4.51347826 C70.6634806,4.95174132 71.0264117,5.48358383 71.2866304,6.10902174 C71.5468491,6.73445965 71.6769565,7.43521351 71.6769565,8.21130435 C71.6769565,8.96913422 71.5468491,9.66075774 71.2866304,10.2861957 C71.0264117,10.9116336 70.6634806,11.4503238 70.1978261,11.9022826 C69.7321716,12.3542414 69.1797858,12.7057596 68.5406522,12.9568478 C67.9015185,13.207936 67.2030473,13.3334783 66.4452174,13.3334783 C65.696518,13.3334783 65.0048945,13.207936 64.3703261,12.9568478 C63.7357577,12.7057596 63.1879371,12.3542414 62.7268478,11.9022826 C62.2657586,11.4503238 61.90511,10.9116336 61.6448913,10.2861957 C61.3846726,9.66075774 61.2545652,8.96913422 61.2545652,8.21130435 Z M63.1308696,8.21130435 C63.1308696,8.73174173 63.2107601,9.20880218 63.3705435,9.6425 C63.5303269,10.0761978 63.7585855,10.4528245 64.0553261,10.7723913 C64.3520667,11.0919581 64.7035849,11.34076 65.1098913,11.5188043 C65.5161977,11.6968487 65.9658671,11.7858696 66.458913,11.7858696 C66.951959,11.7858696 67.403911,11.6968487 67.8147826,11.5188043 C68.2256542,11.34076 68.579455,11.0919581 68.8761957,10.7723913 C69.1729363,10.4528245 69.4011949,10.0761978 69.5609783,9.6425 C69.7207617,9.20880218 69.8006522,8.73174173 69.8006522,8.21130435 C69.8006522,7.70912792 69.7207617,7.24348041 69.5609783,6.81434783 C69.4011949,6.38521525 69.1752189,6.01087116 68.8830435,5.69130435 C68.5908681,5.37173753 68.2393499,5.12065309 67.8284783,4.93804348 C67.4176066,4.75543387 66.9610895,4.66413043 66.458913,4.66413043 C65.9567366,4.66413043 65.502502,4.75543387 65.0961957,4.93804348 C64.6898893,5.12065309 64.3406536,5.37173753 64.0484783,5.69130435 C63.7563029,6.01087116 63.5303269,6.38521525 63.3705435,6.81434783 C63.2107601,7.24348041 63.1308696,7.70912792 63.1308696,8.21130435 Z M72.8821739,8.21130435 C72.8821739,7.43521351 73.0122813,6.73445965 73.2725,6.10902174 C73.5327187,5.48358383 73.8933673,4.95174132 74.3544565,4.51347826 C74.8155458,4.0752152 75.3633664,3.73739249 75.9979348,3.5 C76.6325032,3.26260751 77.3241267,3.14391304 78.0728261,3.14391304 C78.830656,3.14391304 79.5291272,3.26260751 80.1682609,3.5 C80.8073945,3.73739249 81.3597803,4.0752152 81.8254348,4.51347826 C82.2910893,4.95174132 82.6540204,5.48358383 82.9142391,6.10902174 C83.1744578,6.73445965 83.3045652,7.43521351 83.3045652,8.21130435 C83.3045652,8.96913422 83.1744578,9.66075774 82.9142391,10.2861957 C82.6540204,10.9116336 82.2910893,11.4503238 81.8254348,11.9022826 C81.3597803,12.3542414 80.8073945,12.7057596 80.1682609,12.9568478 C79.5291272,13.207936 78.830656,13.3334783 78.0728261,13.3334783 C77.3241267,13.3334783 76.6325032,13.207936 75.9979348,12.9568478 C75.3633664,12.7057596 74.8155458,12.3542414 74.3544565,11.9022826 C73.8933673,11.4503238 73.5327187,10.9116336 73.2725,10.2861957 C73.0122813,9.66075774 72.8821739,8.96913422 72.8821739,8.21130435 Z M74.7584783,8.21130435 C74.7584783,8.73174173 74.8383688,9.20880218 74.9981522,9.6425 C75.1579356,10.0761978 75.3861942,10.4528245 75.6829348,10.7723913 C75.9796754,11.0919581 76.3311936,11.34076 76.7375,11.5188043 C77.1438064,11.6968487 77.5934758,11.7858696 78.0865217,11.7858696 C78.5795677,11.7858696 79.0315197,11.6968487 79.4423913,11.5188043 C79.8532629,11.34076 80.2070637,11.0919581 80.5038043,10.7723913 C80.800545,10.4528245 81.0288035,10.0761978 81.188587,9.6425 C81.3483704,9.20880218 81.4282609,8.73174173 81.4282609,8.21130435 C81.4282609,7.70912792 81.3483704,7.24348041 81.188587,6.81434783 C81.0288035,6.38521525 80.8028275,6.01087116 80.5106522,5.69130435 C80.2184768,5.37173753 79.8669586,5.12065309 79.456087,4.93804348 C79.0452153,4.75543387 78.5886982,4.66413043 78.0865217,4.66413043 C77.5843453,4.66413043 77.1301107,4.75543387 76.7238043,4.93804348 C76.317498,5.12065309 75.9682623,5.37173753 75.676087,5.69130435 C75.3839116,6.01087116 75.1579356,6.38521525 74.9981522,6.81434783 C74.8383688,7.24348041 74.7584783,7.70912792 74.7584783,8.21130435 Z M84.9754348,3.39043478 L88.4130435,3.39043478 C89.0430466,3.39043478 89.6776055,3.47260787 90.3167391,3.63695652 C90.9558728,3.80130517 91.5310844,4.07293289 92.0423913,4.45184783 C92.5536982,4.83076276 92.9691288,5.32836648 93.2886957,5.94467391 C93.6082625,6.56098134 93.7680435,7.32564761 93.7680435,8.23869565 C93.7680435,9.08783033 93.6082625,9.81825781 93.2886957,10.43 C92.9691288,11.0417422 92.5536982,11.5439111 92.0423913,11.9365217 C91.5310844,12.3291324 90.9558728,12.6190208 90.3167391,12.8061957 C89.6776055,12.9933705 89.0430466,13.0869565 88.4130435,13.0869565 L84.9754348,13.0869565 L84.9754348,3.39043478 Z M88.1391304,11.5804348 C88.586524,11.5804348 89.0339108,11.5279353 89.4813043,11.4229348 C89.9286979,11.3179343 90.3327156,11.1398926 90.6933696,10.8888043 C91.0540235,10.6377161 91.3484771,10.2976108 91.5767391,9.86847826 C91.8050011,9.43934568 91.9191304,8.89609024 91.9191304,8.23869565 C91.9191304,7.54477914 91.8050011,6.97869784 91.5767391,6.54043478 C91.3484771,6.10217172 91.0540235,5.75978384 90.6933696,5.51326087 C90.3327156,5.2667379 89.9286979,5.09782654 89.4813043,5.00652174 C89.0339108,4.91521693 88.586524,4.86956522 88.1391304,4.86956522 L86.701087,4.86956522 L86.701087,11.5804348 L88.1391304,11.5804348 Z M98.8628261,3.39043478 L100.588478,3.39043478 L100.588478,7.3073913 L105.121739,7.3073913 L105.121739,3.39043478 L106.847391,3.39043478 L106.847391,13.0869565 L105.121739,13.0869565 L105.121739,8.78652174 L100.588478,8.78652174 L100.588478,13.0869565 L98.8628261,13.0869565 L98.8628261,3.39043478 Z M111.32587,8.8823913 L107.682826,3.39043478 L109.791957,3.39043478 L112.229783,7.47173913 L114.695,3.39043478 L116.694565,3.39043478 L113.051522,8.8823913 L113.051522,13.0869565 L111.32587,13.0869565 L111.32587,8.8823913 Z M125.610435,12.5802174 C125.117389,12.8176099 124.576416,13.0024993 123.9875,13.1348913 C123.398584,13.2672833 122.720656,13.3334783 121.953696,13.3334783 C121.168474,13.3334783 120.451742,13.207936 119.803478,12.9568478 C119.155214,12.7057596 118.598263,12.3542414 118.132609,11.9022826 C117.666954,11.4503238 117.304023,10.9116336 117.043804,10.2861957 C116.783586,9.66075774 116.653478,8.96913422 116.653478,8.21130435 C116.653478,7.43521351 116.788151,6.73445965 117.0575,6.10902174 C117.326849,5.48358383 117.696628,4.95174132 118.166848,4.51347826 C118.637068,4.0752152 119.191736,3.73739249 119.83087,3.5 C120.470003,3.26260751 121.163909,3.14391304 121.912609,3.14391304 C122.6887,3.14391304 123.398584,3.25575975 124.042283,3.47945652 C124.685981,3.70315329 125.204128,3.99760687 125.596739,4.36282609 L124.405217,5.65021739 C124.158694,5.37630298 123.814024,5.14347922 123.371196,4.95173913 C122.928367,4.75999904 122.446742,4.66413043 121.926304,4.66413043 C121.414997,4.66413043 120.951633,4.75543387 120.536196,4.93804348 C120.120759,5.12065309 119.766958,5.37173753 119.474783,5.69130435 C119.182607,6.01087116 118.956631,6.38521525 118.796848,6.81434783 C118.637064,7.24348041 118.557174,7.70912792 118.557174,8.21130435 C118.557174,8.73174173 118.637064,9.20880218 118.796848,9.6425 C118.956631,10.0761978 119.18489,10.4528245 119.48163,10.7723913 C119.778371,11.0919581 120.13902,11.34076 120.563587,11.5188043 C120.988154,11.6968487 121.46978,11.7858696 122.008478,11.7858696 C122.748047,11.7858696 123.391736,11.6717403 123.939565,11.4434783 L123.939565,8.97826087 L121.898913,8.97826087 L121.898913,7.55391304 L125.610435,7.55391304 L125.610435,12.5802174 Z M127.70587,3.39043478 L129.431522,3.39043478 L129.431522,13.0869565 L127.70587,13.0869565 L127.70587,3.39043478 Z M131.568043,3.39043478 L137.991304,3.39043478 L137.991304,4.89695652 L133.293696,4.89695652 L133.293696,7.36217391 L137.744783,7.36217391 L137.744783,8.81391304 L133.293696,8.81391304 L133.293696,11.5530435 L138.237826,11.5530435 L138.237826,13.0869565 L131.568043,13.0869565 L131.568043,3.39043478 Z M139.922391,3.39043478 L142.209565,3.39043478 L146.715435,10.6491304 L146.742826,10.6491304 L146.742826,3.39043478 L148.468478,3.39043478 L148.468478,13.0869565 L146.277174,13.0869565 L141.675435,5.59543478 L141.648043,5.59543478 L141.648043,13.0869565 L139.922391,13.0869565 L139.922391,3.39043478 Z M150.605,3.39043478 L157.028261,3.39043478 L157.028261,4.89695652 L152.330652,4.89695652 L152.330652,7.36217391 L156.781739,7.36217391 L156.781739,8.81391304 L152.330652,8.81391304 L152.330652,11.5530435 L157.274783,11.5530435 L157.274783,13.0869565 L150.605,13.0869565 L150.605,3.39043478 Z M162.383261,3.39043478 L165.752391,3.39043478 C166.208915,3.39043478 166.651737,3.43836909 167.08087,3.53423913 C167.510002,3.63010917 167.891194,3.7876076 168.224457,4.00673913 C168.557719,4.22587066 168.824782,4.51347648 169.025652,4.86956522 C169.226523,5.22565395 169.326957,5.65934527 169.326957,6.17065217 C169.326957,6.87369917 169.128372,7.44662822 168.731196,7.88945652 C168.33402,8.33228482 167.793047,8.63130357 167.108261,8.78652174 L169.696739,13.0869565 L167.615,13.0869565 L165.368913,8.97826087 L164.108913,8.97826087 L164.108913,13.0869565 L162.383261,13.0869565 L162.383261,3.39043478 Z M165.519565,7.5676087 C165.766088,7.5676087 166.012607,7.54934801 166.25913,7.51282609 C166.505653,7.47630417 166.727064,7.40782659 166.92337,7.3073913 C167.119675,7.20695602 167.281738,7.06315311 167.409565,6.87597826 C167.537392,6.68880341 167.601304,6.4491319 167.601304,6.15695652 C167.601304,5.89217259 167.541957,5.67532693 167.423261,5.50641304 C167.304565,5.33749916 167.153914,5.20282659 166.971304,5.1023913 C166.788695,5.00195602 166.580979,4.93347844 166.348152,4.89695652 C166.115325,4.8604346 165.889349,4.84217391 165.670217,4.84217391 L164.108913,4.84217391 L164.108913,7.5676087 L165.519565,7.5676087 Z M174.038261,3.39043478 L175.531087,3.39043478 L179.708261,13.0869565 L177.736087,13.0869565 L176.832174,10.8682609 L172.627609,10.8682609 L171.751087,13.0869565 L169.82,13.0869565 L174.038261,3.39043478 Z M176.229565,9.38913043 L174.736739,5.44478261 L173.216522,9.38913043 L176.229565,9.38913043 Z M181.803696,4.89695652 L178.831739,4.89695652 L178.831739,3.39043478 L186.501304,3.39043478 L186.501304,4.89695652 L183.529348,4.89695652 L183.529348,13.0869565 L181.803696,13.0869565 L181.803696,4.89695652 Z M187.624348,3.39043478 L189.35,3.39043478 L189.35,13.0869565 L187.624348,13.0869565 L187.624348,3.39043478 Z M191.486522,3.39043478 L193.773696,3.39043478 L198.279565,10.6491304 L198.306957,10.6491304 L198.306957,3.39043478 L200.032609,3.39043478 L200.032609,13.0869565 L197.841304,13.0869565 L193.239565,5.59543478 L193.212174,5.59543478 L193.212174,13.0869565 L191.486522,13.0869565 L191.486522,3.39043478 Z M210.660435,12.5802174 C210.167389,12.8176099 209.626416,13.0024993 209.0375,13.1348913 C208.448584,13.2672833 207.770656,13.3334783 207.003696,13.3334783 C206.218474,13.3334783 205.501742,13.207936 204.853478,12.9568478 C204.205214,12.7057596 203.648263,12.3542414 203.182609,11.9022826 C202.716954,11.4503238 202.354023,10.9116336 202.093804,10.2861957 C201.833586,9.66075774 201.703478,8.96913422 201.703478,8.21130435 C201.703478,7.43521351 201.838151,6.73445965 202.1075,6.10902174 C202.376849,5.48358383 202.746628,4.95174132 203.216848,4.51347826 C203.687068,4.0752152 204.241736,3.73739249 204.88087,3.5 C205.520003,3.26260751 206.213909,3.14391304 206.962609,3.14391304 C207.7387,3.14391304 208.448584,3.25575975 209.092283,3.47945652 C209.735981,3.70315329 210.254128,3.99760687 210.646739,4.36282609 L209.455217,5.65021739 C209.208694,5.37630298 208.864024,5.14347922 208.421196,4.95173913 C207.978367,4.75999904 207.496742,4.66413043 206.976304,4.66413043 C206.464997,4.66413043 206.001633,4.75543387 205.586196,4.93804348 C205.170759,5.12065309 204.816958,5.37173753 204.524783,5.69130435 C204.232607,6.01087116 204.006631,6.38521525 203.846848,6.81434783 C203.687064,7.24348041 203.607174,7.70912792 203.607174,8.21130435 C203.607174,8.73174173 203.687064,9.20880218 203.846848,9.6425 C204.006631,10.0761978 204.23489,10.4528245 204.53163,10.7723913 C204.828371,11.0919581 205.18902,11.34076 205.613587,11.5188043 C206.038154,11.6968487 206.51978,11.7858696 207.058478,11.7858696 C207.798047,11.7858696 208.441736,11.6717403 208.989565,11.4434783 L208.989565,8.97826087 L206.948913,8.97826087 L206.948913,7.55391304 L210.660435,7.55391304 L210.660435,12.5802174 Z" id="Food-Hygiene-Rating" fill="#888888"></path>
                <g id="Group-3" transform="translate(0.760870, 0.760870)">
                    <circle id="Oval-4-Copy" fill="#3C78B4" cx="21.9130435" cy="21.9130435" r="21.9130435"></circle>
                    <circle id="Oval-4-Copy-2" fill="#4687C8" cx="21.9130435" cy="21.9130435" r="17.8043478"></circle>
                    <circle id="Oval-4-Copy-3" fill="#3C78B4" cx="21.9130435" cy="21.9130435" r="13.6956522"></circle>
                    <path d="M25.7478261,17.2565217 L20.2065652,17.2565217 L20.0723478,20.1901304 C20.2896533,20.1262171 20.5484985,20.0814784 20.8488913,20.055913 C21.1492841,20.0303477 21.4209118,20.0175652 21.6637826,20.0175652 C22.3284816,20.0175652 22.9452363,20.1134338 23.5140652,20.3051739 C24.0828941,20.496914 24.5782153,20.774933 25.0000435,21.1392391 C25.4218717,21.5035453 25.7510206,21.9509321 25.9875,22.481413 C26.2239794,23.011894 26.3422174,23.6222574 26.3422174,24.3125217 C26.3422174,25.0666994 26.211197,25.7409753 25.9491522,26.3353696 C25.6871074,26.9297638 25.3323935,27.4314762 24.885,27.8405217 C24.4376065,28.2495673 23.9135247,28.562738 23.3127391,28.7800435 C22.7119535,28.9973489 22.0728295,29.106 21.3953478,29.106 C20.25769,29.106 19.2990039,28.8407635 18.5192609,28.3102826 C17.7395178,27.7798017 17.1706974,27.0543959 16.8127826,26.1340435 L18.9027391,25.367087 C19.0944792,25.9039592 19.4140412,26.3353679 19.8614348,26.6613261 C20.3088283,26.9872842 20.8393013,27.1502609 21.4528696,27.1502609 C21.7980017,27.1502609 22.123955,27.0927397 22.4307391,26.9776957 C22.7375233,26.8626516 23.0059554,26.6964793 23.2360435,26.4791739 C23.4661316,26.2618685 23.6482819,25.9902408 23.7825,25.6642826 C23.9167181,25.3383245 23.9838261,24.9708281 23.9838261,24.5617826 C23.9838261,24.037693 23.8943487,23.6030887 23.7153913,23.2579565 C23.5364339,22.9128244 23.3031536,22.6348054 23.0155435,22.4238913 C22.7279333,22.2129772 22.4051757,22.0659787 22.0472609,21.9828913 C21.689346,21.8998039 21.3250453,21.8582609 20.9543478,21.8582609 C20.6986944,21.8582609 20.4270667,21.8774346 20.1394565,21.9157826 C19.8518464,21.9541306 19.5706318,22.0084562 19.2958043,22.0787609 C19.0209769,22.1490656 18.7525448,22.2289561 18.4905,22.3184348 C18.2284552,22.4079135 17.9951749,22.5037821 17.7906522,22.6060435 L18.0207391,15.1857391 L25.7478261,15.1857391 L25.7478261,17.2565217 Z" id="5-copy-3" fill="#FFFFFF"></path>
                </g>
                <text id="Excellent" font-family="AvenirNext-Bold, Avenir Next" font-size="22" font-weight="bold" fill="#3C78B4">
                    <tspan x="52.5" y="42.125">Excellent</tspan>
                </text>
            </g>
        </g>
    </g>
</svg>