<?xml version="1.0" encoding="UTF-8" standalone="no"?>
<svg width="450px" height="103px" viewBox="0 0 450 103" version="1.1" xmlns="http://www.w3.org/2000/svg" xmlns:xlink="http://www.w3.org/1999/xlink">
    <!-- Generator: Sketch 49.3 (51167) - http://www.bohemiancoding.com/sketch -->
    <title>Group 9 Copy</title>
    <desc>Created with Sketch.</desc>
    <defs>
        <rect id="path-1" x="0" y="0.625" width="420" height="73.5" rx="8"></rect>
        <filter x="-5.4%" y="-30.6%" width="110.7%" height="161.2%" filterUnits="objectBoundingBox" id="filter-2">
            <feOffset dx="0" dy="0" in="SourceAlpha" result="shadowOffsetOuter1"></feOffset>
            <feGaussianBlur stdDeviation="7.5" in="shadowOffsetOuter1" result="shadowBlurOuter1"></feGaussianBlur>
            <feColorMatrix values="0 0 0 0 0   0 0 0 0 0   0 0 0 0 0  0 0 0 0.2 0" type="matrix" in="shadowBlurOuter1"></feColorMatrix>
        </filter>
    </defs>
    <g id="Final" stroke="none" stroke-width="1" fill="none" fill-rule="evenodd">
        <g id="Group-9-Copy" transform="translate(15.000000, 14.000000)">
            <g id="Rectangle">
                <use fill="black" fill-opacity="1" filter="url(#filter-2)" xlink:href="#path-1"></use>
                <use fill="#FFFFFF" fill-rule="evenodd" xlink:href="#path-1"></use>
            </g>
            <path d="M322,32.3594913 L323.641439,32.3594913 L323.641439,36.3458437 L323.680521,36.3458437 L327.5366,32.3594913 L329.751241,32.3594913 L325.439206,36.6194169 L330.037841,41.5828164 L327.73201,41.5828164 L323.680521,36.9581266 L323.641439,36.9581266 L323.641439,41.5828164 L322,41.5828164 L322,32.3594913 Z M330.975806,32.3594913 L333.151365,32.3594913 L337.437345,39.2639578 L337.4634,39.2639578 L337.4634,32.3594913 L339.104839,32.3594913 L339.104839,41.5828164 L337.020471,41.5828164 L332.6433,34.4568859 L332.617246,34.4568859 L332.617246,41.5828164 L330.975806,41.5828164 L330.975806,32.3594913 Z M340.694169,36.9450993 C340.694169,36.2068822 340.817927,35.5403256 341.065447,34.9454094 C341.312966,34.3504933 341.656015,33.8446051 342.094603,33.4277295 C342.533191,33.010854 343.054277,32.6895173 343.657878,32.4637097 C344.261479,32.2379021 344.919351,32.125 345.631514,32.125 C346.352361,32.125 347.016746,32.2379021 347.62469,32.4637097 C348.232633,32.6895173 348.758062,33.010854 349.200993,33.4277295 C349.643923,33.8446051 349.989143,34.3504933 350.236663,34.9454094 C350.484182,35.5403256 350.60794,36.2068822 350.60794,36.9450993 C350.60794,37.6659465 350.484182,38.3238184 350.236663,38.9187345 C349.989143,39.5136506 349.643923,40.0260524 349.200993,40.4559553 C348.758062,40.8858582 348.232633,41.2202221 347.62469,41.4590571 C347.016746,41.697892 346.352361,41.8173077 345.631514,41.8173077 C344.919351,41.8173077 344.261479,41.697892 343.657878,41.4590571 C343.054277,41.2202221 342.533191,40.8858582 342.094603,40.4559553 C341.656015,40.0260524 341.312966,39.5136506 341.065447,38.9187345 C340.817927,38.3238184 340.694169,37.6659465 340.694169,36.9450993 Z M342.478908,36.9450993 C342.478908,37.440139 342.5549,37.8939185 342.706886,38.3064516 C342.858872,38.7189847 343.075991,39.0772317 343.358251,39.3812035 C343.64051,39.6851752 343.974874,39.9218354 344.361352,40.0911911 C344.747831,40.2605468 345.175556,40.3452233 345.644541,40.3452233 C346.113526,40.3452233 346.543422,40.2605468 346.934243,40.0911911 C347.325064,39.9218354 347.661599,39.6851752 347.943859,39.3812035 C348.226118,39.0772317 348.443237,38.7189847 348.595223,38.3064516 C348.747209,37.8939185 348.823201,37.440139 348.823201,36.9450993 C348.823201,36.4674294 348.747209,36.0245058 348.595223,35.6163151 C348.443237,35.2081245 348.228289,34.8520487 347.950372,34.5480769 C347.672455,34.2441052 347.338091,34.0052738 346.94727,33.8315757 C346.55645,33.6578775 346.122211,33.5710298 345.644541,33.5710298 C345.166871,33.5710298 344.734803,33.6578775 344.348325,33.8315757 C343.961847,34.0052738 343.629654,34.2441052 343.351737,34.5480769 C343.07382,34.8520487 342.858872,35.2081245 342.706886,35.6163151 C342.5549,36.0245058 342.478908,36.4674294 342.478908,36.9450993 Z M351.259305,32.3594913 L353.057072,32.3594913 L354.841811,39.1336849 L354.867866,39.1336849 L356.900124,32.3594913 L358.593672,32.3594913 L360.586849,39.1336849 L360.612903,39.1336849 L362.436725,32.3594913 L364.182382,32.3594913 L361.485732,41.5828164 L359.896402,41.5828164 L357.733871,34.6653226 L357.707816,34.6653226 L355.545285,41.5828164 L353.955955,41.5828164 L351.259305,32.3594913 Z M368.377171,32.3594913 L370.943548,32.3594913 L373.340571,38.9122208 L373.379653,38.9122208 L375.75062,32.3594913 L378.330025,32.3594913 L378.330025,41.5828164 L376.701613,41.5828164 L376.701613,34.1702854 L376.675558,34.1702854 L373.87469,41.5828164 L372.728288,41.5828164 L369.966501,34.1702854 L369.940447,34.1702854 L369.940447,41.5828164 L368.377171,41.5828164 L368.377171,32.3594913 Z M379.919355,36.9450993 C379.919355,36.2068822 380.043113,35.5403256 380.290633,34.9454094 C380.538153,34.3504933 380.881201,33.8446051 381.319789,33.4277295 C381.758377,33.010854 382.279463,32.6895173 382.883065,32.4637097 C383.486666,32.2379021 384.144537,32.125 384.8567,32.125 C385.577547,32.125 386.241932,32.2379021 386.849876,32.4637097 C387.457819,32.6895173 387.983248,33.010854 388.426179,33.4277295 C388.869109,33.8446051 389.214329,34.3504933 389.461849,34.9454094 C389.709368,35.5403256 389.833127,36.2068822 389.833127,36.9450993 C389.833127,37.6659465 389.709368,38.3238184 389.461849,38.9187345 C389.214329,39.5136506 388.869109,40.0260524 388.426179,40.4559553 C387.983248,40.8858582 387.457819,41.2202221 386.849876,41.4590571 C386.241932,41.697892 385.577547,41.8173077 384.8567,41.8173077 C384.144537,41.8173077 383.486666,41.697892 382.883065,41.4590571 C382.279463,41.2202221 381.758377,40.8858582 381.319789,40.4559553 C380.881201,40.0260524 380.538153,39.5136506 380.290633,38.9187345 C380.043113,38.3238184 379.919355,37.6659465 379.919355,36.9450993 Z M381.704094,36.9450993 C381.704094,37.440139 381.780086,37.8939185 381.932072,38.3064516 C382.084058,38.7189847 382.301177,39.0772317 382.583437,39.3812035 C382.865696,39.6851752 383.20006,39.9218354 383.586538,40.0911911 C383.973017,40.2605468 384.400742,40.3452233 384.869727,40.3452233 C385.338712,40.3452233 385.768608,40.2605468 386.159429,40.0911911 C386.55025,39.9218354 386.886785,39.6851752 387.169045,39.3812035 C387.451304,39.0772317 387.668424,38.7189847 387.820409,38.3064516 C387.972395,37.8939185 388.048387,37.440139 388.048387,36.9450993 C388.048387,36.4674294 387.972395,36.0245058 387.820409,35.6163151 C387.668424,35.2081245 387.453475,34.8520487 387.175558,34.5480769 C386.897641,34.2441052 386.563277,34.0052738 386.172457,33.8315757 C385.781636,33.6578775 385.347397,33.5710298 384.869727,33.5710298 C384.392057,33.5710298 383.95999,33.6578775 383.573511,33.8315757 C383.187033,34.0052738 382.85484,34.2441052 382.576923,34.5480769 C382.299006,34.8520487 382.084058,35.2081245 381.932072,35.6163151 C381.780086,36.0245058 381.704094,36.4674294 381.704094,36.9450993 Z M391.422457,32.3594913 L394.627171,32.3594913 C395.061417,32.3594913 395.482628,32.4050864 395.890819,32.4962779 C396.299009,32.5874694 396.661599,32.7372818 396.978598,32.9457196 C397.295597,33.1541574 397.549627,33.4277278 397.740695,33.7664392 C397.931763,34.1051506 398.027295,34.5176775 398.027295,35.0040323 C398.027295,35.6727701 397.838401,36.2177398 397.460608,36.6389578 C397.082814,37.0601758 396.568241,37.3446022 395.916873,37.4922457 L398.379032,41.5828164 L396.398883,41.5828164 L394.262407,37.6746278 L393.063896,37.6746278 L393.063896,41.5828164 L391.422457,41.5828164 L391.422457,32.3594913 Z M394.405707,36.3328164 C394.6402,36.3328164 394.874689,36.3154468 395.109181,36.2807072 C395.343674,36.2459676 395.554279,36.1808317 395.741005,36.0852978 C395.92773,35.9897638 396.081885,35.8529786 396.203474,35.674938 C396.325063,35.4968974 396.385856,35.268922 396.385856,34.991005 C396.385856,34.7391427 396.329405,34.5328792 396.216501,34.3722084 C396.103597,34.2115377 395.960299,34.0834372 395.7866,33.9879032 C395.612902,33.8923692 395.415324,33.8272334 395.193859,33.7924938 C394.972393,33.7577542 394.757445,33.7403846 394.549007,33.7403846 L393.063896,33.7403846 L393.063896,36.3328164 L394.405707,36.3328164 Z M399.616625,32.3594913 L405.726427,32.3594913 L405.726427,33.7924938 L401.258065,33.7924938 L401.258065,36.1374069 L405.491935,36.1374069 L405.491935,37.5183002 L401.258065,37.5183002 L401.258065,40.1237593 L405.960918,40.1237593 L405.960918,41.5828164 L399.616625,41.5828164 L399.616625,32.3594913 Z" id="Know-More" fill="#01B460"></path>
            <path d="M67.8726087,18.0154348 L74.1315217,18.0154348 L74.1315217,19.5219565 L69.5982609,19.5219565 L69.5982609,22.178913 L73.8713043,22.178913 L73.8713043,23.6306522 L69.5982609,23.6306522 L69.5982609,27.7119565 L67.8726087,27.7119565 L67.8726087,18.0154348 Z M75.2545652,22.8363043 C75.2545652,22.0602135 75.3846726,21.3594596 75.6448913,20.7340217 C75.90511,20.1085838 76.2657586,19.5767413 76.7268478,19.1384783 C77.1879371,18.7002152 77.7357577,18.3623925 78.3703261,18.125 C79.0048945,17.8876075 79.696518,17.768913 80.4452174,17.768913 C81.2030473,17.768913 81.9015185,17.8876075 82.5406522,18.125 C83.1797858,18.3623925 83.7321716,18.7002152 84.1978261,19.1384783 C84.6634806,19.5767413 85.0264117,20.1085838 85.2866304,20.7340217 C85.5468491,21.3594596 85.6769565,22.0602135 85.6769565,22.8363043 C85.6769565,23.5941342 85.5468491,24.2857577 85.2866304,24.9111957 C85.0264117,25.5366336 84.6634806,26.0753238 84.1978261,26.5272826 C83.7321716,26.9792414 83.1797858,27.3307596 82.5406522,27.5818478 C81.9015185,27.832936 81.2030473,27.9584783 80.4452174,27.9584783 C79.696518,27.9584783 79.0048945,27.832936 78.3703261,27.5818478 C77.7357577,27.3307596 77.1879371,26.9792414 76.7268478,26.5272826 C76.2657586,26.0753238 75.90511,25.5366336 75.6448913,24.9111957 C75.3846726,24.2857577 75.2545652,23.5941342 75.2545652,22.8363043 Z M77.1308696,22.8363043 C77.1308696,23.3567417 77.2107601,23.8338022 77.3705435,24.2675 C77.5303269,24.7011978 77.7585855,25.0778245 78.0553261,25.3973913 C78.3520667,25.7169581 78.7035849,25.96576 79.1098913,26.1438043 C79.5161977,26.3218487 79.9658671,26.4108696 80.458913,26.4108696 C80.951959,26.4108696 81.403911,26.3218487 81.8147826,26.1438043 C82.2256542,25.96576 82.579455,25.7169581 82.8761957,25.3973913 C83.1729363,25.0778245 83.4011949,24.7011978 83.5609783,24.2675 C83.7207617,23.8338022 83.8006522,23.3567417 83.8006522,22.8363043 C83.8006522,22.3341279 83.7207617,21.8684804 83.5609783,21.4393478 C83.4011949,21.0102152 83.1752189,20.6358712 82.8830435,20.3163043 C82.5908681,19.9967375 82.2393499,19.7456531 81.8284783,19.5630435 C81.4176066,19.3804339 80.9610895,19.2891304 80.458913,19.2891304 C79.9567366,19.2891304 79.502502,19.3804339 79.0961957,19.5630435 C78.6898893,19.7456531 78.3406536,19.9967375 78.0484783,20.3163043 C77.7563029,20.6358712 77.5303269,21.0102152 77.3705435,21.4393478 C77.2107601,21.8684804 77.1308696,22.3341279 77.1308696,22.8363043 Z M86.8821739,22.8363043 C86.8821739,22.0602135 87.0122813,21.3594596 87.2725,20.7340217 C87.5327187,20.1085838 87.8933673,19.5767413 88.3544565,19.1384783 C88.8155458,18.7002152 89.3633664,18.3623925 89.9979348,18.125 C90.6325032,17.8876075 91.3241267,17.768913 92.0728261,17.768913 C92.830656,17.768913 93.5291272,17.8876075 94.1682609,18.125 C94.8073945,18.3623925 95.3597803,18.7002152 95.8254348,19.1384783 C96.2910893,19.5767413 96.6540204,20.1085838 96.9142391,20.7340217 C97.1744578,21.3594596 97.3045652,22.0602135 97.3045652,22.8363043 C97.3045652,23.5941342 97.1744578,24.2857577 96.9142391,24.9111957 C96.6540204,25.5366336 96.2910893,26.0753238 95.8254348,26.5272826 C95.3597803,26.9792414 94.8073945,27.3307596 94.1682609,27.5818478 C93.5291272,27.832936 92.830656,27.9584783 92.0728261,27.9584783 C91.3241267,27.9584783 90.6325032,27.832936 89.9979348,27.5818478 C89.3633664,27.3307596 88.8155458,26.9792414 88.3544565,26.5272826 C87.8933673,26.0753238 87.5327187,25.5366336 87.2725,24.9111957 C87.0122813,24.2857577 86.8821739,23.5941342 86.8821739,22.8363043 Z M88.7584783,22.8363043 C88.7584783,23.3567417 88.8383688,23.8338022 88.9981522,24.2675 C89.1579356,24.7011978 89.3861942,25.0778245 89.6829348,25.3973913 C89.9796754,25.7169581 90.3311936,25.96576 90.7375,26.1438043 C91.1438064,26.3218487 91.5934758,26.4108696 92.0865217,26.4108696 C92.5795677,26.4108696 93.0315197,26.3218487 93.4423913,26.1438043 C93.8532629,25.96576 94.2070637,25.7169581 94.5038043,25.3973913 C94.800545,25.0778245 95.0288035,24.7011978 95.188587,24.2675 C95.3483704,23.8338022 95.4282609,23.3567417 95.4282609,22.8363043 C95.4282609,22.3341279 95.3483704,21.8684804 95.188587,21.4393478 C95.0288035,21.0102152 94.8028275,20.6358712 94.5106522,20.3163043 C94.2184768,19.9967375 93.8669586,19.7456531 93.456087,19.5630435 C93.0452153,19.3804339 92.5886982,19.2891304 92.0865217,19.2891304 C91.5843453,19.2891304 91.1301107,19.3804339 90.7238043,19.5630435 C90.317498,19.7456531 89.9682623,19.9967375 89.676087,20.3163043 C89.3839116,20.6358712 89.1579356,21.0102152 88.9981522,21.4393478 C88.8383688,21.8684804 88.7584783,22.3341279 88.7584783,22.8363043 Z M98.9754348,18.0154348 L102.413043,18.0154348 C103.043047,18.0154348 103.677605,18.0976079 104.316739,18.2619565 C104.955873,18.4263052 105.531084,18.6979329 106.042391,19.0768478 C106.553698,19.4557628 106.969129,19.9533665 107.288696,20.5696739 C107.608262,21.1859813 107.768043,21.9506476 107.768043,22.8636957 C107.768043,23.7128303 107.608262,24.4432578 107.288696,25.055 C106.969129,25.6667422 106.553698,26.1689111 106.042391,26.5615217 C105.531084,26.9541324 104.955873,27.2440208 104.316739,27.4311957 C103.677605,27.6183705 103.043047,27.7119565 102.413043,27.7119565 L98.9754348,27.7119565 L98.9754348,18.0154348 Z M102.13913,26.2054348 C102.586524,26.2054348 103.033911,26.1529353 103.481304,26.0479348 C103.928698,25.9429343 104.332716,25.7648926 104.69337,25.5138043 C105.054024,25.2627161 105.348477,24.9226108 105.576739,24.4934783 C105.805001,24.0643457 105.91913,23.5210902 105.91913,22.8636957 C105.91913,22.1697791 105.805001,21.6036978 105.576739,21.1654348 C105.348477,20.7271717 105.054024,20.3847838 104.69337,20.1382609 C104.332716,19.8917379 103.928698,19.7228265 103.481304,19.6315217 C103.033911,19.5402169 102.586524,19.4945652 102.13913,19.4945652 L100.701087,19.4945652 L100.701087,26.2054348 L102.13913,26.2054348 Z M112.862826,18.0154348 L114.588478,18.0154348 L114.588478,21.9323913 L119.121739,21.9323913 L119.121739,18.0154348 L120.847391,18.0154348 L120.847391,27.7119565 L119.121739,27.7119565 L119.121739,23.4115217 L114.588478,23.4115217 L114.588478,27.7119565 L112.862826,27.7119565 L112.862826,18.0154348 Z M125.32587,23.5073913 L121.682826,18.0154348 L123.791957,18.0154348 L126.229783,22.0967391 L128.695,18.0154348 L130.694565,18.0154348 L127.051522,23.5073913 L127.051522,27.7119565 L125.32587,27.7119565 L125.32587,23.5073913 Z M139.610435,27.2052174 C139.117389,27.4426099 138.576416,27.6274993 137.9875,27.7598913 C137.398584,27.8922833 136.720656,27.9584783 135.953696,27.9584783 C135.168474,27.9584783 134.451742,27.832936 133.803478,27.5818478 C133.155214,27.3307596 132.598263,26.9792414 132.132609,26.5272826 C131.666954,26.0753238 131.304023,25.5366336 131.043804,24.9111957 C130.783586,24.2857577 130.653478,23.5941342 130.653478,22.8363043 C130.653478,22.0602135 130.788151,21.3594596 131.0575,20.7340217 C131.326849,20.1085838 131.696628,19.5767413 132.166848,19.1384783 C132.637068,18.7002152 133.191736,18.3623925 133.83087,18.125 C134.470003,17.8876075 135.163909,17.768913 135.912609,17.768913 C136.6887,17.768913 137.398584,17.8807598 138.042283,18.1044565 C138.685981,18.3281533 139.204128,18.6226069 139.596739,18.9878261 L138.405217,20.2752174 C138.158694,20.001303 137.814024,19.7684792 137.371196,19.5767391 C136.928367,19.384999 136.446742,19.2891304 135.926304,19.2891304 C135.414997,19.2891304 134.951633,19.3804339 134.536196,19.5630435 C134.120759,19.7456531 133.766958,19.9967375 133.474783,20.3163043 C133.182607,20.6358712 132.956631,21.0102152 132.796848,21.4393478 C132.637064,21.8684804 132.557174,22.3341279 132.557174,22.8363043 C132.557174,23.3567417 132.637064,23.8338022 132.796848,24.2675 C132.956631,24.7011978 133.18489,25.0778245 133.48163,25.3973913 C133.778371,25.7169581 134.13902,25.96576 134.563587,26.1438043 C134.988154,26.3218487 135.46978,26.4108696 136.008478,26.4108696 C136.748047,26.4108696 137.391736,26.2967403 137.939565,26.0684783 L137.939565,23.6032609 L135.898913,23.6032609 L135.898913,22.178913 L139.610435,22.178913 L139.610435,27.2052174 Z M141.70587,18.0154348 L143.431522,18.0154348 L143.431522,27.7119565 L141.70587,27.7119565 L141.70587,18.0154348 Z M145.568043,18.0154348 L151.991304,18.0154348 L151.991304,19.5219565 L147.293696,19.5219565 L147.293696,21.9871739 L151.744783,21.9871739 L151.744783,23.438913 L147.293696,23.438913 L147.293696,26.1780435 L152.237826,26.1780435 L152.237826,27.7119565 L145.568043,27.7119565 L145.568043,18.0154348 Z M153.922391,18.0154348 L156.209565,18.0154348 L160.715435,25.2741304 L160.742826,25.2741304 L160.742826,18.0154348 L162.468478,18.0154348 L162.468478,27.7119565 L160.277174,27.7119565 L155.675435,20.2204348 L155.648043,20.2204348 L155.648043,27.7119565 L153.922391,27.7119565 L153.922391,18.0154348 Z M164.605,18.0154348 L171.028261,18.0154348 L171.028261,19.5219565 L166.330652,19.5219565 L166.330652,21.9871739 L170.781739,21.9871739 L170.781739,23.438913 L166.330652,23.438913 L166.330652,26.1780435 L171.274783,26.1780435 L171.274783,27.7119565 L164.605,27.7119565 L164.605,18.0154348 Z M176.383261,18.0154348 L179.752391,18.0154348 C180.208915,18.0154348 180.651737,18.0633691 181.08087,18.1592391 C181.510002,18.2551092 181.891194,18.4126076 182.224457,18.6317391 C182.557719,18.8508707 182.824782,19.1384765 183.025652,19.4945652 C183.226523,19.850654 183.326957,20.2843453 183.326957,20.7956522 C183.326957,21.4986992 183.128372,22.0716282 182.731196,22.5144565 C182.33402,22.9572848 181.793047,23.2563036 181.108261,23.4115217 L183.696739,27.7119565 L181.615,27.7119565 L179.368913,23.6032609 L178.108913,23.6032609 L178.108913,27.7119565 L176.383261,27.7119565 L176.383261,18.0154348 Z M179.519565,22.1926087 C179.766088,22.1926087 180.012607,22.174348 180.25913,22.1378261 C180.505653,22.1013042 180.727064,22.0328266 180.92337,21.9323913 C181.119675,21.831956 181.281738,21.6881531 181.409565,21.5009783 C181.537392,21.3138034 181.601304,21.0741319 181.601304,20.7819565 C181.601304,20.5171726 181.541957,20.3003269 181.423261,20.131413 C181.304565,19.9624992 181.153914,19.8278266 180.971304,19.7273913 C180.788695,19.626956 180.580979,19.5584784 180.348152,19.5219565 C180.115325,19.4854346 179.889349,19.4671739 179.670217,19.4671739 L178.108913,19.4671739 L178.108913,22.1926087 L179.519565,22.1926087 Z M188.038261,18.0154348 L189.531087,18.0154348 L193.708261,27.7119565 L191.736087,27.7119565 L190.832174,25.4932609 L186.627609,25.4932609 L185.751087,27.7119565 L183.82,27.7119565 L188.038261,18.0154348 Z M190.229565,24.0141304 L188.736739,20.0697826 L187.216522,24.0141304 L190.229565,24.0141304 Z M195.803696,19.5219565 L192.831739,19.5219565 L192.831739,18.0154348 L200.501304,18.0154348 L200.501304,19.5219565 L197.529348,19.5219565 L197.529348,27.7119565 L195.803696,27.7119565 L195.803696,19.5219565 Z M201.624348,18.0154348 L203.35,18.0154348 L203.35,27.7119565 L201.624348,27.7119565 L201.624348,18.0154348 Z M205.486522,18.0154348 L207.773696,18.0154348 L212.279565,25.2741304 L212.306957,25.2741304 L212.306957,18.0154348 L214.032609,18.0154348 L214.032609,27.7119565 L211.841304,27.7119565 L207.239565,20.2204348 L207.212174,20.2204348 L207.212174,27.7119565 L205.486522,27.7119565 L205.486522,18.0154348 Z M224.660435,27.2052174 C224.167389,27.4426099 223.626416,27.6274993 223.0375,27.7598913 C222.448584,27.8922833 221.770656,27.9584783 221.003696,27.9584783 C220.218474,27.9584783 219.501742,27.832936 218.853478,27.5818478 C218.205214,27.3307596 217.648263,26.9792414 217.182609,26.5272826 C216.716954,26.0753238 216.354023,25.5366336 216.093804,24.9111957 C215.833586,24.2857577 215.703478,23.5941342 215.703478,22.8363043 C215.703478,22.0602135 215.838151,21.3594596 216.1075,20.7340217 C216.376849,20.1085838 216.746628,19.5767413 217.216848,19.1384783 C217.687068,18.7002152 218.241736,18.3623925 218.88087,18.125 C219.520003,17.8876075 220.213909,17.768913 220.962609,17.768913 C221.7387,17.768913 222.448584,17.8807598 223.092283,18.1044565 C223.735981,18.3281533 224.254128,18.6226069 224.646739,18.9878261 L223.455217,20.2752174 C223.208694,20.001303 222.864024,19.7684792 222.421196,19.5767391 C221.978367,19.384999 221.496742,19.2891304 220.976304,19.2891304 C220.464997,19.2891304 220.001633,19.3804339 219.586196,19.5630435 C219.170759,19.7456531 218.816958,19.9967375 218.524783,20.3163043 C218.232607,20.6358712 218.006631,21.0102152 217.846848,21.4393478 C217.687064,21.8684804 217.607174,22.3341279 217.607174,22.8363043 C217.607174,23.3567417 217.687064,23.8338022 217.846848,24.2675 C218.006631,24.7011978 218.23489,25.0778245 218.53163,25.3973913 C218.828371,25.7169581 219.18902,25.96576 219.613587,26.1438043 C220.038154,26.3218487 220.51978,26.4108696 221.058478,26.4108696 C221.798047,26.4108696 222.441736,26.2967403 222.989565,26.0684783 L222.989565,23.6032609 L220.948913,23.6032609 L220.948913,22.178913 L224.660435,22.178913 L224.660435,27.2052174 Z" id="Food-Hygiene-Rating" fill="#888888"></path>
            <text id="Good" font-family="AvenirNext-Bold, Avenir Next" font-size="22" font-weight="bold" fill="#78A0C8">
                <tspan x="66.5" y="56.75">Good</tspan>
            </text>
            <g id="Group-32-Copy-3" transform="translate(15.000000, 15.000000)">
                <circle id="Oval-4-Copy" fill="#78A0C8" cx="22" cy="22" r="22"></circle>
                <circle id="Oval-4-Copy-2" fill="#82ADD7" cx="22" cy="22" r="17.6"></circle>
                <circle id="Oval-4-Copy-3" fill="#78A0C8" cx="22" cy="22" r="13.2"></circle>
                <path d="M20.0904,20.7709333 L20.7474667,20.7709333 C21.1170685,20.7709333 21.4832426,20.7401336 21.846,20.6785333 C22.2087574,20.616933 22.5407096,20.5040008 22.8418667,20.3397333 C23.1430237,20.1754658 23.3859991,19.9530236 23.5708,19.6724 C23.7556009,19.3917764 23.848,19.0256023 23.848,18.5738667 C23.848,18.2453317 23.7864006,17.9510235 23.6632,17.6909333 C23.5399994,17.4308431 23.3723122,17.2118231 23.1601333,17.0338667 C22.9479545,16.8559102 22.701557,16.7190227 22.4209333,16.6232 C22.1403097,16.5273773 21.8494237,16.4794667 21.5482667,16.4794667 C20.9459525,16.4794667 20.4463131,16.6505761 20.0493333,16.9928 C19.6523536,17.3350239 19.3785785,17.7867527 19.228,18.348 L16.9077333,17.7525333 C17.0309339,17.2597309 17.2396874,16.8114242 17.534,16.4076 C17.8283126,16.0037758 18.1842201,15.6547126 18.6017333,15.3604 C19.0192465,15.0660874 19.4880863,14.8368008 20.0082667,14.6725333 C20.528447,14.5082658 21.0759971,14.4261333 21.6509333,14.4261333 C22.2806254,14.4261333 22.8795083,14.511688 23.4476,14.6828 C24.0156917,14.853912 24.5153312,15.1071539 24.9465333,15.4425333 C25.3777355,15.7779128 25.7165321,16.1919975 25.9629333,16.6848 C26.2093346,17.1776025 26.3325333,17.75253 26.3325333,18.4096 C26.3325333,19.1898706 26.0964024,19.8845747 25.6241333,20.4937333 C25.1518643,21.1028919 24.5187595,21.5032879 23.7248,21.6949333 L23.7248,21.736 C24.6145822,21.9139564 25.3366639,22.3143524 25.8910667,22.9372 C26.4454694,23.5600476 26.7226667,24.3231955 26.7226667,25.2266667 C26.7226667,25.9795593 26.5755126,26.6366194 26.2812,27.1978667 C25.9868874,27.7591139 25.596758,28.2245315 25.1108,28.5941333 C24.624842,28.9637352 24.0807141,29.2409324 23.4784,29.4257333 C22.8760859,29.6105343 22.2669364,29.7029333 21.6509333,29.7029333 C21.0349303,29.7029333 20.4531583,29.6379118 19.9056,29.5078667 C19.3580417,29.3778216 18.8549801,29.1759125 18.3964,28.9021333 C17.9378199,28.6283542 17.5340017,28.2724466 17.1849333,27.8344 C16.8358649,27.3963534 16.5655121,26.8761808 16.3738667,26.2738667 L18.6736,25.5552 C18.8515564,26.1301362 19.1835087,26.6160869 19.6694667,27.0130667 C20.1554247,27.4100464 20.7885294,27.6085333 21.5688,27.6085333 C21.883646,27.6085333 22.2019095,27.5640449 22.5236,27.4750667 C22.8452905,27.3860884 23.1327543,27.2457787 23.386,27.0541333 C23.6392457,26.8624879 23.844577,26.6160904 24.002,26.3149333 C24.159423,26.0137763 24.2381333,25.64418 24.2381333,25.2061333 C24.2381333,24.7407088 24.1252011,24.3471572 23.8993333,24.0254667 C23.6734655,23.7037762 23.3894239,23.4505343 23.0472,23.2657333 C22.7049761,23.0809324 22.3251132,22.9474671 21.9076,22.8653333 C21.4900868,22.7831996 21.0896908,22.7421333 20.7064,22.7421333 L20.0904,22.7421333 L20.0904,20.7709333 Z" id="3" fill="#FFFFFF"></path>
            </g>
        </g>
    </g>
</svg>