<?xml version="1.0" encoding="UTF-8" standalone="no"?>
<svg width="481px" height="137px" viewBox="0 0 481 137" version="1.1" xmlns="http://www.w3.org/2000/svg" xmlns:xlink="http://www.w3.org/1999/xlink">
    <!-- Generator: Sketch 49.3 (51167) - http://www.bohemiancoding.com/sketch -->
    <title>Group 24 Copy</title>
    <desc>Created with Sketch.</desc>
    <defs></defs>
    <g id="Final" stroke="none" stroke-width="1" fill="none" fill-rule="evenodd">
        <g id="Group-24-Copy">
            <g id="Group-18">
                <g id="Group" transform="translate(0.000000, 8.988101)" fill="#AAADBD">
                    <path d="M35.9524044,7.58120554 C20.3083982,7.58120554 7.57979636,20.3074835 7.57979636,35.951767 C7.57979636,51.5947758 20.3083982,64.3236033 35.9524044,64.3236033 C51.5964107,64.3236033 64.3237378,51.5947758 64.3237378,35.951767 C64.3237378,20.3074835 51.5964107,7.58120554 35.9524044,7.58120554 M35.9524044,71.9048089 C16.1271449,71.9048089 0,55.7761032 0,35.951767 C0,16.1287056 16.1271449,0 35.9524044,0 C55.777664,0 71.9048089,16.1287056 71.9048089,35.951767 C71.9048089,55.7761032 55.777664,71.9048089 35.9524044,71.9048089" id="Fill-66"></path>
                    <polygon id="1" points="34.2806176 48.7925489 34.2806176 28.982774 29.8225195 30.0613462 28.4922805 24.6325331 36.1141903 22.4394364 41.1115745 22.4394364 41.1115745 48.7925489"></polygon>
                </g>
                <g id="Group-2" transform="translate(97.585098, 8.988101)" fill="#AAADBD">
                    <path d="M35.951767,7.58120554 C20.3087583,7.58120554 7.57993074,20.3074835 7.57993074,35.951767 C7.57993074,51.5947758 20.3087583,64.3236033 35.951767,64.3236033 C51.5947758,64.3236033 64.3236033,51.5947758 64.3236033,35.951767 C64.3236033,20.3074835 51.5947758,7.58120554 35.951767,7.58120554 M35.951767,71.9048089 C16.1274309,71.9048089 0,55.7761032 0,35.951767 C0,16.1287056 16.1274309,0 35.951767,0 C55.7761032,0 71.9048089,16.1287056 71.9048089,35.951767 C71.9048089,55.7761032 55.7761032,71.9048089 35.951767,71.9048089" id="Fill-71"></path>
                    <path d="M25.6520406,48.7925489 L25.6520406,43.5075454 L35.2153802,36.1013501 C37.8039533,34.0520631 38.846573,32.7937289 38.846573,31.0680135 C38.846573,29.3063457 37.6241913,28.263726 35.7906186,28.263726 C33.957046,28.263726 32.5908546,29.3063457 30.5415676,31.6792044 L25.8318026,27.7603923 C28.6001377,24.1651518 31.3325205,22.1877696 36.2939523,22.1877696 C41.9384798,22.1877696 45.8213395,25.5313432 45.8213395,30.4568226 L45.8213395,30.5287274 C45.8213395,34.7711112 43.6282428,36.9282554 39.6015735,39.912305 L35.1434753,43.0761166 L46.0730063,43.0761166 L46.0730063,48.7925489 L25.6520406,48.7925489 Z" id="2"></path>
                </g>
                <g id="Group-4" transform="translate(292.755293, 8.988101)" fill="#AAADBD">
                    <path d="M35.951767,7.58120554 C20.3087583,7.58120554 7.57993074,20.3074835 7.57993074,35.951767 C7.57993074,51.5947758 20.3087583,64.3236033 35.951767,64.3236033 C51.5947758,64.3236033 64.3236033,51.5947758 64.3236033,35.951767 C64.3236033,20.3074835 51.5947758,7.58120554 35.951767,7.58120554 M35.951767,71.9048089 C16.1274309,71.9048089 0,55.7761032 0,35.951767 C0,16.1287056 16.1274309,0 35.951767,0 C55.7761032,0 71.9048089,16.1287056 71.9048089,35.951767 C71.9048089,55.7761032 55.7761032,71.9048089 35.951767,71.9048089" id="Fill-76"></path>
                    <path d="M37.5522864,48.7925489 L37.5522864,43.5794502 L24.8251353,43.5794502 L23.7106107,38.6899232 L37.4444292,22.4394364 L44.2394337,22.4394364 L44.2394337,38.3303992 L47.5830073,38.3303992 L47.5830073,43.5794502 L44.2394337,43.5794502 L44.2394337,48.7925489 L37.5522864,48.7925489 Z M31.1527585,38.3663516 L37.5522864,38.3663516 L37.5522864,30.7084895 L31.1527585,38.3663516 Z" id="4"></path>
                </g>
                <g id="Group-3" transform="translate(195.170196, 8.988101)" fill="#AAADBD">
                    <path d="M35.951767,7.58120554 C20.3087583,7.58120554 7.57993074,20.3074835 7.57993074,35.951767 C7.57993074,51.5947758 20.3087583,64.3236033 35.951767,64.3236033 C51.5947758,64.3236033 64.3236033,51.5947758 64.3236033,35.951767 C64.3236033,20.3074835 51.5947758,7.58120554 35.951767,7.58120554 M35.951767,71.9048089 C16.1274309,71.9048089 0,55.7761032 0,35.951767 C0,16.1287056 16.1274309,0 35.951767,0 C55.7761032,0 71.9048089,16.1287056 71.9048089,35.951767 C71.9048089,55.7761032 55.7761032,71.9048089 35.951767,71.9048089" id="Fill-81"></path>
                    <path d="M36.1321665,49.2958826 C31.1347822,49.2958826 27.647399,47.4623099 25.1666831,44.6939748 L29.6247813,40.271829 C31.4583539,42.2132589 33.4357361,43.291831 35.8804996,43.291831 C37.9657391,43.291831 39.2959781,42.2132589 39.2959781,40.5594483 L39.2959781,40.4875435 C39.2959781,38.6899232 37.7140723,37.6473035 34.8378799,37.6473035 L31.9257351,37.6473035 L30.9190678,33.9082534 L36.9950242,28.2996784 L26.9283509,28.2996784 L26.9283509,22.6191985 L45.5876488,22.6191985 L45.5876488,27.6165827 L39.2600257,33.1892054 C42.9631233,33.9801583 46.0550301,35.9934929 46.0550301,40.5594483 L46.0550301,40.6313531 C46.0550301,45.8444517 41.9205036,49.2958826 36.1321665,49.2958826 Z" id="3"></path>
                </g>
                <g id="Group-17" transform="translate(390.340391, 0.000000)">
                    <path d="M89.8810111,44.9430424 C89.8810111,69.7598923 69.7611607,89.8810111 44.9430424,89.8810111 C20.1236557,89.8810111 0,69.7598923 0,44.9430424 C0,20.1223872 20.1236557,0 44.9430424,0 C69.7611607,0 89.8810111,20.1223872 89.8810111,44.9430424" id="Fill-84" fill="#3C78B4"></path>
                    <path d="M86.0289678,44.942825 C86.0289678,67.6325163 67.633676,86.0289678 44.942825,86.0289678 C22.2508142,86.0289678 3.85204333,67.6325163 3.85204333,44.942825 C3.85204333,22.2496545 22.2508142,3.85204333 44.942825,3.85204333 C67.633676,3.85204333 86.0289678,22.2496545 86.0289678,44.942825" id="Fill-84" fill="#4687C8"></path>
                    <path d="M80.89291,44.942535 C80.89291,64.7960149 64.7970297,80.89291 44.942535,80.89291 C25.0870257,80.89291 8.98810111,64.7960149 8.98810111,44.942535 C8.98810111,25.0860109 25.0870257,8.98810111 44.942535,8.98810111 C64.7970297,8.98810111 80.89291,25.0860109 80.89291,44.942535" id="Fill-84" fill="#3C78B4"></path>
                    <path d="M44.1283664,71.6094856 C35.1595255,71.6094856 28.8742748,68.5021706 23.5777152,63.558715 L31.4872442,54.3073909 C35.5832503,57.8384306 39.5380148,59.8864337 43.916504,59.8864337 C48.7187181,59.8864337 51.6847914,57.4853267 51.6847914,53.601183 L51.6847914,53.4599414 C51.6847914,49.6464185 48.4362349,47.3159323 43.7752624,47.3159323 C40.5973267,47.3159323 37.9137365,48.3752442 35.5126295,49.7876601 L27.3912381,45.1266876 L28.8742748,19.2088561 L62.7016354,19.2088561 L62.7016354,30.578804 L39.820498,30.578804 L39.3261524,38.6295746 C41.6566386,37.6408834 43.916504,36.9346755 47.3063022,36.9346755 C56.6988678,36.9346755 64.9615008,42.0193727 64.9615008,53.3186998 L64.9615008,53.4599414 C64.9615008,64.7592685 56.4163847,71.6094856 44.1283664,71.6094856 Z" id="5" fill="#FFFFFF"></path>
                </g>
            </g>
            <polygon id="Triangle" fill="#4687C8" points="434.892989 98 443.785978 106.892989 426 106.892989"></polygon>
            <text id="EXCELLENT" font-family="AvenirNext-Bold, Avenir Next" font-size="27" font-weight="bold" letter-spacing="1.20000005" fill="#3C78B4">
                <tspan x="319" y="136">EXCELLEN</tspan>
                <tspan x="464.464" y="136">T</tspan>
            </text>
        </g>
    </g>
</svg>