<?xml version="1.0" encoding="UTF-8" standalone="no"?>
<svg width="481px" height="137px" viewBox="0 0 481 137" version="1.1" xmlns="http://www.w3.org/2000/svg" xmlns:xlink="http://www.w3.org/1999/xlink">
    <!-- Generator: Sketch 49.3 (51167) - http://www.bohemiancoding.com/sketch -->
    <title>Group 16 Copy</title>
    <desc>Created with Sketch.</desc>
    <defs></defs>
    <g id="Final" stroke="none" stroke-width="1" fill="none" fill-rule="evenodd">
        <g id="Group-16-Copy">
            <polygon id="Triangle" fill="#649AD0" points="337.892989 98 346.785978 106.892989 329 106.892989"></polygon>
            <text id="VERY-GOOD" font-family="AvenirNext-Bold, Avenir Next" font-size="27" font-weight="bold" letter-spacing="1.20000005" fill="#5A8CBE">
                <tspan x="250" y="136">VERY GOOD</tspan>
            </text>
            <g id="Group-9">
                <g id="Group" transform="translate(0.000000, 8.986033)" fill="#AAADBD">
                    <path d="M35.944132,7.57946114 C20.3037254,7.57946114 7.57805229,20.3028108 7.57805229,35.9434947 C7.57805229,51.5829041 20.3037254,64.3088028 35.944132,64.3088028 C51.5845386,64.3088028 64.3089372,51.5829041 64.3089372,35.9434947 C64.3089372,20.3028108 51.5845386,7.57946114 35.944132,7.57946114 M35.944132,71.888264 C16.1234342,71.888264 0,55.7632694 0,35.9434947 C0,16.1249945 16.1234342,0 35.944132,0 C55.7648298,0 71.888264,16.1249945 71.888264,35.9434947 C71.888264,55.7632694 55.7648298,71.888264 35.944132,71.888264" id="Fill-66"></path>
                    <polygon id="1" points="34.2727298 48.781322 34.2727298 28.9761053 29.8156575 30.0544292 28.4857246 24.6268653 36.1058806 22.4342732 41.1021149 22.4342732 41.1021149 48.781322"></polygon>
                </g>
                <g id="Group-2" transform="translate(97.562644, 8.986033)" fill="#AAADBD">
                    <path d="M35.9434947,7.57946114 C20.3040853,7.57946114 7.57818664,20.3028108 7.57818664,35.9434947 C7.57818664,51.5829041 20.3040853,64.3088028 35.9434947,64.3088028 C51.5829041,64.3088028 64.3088028,51.5829041 64.3088028,35.9434947 C64.3088028,20.3028108 51.5829041,7.57946114 35.9434947,7.57946114 M35.9434947,71.888264 C16.12372,71.888264 0,55.7632694 0,35.9434947 C0,16.1249945 16.12372,0 35.9434947,0 C55.7632694,0 71.888264,16.1249945 71.888264,35.9434947 C71.888264,55.7632694 55.7632694,71.888264 35.9434947,71.888264" id="Fill-71"></path>
                    <path d="M25.6461382,48.781322 L25.6461382,43.4975346 L35.2072773,36.0930434 C37.7952548,34.0442279 38.8376346,32.7861832 38.8376346,31.0608649 C38.8376346,29.2996024 37.6155341,28.2572226 35.7823834,28.2572226 C33.9492327,28.2572226 32.5833556,29.2996024 30.5345401,31.6719152 L25.8258588,27.7540048 C28.593557,24.1595916 31.325311,22.1826643 36.2856012,22.1826643 C41.92883,22.1826643 45.8107962,25.5254686 45.8107962,30.4498147 L45.8107962,30.5217029 C45.8107962,34.7631105 43.6182042,36.9197584 39.5924614,39.9031214 L35.135389,43.066205 L46.0624051,43.066205 L46.0624051,48.781322 L25.6461382,48.781322 Z" id="2"></path>
                </g>
                <g id="Group-3" transform="translate(194.711645, 8.890943)" fill="#AAADBD">
                    <path d="M35.9434947,7.57946114 C20.3040853,7.57946114 7.57818664,20.3028108 7.57818664,35.9434947 C7.57818664,51.5829041 20.3040853,64.3088028 35.9434947,64.3088028 C51.5829041,64.3088028 64.3088028,51.5829041 64.3088028,35.9434947 C64.3088028,20.3028108 51.5829041,7.57946114 35.9434947,7.57946114 M35.9434947,71.888264 C16.12372,71.888264 0,55.7632694 0,35.9434947 C0,16.1249945 16.12372,0 35.9434947,0 C55.7632694,0 71.888264,16.1249945 71.888264,35.9434947 C71.888264,55.7632694 55.7632694,71.888264 35.9434947,71.888264" id="Fill-81"></path>
                    <path d="M36.1238526,49.2845398 C31.1276183,49.2845398 27.6410375,47.4513891 25.1608924,44.6836909 L29.6179648,40.2625627 C31.4511155,42.2035458 33.4280427,43.2818698 35.8722437,43.2818698 C37.9570034,43.2818698 39.2869363,42.2035458 39.2869363,40.5501157 L39.2869363,40.4782275 C39.2869363,38.6810209 37.7053944,37.6386411 34.8298639,37.6386411 L31.9183892,37.6386411 L30.9119535,33.9004513 L36.9865118,28.2931667 L26.9221549,28.2931667 L26.9221549,22.6139939 L45.5771594,22.6139939 L45.5771594,27.6102282 L39.2509921,33.1815687 C42.9532377,33.9723396 46.0444331,35.985211 46.0444331,40.5501157 L46.0444331,40.622004 C46.0444331,45.8339032 41.9108579,49.2845398 36.1238526,49.2845398 Z" id="3"></path>
                </g>
                <g id="Group-4" transform="translate(408.983364, 8.890943)" fill="#AAADBD">
                    <path d="M35.9434947,7.57946114 C20.3040853,7.57946114 7.57818664,20.3028108 7.57818664,35.9434947 C7.57818664,51.5829041 20.3040853,64.3088028 35.9434947,64.3088028 C51.5829041,64.3088028 64.3088028,51.5829041 64.3088028,35.9434947 C64.3088028,20.3028108 51.5829041,7.57946114 35.9434947,7.57946114 M35.9434947,71.888264 C16.12372,71.888264 0,55.7632694 0,35.9434947 C0,16.1249945 16.12372,0 35.9434947,0 C55.7632694,0 71.888264,16.1249945 71.888264,35.9434947 C71.888264,55.7632694 55.7632694,71.888264 35.9434947,71.888264" id="Fill-76"></path>
                    <path d="M36.2164763,48.8290574 C31.663355,48.8290574 28.472585,47.251598 25.7837338,44.7420036 L29.7990849,40.045477 C31.8784631,41.8380444 33.8861386,42.8777335 36.1089222,42.8777335 C38.5468139,42.8777335 40.0525705,41.6587877 40.0525705,39.6869635 L40.0525705,39.6152608 C40.0525705,37.679288 38.4034085,36.4961935 36.0372195,36.4961935 C34.4239088,36.4961935 33.0615576,37.0339637 31.8426117,37.7509907 L27.7197066,35.3848017 L28.472585,22.2273567 L45.6453809,22.2273567 L45.6453809,27.9994239 L34.029544,27.9994239 L33.7785846,32.0864776 C34.9616791,31.5845587 36.1089222,31.2260452 37.8297869,31.2260452 C42.5980163,31.2260452 46.7926241,33.8073423 46.7926241,39.5435581 L46.7926241,39.6152608 C46.7926241,45.3514766 42.4546109,48.8290574 36.2164763,48.8290574 Z" id="5"></path>
                </g>
                <g id="Group-17" transform="translate(292.512015, 0.000000)">
                    <path d="M89.8603299,44.9327013 C89.8603299,69.7438409 69.745109,89.8603299 44.9327013,89.8603299 C20.1190253,89.8603299 0,69.7438409 0,44.9327013 C0,20.1177572 20.1190253,0 44.9327013,0 C69.745109,0 89.8603299,20.1177572 89.8603299,44.9327013" id="Fill-84" fill="#5A8CBE"></path>
                    <path d="M86.009173,44.9324839 C86.009173,67.6169544 67.6181138,86.009173 44.9324839,86.009173 C22.2456944,86.009173 3.851157,67.6169544 3.851157,44.9324839 C3.851157,22.244535 22.2456944,3.851157 44.9324839,3.851157 C67.6181138,3.851157 86.009173,22.244535 86.009173,44.9324839" id="Fill-84" fill="#649AD0"></path>
                    <path d="M80.7792067,44.8371037 C80.7792067,64.6860154 64.6870299,80.7792067 44.8371037,80.7792067 C24.986163,80.7792067 8.8909427,64.6860154 8.8909427,44.8371037 C8.8909427,24.9851484 24.986163,8.8909427 44.8371037,8.8909427 C64.6870299,8.8909427 80.7792067,24.9851484 80.7792067,44.8371037" id="Fill-84" fill="#5A8CBE"></path>
                    <path d="M46.0504138,70.7985777 L46.0504138,60.4868427 L20.8755575,60.4868427 L18.6709797,50.8151465 L45.8370676,18.6709797 L59.2778807,18.6709797 L59.2778807,50.1039924 L65.8916141,50.1039924 L65.8916141,60.4868427 L59.2778807,60.4868427 L59.2778807,70.7985777 L46.0504138,70.7985777 Z M33.3918702,50.1751078 L46.0504138,50.1751078 L46.0504138,35.0275247 L33.3918702,50.1751078 Z" id="4" fill="#FFFFFF"></path>
                </g>
            </g>
        </g>
    </g>
</svg>