<?xml version="1.0" encoding="UTF-8" standalone="no"?>
<svg width="218px" height="69px" viewBox="0 0 218 69" version="1.1" xmlns="http://www.w3.org/2000/svg" xmlns:xlink="http://www.w3.org/1999/xlink">
    <!-- Generator: Sketch 49.3 (51167) - http://www.bohemiancoding.com/sketch -->
    <title>Group 22 Copy</title>
    <desc>Created with Sketch.</desc>
    <defs></defs>
    <g id="Final" stroke="none" stroke-width="1" fill="none" fill-rule="evenodd">
        <g id="Group-22-Copy">
            <g id="Group-12" transform="translate(0.000000, 14.851485)" fill="#CB202D">
                <path d="M135.976928,26.4050919 L134.983892,32.521075 C133.451203,33.3521295 130.581031,34.5433915 127.265662,34.5433915 C121.625441,34.5433915 120.485684,31.5397768 121.37608,25.1616533 L122.813055,14.896684 L120.03293,14.896684 L120.820685,8.25579129 L123.847022,8.1074336 L124.988667,3.28769448 L133.551325,0.0728587144 L132.465093,8.1074336 L138.353415,8.1074336 C138.150022,8.94100267 137.459242,13.4967154 137.264664,14.896684 L131.521802,14.896684 L130.236585,24.3878045 C129.889621,26.8187333 130.085457,27.7007072 131.768015,27.7007072 C133.006005,27.7007072 134.837172,26.9771491 135.976928,26.4050919 Z M100.849001,34.0567657 C96.4505476,34.5961339 93.5539287,32.8560742 92.6855727,28.8887632 C92.1402527,26.3937137 92.8971518,23.5504008 94.2239292,21.8556027 C95.9940153,19.6402955 98.884967,18.2170674 102.413804,17.7864529 C105.253121,17.4363036 107.64535,17.6098067 109.880784,18.0335062 L109.972091,17.6500393 C110.035691,17.0377495 110.103068,16.4242024 110.011762,15.694358 C109.780662,13.8141128 108.29583,12.6951438 104.630977,13.1446173 C102.160035,13.447619 99.805588,14.3427943 97.9750508,15.3542669 L96.1992974,9.99578815 C98.6746472,8.57256011 101.797958,7.4906805 105.374023,7.05692284 C112.19682,6.21706742 116.987576,8.39339934 117.600904,13.3860129 C117.763996,14.7136885 117.784776,16.1218293 117.616016,17.396071 C116.740734,23.5705171 116.177782,28.2180104 115.93031,31.331636 C115.891898,31.8156844 115.900085,32.6429672 115.942904,33.8178846 L107.470923,33.8109697 C107.654796,33.3212636 107.815369,32.6643407 107.957681,31.8364294 C108.053396,31.2932893 108.125811,30.6055634 108.168631,29.7707371 C106.373357,32.2236681 103.917528,33.6770706 100.849001,34.0567657 M103.503185,29.3162345 C106.61705,28.9340248 108.760549,25.9322961 109.275643,22.9399969 L109.36506,22.1384881 C108.0238,21.8380009 106.091251,21.6123212 104.212227,21.84303 C102.427028,22.0624234 100.935899,22.8029546 100.139329,23.8772906 C99.539225,24.646739 99.2313018,25.5676882 99.3685764,26.6659123 C99.5694506,28.3160773 101.394321,29.5746032 103.503185,29.3162345 M91.5157164,15.9873645 C92.1573805,11.5793808 91.8129347,7.58881031 86.9145002,7.58881031 C83.3459916,7.58881031 79.4865617,10.5949395 76.7649992,15.6252711 C77.3606952,11.4769134 77.0137307,7.58881031 72.1593751,7.58881031 C68.4989303,7.58881031 64.5425266,10.7546126 61.8165563,15.9873645 C62.5123746,12.5650794 62.3637654,8.67886217 62.1622615,7.84780764 C59.3430956,8.31488292 56.8721537,8.57388025 53.4062861,8.67886217 C53.5045193,11.0607575 53.3552804,14.1743832 52.9107124,17.1258212 L51.7709558,24.902656 C51.3282769,27.9609618 50.8301844,31.4876002 50.3327215,33.7179947 L59.5420807,33.7179947 C59.591827,32.3676882 59.9369025,30.2429043 60.1856339,28.3771177 L60.9777962,23.0387553 C61.6219791,19.5642936 64.390769,15.4699984 66.5197839,15.4699984 C67.7546252,15.4699984 67.7048789,16.6593745 67.3623222,18.8910262 L66.4700376,24.902656 C66.026729,27.9609618 65.5305256,31.4876002 65.0355816,33.7179947 L74.3406551,33.7179947 C74.3878826,32.3676882 74.6857306,30.2429043 74.9325729,28.3771177 L75.7285134,23.0387553 C76.3682884,19.5642936 79.1427456,15.4699984 81.2673526,15.4699984 C82.5084909,15.4699984 82.4574852,16.6059406 82.256611,18.1668395 L80.037549,33.7179947 L88.5315692,33.7179947 L91.5157164,15.9873645 Z M163.393427,18.7602703 C163.393427,27.4831997 157.224888,34.7313531 149.050755,34.7313531 C141.730495,34.7313531 137.971817,29.7393682 137.971817,23.2304888 C137.971817,14.5622505 144.190103,7.31409712 152.31323,7.31409712 C159.734871,7.31409712 163.393427,12.3035675 163.393427,18.7602703 Z M146.88018,23.0563571 C146.88018,26.2177589 147.920444,27.8239195 149.698716,27.8239195 C152.080241,27.8239195 153.957376,23.9911363 153.957376,19.3222694 C153.957376,16.111834 152.92089,14.5553355 151.187326,14.5553355 C148.80895,14.5553355 146.88018,18.339714 146.88018,23.0563571 Z M49.8925614,18.9457174 C49.8925614,27.5454345 43.8039943,34.6999214 35.7369105,34.6999214 C28.5079571,34.6999214 24.797766,29.7777149 24.797766,23.3493006 C24.797766,14.7961025 30.9354497,7.6453874 38.9521575,7.6453874 C46.2749362,7.6453874 49.8925614,12.5688512 49.8925614,18.9457174 Z M33.7099069,23.0563571 C33.7099069,26.2177589 34.745763,27.8239195 36.5315916,27.8239195 C38.9024112,27.8239195 40.7839542,23.9911363 40.7839542,19.3222694 C40.7839542,16.111834 39.7449495,14.5553355 38.0120158,14.5553355 C35.6367882,14.5553355 33.7099069,18.339714 33.7099069,23.0563571 Z M24.9482643,8.26270627 L24.797766,12.9812353 L12.4745414,26.3529153 C17.6210777,26.3529153 20.8885898,26.3038818 22.7682436,26.1963854 C22.224183,28.7392111 21.7789853,30.812447 21.3325281,33.9210435 C18.8571783,33.7179947 15.0002672,33.6633035 11.1408373,33.6633035 C6.83180176,33.6633035 3.07186441,33.7179947 0.0505648918,33.9210435 L0.148798057,29.1534811 L12.4745414,15.833349 C7.08179257,15.833349 5.10138678,15.8842684 2.87099018,15.9333019 C3.3709718,13.5501493 3.71793637,10.9073707 4.06301185,8.26270627 C7.97218805,8.41923621 9.5036179,8.47329876 14.6054455,8.47329876 C19.3061543,8.47329876 21.9760813,8.41923621 24.9482643,8.26270627 Z" id="Fill-61"></path>
            </g>
            <g id="Group-8" fill="#9296A7">
                <path d="M5.50122252,5.26229373 L4.40200285,2.60470297 L3.29121245,5.26229373 L5.50122252,5.26229373 Z M3.65816999,0.625330033 L5.18881272,0.625330033 L8.56250797,8.51146865 L6.82689797,8.51146865 L6.09463584,6.7259901 L2.69862561,6.7259901 L1.96636348,8.51146865 L0.273730492,8.51146865 L3.65816999,0.625330033 Z" id="Fill-99"></path>
                <polygon id="Fill-100" points="10.974262 0.679207921 12.4941605 0.679207921 16.2769638 5.61732673 16.2769638 0.679207921 17.9150491 0.679207921 17.9150491 8.51171617 16.5034196 8.51171617 12.601603 3.41188119 12.601603 8.51171617 10.974262 8.51171617"></polygon>
                <polygon id="Fill-101" points="25.5977681 8.51155116 27.2573418 8.51155116 27.2573418 0.679042904 25.5977681 0.679042904"></polygon>
                <polygon id="Fill-102" points="30.4143338 0.679207921 31.9342323 0.679207921 35.7170356 5.61732673 35.7170356 0.679207921 37.3551208 0.679207921 37.3551208 8.51171617 35.9426649 8.51171617 32.0416748 3.41188119 32.0416748 8.51171617 30.4143338 8.51171617"></polygon>
                <polygon id="Fill-103" points="40.5116169 8.51155116 42.1711906 8.51155116 42.1711906 0.679042904 40.5116169 0.679042904"></polygon>
                <polygon id="Fill-104" points="47.1715657 2.20610561 44.7565884 2.20610561 44.7565884 0.678877888 51.2345461 0.678877888 51.2345461 2.20610561 48.8311395 2.20610561 48.8311395 8.51221122 47.1715657 8.51221122"></polygon>
                <polygon id="Fill-105" points="53.8196132 8.51155116 55.4791869 8.51155116 55.4791869 0.679042904 53.8196132 0.679042904"></polygon>
                <path d="M63.1846342,5.26229373 L62.0854145,2.60470297 L60.9754506,5.26229373 L63.1846342,5.26229373 Z M61.3424081,0.625330033 L62.8730508,0.625330033 L66.2467461,8.51146865 L64.5103096,8.51146865 L63.778874,6.7259901 L60.3820373,6.7259901 L59.6497751,8.51146865 L57.9571421,8.51146865 L61.3424081,0.625330033 Z" id="Fill-106"></path>
                <polygon id="Fill-107" points="69.4994445 2.20610561 67.0844672 2.20610561 67.0844672 0.678877888 73.5632514 0.678877888 73.5632514 2.20610561 71.1590183 2.20610561 71.1590183 8.51221122 69.4994445 8.51221122"></polygon>
                <polygon id="Fill-108" points="76.1478226 8.51155116 77.8082229 8.51155116 77.8082229 0.679042904 76.1478226 0.679042904"></polygon>
                <polygon id="Fill-109" points="80.2856822 0.679207921 82.1188169 0.679207921 84.2304758 6.29554455 86.3437875 0.679207921 88.1322923 0.679207921 84.9420759 8.56617162 83.4767251 8.56617162"></polygon>
                <polygon id="Fill-110" points="90.5352031 0.679207921 96.4304917 0.679207921 96.4304917 2.15280528 92.1724618 2.15280528 92.1724618 3.8310231 95.9238589 3.8310231 95.9238589 5.30462046 92.1724618 5.30462046 92.1724618 7.03729373 96.484213 7.03729373 96.484213 8.51171617 90.5352031 8.51171617"></polygon>
                <path d="M107.377976,5.25181518 L105.3407,5.25181518 L105.3407,7.05957096 L107.442441,7.05957096 C108.239995,7.05957096 108.725966,6.76914191 108.725966,6.1660066 L108.725966,6.14537954 C108.725966,5.58514851 108.304461,5.25181518 107.377976,5.25181518 Z M108.283799,2.96963696 C108.283799,2.44323432 107.86312,2.13135314 107.109369,2.13135314 L105.3407,2.13135314 L105.3407,3.87392739 L107.0011,3.87392739 C107.787084,3.87392739 108.283799,3.6049505 108.283799,2.99273927 L108.283799,2.96963696 Z M103.734848,0.679207921 L107.345743,0.679207921 C108.239995,0.679207921 108.951595,0.926732673 109.404507,1.36815182 C109.76072,1.73283828 109.932628,2.16353135 109.932628,2.70148515 L109.932628,2.72293729 C109.932628,3.61650165 109.447484,4.11072607 108.88713,4.42343234 C109.792127,4.75676568 110.373969,5.2839934 110.373969,6.33762376 L110.373969,6.35990099 C110.373969,7.79059406 109.210284,8.51171617 107.442441,8.51171617 L103.734848,8.51171617 L103.734848,0.679207921 Z" id="Fill-111"></path>
                <polygon id="Fill-112" points="114.877629 5.42343234 111.849403 0.679207921 113.78998 0.679207921 115.719813 3.88465347 117.69097 0.679207921 119.577826 0.679207921 116.538029 5.39207921 116.538029 8.51171617 114.877629 8.51171617"></polygon>
            </g>
            <path d="M3.216,66.8604752 C2.112,66.8604752 1.332,66.3804752 1.332,64.9524752 L1.332,61.4244752 L0.48,61.4244752 L0.48,60.1764752 L1.332,60.1764752 L1.332,58.3524752 L2.772,58.3524752 L2.772,60.1764752 L4.572,60.1764752 L4.572,61.4244752 L2.772,61.4244752 L2.772,64.7244752 C2.772,65.3244752 3.084,65.5764752 3.612,65.5764752 C3.948,65.5764752 4.248,65.4924752 4.548,65.3484752 L4.548,66.5364752 C4.176,66.7404752 3.768,66.8604752 3.216,66.8604752 Z M6.216,66.7524752 L6.216,57.6444752 L7.656,57.6444752 L7.656,61.2084752 C8.088,60.5844752 8.712,60.0444752 9.744,60.0444752 C11.232,60.0444752 12.108,61.0404752 12.108,62.5764752 L12.108,66.7524752 L10.656,66.7524752 L10.656,63.0084752 C10.656,61.9644752 10.128,61.3644752 9.204,61.3644752 C8.292,61.3644752 7.656,61.9884752 7.656,63.0324752 L7.656,66.7524752 L6.216,66.7524752 Z M17.04,66.8964752 C15.144,66.8964752 13.68,65.5164752 13.68,63.4884752 L13.68,63.4644752 C13.68,61.5804752 15.012,60.0444752 16.884,60.0444752 C18.96,60.0444752 20.016,61.6764752 20.016,63.5724752 C20.016,63.7044752 20.016,63.8364752 20.004,63.9804752 L15.132,63.9804752 C15.288,65.0964752 16.068,65.7084752 17.064,65.7084752 C17.82,65.7084752 18.36,65.4324752 18.876,64.9164752 L19.74,65.6724752 C19.104,66.4164752 18.252,66.8964752 17.04,66.8964752 Z M15.108,63.0204752 L18.588,63.0204752 C18.48,62.0124752 17.904,61.2324752 16.872,61.2324752 C15.924,61.2324752 15.252,61.9644752 15.108,63.0204752 Z M28.62,66.8964752 C26.616,66.8964752 25.14,65.3724752 25.14,63.5004752 L25.14,63.4764752 C25.14,61.6044752 26.628,60.0444752 28.644,60.0444752 C30.648,60.0444752 32.124,61.5684752 32.124,63.4524752 L32.124,63.4764752 C32.124,65.3484752 30.636,66.8964752 28.62,66.8964752 Z M28.644,65.6364752 C29.88,65.6364752 30.684,64.6644752 30.684,63.5004752 L30.684,63.4764752 C30.684,62.3004752 29.82,61.3044752 28.62,61.3044752 C27.384,61.3044752 26.58,62.2884752 26.58,63.4524752 L26.58,63.4764752 C26.58,64.6524752 27.444,65.6364752 28.644,65.6364752 Z M33.78,66.7524752 L33.78,60.1764752 L35.22,60.1764752 L35.22,61.2084752 C35.652,60.5844752 36.276,60.0444752 37.308,60.0444752 C38.796,60.0444752 39.672,61.0404752 39.672,62.5764752 L39.672,66.7524752 L38.22,66.7524752 L38.22,63.0084752 C38.22,61.9644752 37.692,61.3644752 36.768,61.3644752 C35.856,61.3644752 35.22,61.9884752 35.22,63.0324752 L35.22,66.7524752 L33.78,66.7524752 Z M41.688,66.7524752 L41.688,57.6444752 L43.14,57.6444752 L43.14,66.7524752 L41.688,66.7524752 Z M48.084,65.1324752 L49.836,60.1764752 L51.348,60.1764752 L48.72,66.9324752 C48.192,68.2884752 47.604,68.7924752 46.548,68.7924752 C45.936,68.7924752 45.48,68.6484752 45.012,68.3964752 L45.504,67.3044752 C45.78,67.4604752 46.08,67.5684752 46.404,67.5684752 C46.848,67.5684752 47.112,67.3644752 47.388,66.7524752 L44.616,60.1764752 L46.164,60.1764752 L48.084,65.1324752 Z M56.952,66.7524752 L56.952,61.4244752 L56.124,61.4244752 L56.124,60.2124752 L56.952,60.2124752 L56.952,59.7204752 C56.952,58.9884752 57.144,58.4364752 57.504,58.0884752 C57.84,57.7524752 58.332,57.5724752 58.968,57.5724752 C59.496,57.5724752 59.844,57.6324752 60.18,57.7404752 L60.18,58.9644752 C59.868,58.8684752 59.604,58.8084752 59.28,58.8084752 C58.692,58.8084752 58.392,59.1324752 58.392,59.8404752 L58.392,60.2244752 L60.156,60.2244752 L60.156,61.4244752 L58.404,61.4244752 L58.404,66.7524752 L56.952,66.7524752 Z M64.512,66.8964752 C62.508,66.8964752 61.032,65.3724752 61.032,63.5004752 L61.032,63.4764752 C61.032,61.6044752 62.52,60.0444752 64.536,60.0444752 C66.54,60.0444752 68.016,61.5684752 68.016,63.4524752 L68.016,63.4764752 C68.016,65.3484752 66.528,66.8964752 64.512,66.8964752 Z M64.536,65.6364752 C65.772,65.6364752 66.576,64.6644752 66.576,63.5004752 L66.576,63.4764752 C66.576,62.3004752 65.712,61.3044752 64.512,61.3044752 C63.276,61.3044752 62.472,62.2884752 62.472,63.4524752 L62.472,63.4764752 C62.472,64.6524752 63.336,65.6364752 64.536,65.6364752 Z M72.792,66.8964752 C70.788,66.8964752 69.312,65.3724752 69.312,63.5004752 L69.312,63.4764752 C69.312,61.6044752 70.8,60.0444752 72.816,60.0444752 C74.82,60.0444752 76.296,61.5684752 76.296,63.4524752 L76.296,63.4764752 C76.296,65.3484752 74.808,66.8964752 72.792,66.8964752 Z M72.816,65.6364752 C74.052,65.6364752 74.856,64.6644752 74.856,63.5004752 L74.856,63.4764752 C74.856,62.3004752 73.992,61.3044752 72.792,61.3044752 C71.556,61.3044752 70.752,62.2884752 70.752,63.4524752 L70.752,63.4764752 C70.752,64.6524752 71.616,65.6364752 72.816,65.6364752 Z M81.012,65.6364752 C82.056,65.6364752 82.98,64.7724752 82.98,63.4764752 L82.98,63.4524752 C82.98,62.1564752 82.056,61.2924752 81.012,61.2924752 C79.956,61.2924752 79.08,62.1204752 79.08,63.4524752 L79.08,63.4764752 C79.08,64.7844752 79.968,65.6364752 81.012,65.6364752 Z M80.676,66.8844752 C79.128,66.8844752 77.616,65.6604752 77.616,63.4764752 L77.616,63.4524752 C77.616,61.2804752 79.104,60.0444752 80.676,60.0444752 C81.78,60.0444752 82.476,60.5964752 82.944,61.2204752 L82.944,57.6444752 L84.396,57.6444752 L84.396,66.7524752 L82.944,66.7524752 L82.944,65.6244752 C82.452,66.3324752 81.756,66.8844752 80.676,66.8844752 Z M92.544,65.8284752 C93.576,65.8284752 94.356,65.2404752 94.356,64.3884752 L94.356,63.9084752 C93.96,63.7644752 93.432,63.6444752 92.808,63.6444752 C91.812,63.6444752 91.224,64.0764752 91.224,64.7724752 L91.224,64.7964752 C91.224,65.4564752 91.812,65.8284752 92.544,65.8284752 Z M92.16,66.8844752 C90.924,66.8844752 89.808,66.1764752 89.808,64.8564752 L89.808,64.8324752 C89.808,63.4164752 90.924,62.7204752 92.532,62.7204752 C93.276,62.7204752 93.816,62.8284752 94.332,62.9964752 L94.332,62.8284752 C94.332,61.8684752 93.744,61.3524752 92.664,61.3524752 C91.92,61.3524752 91.368,61.5084752 90.768,61.7604752 L90.384,60.6324752 C91.104,60.3084752 91.812,60.0924752 92.856,60.0924752 C93.828,60.0924752 94.56,60.3564752 95.028,60.8244752 C95.508,61.2924752 95.724,61.9764752 95.724,62.8404752 L95.724,66.7524752 L94.32,66.7524752 L94.32,65.9124752 C93.876,66.4524752 93.18,66.8844752 92.16,66.8844752 Z M101.04,65.6364752 C102.096,65.6364752 102.972,64.8084752 102.972,63.4764752 L102.972,63.4524752 C102.972,62.1444752 102.084,61.2924752 101.04,61.2924752 C99.996,61.2924752 99.072,62.1564752 99.072,63.4524752 L99.072,63.4764752 C99.072,64.7724752 99.996,65.6364752 101.04,65.6364752 Z M97.656,68.7444752 L97.656,60.1764752 L99.096,60.1764752 L99.096,61.3044752 C99.588,60.5964752 100.296,60.0444752 101.376,60.0444752 C102.924,60.0444752 104.436,61.2684752 104.436,63.4524752 L104.436,63.4764752 C104.436,65.6484752 102.936,66.8844752 101.376,66.8844752 C100.272,66.8844752 99.576,66.3324752 99.096,65.7084752 L99.096,68.7444752 L97.656,68.7444752 Z M109.5,65.6364752 C110.556,65.6364752 111.432,64.8084752 111.432,63.4764752 L111.432,63.4524752 C111.432,62.1444752 110.544,61.2924752 109.5,61.2924752 C108.456,61.2924752 107.532,62.1564752 107.532,63.4524752 L107.532,63.4764752 C107.532,64.7724752 108.456,65.6364752 109.5,65.6364752 Z M106.116,68.7444752 L106.116,60.1764752 L107.556,60.1764752 L107.556,61.3044752 C108.048,60.5964752 108.756,60.0444752 109.836,60.0444752 C111.384,60.0444752 112.896,61.2684752 112.896,63.4524752 L112.896,63.4764752 C112.896,65.6484752 111.396,66.8844752 109.836,66.8844752 C108.732,66.8844752 108.036,66.3324752 107.556,65.7084752 L107.556,68.7444752 L106.116,68.7444752 Z M121.26,65.1324752 L123.012,60.1764752 L124.524,60.1764752 L121.896,66.9324752 C121.368,68.2884752 120.78,68.7924752 119.724,68.7924752 C119.112,68.7924752 118.656,68.6484752 118.188,68.3964752 L118.68,67.3044752 C118.956,67.4604752 119.256,67.5684752 119.58,67.5684752 C120.024,67.5684752 120.288,67.3644752 120.564,66.7524752 L117.792,60.1764752 L119.34,60.1764752 L121.26,65.1324752 Z M129.072,66.8964752 C127.068,66.8964752 125.592,65.3724752 125.592,63.5004752 L125.592,63.4764752 C125.592,61.6044752 127.08,60.0444752 129.096,60.0444752 C131.1,60.0444752 132.576,61.5684752 132.576,63.4524752 L132.576,63.4764752 C132.576,65.3484752 131.088,66.8964752 129.072,66.8964752 Z M129.096,65.6364752 C130.332,65.6364752 131.136,64.6644752 131.136,63.5004752 L131.136,63.4764752 C131.136,62.3004752 130.272,61.3044752 129.072,61.3044752 C127.836,61.3044752 127.032,62.2884752 127.032,63.4524752 L127.032,63.4764752 C127.032,64.6524752 127.896,65.6364752 129.096,65.6364752 Z M136.524,66.8844752 C135.024,66.8844752 134.148,65.8884752 134.148,64.3524752 L134.148,60.1764752 L135.6,60.1764752 L135.6,63.9204752 C135.6,64.9644752 136.14,65.5644752 137.052,65.5644752 C137.964,65.5644752 138.6,64.9404752 138.6,63.8964752 L138.6,60.1764752 L140.04,60.1764752 L140.04,66.7524752 L138.6,66.7524752 L138.6,65.7204752 C138.168,66.3444752 137.556,66.8844752 136.524,66.8844752 Z M141.756,61.4724752 L141.6,60.8484752 C142.344,60.6924752 142.692,60.3084752 142.644,59.6844752 L142.02,59.6844752 L142.02,58.0164752 L143.616,58.0164752 L143.616,59.4324752 C143.616,60.7764752 142.992,61.3524752 141.756,61.4724752 Z M145.56,66.7524752 L145.56,57.6444752 L147.012,57.6444752 L147.012,66.7524752 L145.56,66.7524752 Z M149.196,66.7524752 L149.196,57.6444752 L150.648,57.6444752 L150.648,66.7524752 L149.196,66.7524752 Z M159.588,66.8964752 C157.692,66.8964752 156.228,65.5164752 156.228,63.4884752 L156.228,63.4644752 C156.228,61.5804752 157.56,60.0444752 159.432,60.0444752 C161.508,60.0444752 162.564,61.6764752 162.564,63.5724752 C162.564,63.7044752 162.564,63.8364752 162.552,63.9804752 L157.68,63.9804752 C157.836,65.0964752 158.616,65.7084752 159.612,65.7084752 C160.368,65.7084752 160.908,65.4324752 161.424,64.9164752 L162.288,65.6724752 C161.652,66.4164752 160.8,66.8964752 159.588,66.8964752 Z M157.656,63.0204752 L161.136,63.0204752 C161.028,62.0124752 160.452,61.2324752 159.42,61.2324752 C158.472,61.2324752 157.8,61.9644752 157.656,63.0204752 Z M166.296,66.8004752 L163.584,60.1764752 L165.144,60.1764752 L166.956,65.0724752 L168.792,60.1764752 L170.316,60.1764752 L167.604,66.8004752 L166.296,66.8004752 Z M174.708,66.8964752 C172.812,66.8964752 171.348,65.5164752 171.348,63.4884752 L171.348,63.4644752 C171.348,61.5804752 172.68,60.0444752 174.552,60.0444752 C176.628,60.0444752 177.684,61.6764752 177.684,63.5724752 C177.684,63.7044752 177.684,63.8364752 177.672,63.9804752 L172.8,63.9804752 C172.956,65.0964752 173.736,65.7084752 174.732,65.7084752 C175.488,65.7084752 176.028,65.4324752 176.544,64.9164752 L177.408,65.6724752 C176.772,66.4164752 175.92,66.8964752 174.708,66.8964752 Z M172.776,63.0204752 L176.256,63.0204752 C176.148,62.0124752 175.572,61.2324752 174.54,61.2324752 C173.592,61.2324752 172.92,61.9644752 172.776,63.0204752 Z M179.328,66.7524752 L179.328,60.1764752 L180.768,60.1764752 L180.768,61.6884752 C181.2,60.6924752 181.98,60.0084752 183.144,60.0564752 L183.144,61.5804752 L183.06,61.5804752 C181.728,61.5804752 180.768,62.4684752 180.768,64.2324752 L180.768,66.7524752 L179.328,66.7524752 Z M188.4,66.7524752 L188.4,60.1764752 L189.84,60.1764752 L189.84,61.2084752 C190.272,60.5844752 190.896,60.0444752 191.928,60.0444752 C193.416,60.0444752 194.292,61.0404752 194.292,62.5764752 L194.292,66.7524752 L192.84,66.7524752 L192.84,63.0084752 C192.84,61.9644752 192.312,61.3644752 191.388,61.3644752 C190.476,61.3644752 189.84,61.9884752 189.84,63.0324752 L189.84,66.7524752 L188.4,66.7524752 Z M199.224,66.8964752 C197.328,66.8964752 195.864,65.5164752 195.864,63.4884752 L195.864,63.4644752 C195.864,61.5804752 197.196,60.0444752 199.068,60.0444752 C201.144,60.0444752 202.2,61.6764752 202.2,63.5724752 C202.2,63.7044752 202.2,63.8364752 202.188,63.9804752 L197.316,63.9804752 C197.472,65.0964752 198.252,65.7084752 199.248,65.7084752 C200.004,65.7084752 200.544,65.4324752 201.06,64.9164752 L201.924,65.6724752 C201.288,66.4164752 200.436,66.8964752 199.224,66.8964752 Z M197.292,63.0204752 L200.772,63.0204752 C200.664,62.0124752 200.088,61.2324752 199.056,61.2324752 C198.108,61.2324752 197.436,61.9644752 197.292,63.0204752 Z M206.844,66.8964752 C204.948,66.8964752 203.484,65.5164752 203.484,63.4884752 L203.484,63.4644752 C203.484,61.5804752 204.816,60.0444752 206.688,60.0444752 C208.764,60.0444752 209.82,61.6764752 209.82,63.5724752 C209.82,63.7044752 209.82,63.8364752 209.808,63.9804752 L204.936,63.9804752 C205.092,65.0964752 205.872,65.7084752 206.868,65.7084752 C207.624,65.7084752 208.164,65.4324752 208.68,64.9164752 L209.544,65.6724752 C208.908,66.4164752 208.056,66.8964752 206.844,66.8964752 Z M204.912,63.0204752 L208.392,63.0204752 C208.284,62.0124752 207.708,61.2324752 206.676,61.2324752 C205.728,61.2324752 205.056,61.9644752 204.912,63.0204752 Z M214.524,65.6364752 C215.568,65.6364752 216.492,64.7724752 216.492,63.4764752 L216.492,63.4524752 C216.492,62.1564752 215.568,61.2924752 214.524,61.2924752 C213.468,61.2924752 212.592,62.1204752 212.592,63.4524752 L212.592,63.4764752 C212.592,64.7844752 213.48,65.6364752 214.524,65.6364752 Z M214.188,66.8844752 C212.64,66.8844752 211.128,65.6604752 211.128,63.4764752 L211.128,63.4524752 C211.128,61.2804752 212.616,60.0444752 214.188,60.0444752 C215.292,60.0444752 215.988,60.5964752 216.456,61.2204752 L216.456,57.6444752 L217.908,57.6444752 L217.908,66.7524752 L216.456,66.7524752 L216.456,65.6244752 C215.964,66.3324752 215.268,66.8844752 214.188,66.8844752 Z" id="the-only-food-app-yo" fill="#000000"></path>
        </g>
    </g>
</svg>