<?xml version="1.0" encoding="UTF-8" standalone="no"?>
<svg width="154px" height="114px" viewBox="0 0 154 114" version="1.1" xmlns="http://www.w3.org/2000/svg" xmlns:xlink="http://www.w3.org/1999/xlink">
    <!-- Generator: Sketch 49.3 (51167) - http://www.bohemiancoding.com/sketch -->
    <title>Group 21 Copy</title>
    <desc>Created with Sketch.</desc>
    <defs>
        <polygon id="path-1" points="0 50 46.875 50 46.875 75 0 75 9.375 62.5"></polygon>
        <filter x="-12.8%" y="-24.0%" width="125.6%" height="148.0%" filterUnits="objectBoundingBox" id="filter-2">
            <feOffset dx="0" dy="0" in="SourceAlpha" result="shadowOffsetOuter1"></feOffset>
            <feGaussianBlur stdDeviation="2" in="shadowOffsetOuter1" result="shadowBlurOuter1"></feGaussianBlur>
            <feColorMatrix values="0 0 0 0 0   0 0 0 0 0   0 0 0 0 0  0 0 0 0.5 0" type="matrix" in="shadowBlurOuter1"></feColorMatrix>
        </filter>
        <polygon id="path-3" points="99.375 50 146.25 50 146.25 75 99.375 75 108.75 62.5"></polygon>
        <filter x="-12.8%" y="-24.0%" width="125.6%" height="148.0%" filterUnits="objectBoundingBox" id="filter-4">
            <feOffset dx="0" dy="0" in="SourceAlpha" result="shadowOffsetOuter1"></feOffset>
            <feGaussianBlur stdDeviation="2" in="shadowOffsetOuter1" result="shadowBlurOuter1"></feGaussianBlur>
            <feColorMatrix values="0 0 0 0 0   0 0 0 0 0   0 0 0 0 0  0 0 0 0.5 0" type="matrix" in="shadowBlurOuter1"></feColorMatrix>
        </filter>
        <path d="M38.56695,0.00784155421 C38.2134734,0.0203413553 37.8663089,0.07659046 37.5443927,0.189088669 L2.31035016,12.9763851 C0.909067918,13.488877 -0.0124960762,14.8138559 0.000128088149,16.2888324 L0.000128088149,56.9756848 C0.000128088149,66.5067831 5.42851874,74.3754079 12.5106749,81.0690513 C19.5928311,87.7626948 28.5054911,93.5751023 36.6985737,99.3437604 C37.9231177,100.218747 39.5768832,100.218747 40.8014271,99.3437604 C48.9945098,93.5751023 57.9008577,87.7626948 64.9830139,81.0690513 C72.06517,74.3754079 77.4998728,66.5067831 77.4998728,56.9756848 L77.4998728,16.2888324 C77.5124969,14.807606 76.5846209,13.488877 75.1833386,12.9763851 L39.9556081,0.189088669 C39.5137624,0.0390910568 39.0403562,-0.0234079484 38.56695,0.00784155421 Z" id="path-5"></path>
        <filter x="-14.2%" y="-7.0%" width="128.4%" height="122.0%" filterUnits="objectBoundingBox" id="filter-7">
            <feMorphology radius="3" operator="dilate" in="SourceAlpha" result="shadowSpreadOuter1"></feMorphology>
            <feOffset dx="0" dy="4" in="shadowSpreadOuter1" result="shadowOffsetOuter1"></feOffset>
            <feMorphology radius="3" operator="erode" in="SourceAlpha" result="shadowInner"></feMorphology>
            <feOffset dx="0" dy="4" in="shadowInner" result="shadowInner"></feOffset>
            <feComposite in="shadowOffsetOuter1" in2="shadowInner" operator="out" result="shadowOffsetOuter1"></feComposite>
            <feGaussianBlur stdDeviation="2" in="shadowOffsetOuter1" result="shadowBlurOuter1"></feGaussianBlur>
            <feColorMatrix values="0 0 0 0 0   0 0 0 0 0   0 0 0 0 0  0 0 0 0.5 0" type="matrix" in="shadowBlurOuter1"></feColorMatrix>
        </filter>
        <path d="M38.56695,0.00784155421 C38.2134734,0.0203413553 37.8663089,0.07659046 37.5443927,0.189088669 L2.31035016,12.9763851 C0.909067918,13.488877 -0.0124960762,14.8138559 0.000128088149,16.2888324 L0.000128088149,56.9756848 C0.000128088149,66.5067831 5.42851874,74.3754079 12.5106749,81.0690513 C19.5928311,87.7626948 28.5054911,93.5751023 36.6985737,99.3437604 C37.9231177,100.218747 39.5768832,100.218747 40.8014271,99.3437604 C48.9945098,93.5751023 57.9008577,87.7626948 64.9830139,81.0690513 C72.06517,74.3754079 77.4998728,66.5067831 77.4998728,56.9756848 L77.4998728,16.2888324 C77.5124969,14.807606 76.5846209,13.488877 75.1833386,12.9763851 L39.9556081,0.189088669 C39.5137624,0.0390910568 39.0403562,-0.0234079484 38.56695,0.00784155421 Z" id="path-8"></path>
        <rect id="path-10" x="19.375" y="61.5625" width="107.5" height="25"></rect>
        <filter x="-5.6%" y="-24.0%" width="111.2%" height="148.0%" filterUnits="objectBoundingBox" id="filter-11">
            <feOffset dx="0" dy="0" in="SourceAlpha" result="shadowOffsetOuter1"></feOffset>
            <feGaussianBlur stdDeviation="2" in="shadowOffsetOuter1" result="shadowBlurOuter1"></feGaussianBlur>
            <feColorMatrix values="0 0 0 0 0   0 0 0 0 0   0 0 0 0 0  0 0 0 0.5 0" type="matrix" in="shadowBlurOuter1"></feColorMatrix>
        </filter>
    </defs>
    <g id="Final" stroke="none" stroke-width="1" fill="none" fill-rule="evenodd">
        <g id="Group-21-Copy" transform="translate(4.000000, 3.000000)">
            <g id="Rectangle-3-Copy-2">
                <use fill="black" fill-opacity="1" filter="url(#filter-2)" xlink:href="#path-1"></use>
                <use fill="#DA4A4A" fill-rule="evenodd" xlink:href="#path-1"></use>
            </g>
            <g id="Rectangle-3-Copy-4" transform="translate(122.812500, 62.500000) scale(-1, 1) translate(-122.812500, -62.500000) ">
                <use fill="black" fill-opacity="1" filter="url(#filter-4)" xlink:href="#path-3"></use>
                <use fill="#DA4A4A" fill-rule="evenodd" xlink:href="#path-3"></use>
            </g>
            <polygon id="Rectangle-3-Copy" fill="#BA3A3A" points="19.375 61.5625 44.375 49.0625 44.375 74.0625 19.375 86.5625"></polygon>
            <polygon id="Rectangle-3-Copy-3" fill="#BA3A3A" transform="translate(114.375000, 67.812500) scale(-1, 1) translate(-114.375000, -67.812500) " points="101.875 61.5625 126.875 49.0625 126.875 74.0625 101.875 86.5625"></polygon>
            <g id="Group-45" transform="translate(33.437500, 0.000000)">
                <mask id="mask-6" fill="white">
                    <use xlink:href="#path-5"></use>
                </mask>
                <g id="Mask">
                    <use fill="black" fill-opacity="1" filter="url(#filter-7)" xlink:href="#path-5"></use>
                    <use stroke="#FFFFFF" stroke-width="6" xlink:href="#path-5"></use>
                </g>
                <rect id="Rectangle-2-Copy-3" fill="#4990E2" mask="url(#mask-6)" x="-6.25" y="-6.25" width="90" height="112.5"></rect>
                <rect id="Rectangle-2" fill="#3D82C6" mask="url(#mask-6)" x="-6.25" y="-6.25" width="45" height="56.25"></rect>
                <rect id="Rectangle-2-Copy" fill="#3D82C6" mask="url(#mask-6)" x="38.75" y="50" width="45" height="56.25"></rect>
                <g id="Group-30" mask="url(#mask-6)">
                    <g id="Group-31">
                        <mask id="mask-9" fill="white">
                            <use xlink:href="#path-8"></use>
                        </mask>
                        <g id="Mask"></g>
                        <path d="M50.939479,49.5545918 L50.3127998,22.4461834 C50.3127998,21.3218715 49.5607849,20.3224832 48.4327624,20.0726361 C46.9287325,19.822789 45.5500384,20.9471009 45.5500384,22.3212598 C45.5500384,22.3212598 45.0486951,42.3090264 44.9233592,48.0555093 C44.9233592,48.9299741 44.1713443,49.5545918 43.4193293,49.5545918 C42.5419785,49.5545918 41.9152994,48.9299741 41.9152994,48.0555093 C41.7899635,42.3090264 41.2886202,22.3212598 41.2886202,22.3212598 C41.2886202,20.8221773 39.9099261,19.6978655 38.4058962,20.0726361 C37.2778737,20.3224832 36.5258588,21.3218715 36.5258588,22.4461834 L35.8991796,48.0555093 C35.8991796,48.9299741 35.1471647,49.5545918 34.3951497,49.5545918 C34.3951497,49.5545918 34.3951497,49.5545918 34.3951497,49.5545918 C33.5177989,49.5545918 32.8911197,48.9299741 32.8911197,48.0555093 C32.7657839,42.3090264 32.2644406,22.3212598 32.2644406,22.3212598 C32.2644406,20.8221773 30.8857465,19.6978655 29.3817166,20.0726361 C28.2536941,20.3224832 27.5016791,21.3218715 27.5016791,22.4461834 L26.875,49.5545918 L26.875,53.0524509 C26.875,56.6752336 28.1283583,60.1730927 30.3844032,62.2967929 L35.0218288,66.7940404 L30.509739,130.130276 C30.1337315,134.752447 33.8938064,138.75 38.531232,138.75 L39.4085828,138.75 C44.0460084,138.75 47.8060833,134.87737 47.4300758,130.130276 L42.917986,66.7940404 L47.5554116,62.2967929 C49.6861207,60.1730927 51.0648148,56.8001571 51.0648148,53.0524509 L50.939479,49.5545918 Z" id="Shape" stroke="#4990E2" fill="#FFFFFF" fill-rule="nonzero" mask="url(#mask-9)"></path>
                    </g>
                </g>
            </g>
            <g id="Rectangle-3">
                <use fill="black" fill-opacity="1" filter="url(#filter-11)" xlink:href="#path-10"></use>
                <use fill="#DA4A4A" fill-rule="evenodd" xlink:href="#path-10"></use>
            </g>
            <path d="M29.1334874,69.8223861 L29.1334874,72.9591153 L32.8163095,72.9591153 L32.8163095,75.9433646 L29.1552792,75.9433646 L29.1552792,82.086126 L25.625,82.086126 L25.625,66.663874 L33.1431872,66.663874 L33.1431872,69.8223861 L29.1334874,69.8223861 Z M36.5956384,82.086126 L36.5956384,66.663874 L40.1041257,66.663874 L40.1041257,82.086126 L36.5956384,82.086126 Z M50.8568456,82.086126 L48.7866201,75.9433646 L47.7624033,75.9433646 L47.7624033,82.086126 L44.4064589,82.086126 L44.4064589,66.663874 L49.3532082,66.663874 C50.8495891,66.663874 52.0118093,67.0523308 52.8399037,67.829256 C53.667998,68.6061813 54.0820389,69.7642908 54.0820389,71.3036193 C54.0820389,71.869976 54.016664,72.3782372 53.8859123,72.8284182 C53.7551606,73.2785992 53.5844595,73.6634256 53.3738039,73.9829088 C53.1631483,74.3023921 52.9270724,74.5637836 52.6655689,74.7670912 C52.4040654,74.9703987 52.1498297,75.1156162 51.9028542,75.202748 L54.5396677,82.086126 L50.8568456,82.086126 Z M50.6389271,71.4996649 C50.6389271,71.1075718 50.584448,70.7880933 50.4754883,70.5412198 C50.3665285,70.2943464 50.2248829,70.0983028 50.0505473,69.9530831 C49.8762116,69.8078634 49.6837189,69.7098416 49.4730633,69.6590147 C49.2624077,69.6081879 49.0553873,69.5827748 48.8519957,69.5827748 L47.7624033,69.5827748 L47.7624033,73.4819035 L48.7866201,73.4819035 C49.2805711,73.4819035 49.7127718,73.3257947 50.083235,73.0135724 C50.4536983,72.7013501 50.6389271,72.1967193 50.6389271,71.4996649 Z M64.1374197,70.3669571 C63.8759162,70.0619958 63.5708334,69.8260174 63.2221621,69.6590147 C62.8734909,69.4920121 62.510297,69.4085121 62.1325698,69.4085121 C61.7403146,69.4085121 61.3880166,69.5319469 61.0756652,69.7788204 C60.7633139,70.0256938 60.6071405,70.4323028 60.6071405,70.9986595 C60.6071405,71.4778844 60.7669458,71.8518195 61.0865611,72.1204759 C61.4061765,72.3891323 61.8783285,72.6831977 62.5030312,73.002681 C62.8517025,73.1769446 63.2185282,73.3838795 63.6035195,73.623492 C63.9885107,73.8631044 64.3408087,74.1571698 64.660424,74.5056971 C64.9800394,74.8542243 65.2451709,75.2717246 65.4558265,75.7582105 C65.666482,76.2446964 65.7718082,76.8219359 65.7718082,77.4899464 C65.7718082,78.3176985 65.6410585,79.0474164 65.379555,79.679122 C65.1180515,80.3108276 64.7657535,80.8336105 64.3226504,81.2474866 C63.8795473,81.6613627 63.367444,81.9735803 62.7863252,82.1841488 C62.2052064,82.3947173 61.6023046,82.5 60.9776019,82.5 C60.0478118,82.5 59.2015702,82.325739 58.4388517,81.9772118 C57.6761333,81.6286846 57.0623357,81.2220756 56.5974407,80.7573727 L58.3843721,78.1434316 C58.7185155,78.4919588 59.1035009,78.7715025 59.53934,78.982071 C59.9751791,79.1926396 60.4182756,79.2979223 60.8686427,79.2979223 C61.2899538,79.2979223 61.6458838,79.1599656 61.9364432,78.8840483 C62.2270026,78.6081309 62.3722801,78.2233045 62.3722801,77.7295576 C62.3722801,77.2212888 62.1979471,76.8183102 61.8492758,76.5206099 C61.5006045,76.2229096 60.9921332,75.9070615 60.3238465,75.5730563 C59.9025354,75.3697488 59.5066541,75.1446616 59.1361909,74.8977882 C58.7657276,74.6509148 58.4388532,74.3532189 58.1555577,74.0046917 C57.8722623,73.6561645 57.6507141,73.2495555 57.4909064,72.7848525 C57.3310987,72.3201496 57.2511961,71.7683231 57.2511961,71.1293566 C57.2511961,70.2725605 57.3928417,69.5355817 57.6761371,68.9183981 C57.9594325,68.3012145 58.3298902,67.7965837 58.7875213,67.4044906 C59.2451524,67.0123975 59.7536237,66.7219625 60.3129506,66.5331769 C60.8722775,66.3443914 61.4352279,66.25 62.0018187,66.25 C62.844441,66.25 63.5998841,66.3879566 64.2681708,66.663874 C64.9364574,66.9397914 65.4957759,67.3173569 65.946143,67.7965818 L64.1374197,70.3669571 Z M74.0838413,69.6263405 L74.0838413,82.086126 L70.6625213,82.086126 L70.6625213,69.6263405 L67.8295812,69.6263405 L67.8295812,66.663874 L76.9167814,66.663874 L76.9167814,69.6263405 L74.0838413,69.6263405 Z M88.7030574,82.086126 L88.7030574,70.7154826 L86.3931216,72.4581099 L84.8459005,69.7570375 L89.0735188,66.663874 L92.1243774,66.663874 L92.1243774,82.086126 L88.7030574,82.086126 Z M107.62772,74.375 C107.62772,75.246318 107.558713,76.1539274 107.420697,77.0978552 C107.282682,78.0417831 107.028446,78.9094576 106.657983,79.7009048 C106.287519,80.492352 105.771784,81.1422003 105.110762,81.6504692 C104.449739,82.158738 103.596233,82.4128686 102.55022,82.4128686 C101.504206,82.4128686 100.6507,82.158738 99.9896775,81.6504692 C99.3286549,81.1422003 98.8129197,80.492352 98.4424564,79.7009048 C98.0719932,78.9094576 97.8213894,78.0417831 97.6906377,77.0978552 C97.559886,76.1539274 97.4945111,75.246318 97.4945111,74.375 C97.4945111,73.503682 97.559886,72.5960726 97.6906377,71.6521448 C97.8213894,70.7082169 98.0719932,69.8405424 98.4424564,69.0490952 C98.8129197,68.257648 99.3286549,67.6077997 99.9896775,67.0995308 C100.6507,66.591262 101.504206,66.3371314 102.55022,66.3371314 C103.596233,66.3371314 104.449739,66.591262 105.110762,67.0995308 C105.771784,67.6077997 106.287519,68.257648 106.657983,69.0490952 C107.028446,69.8405424 107.282682,70.7082169 107.420697,71.6521448 C107.558713,72.5960726 107.62772,73.503682 107.62772,74.375 Z M104.141024,74.375 C104.141024,73.8667311 104.122865,73.3221655 104.086545,72.7412869 C104.050225,72.1604082 103.973954,71.6231035 103.85773,71.1293566 C103.741507,70.6356097 103.581701,70.2253703 103.37831,69.898626 C103.174918,69.5718817 102.898891,69.4085121 102.55022,69.4085121 C102.201548,69.4085121 101.925521,69.5718817 101.722129,69.898626 C101.518738,70.2253703 101.358933,70.6356097 101.242709,71.1293566 C101.126485,71.6231035 101.050214,72.1604082 101.013894,72.7412869 C100.977574,73.3221655 100.959415,73.8667311 100.959415,74.375 C100.959415,74.8977908 100.977574,75.4496173 101.013894,76.030496 C101.050214,76.6113747 101.126485,77.145049 101.242709,77.6315349 C101.358933,78.1180208 101.518738,78.5246297 101.722129,78.851374 C101.925521,79.1781183 102.201548,79.3414879 102.55022,79.3414879 C102.898891,79.3414879 103.174918,79.1781183 103.37831,78.851374 C103.581701,78.5246297 103.741507,78.1180208 103.85773,77.6315349 C103.973954,77.145049 104.050225,76.6113747 104.086545,76.030496 C104.122865,75.4496173 104.141024,74.8977908 104.141024,74.375 Z M120.625,74.375 C120.625,75.246318 120.555993,76.1539274 120.417977,77.0978552 C120.279962,78.0417831 120.025726,78.9094576 119.655263,79.7009048 C119.2848,80.492352 118.769064,81.1422003 118.108042,81.6504692 C117.447019,82.158738 116.593514,82.4128686 115.5475,82.4128686 C114.501486,82.4128686 113.64798,82.158738 112.986958,81.6504692 C112.325935,81.1422003 111.8102,80.492352 111.439737,79.7009048 C111.069273,78.9094576 110.81867,78.0417831 110.687918,77.0978552 C110.557166,76.1539274 110.491791,75.246318 110.491791,74.375 C110.491791,73.503682 110.557166,72.5960726 110.687918,71.6521448 C110.81867,70.7082169 111.069273,69.8405424 111.439737,69.0490952 C111.8102,68.257648 112.325935,67.6077997 112.986958,67.0995308 C113.64798,66.591262 114.501486,66.3371314 115.5475,66.3371314 C116.593514,66.3371314 117.447019,66.591262 118.108042,67.0995308 C118.769064,67.6077997 119.2848,68.257648 119.655263,69.0490952 C120.025726,69.8405424 120.279962,70.7082169 120.417977,71.6521448 C120.555993,72.5960726 120.625,73.503682 120.625,74.375 Z M117.138304,74.375 C117.138304,73.8667311 117.120145,73.3221655 117.083825,72.7412869 C117.047505,72.1604082 116.971234,71.6231035 116.85501,71.1293566 C116.738787,70.6356097 116.578981,70.2253703 116.37559,69.898626 C116.172198,69.5718817 115.896171,69.4085121 115.5475,69.4085121 C115.198828,69.4085121 114.922801,69.5718817 114.719409,69.898626 C114.516018,70.2253703 114.356213,70.6356097 114.239989,71.1293566 C114.123765,71.6231035 114.047494,72.1604082 114.011174,72.7412869 C113.974855,73.3221655 113.956695,73.8667311 113.956695,74.375 C113.956695,74.8977908 113.974855,75.4496173 114.011174,76.030496 C114.047494,76.6113747 114.123765,77.145049 114.239989,77.6315349 C114.356213,78.1180208 114.516018,78.5246297 114.719409,78.851374 C114.922801,79.1781183 115.198828,79.3414879 115.5475,79.3414879 C115.896171,79.3414879 116.172198,79.1781183 116.37559,78.851374 C116.578981,78.5246297 116.738787,78.1180208 116.85501,77.6315349 C116.971234,77.145049 117.047505,76.6113747 117.083825,76.030496 C117.120145,75.4496173 117.138304,74.8977908 117.138304,74.375 Z" id="FIRST-100" fill="#FFFFFF"></path>
        </g>
    </g>
</svg>