<?xml version="1.0" encoding="UTF-8" standalone="no"?>
<svg width="341px" height="73px" viewBox="0 0 341 73" version="1.1" xmlns="http://www.w3.org/2000/svg" xmlns:xlink="http://www.w3.org/1999/xlink">
    <!-- Generator: Sketch 49.3 (51167) - http://www.bohemiancoding.com/sketch -->
    <title>Group 60 Copy</title>
    <desc>Created with Sketch.</desc>
    <defs>
        <circle id="path-1" cx="22.9957806" cy="22.9957806" r="22.9957806"></circle>
        <filter x="-44.6%" y="-35.9%" width="189.1%" height="189.1%" filterUnits="objectBoundingBox" id="filter-2">
            <feMorphology radius="0.5" operator="dilate" in="SourceAlpha" result="shadowSpreadOuter1"></feMorphology>
            <feOffset dx="0" dy="4" in="shadowSpreadOuter1" result="shadowOffsetOuter1"></feOffset>
            <feGaussianBlur stdDeviation="6" in="shadowOffsetOuter1" result="shadowBlurOuter1"></feGaussianBlur>
            <feComposite in="shadowBlurOuter1" in2="SourceAlpha" operator="out" result="shadowBlurOuter1"></feComposite>
            <feColorMatrix values="0 0 0 0 0.819607843   0 0 0 0 0.819607843   0 0 0 0 0.819607843  0 0 0 0.154098732 0" type="matrix" in="shadowBlurOuter1"></feColorMatrix>
        </filter>
        <circle id="path-3" cx="22.9957806" cy="22.9957806" r="22.9957806"></circle>
        <filter x="-44.6%" y="-35.9%" width="189.1%" height="189.1%" filterUnits="objectBoundingBox" id="filter-4">
            <feMorphology radius="0.5" operator="dilate" in="SourceAlpha" result="shadowSpreadOuter1"></feMorphology>
            <feOffset dx="0" dy="4" in="shadowSpreadOuter1" result="shadowOffsetOuter1"></feOffset>
            <feGaussianBlur stdDeviation="6" in="shadowOffsetOuter1" result="shadowBlurOuter1"></feGaussianBlur>
            <feComposite in="shadowBlurOuter1" in2="SourceAlpha" operator="out" result="shadowBlurOuter1"></feComposite>
            <feColorMatrix values="0 0 0 0 0.819607843   0 0 0 0 0.819607843   0 0 0 0 0.819607843  0 0 0 0.154098732 0" type="matrix" in="shadowBlurOuter1"></feColorMatrix>
        </filter>
        <circle id="path-5" cx="22.9957806" cy="22.9957806" r="22.9957806"></circle>
        <filter x="-44.6%" y="-35.9%" width="189.1%" height="189.1%" filterUnits="objectBoundingBox" id="filter-6">
            <feMorphology radius="0.5" operator="dilate" in="SourceAlpha" result="shadowSpreadOuter1"></feMorphology>
            <feOffset dx="0" dy="4" in="shadowSpreadOuter1" result="shadowOffsetOuter1"></feOffset>
            <feGaussianBlur stdDeviation="6" in="shadowOffsetOuter1" result="shadowBlurOuter1"></feGaussianBlur>
            <feComposite in="shadowBlurOuter1" in2="SourceAlpha" operator="out" result="shadowBlurOuter1"></feComposite>
            <feColorMatrix values="0 0 0 0 0.819607843   0 0 0 0 0.819607843   0 0 0 0 0.819607843  0 0 0 0.154098732 0" type="matrix" in="shadowBlurOuter1"></feColorMatrix>
        </filter>
        <circle id="path-7" cx="22.9957806" cy="22.9957806" r="22.9957806"></circle>
        <filter x="-44.6%" y="-35.9%" width="189.1%" height="189.1%" filterUnits="objectBoundingBox" id="filter-8">
            <feMorphology radius="0.5" operator="dilate" in="SourceAlpha" result="shadowSpreadOuter1"></feMorphology>
            <feOffset dx="0" dy="4" in="shadowSpreadOuter1" result="shadowOffsetOuter1"></feOffset>
            <feGaussianBlur stdDeviation="6" in="shadowOffsetOuter1" result="shadowBlurOuter1"></feGaussianBlur>
            <feComposite in="shadowBlurOuter1" in2="SourceAlpha" operator="out" result="shadowBlurOuter1"></feComposite>
            <feColorMatrix values="0 0 0 0 0.819607843   0 0 0 0 0.819607843   0 0 0 0 0.819607843  0 0 0 0.154098732 0" type="matrix" in="shadowBlurOuter1"></feColorMatrix>
        </filter>
    </defs>
    <g id="Final" stroke="none" stroke-width="1" fill="none" fill-rule="evenodd">
        <g id="Group-60-Copy" transform="translate(11.000000, 8.000000)">
            <g id="Group-7" transform="translate(0.919831, 0.000000)">
                <g id="Call">
                    <g id="Oval">
                        <use fill="black" fill-opacity="1" filter="url(#filter-2)" xlink:href="#path-1"></use>
                        <use fill="#FFFFFF" fill-rule="evenodd" xlink:href="#path-1"></use>
                        <circle stroke="#D1D1D1" stroke-width="0.5" cx="22.9957806" cy="22.9957806" r="23.2457806"></circle>
                    </g>
                    <path d="M19.4778931,20.8160841 C19.2471946,21.0672007 19.2153741,21.3453648 19.382962,21.6426212 C20.5796775,23.7684948 22.2476013,25.4396007 24.3403286,26.6100643 C24.6458053,26.7808342 24.9223783,26.7466272 25.1854277,26.5045263 L26.712811,25.1012429 L29.1950741,27.5832408 L29.0134322,27.7760199 C28.7989091,28.0043319 28.5825298,28.2352956 28.3621729,28.4620165 C28.2587563,28.5680848 28.1516273,28.6709711 28.0444984,28.7735921 C27.9142995,28.8982224 27.7841007,29.0228526 27.6605312,29.153847 C27.3889964,29.4418224 27.0461306,29.5579671 26.5820819,29.517396 C25.7391041,29.4450044 24.9865496,29.1233523 24.3618074,28.8181408 C23.0107626,28.1578657 21.7535882,27.2647708 20.518423,26.0882083 C19.3047367,24.9317988 18.3037172,23.6687906 17.5440031,22.3341864 C17.1809844,21.6959205 16.7397403,20.842336 16.5485522,19.896472 C16.501617,19.6641825 16.4809337,19.4077624 16.4819944,19.0656921 C16.4825247,18.818553 16.587002,18.5873242 16.7925093,18.3791652 C17.1653393,18.0012969 17.5365783,17.6218376 17.9075521,17.2423783 L18.3737223,16.766662 L20.8870103,19.2804804 L19.4778931,20.8160841 Z M30.5874856,27.1194572 C29.4708517,26.0012323 28.3526267,24.8838029 27.2341367,23.7663735 C27.183489,23.7162562 27.1320459,23.6746244 27.0811332,23.6435994 C26.8239176,23.486088 26.5290477,23.5218861 26.2917199,23.7385305 C25.742021,24.239438 25.1941783,24.7427321 24.6314861,25.2622015 C24.5044693,25.176021 24.3763918,25.0919619 24.2480492,25.0079028 C24.0459891,24.8753174 23.8436638,24.7427321 23.6469072,24.6024567 C22.5178103,23.7989895 21.563726,22.7393673 20.7318855,21.3647223 L21.2677955,20.778695 C21.5825531,20.4352989 21.8978411,20.092168 22.2112729,19.7471809 C22.532925,19.3929128 22.5249699,19.056146 22.1863469,18.7177882 L18.9056547,15.4373612 C18.8701219,15.4015632 18.834589,15.3657651 18.7964044,15.334475 C18.6091939,15.1790849 18.4007697,15.1371879 18.2085209,15.2162088 C18.0716928,15.2732205 17.9311523,15.370273 17.812621,15.489865 C17.5569965,15.7478761 17.3042888,16.0085389 17.0515811,16.2694669 C16.6920096,16.6404408 16.3205054,17.0238776 15.947145,17.3919346 C15.4046057,17.9267839 15.1534891,18.5703532 15.179741,19.360562 C15.1975074,19.9044271 15.3064926,20.4660587 15.5125302,21.0767469 C15.8410767,22.0531055 16.3525911,23.0315854 17.0759768,24.0694636 C18.0783221,25.5061586 19.31773,26.8394369 20.7594632,28.03244 C21.8983715,28.9751219 23.0001558,29.6754378 24.1276617,30.1739587 C25.0517816,30.5825868 25.8459679,30.7854424 26.6271609,30.8122246 C26.6698534,30.8135505 26.7120155,30.814346 26.7536473,30.814346 C27.4483946,30.814346 27.9996845,30.6106949 28.4356252,30.1927858 C29.0760125,29.5802415 29.7087098,28.9592116 30.3414071,28.3381818 L30.5845687,28.0995282 C30.7333295,27.9531539 30.8128807,27.7847705 30.8136762,27.6124096 C30.8144717,27.4392531 30.7365115,27.2687483 30.5874856,27.1194572 L30.5874856,27.1194572 Z" id="Fill-1" fill="#48BA5A"></path>
                </g>
                <path d="M18.8960928,58.0468692 C18.7949109,57.8917236 18.6431403,57.7618753 18.4407764,57.6573207 C18.2384125,57.552766 18.0225609,57.5004895 17.7932152,57.5004895 C17.5436331,57.5004895 17.3227225,57.547707 17.1304768,57.6421435 C16.9382311,57.7365799 16.7746561,57.8630555 16.6397468,58.0215738 C16.5048376,58.1800922 16.4019708,58.3639033 16.3311435,58.5730127 C16.2603161,58.782122 16.224903,59.0013463 16.224903,59.230692 C16.224903,59.4600377 16.2603161,59.679262 16.3311435,59.8883713 C16.4019708,60.0974807 16.5048376,60.2812918 16.6397468,60.4398101 C16.7746561,60.5983285 16.9399174,60.724804 17.1355359,60.8192405 C17.3311543,60.913677 17.5537512,60.9608945 17.8033333,60.9608945 C18.04617,60.9608945 18.2670806,60.913677 18.4660717,60.8192405 C18.6650629,60.724804 18.8286379,60.5966422 18.9568017,60.4347511 L19.5942447,61.0114852 C19.3918808,61.2475764 19.1389298,61.4313875 18.835384,61.5629241 C18.5318381,61.6944606 18.1878247,61.7602278 17.8033333,61.7602278 C17.4323329,61.7602278 17.0900058,61.6995196 16.7763418,61.5781013 C16.4626778,61.4566829 16.191177,61.2863626 15.9618312,61.067135 C15.7324855,60.8479075 15.5520471,60.583152 15.4205105,60.2728608 C15.288974,59.9625695 15.2232068,59.6151834 15.2232068,59.230692 C15.2232068,58.8529461 15.2872877,58.5089326 15.4154515,58.1986414 C15.5436153,57.8883501 15.7223673,57.6219083 15.9517131,57.399308 C16.1810588,57.1767077 16.4525596,57.004701 16.7662236,56.8832827 C17.0798876,56.7618644 17.4188421,56.7011561 17.783097,56.7011561 C18.1203702,56.7011561 18.4559519,56.7686097 18.7898523,56.903519 C19.1237527,57.0384282 19.3885082,57.2340437 19.5841266,57.4903713 L18.8960928,58.0468692 Z M23.5200844,58.5224219 C23.5200844,58.1649124 23.4121586,57.900157 23.1963038,57.7281477 C22.980449,57.5561384 22.6937711,57.470135 22.3362616,57.470135 C22.0664431,57.470135 21.8118057,57.5224116 21.5723418,57.6269662 C21.3328778,57.7315209 21.1322033,57.8647418 20.9703122,58.0266329 L20.4644051,57.4195443 C20.7004963,57.196944 20.9888605,57.0215646 21.3295063,56.8934008 C21.6701522,56.7652371 22.0360881,56.7011561 22.4273249,56.7011561 C22.7713435,56.7011561 23.0698257,56.75006 23.3227806,56.8478692 C23.5757354,56.9456784 23.7831553,57.0788993 23.9450464,57.2475359 C24.1069375,57.4161724 24.228354,57.6151606 24.3092996,57.8445063 C24.3902451,58.0738521 24.4307173,58.3200578 24.4307173,58.5831308 L24.4307173,60.6775865 C24.4307173,60.8394776 24.4357763,61.009798 24.4458945,61.1885527 C24.4560127,61.3673075 24.4745625,61.5140191 24.5015443,61.628692 L23.6415021,61.628692 C23.5875384,61.3993463 23.560557,61.170004 23.560557,60.9406582 L23.5302025,60.9406582 C23.3548205,61.1969858 23.1339099,61.395974 22.8674641,61.5376287 C22.6010184,61.6792834 22.2856727,61.7501097 21.9214177,61.7501097 C21.7325448,61.7501097 21.5352429,61.7248146 21.3295063,61.6742236 C21.1237697,61.6236327 20.9365859,61.541002 20.7679494,61.4263291 C20.5993128,61.3116562 20.4593465,61.1598856 20.3480464,60.9710127 C20.2367463,60.7821397 20.181097,60.5494247 20.181097,60.2728608 C20.181097,59.9086058 20.2789048,59.6202416 20.4745232,59.4077595 C20.6701416,59.1952774 20.9264654,59.0333887 21.2435021,58.9220886 C21.5605389,58.8107885 21.918043,58.7382758 22.3160253,58.7045485 C22.7140076,58.6708212 23.1153566,58.6539578 23.5200844,58.6539578 L23.5200844,58.5224219 Z M23.2873671,59.3419916 C23.0512759,59.3419916 22.8067565,59.3521096 22.5538017,59.372346 C22.3008468,59.3925824 22.0715045,59.4330545 21.8657679,59.4937637 C21.6600313,59.5544729 21.4897109,59.6455353 21.3548017,59.7669536 C21.2198924,59.8883719 21.1524388,60.0502606 21.1524388,60.2526245 C21.1524388,60.3942792 21.1811066,60.512323 21.238443,60.6067595 C21.2957795,60.701196 21.3716648,60.7787676 21.4661013,60.8394768 C21.5605377,60.900186 21.6650908,60.9423445 21.7797637,60.9659536 C21.8944366,60.9895627 22.0124804,61.0013671 22.1338987,61.0013671 C22.5790993,61.0013671 22.9214264,60.8681462 23.1608903,60.6017004 C23.4003542,60.3352546 23.5200844,59.9996729 23.5200844,59.5949451 L23.5200844,59.3419916 L23.2873671,59.3419916 Z M26.9906076,61.628692 L26.0395021,61.628692 L26.0395021,53.9793755 L26.9906076,53.9793755 L26.9906076,61.628692 Z M29.6213249,61.628692 L28.6702194,61.628692 L28.6702194,53.9793755 L29.6213249,53.9793755 L29.6213249,61.628692 Z" id="call" fill="#33373D"></path>
            </g>
            <g id="Group-10" transform="translate(87.464135, 0.000000)">
                <g id="Group-15" transform="translate(0.379747, 0.000000)">
                    <g id="Oval">
                        <use fill="black" fill-opacity="1" filter="url(#filter-4)" xlink:href="#path-3"></use>
                        <use fill="#FFFFFF" fill-rule="evenodd" xlink:href="#path-3"></use>
                        <circle stroke="#D1D1D1" stroke-width="0.5" cx="22.9957806" cy="22.9957806" r="23.2457806"></circle>
                    </g>
                    <path d="M30.7081486,16.2544181 C29.7448338,15.2682667 28.4695143,14.7292771 27.1083935,14.7292771 C25.7472726,14.7292771 24.468053,15.2722592 23.5047383,16.2584106 L23.0016306,16.7734451 L22.4907228,16.2504256 C21.527408,15.2642742 20.2442884,14.7172996 18.8831676,14.7172996 C17.5259468,14.7172996 16.2467272,15.2602817 15.2873125,16.2424405 C14.3239978,17.2285919 13.7935897,18.538137 13.7974897,19.9315249 C13.7974897,21.3249128 14.3317979,22.6304654 15.2951126,23.6166168 L22.6194248,31.114561 C22.7208263,31.2183664 22.8573284,31.2742616 22.9899304,31.2742616 C23.1225325,31.2742616 23.2590345,31.2223589 23.3604361,31.1185535 L30.7003484,23.6325868 C31.6636632,22.6464355 32.1940713,21.3368904 32.1940713,19.9435024 C32.1979714,18.5501145 31.6714633,17.2405694 30.7081486,16.2544181 Z M29.601599,22.8709393 L22.9902316,29.6125257 L16.3936631,22.8595771 C15.6685215,22.1172451 15.2689537,21.132519 15.2689537,20.083407 C15.2689537,19.034295 15.6648218,18.0495689 16.3899634,17.3110243 C17.1114053,16.5724797 18.0733278,16.1634397 19.0944455,16.1634397 C20.119263,16.1634397 21.0848852,16.5724797 21.8100267,17.3148117 L22.6461594,18.1707659 C22.8422436,18.3714986 23.1567182,18.3714986 23.3528024,18.1707659 L24.1815357,17.3223865 C24.9066772,16.5800546 25.8722995,16.1710145 26.8934172,16.1710145 C27.9145349,16.1710145 28.8764574,16.5800546 29.601599,17.3185991 C30.3267406,18.0609311 30.7226087,19.0456572 30.7226087,20.0947692 C30.7263084,21.1438813 30.3267406,22.1286074 29.601599,22.8709393 Z" id="Shape" fill="#ED3C4C" fill-rule="nonzero"></path>
                </g>
                <path d="M1.35338819,60.8698312 L1.35338819,61.628692 L0.432637131,61.628692 L0.432637131,53.9793755 L1.38374262,53.9793755 L1.38374262,57.5510802 L1.41409705,57.5510802 C1.57598815,57.314989 1.80195776,57.1143145 2.09201266,56.9490506 C2.38206755,56.7837868 2.72608099,56.7011561 3.12406329,56.7011561 C3.48157281,56.7011561 3.80703651,56.7652371 4.10046414,56.8934008 C4.39389176,57.0215646 4.64684282,57.2003167 4.85932489,57.4296624 C5.07180697,57.6590082 5.23538199,57.9271363 5.35005485,58.2340549 C5.46472772,58.5409734 5.52206329,58.8698098 5.52206329,59.2205738 C5.52206329,59.5713379 5.46472772,59.9018606 5.35005485,60.2121519 C5.23538199,60.5224432 5.07349331,60.7922576 4.86438397,61.0216034 C4.65527462,61.2509491 4.40232357,61.4313875 4.10552321,61.5629241 C3.80872285,61.6944606 3.47482745,61.7602278 3.103827,61.7602278 C2.75980841,61.7602278 2.43265837,61.6843425 2.12236709,61.5325696 C1.8120758,61.3807967 1.56249743,61.1598861 1.37362447,60.8698312 L1.35338819,60.8698312 Z M4.54060338,59.2205738 C4.54060338,58.9979736 4.50687657,58.782122 4.43942194,58.5730127 C4.37196731,58.3639033 4.27078689,58.1784059 4.13587764,58.0165148 C4.00096838,57.8546237 3.83402069,57.7264618 3.63502954,57.6320253 C3.43603839,57.5375888 3.20500975,57.4903713 2.94193671,57.4903713 C2.69910005,57.4903713 2.47818946,57.5375888 2.27919831,57.6320253 C2.08020716,57.7264618 1.90988678,57.8546237 1.76823207,58.0165148 C1.62657735,58.1784059 1.51696523,58.3639033 1.43939241,58.5730127 C1.36181958,58.782122 1.32303376,59.0013463 1.32303376,59.230692 C1.32303376,59.4600377 1.36181958,59.679262 1.43939241,59.8883713 C1.51696523,60.0974807 1.62657735,60.2812918 1.76823207,60.4398101 C1.90988678,60.5983285 2.08020716,60.724804 2.27919831,60.8192405 C2.47818946,60.913677 2.69910005,60.9608945 2.94193671,60.9608945 C3.20500975,60.9608945 3.43603839,60.9119906 3.63502954,60.8141814 C3.83402069,60.7163722 4.00096838,60.586524 4.13587764,60.4246329 C4.27078689,60.2627418 4.37196731,60.0772444 4.43942194,59.868135 C4.50687657,59.6590257 4.54060338,59.4431741 4.54060338,59.2205738 Z M11.7042489,59.2205738 C11.7042489,59.5915743 11.6384817,59.932215 11.5069451,60.2425063 C11.3754086,60.5527976 11.1932839,60.8209257 10.9605654,61.0468987 C10.7278469,61.2728717 10.4529735,61.4482511 10.1359367,61.5730422 C9.81889996,61.6978333 9.47825921,61.7602278 9.11400422,61.7602278 C8.74974923,61.7602278 8.40910848,61.6978333 8.09207173,61.5730422 C7.77503498,61.4482511 7.50184784,61.2728717 7.27250211,61.0468987 C7.04315638,60.8209257 6.86271796,60.5527976 6.73118143,60.2425063 C6.59964491,59.932215 6.53387764,59.5915743 6.53387764,59.2205738 C6.53387764,58.8495734 6.59964491,58.510619 6.73118143,58.2037004 C6.86271796,57.8967819 7.04315638,57.6320264 7.27250211,57.4094262 C7.50184784,57.1868259 7.77503498,57.0131328 8.09207173,56.8883418 C8.40910848,56.7635507 8.74974923,56.7011561 9.11400422,56.7011561 C9.47825921,56.7011561 9.81889996,56.7635507 10.1359367,56.8883418 C10.4529735,57.0131328 10.7278469,57.1868259 10.9605654,57.4094262 C11.1932839,57.6320264 11.3754086,57.8967819 11.5069451,58.2037004 C11.6384817,58.510619 11.7042489,58.8495734 11.7042489,59.2205738 Z M10.7126709,59.2205738 C10.7126709,58.9912281 10.6772577,58.7720039 10.6064304,58.5628945 C10.535603,58.3537852 10.4327363,58.1699741 10.297827,58.0114557 C10.1629178,57.8529373 9.99597005,57.7264618 9.7969789,57.6320253 C9.59798775,57.5375888 9.3703318,57.4903713 9.11400422,57.4903713 C8.85767664,57.4903713 8.63002069,57.5375888 8.43102954,57.6320253 C8.23203839,57.7264618 8.06509069,57.8529373 7.93018143,58.0114557 C7.79527218,58.1699741 7.69240542,58.3537852 7.62157806,58.5628945 C7.5507507,58.7720039 7.51533755,58.9912281 7.51533755,59.2205738 C7.51533755,59.4499196 7.5507507,59.6691438 7.62157806,59.8782532 C7.69240542,60.0873625 7.79527218,60.27286 7.93018143,60.4347511 C8.06509069,60.5966422 8.23203839,60.724804 8.43102954,60.8192405 C8.63002069,60.913677 8.85767664,60.9608945 9.11400422,60.9608945 C9.3703318,60.9608945 9.59798775,60.913677 9.7969789,60.8192405 C9.99597005,60.724804 10.1629178,60.5966422 10.297827,60.4347511 C10.4327363,60.27286 10.535603,60.0873625 10.6064304,59.8782532 C10.6772577,59.6691438 10.7126709,59.4499196 10.7126709,59.2205738 Z M17.8763165,59.2205738 C17.8763165,59.5915743 17.8105492,59.932215 17.6790127,60.2425063 C17.5474761,60.5527976 17.3653514,60.8209257 17.1326329,61.0468987 C16.8999144,61.2728717 16.625041,61.4482511 16.3080042,61.5730422 C15.9909675,61.6978333 15.6503267,61.7602278 15.2860717,61.7602278 C14.9218167,61.7602278 14.581176,61.6978333 14.2641392,61.5730422 C13.9471025,61.4482511 13.6739154,61.2728717 13.4445696,61.0468987 C13.2152239,60.8209257 13.0347855,60.5527976 12.9032489,60.2425063 C12.7717124,59.932215 12.7059451,59.5915743 12.7059451,59.2205738 C12.7059451,58.8495734 12.7717124,58.510619 12.9032489,58.2037004 C13.0347855,57.8967819 13.2152239,57.6320264 13.4445696,57.4094262 C13.6739154,57.1868259 13.9471025,57.0131328 14.2641392,56.8883418 C14.581176,56.7635507 14.9218167,56.7011561 15.2860717,56.7011561 C15.6503267,56.7011561 15.9909675,56.7635507 16.3080042,56.8883418 C16.625041,57.0131328 16.8999144,57.1868259 17.1326329,57.4094262 C17.3653514,57.6320264 17.5474761,57.8967819 17.6790127,58.2037004 C17.8105492,58.510619 17.8763165,58.8495734 17.8763165,59.2205738 Z M16.8847384,59.2205738 C16.8847384,58.9912281 16.8493252,58.7720039 16.7784979,58.5628945 C16.7076705,58.3537852 16.6048038,58.1699741 16.4698945,58.0114557 C16.3349853,57.8529373 16.1680376,57.7264618 15.9690464,57.6320253 C15.7700553,57.5375888 15.5423993,57.4903713 15.2860717,57.4903713 C15.0297441,57.4903713 14.8020882,57.5375888 14.603097,57.6320253 C14.4041059,57.7264618 14.2371582,57.8529373 14.1022489,58.0114557 C13.9673397,58.1699741 13.8644729,58.3537852 13.7936456,58.5628945 C13.7228182,58.7720039 13.6874051,58.9912281 13.6874051,59.2205738 C13.6874051,59.4499196 13.7228182,59.6691438 13.7936456,59.8782532 C13.8644729,60.0873625 13.9673397,60.27286 14.1022489,60.4347511 C14.2371582,60.5966422 14.4041059,60.724804 14.603097,60.8192405 C14.8020882,60.913677 15.0297441,60.9608945 15.2860717,60.9608945 C15.5423993,60.9608945 15.7700553,60.913677 15.9690464,60.8192405 C16.1680376,60.724804 16.3349853,60.5966422 16.4698945,60.4347511 C16.6048038,60.27286 16.7076705,60.0873625 16.7784979,59.8782532 C16.8493252,59.6691438 16.8847384,59.4499196 16.8847384,59.2205738 Z M20.1630169,58.9170295 L20.1933713,58.9170295 L22.2068819,56.832692 L23.4817679,56.832692 L21.2355401,59.0080928 L23.6740127,61.628692 L22.358654,61.628692 L20.1933713,59.1396287 L20.1630169,59.1396287 L20.1630169,61.628692 L19.2119114,61.628692 L19.2119114,53.9793755 L20.1630169,53.9793755 L20.1630169,58.9170295 Z M25.4548059,57.6219072 C25.5762242,57.3655796 25.7701534,57.1480417 26.0365992,56.9692869 C26.3030449,56.7905322 26.6183906,56.7011561 26.9826456,56.7011561 C27.3064278,56.7011561 27.5981647,56.7753551 27.857865,56.9237553 C28.1175653,57.0721555 28.3216125,57.3183611 28.4700127,57.6623797 C28.6319038,57.3520885 28.8578734,57.1143145 29.1479283,56.9490506 C29.4379832,56.7837868 29.7550152,56.7011561 30.0990338,56.7011561 C30.409325,56.7011561 30.6757668,56.7534327 30.8983671,56.8579873 C31.1209674,56.962542 31.3064648,57.1025083 31.454865,57.2778903 C31.6032652,57.4532723 31.7128773,57.6590059 31.7837046,57.895097 C31.854532,58.1311882 31.8899451,58.3841393 31.8899451,58.6539578 L31.8899451,61.628692 L30.9388397,61.628692 L30.9388397,58.9676203 C30.9388397,58.7720018 30.9219763,58.5865044 30.8882489,58.4111224 C30.8545216,58.2357403 30.7971861,58.080597 30.7162405,57.9456878 C30.635295,57.8107785 30.5273692,57.7028527 30.3924599,57.6219072 C30.2575507,57.5409616 30.0855439,57.5004895 29.8764346,57.5004895 C29.6605798,57.5004895 29.4750824,57.5460206 29.3199367,57.6370844 C29.1647911,57.7281481 29.0383155,57.846192 28.9405063,57.9912194 C28.8426971,58.1362469 28.7718708,58.2998219 28.7280253,58.4819494 C28.6841798,58.6640769 28.6622574,58.8495743 28.6622574,59.0384473 L28.6622574,61.628692 L27.7111519,61.628692 L27.7111519,58.7753755 C27.7111519,58.5865026 27.6942885,58.4144959 27.6605612,58.2593502 C27.6268339,58.1042046 27.5694983,57.9709837 27.4885527,57.8596835 C27.4076072,57.7483834 27.3030541,57.6606937 27.1748903,57.5966118 C27.0467265,57.5325299 26.8882105,57.5004895 26.6993376,57.5004895 C26.3485735,57.5004895 26.0568366,57.6438284 25.8241181,57.9305105 C25.5913997,58.2171927 25.4750422,58.599992 25.4750422,59.0789198 L25.4750422,61.628692 L24.5239367,61.628692 L24.5239367,57.8647426 C24.5239367,57.7365788 24.520564,57.5713175 24.5138186,57.3689536 C24.5070731,57.1665897 24.4969551,56.9878376 24.4834641,56.832692 L25.3839789,56.832692 C25.3974698,56.9541103 25.4075879,57.0907039 25.4143333,57.2424768 C25.4210788,57.3942497 25.4244515,57.5207252 25.4244515,57.6219072 L25.4548059,57.6219072 Z M36.4835823,58.5224219 C36.4835823,58.1649124 36.3756565,57.900157 36.1598017,57.7281477 C35.9439469,57.5561384 35.657269,57.470135 35.2997595,57.470135 C35.029941,57.470135 34.7753036,57.5224116 34.5358397,57.6269662 C34.2963757,57.7315209 34.0957012,57.8647418 33.9338101,58.0266329 L33.427903,57.4195443 C33.6639941,57.196944 33.9523584,57.0215646 34.2930042,56.8934008 C34.6336501,56.7652371 34.9995859,56.7011561 35.3908228,56.7011561 C35.7348414,56.7011561 36.0333236,56.75006 36.2862785,56.8478692 C36.5392333,56.9456784 36.7466532,57.0788993 36.9085443,57.2475359 C37.0704354,57.4161724 37.1918519,57.6151606 37.2727975,57.8445063 C37.353743,58.0738521 37.3942152,58.3200578 37.3942152,58.5831308 L37.3942152,60.6775865 C37.3942152,60.8394776 37.3992742,61.009798 37.4093924,61.1885527 C37.4195106,61.3673075 37.4380603,61.5140191 37.4650422,61.628692 L36.605,61.628692 C36.5510363,61.3993463 36.5240549,61.170004 36.5240549,60.9406582 L36.4937004,60.9406582 C36.3183184,61.1969858 36.0974078,61.395974 35.830962,61.5376287 C35.5645162,61.6792834 35.2491706,61.7501097 34.8849156,61.7501097 C34.6960427,61.7501097 34.4987408,61.7248146 34.2930042,61.6742236 C34.0872676,61.6236327 33.9000838,61.541002 33.7314473,61.4263291 C33.5628107,61.3116562 33.4228444,61.1598856 33.3115443,60.9710127 C33.2002442,60.7821397 33.1445949,60.5494247 33.1445949,60.2728608 C33.1445949,59.9086058 33.2424027,59.6202416 33.4380211,59.4077595 C33.6336395,59.1952774 33.8899633,59.0333887 34.207,58.9220886 C34.5240367,58.8107885 34.8815409,58.7382758 35.2795232,58.7045485 C35.6775055,58.6708212 36.0788545,58.6539578 36.4835823,58.6539578 L36.4835823,58.5224219 Z M36.250865,59.3419916 C36.0147738,59.3419916 35.7702544,59.3521096 35.5172996,59.372346 C35.2643447,59.3925824 35.0350024,59.4330545 34.8292658,59.4937637 C34.6235292,59.5544729 34.4532088,59.6455353 34.3182996,59.7669536 C34.1833903,59.8883719 34.1159367,60.0502606 34.1159367,60.2526245 C34.1159367,60.3942792 34.1446045,60.512323 34.2019409,60.6067595 C34.2592774,60.701196 34.3351627,60.7787676 34.4295992,60.8394768 C34.5240356,60.900186 34.6285887,60.9423445 34.7432616,60.9659536 C34.8579345,60.9895627 34.9759783,61.0013671 35.0973966,61.0013671 C35.5425972,61.0013671 35.8849243,60.8681462 36.1243882,60.6017004 C36.3638521,60.3352546 36.4835823,59.9996729 36.4835823,59.5949451 L36.4835823,59.3419916 L36.250865,59.3419916 Z M38.9827637,57.8647426 C38.9827637,57.7365788 38.979391,57.5713175 38.9726456,57.3689536 C38.9659001,57.1665897 38.9557821,56.9878376 38.9422911,56.832692 L39.8428059,56.832692 C39.8562968,56.9541103 39.8664149,57.0940766 39.8731603,57.2525949 C39.8799058,57.4111133 39.8832785,57.5409615 39.8832785,57.6421435 L39.9136329,57.6421435 C40.0485422,57.358834 40.245844,57.1311781 40.5055443,56.9591688 C40.7652446,56.7871595 41.0569815,56.7011561 41.3807637,56.7011561 C41.5291639,56.7011561 41.6539531,56.7146468 41.755135,56.7416287 L41.7146624,57.6219072 C41.5797532,57.5881799 41.4347279,57.5713165 41.2795823,57.5713165 C41.0502365,57.5713165 40.8512484,57.613475 40.6826118,57.6977932 C40.5139752,57.7821115 40.374009,57.8950963 40.2627089,58.0367511 C40.1514087,58.1784058 40.068778,58.3419808 40.0148143,58.527481 C39.9608506,58.7129812 39.9338692,58.9069104 39.9338692,59.1092743 L39.9338692,61.628692 L38.9827637,61.628692 L38.9827637,57.8647426 Z M43.6168734,58.9170295 L43.6472278,58.9170295 L45.6607384,56.832692 L46.9356245,56.832692 L44.6893966,59.0080928 L47.1278692,61.628692 L45.8125105,61.628692 L43.6472278,59.1396287 L43.6168734,59.1396287 L43.6168734,61.628692 L42.6657679,61.628692 L42.6657679,53.9793755 L43.6168734,53.9793755 L43.6168734,58.9170295 Z" id="bookmark" fill="#33373D"></path>
            </g>
            <g id="Group-13" transform="translate(180.286920, 0.000000)">
                <g id="Group-11" transform="translate(3.219409, 0.000000)">
                    <g id="Oval">
                        <use fill="black" fill-opacity="1" filter="url(#filter-6)" xlink:href="#path-5"></use>
                        <use fill="#FFFFFF" fill-rule="evenodd" xlink:href="#path-5"></use>
                        <circle stroke="#D1D1D1" stroke-width="0.5" cx="22.9957806" cy="22.9957806" r="23.2457806"></circle>
                    </g>
                    <path d="M22.9682785,27.5999128 L27.103185,29.797241 C27.2259811,29.8634064 27.3271073,29.8137101 27.3765147,29.7787493 C27.4253442,29.7434996 27.5039337,29.6640433 27.4808192,29.525067 L26.7099485,24.9070661 L30.0774515,21.6536912 C30.1788666,21.5560322 30.1629754,21.4450823 30.1447726,21.3875848 C30.126281,21.3303763 30.0748511,21.2306947 29.9358748,21.2101805 L25.3054498,20.5155879 L23.2514319,16.3078705 C23.1901783,16.1813183 23.0798062,16.1622487 23.0194194,16.1619598 L23.0182637,16.1619598 C22.957588,16.1619598 22.8480827,16.1810293 22.7856734,16.305848 L20.69525,20.4950737 L16.0584686,21.1477712 C15.9192033,21.1671297 15.8666177,21.2662334 15.8475482,21.3234419 C15.8287676,21.3809394 15.8120095,21.4916004 15.9122689,21.5901262 L19.2508787,24.873261 L18.4384018,29.4846165 C18.4141315,29.6233039 18.4921432,29.703627 18.5406838,29.7391656 C18.5895133,29.7749932 18.6891948,29.8246895 18.8140135,29.7605466 L22.9682785,27.5999128 Z M27.2259811,31.2742616 C26.9529403,31.2742616 26.6784549,31.2078072 26.4250615,31.0731649 L22.9610552,29.231801 L19.4805797,31.0419602 C18.901271,31.3441832 18.2133238,31.2904418 17.6863117,30.9044286 C17.1592997,30.5178375 16.9024391,29.877853 17.0157004,29.2338235 L17.6961354,25.3705131 L14.8992732,22.6201689 C14.4335147,22.1619227 14.270846,21.4916004 14.4756988,20.8709743 C14.6805516,20.2503483 15.2095862,19.8082822 15.8570829,19.7172687 L19.7414854,19.1706092 L21.4932804,15.6606627 C21.783946,15.0781757 22.3678777,14.7172996 23.0179748,14.7172996 L23.0260649,14.7172996 C23.6796292,14.7204778 24.2632719,15.0868437 24.5501814,15.6742425 L26.2704828,19.1997914 L30.1499734,19.7811226 C30.7963144,19.8779149 31.3213039,20.3246038 31.520667,20.9475413 C31.7197412,21.5699009 31.5515828,22.2384897 31.0812014,22.6926909 L28.2600689,25.4181869 L28.905832,29.2875648 C29.0133147,29.9318833 28.7509644,30.5695563 28.2204852,30.9515245 C27.9225963,31.1656232 27.5755889,31.2742616 27.2259811,31.2742616 L27.2259811,31.2742616 Z" id="Fill-1" fill="#DEB33B"></path>
                </g>
                <path d="M4.18799156,58.5224219 C4.18799156,58.1649124 4.08006578,57.900157 3.86421097,57.7281477 C3.64835616,57.5561384 3.3616783,57.470135 3.00416878,57.470135 C2.73435027,57.470135 2.47971287,57.5224116 2.24024895,57.6269662 C2.00078502,57.7315209 1.80011051,57.8647418 1.63821941,58.0266329 L1.13231224,57.4195443 C1.36840343,57.196944 1.65676764,57.0215646 1.9974135,56.8934008 C2.33805937,56.7652371 2.70399523,56.7011561 3.09523207,56.7011561 C3.43925067,56.7011561 3.73773291,56.75006 3.99068776,56.8478692 C4.24364261,56.9456784 4.45106248,57.0788993 4.61295359,57.2475359 C4.77484469,57.4161724 4.8962612,57.6151606 4.97720675,57.8445063 C5.0581523,58.0738521 5.09862447,58.3200578 5.09862447,58.5831308 L5.09862447,60.6775865 C5.09862447,60.8394776 5.10368349,61.009798 5.11380169,61.1885527 C5.12391988,61.3673075 5.14246963,61.5140191 5.16945148,61.628692 L4.30940928,61.628692 C4.25544558,61.3993463 4.22846414,61.170004 4.22846414,60.9406582 L4.1981097,60.9406582 C4.02272767,61.1969858 3.80181708,61.395974 3.53537131,61.5376287 C3.26892553,61.6792834 2.95357988,61.7501097 2.58932489,61.7501097 C2.40045194,61.7501097 2.20315011,61.7248146 1.9974135,61.6742236 C1.79167689,61.6236327 1.60449311,61.541002 1.43585654,61.4263291 C1.26721997,61.3116562 1.12725372,61.1598856 1.01595359,60.9710127 C0.904653452,60.7821397 0.849004219,60.5494247 0.849004219,60.2728608 C0.849004219,59.9086058 0.946811961,59.6202416 1.14243038,59.4077595 C1.3380488,59.1952774 1.59437254,59.0333887 1.91140928,58.9220886 C2.22844603,58.8107885 2.58595019,58.7382758 2.98393249,58.7045485 C3.38191479,58.6708212 3.7832638,58.6539578 4.18799156,58.6539578 L4.18799156,58.5224219 Z M3.95527426,59.3419916 C3.71918307,59.3419916 3.47466371,59.3521096 3.22170886,59.372346 C2.96875401,59.3925824 2.73941172,59.4330545 2.53367511,59.4937637 C2.32793849,59.5544729 2.15761811,59.6455353 2.02270886,59.7669536 C1.88779961,59.8883719 1.82034599,60.0502606 1.82034599,60.2526245 C1.82034599,60.3942792 1.84901378,60.512323 1.90635021,60.6067595 C1.96368664,60.701196 2.03957196,60.7787676 2.13400844,60.8394768 C2.22844492,60.900186 2.33299802,60.9423445 2.44767089,60.9659536 C2.56234375,60.9895627 2.68038758,61.0013671 2.80180591,61.0013671 C3.24700645,61.0013671 3.58933354,60.8681462 3.82879747,60.6017004 C4.06826139,60.3352546 4.18799156,59.9996729 4.18799156,59.5949451 L4.18799156,59.3419916 L3.95527426,59.3419916 Z M10.5118312,60.8698312 C10.3297037,61.1598861 10.0818117,61.3807967 9.76814768,61.5325696 C9.45448366,61.6843425 9.12564729,61.7602278 8.78162869,61.7602278 C8.41062824,61.7602278 8.07673285,61.6944606 7.77993249,61.5629241 C7.48313213,61.4313875 7.23018107,61.2509491 7.02107173,61.0216034 C6.81196239,60.7922576 6.65007371,60.5224432 6.53540084,60.2121519 C6.42072798,59.9018606 6.36339241,59.5713379 6.36339241,59.2205738 C6.36339241,58.8698098 6.42072798,58.5409734 6.53540084,58.2340549 C6.65007371,57.9271363 6.81364873,57.6590082 7.0261308,57.4296624 C7.23861288,57.2003167 7.49325027,57.0215646 7.79005063,56.8934008 C8.08685099,56.7652371 8.41400103,56.7011561 8.77151055,56.7011561 C9.16274739,56.7011561 9.50338814,56.7837868 9.79344304,56.9490506 C10.0834979,57.1143145 10.3128402,57.314989 10.4814768,57.5510802 L10.5017131,57.5510802 L10.5017131,53.9793755 L11.4528186,53.9793755 L11.4528186,61.628692 L10.5320675,61.628692 L10.5320675,60.8698312 L10.5118312,60.8698312 Z M7.35497046,59.2205738 C7.35497046,59.4431741 7.38869727,59.6590257 7.4561519,59.868135 C7.52360653,60.0772444 7.62478695,60.2627418 7.7596962,60.4246329 C7.89460546,60.586524 8.05986681,60.7163722 8.25548523,60.8141814 C8.45110365,60.9119906 8.68044594,60.9608945 8.94351899,60.9608945 C9.18635564,60.9608945 9.40726623,60.913677 9.60625738,60.8192405 C9.80524853,60.724804 9.97556891,60.5983285 10.1172236,60.4398101 C10.2588783,60.2812918 10.3684905,60.0974807 10.4460633,59.8883713 C10.5236361,59.679262 10.5624219,59.4600377 10.5624219,59.230692 C10.5624219,59.0013463 10.5236361,58.782122 10.4460633,58.5730127 C10.3684905,58.3639033 10.2588783,58.1784059 10.1172236,58.0165148 C9.97556891,57.8546237 9.80524853,57.7264618 9.60625738,57.6320253 C9.40726623,57.5375888 9.18635564,57.4903713 8.94351899,57.4903713 C8.68044594,57.4903713 8.45110365,57.5375888 8.25548523,57.6320253 C8.05986681,57.7264618 7.89460546,57.8546237 7.7596962,58.0165148 C7.62478695,58.1784059 7.52360653,58.3639033 7.4561519,58.5730127 C7.38869727,58.782122 7.35497046,58.9979736 7.35497046,59.2205738 Z M16.9368523,60.8698312 C16.7547248,61.1598861 16.5068328,61.3807967 16.1931688,61.5325696 C15.8795048,61.6843425 15.5506684,61.7602278 15.2066498,61.7602278 C14.8356493,61.7602278 14.5017539,61.6944606 14.2049536,61.5629241 C13.9081532,61.4313875 13.6552022,61.2509491 13.4460928,61.0216034 C13.2369835,60.7922576 13.0750948,60.5224432 12.9604219,60.2121519 C12.8457491,59.9018606 12.7884135,59.5713379 12.7884135,59.2205738 C12.7884135,58.8698098 12.8457491,58.5409734 12.9604219,58.2340549 C13.0750948,57.9271363 13.2386698,57.6590082 13.4511519,57.4296624 C13.663634,57.2003167 13.9182714,57.0215646 14.2150717,56.8934008 C14.5118721,56.7652371 14.8390221,56.7011561 15.1965316,56.7011561 C15.5877685,56.7011561 15.9284092,56.7837868 16.2184641,56.9490506 C16.508519,57.1143145 16.7378613,57.314989 16.9064979,57.5510802 L16.9267342,57.5510802 L16.9267342,53.9793755 L17.8778397,53.9793755 L17.8778397,61.628692 L16.9570886,61.628692 L16.9570886,60.8698312 L16.9368523,60.8698312 Z M13.7799916,59.2205738 C13.7799916,59.4431741 13.8137184,59.6590257 13.881173,59.868135 C13.9486276,60.0772444 14.049808,60.2627418 14.1847173,60.4246329 C14.3196266,60.586524 14.4848879,60.7163722 14.6805063,60.8141814 C14.8761247,60.9119906 15.105467,60.9608945 15.3685401,60.9608945 C15.6113767,60.9608945 15.8322873,60.913677 16.0312785,60.8192405 C16.2302696,60.724804 16.40059,60.5983285 16.5422447,60.4398101 C16.6838994,60.2812918 16.7935116,60.0974807 16.8710844,59.8883713 C16.9486572,59.679262 16.987443,59.4600377 16.987443,59.230692 C16.987443,59.0013463 16.9486572,58.782122 16.8710844,58.5730127 C16.7935116,58.3639033 16.6838994,58.1784059 16.5422447,58.0165148 C16.40059,57.8546237 16.2302696,57.7264618 16.0312785,57.6320253 C15.8322873,57.5375888 15.6113767,57.4903713 15.3685401,57.4903713 C15.105467,57.4903713 14.8761247,57.5375888 14.6805063,57.6320253 C14.4848879,57.7264618 14.3196266,57.8546237 14.1847173,58.0165148 C14.049808,58.1784059 13.9486276,58.3639033 13.881173,58.5730127 C13.8137184,58.782122 13.7799916,58.9979736 13.7799916,59.2205738 Z M22.0667511,57.8647426 C22.0667511,57.7365788 22.0633784,57.5713175 22.0566329,57.3689536 C22.0498874,57.1665897 22.0397694,56.9878376 22.0262785,56.832692 L22.9267932,56.832692 C22.9402842,56.9541103 22.9504022,57.0940766 22.9571477,57.2525949 C22.9638931,57.4111133 22.9672658,57.5409615 22.9672658,57.6421435 L22.9976203,57.6421435 C23.1325295,57.358834 23.3298313,57.1311781 23.5895316,56.9591688 C23.849232,56.7871595 24.1409688,56.7011561 24.4647511,56.7011561 C24.6131512,56.7011561 24.7379404,56.7146468 24.8391224,56.7416287 L24.7986498,57.6219072 C24.6637405,57.5881799 24.5187153,57.5713165 24.3635696,57.5713165 C24.1342239,57.5713165 23.9352357,57.613475 23.7665992,57.6977932 C23.5979626,57.7821115 23.4579963,57.8950963 23.3466962,58.0367511 C23.2353961,58.1784058 23.1527654,58.3419808 23.0988017,58.527481 C23.044838,58.7129812 23.0178565,58.9069104 23.0178565,59.1092743 L23.0178565,61.628692 L22.0667511,61.628692 L22.0667511,57.8647426 Z M29.2405148,58.80573 C29.2337693,58.616857 29.2017288,58.4397913 29.1443924,58.2745274 C29.087056,58.1092636 29.002739,57.9659247 28.8914388,57.8445063 C28.7801387,57.723088 28.6418588,57.6269666 28.4765949,57.5561392 C28.3113311,57.4853119 28.117402,57.4498987 27.8948017,57.4498987 C27.6924378,57.4498987 27.5018813,57.4853119 27.3231266,57.5561392 C27.1443718,57.6269666 26.9892285,57.723088 26.857692,57.8445063 C26.7261555,57.9659247 26.6182297,58.1092636 26.5339114,58.2745274 C26.4495931,58.4397913 26.4006892,58.616857 26.3871983,58.80573 L29.2405148,58.80573 Z M30.2017384,59.1902194 L30.2017384,59.3521097 C30.2017384,59.4060734 30.1983657,59.4600363 30.1916203,59.514 L26.3871983,59.514 C26.3939438,59.7163639 26.439475,59.9069203 26.5237932,60.0856751 C26.6081115,60.2644299 26.7210963,60.4195732 26.8627511,60.5511097 C27.0044058,60.6826462 27.1679808,60.785513 27.353481,60.8597131 C27.5389812,60.9339132 27.7362831,60.9710127 27.9453924,60.9710127 C28.2691746,60.9710127 28.5491071,60.9001864 28.7851983,60.7585316 C29.0212895,60.6168769 29.2067869,60.4448702 29.3416962,60.2425063 L30.0094937,60.7787679 C29.7531661,61.1160411 29.4513112,61.3639331 29.1039198,61.5224515 C28.7565285,61.6809699 28.3703566,61.7602278 27.9453924,61.7602278 C27.5811374,61.7602278 27.2438693,61.6995196 26.9335781,61.5781013 C26.6232868,61.4566829 26.356845,61.2863626 26.1342447,61.067135 C25.9116445,60.8479075 25.7362651,60.583152 25.6081013,60.2728608 C25.4799375,59.9625695 25.4158565,59.618556 25.4158565,59.2408101 C25.4158565,58.8698097 25.4782511,58.5274826 25.6030422,58.2138186 C25.7278333,57.9001545 25.9015263,57.6320264 26.1241266,57.4094262 C26.3467269,57.1868259 26.609796,57.0131328 26.9133418,56.8883418 C27.2168876,56.7635507 27.5440376,56.7011561 27.8948017,56.7011561 C28.2455657,56.7011561 28.5642841,56.7584917 28.8509662,56.8731646 C29.1376484,56.9878374 29.3804814,57.1530988 29.5794726,57.3689536 C29.7784637,57.5848084 29.9319207,57.8461912 30.0398481,58.1531097 C30.1477755,58.4600283 30.2017384,58.805728 30.2017384,59.1902194 Z M33.7835612,61.628692 L32.7515105,61.628692 L30.7987089,56.832692 L31.8509958,56.832692 L33.2574177,60.6067595 L33.277654,60.6067595 L34.6941941,56.832692 L35.7060084,56.832692 L33.7835612,61.628692 Z M37.5879831,61.628692 L36.6368776,61.628692 L36.6368776,56.832692 L37.5879831,56.832692 L37.5879831,61.628692 Z M37.7498734,55.1024895 C37.7498734,55.2778715 37.6874788,55.4228968 37.5626878,55.5375696 C37.4378967,55.6522425 37.2878124,55.7095781 37.1124304,55.7095781 C36.9370483,55.7095781 36.7886504,55.6505561 36.6672321,55.5325105 C36.5458137,55.414465 36.4851055,55.271126 36.4851055,55.1024895 C36.4851055,54.9271074 36.5458137,54.7803958 36.6672321,54.6623502 C36.7886504,54.5443046 36.9370483,54.4852827 37.1124304,54.4852827 C37.2878124,54.4852827 37.4378967,54.5443046 37.5626878,54.6623502 C37.6874788,54.7803958 37.7498734,54.9271074 37.7498734,55.1024895 Z M42.7583544,58.80573 C42.751609,58.616857 42.7195685,58.4397913 42.6622321,58.2745274 C42.6048956,58.1092636 42.5205786,57.9659247 42.4092785,57.8445063 C42.2979783,57.723088 42.1596984,57.6269666 41.9944346,57.5561392 C41.8291708,57.4853119 41.6352416,57.4498987 41.4126414,57.4498987 C41.2102775,57.4498987 41.019721,57.4853119 40.8409662,57.5561392 C40.6622115,57.6269666 40.5070682,57.723088 40.3755316,57.8445063 C40.2439951,57.9659247 40.1360693,58.1092636 40.0517511,58.2745274 C39.9674328,58.4397913 39.9185289,58.616857 39.905038,58.80573 L42.7583544,58.80573 Z M43.7195781,59.1902194 L43.7195781,59.3521097 C43.7195781,59.4060734 43.7162054,59.4600363 43.7094599,59.514 L39.905038,59.514 C39.9117834,59.7163639 39.9573146,59.9069203 40.0416329,60.0856751 C40.1259512,60.2644299 40.238936,60.4195732 40.3805907,60.5511097 C40.5222454,60.6826462 40.6858205,60.785513 40.8713207,60.8597131 C41.0568209,60.9339132 41.2541227,60.9710127 41.4632321,60.9710127 C41.7870143,60.9710127 42.0669468,60.9001864 42.303038,60.7585316 C42.5391292,60.6168769 42.7246266,60.4448702 42.8595359,60.2425063 L43.5273333,60.7787679 C43.2710058,61.1160411 42.9691508,61.3639331 42.6217595,61.5224515 C42.2743682,61.6809699 41.8881962,61.7602278 41.4632321,61.7602278 C41.0989771,61.7602278 40.761709,61.6995196 40.4514177,61.5781013 C40.1411264,61.4566829 39.8746847,61.2863626 39.6520844,61.067135 C39.4294841,60.8479075 39.2541047,60.583152 39.1259409,60.2728608 C38.9977771,59.9625695 38.9336962,59.618556 38.9336962,59.2408101 C38.9336962,58.8698097 38.9960908,58.5274826 39.1208819,58.2138186 C39.2456729,57.9001545 39.419366,57.6320264 39.6419662,57.4094262 C39.8645665,57.1868259 40.1276356,57.0131328 40.4311814,56.8883418 C40.7347273,56.7635507 41.0618773,56.7011561 41.4126414,56.7011561 C41.7634054,56.7011561 42.0821237,56.7584917 42.3688059,56.8731646 C42.6554881,56.9878374 42.8983211,57.1530988 43.0973122,57.3689536 C43.2963034,57.5848084 43.4497604,57.8461912 43.5576878,58.1531097 C43.6656152,58.4600283 43.7195781,58.805728 43.7195781,59.1902194 Z M45.3991899,56.832692 L46.4818312,60.4954599 L46.5020675,60.4954599 L47.6454177,56.832692 L48.6471139,56.832692 L49.8107004,60.4954599 L49.8309367,60.4954599 L50.9135781,56.832692 L51.9152743,56.832692 L50.3267257,61.628692 L49.3351477,61.628692 L48.1513249,58.0266329 L48.1310886,58.0266329 L46.957384,61.628692 L45.9658059,61.628692 L44.3671392,56.832692 L45.3991899,56.832692 Z" id="add-review" fill="#33373D"></path>
            </g>
            <g id="Group-5" transform="translate(269.751055, 0.000000)">
                <g id="Group-6" transform="translate(1.829114, 0.000000)">
                    <g id="Oval">
                        <use fill="black" fill-opacity="1" filter="url(#filter-8)" xlink:href="#path-7"></use>
                        <use fill="#FFFFFF" fill-rule="evenodd" xlink:href="#path-7"></use>
                        <circle stroke="#D1D1D1" stroke-width="0.5" cx="22.9957806" cy="22.9957806" r="23.2457806"></circle>
                    </g>
                    <g id="Group-42" transform="translate(13.797468, 13.797468)" fill="#4990E2">
                        <path d="M3.34062714,2.47173598 C2.66059478,2.47173598 2.10728431,3.23979566 2.10728431,4.18371566 L2.10728431,15.06906 C2.10728431,16.012571 2.66059478,16.7802217 3.34062714,16.7802217 L15.5608212,16.7802217 C16.2405399,16.7802217 16.7938504,16.012571 16.7938504,15.06906 L16.7938504,4.18371566 C16.7938504,3.23979566 16.2405399,2.47173598 15.5608212,2.47173598 L3.34062714,2.47173598 Z M15.5608212,18.2779854 L3.34062714,18.2779854 C1.79581193,18.2779854 0.538943996,16.6867502 0.538943996,14.7309212 L0.538943996,4.45123236 C0.538943996,2.49501715 1.79581193,0.903395661 3.34062714,0.903395661 L15.5608212,0.903395661 C17.1056364,0.903395661 18.3621907,2.49501715 18.3621907,4.45123236 L18.3621907,14.7309212 C18.3621907,16.6867502 17.1056364,18.2779854 15.5608212,18.2779854 L15.5608212,18.2779854 Z M9.65780783,14.2671889 C7.18501915,14.2671889 5.17333549,12.2699713 5.17333549,9.81526512 C5.17333549,7.36010693 7.18501915,5.3628893 9.65780783,5.3628893 C12.1305965,5.3628893 14.1422802,7.36010693 14.1422802,9.81526512 C14.1422802,12.2699713 12.1305965,14.2671889 9.65780783,14.2671889 M9.65780783,7.16219881 C8.17339911,7.16219881 6.96584657,8.35224266 6.96584657,9.81531266 C6.96584657,11.2778355 8.17339911,12.4678794 9.65780783,12.4678794 C11.1422165,12.4678794 12.3497691,11.2778355 12.3497691,9.81531266 C12.3497691,8.35224266 11.1422165,7.16219881 9.65780783,7.16219881" id="Combined-Shape"></path>
                        <path d="M14.1342176,6.13220816 C13.5706562,6.13220816 13.112183,5.67703182 13.112183,5.11759146 C13.112183,4.55804807 13.5706562,4.10287173 14.1342176,4.10287173 C14.6977791,4.10287173 15.1562523,4.55804807 15.1562523,5.11759146 C15.1562523,5.67703182 14.6977791,6.13220816 14.1342176,6.13220816" id="Fill-4"></path>
                    </g>
                </g>
                <path d="M4.19905907,58.5224219 C4.19905907,58.1649124 4.09113329,57.900157 3.87527848,57.7281477 C3.65942367,57.5561384 3.37274581,57.470135 3.01523629,57.470135 C2.74541778,57.470135 2.49078038,57.5224116 2.25131646,57.6269662 C2.01185253,57.7315209 1.81117802,57.8647418 1.64928692,58.0266329 L1.14337975,57.4195443 C1.37947094,57.196944 1.66783515,57.0215646 2.00848101,56.8934008 C2.34912688,56.7652371 2.71506274,56.7011561 3.10629958,56.7011561 C3.45031818,56.7011561 3.74880042,56.75006 4.00175527,56.8478692 C4.25471013,56.9456784 4.46212999,57.0788993 4.6240211,57.2475359 C4.7859122,57.4161724 4.90732871,57.6151606 4.98827426,57.8445063 C5.06921981,58.0738521 5.10969198,58.3200578 5.10969198,58.5831308 L5.10969198,60.6775865 C5.10969198,60.8394776 5.114751,61.009798 5.1248692,61.1885527 C5.13498739,61.3673075 5.15353714,61.5140191 5.18051899,61.628692 L4.32047679,61.628692 C4.26651309,61.3993463 4.23953165,61.170004 4.23953165,60.9406582 L4.20917722,60.9406582 C4.03379518,61.1969858 3.8128846,61.395974 3.54643882,61.5376287 C3.27999304,61.6792834 2.96464739,61.7501097 2.60039241,61.7501097 C2.41151945,61.7501097 2.21421763,61.7248146 2.00848101,61.6742236 C1.8027444,61.6236327 1.61556062,61.541002 1.44692405,61.4263291 C1.27828748,61.3116562 1.13832123,61.1598856 1.0270211,60.9710127 C0.915720962,60.7821397 0.86007173,60.5494247 0.86007173,60.2728608 C0.86007173,59.9086058 0.957879472,59.6202416 1.15349789,59.4077595 C1.34911631,59.1952774 1.60544005,59.0333887 1.92247679,58.9220886 C2.23951354,58.8107885 2.5970177,58.7382758 2.995,58.7045485 C3.3929823,58.6708212 3.79433131,58.6539578 4.19905907,58.6539578 L4.19905907,58.5224219 Z M3.96634177,59.3419916 C3.73025058,59.3419916 3.48573122,59.3521096 3.23277637,59.372346 C2.97982152,59.3925824 2.75047923,59.4330545 2.54474262,59.4937637 C2.339006,59.5544729 2.16868563,59.6455353 2.03377637,59.7669536 C1.89886712,59.8883719 1.8314135,60.0502606 1.8314135,60.2526245 C1.8314135,60.3942792 1.86008129,60.512323 1.91741772,60.6067595 C1.97475415,60.701196 2.05063947,60.7787676 2.14507595,60.8394768 C2.23951243,60.900186 2.34406553,60.9423445 2.4587384,60.9659536 C2.57341126,60.9895627 2.69145509,61.0013671 2.81287342,61.0013671 C3.25807396,61.0013671 3.60040105,60.8681462 3.83986498,60.6017004 C4.0793289,60.3352546 4.19905907,59.9996729 4.19905907,59.5949451 L4.19905907,59.3419916 L3.96634177,59.3419916 Z M10.5228987,60.8698312 C10.3407712,61.1598861 10.0928792,61.3807967 9.77921519,61.5325696 C9.46555117,61.6843425 9.1367148,61.7602278 8.7926962,61.7602278 C8.42169575,61.7602278 8.08780036,61.6944606 7.791,61.5629241 C7.49419964,61.4313875 7.24124858,61.2509491 7.03213924,61.0216034 C6.8230299,60.7922576 6.66114122,60.5224432 6.54646835,60.2121519 C6.43179549,59.9018606 6.37445992,59.5713379 6.37445992,59.2205738 C6.37445992,58.8698098 6.43179549,58.5409734 6.54646835,58.2340549 C6.66114122,57.9271363 6.82471624,57.6590082 7.03719831,57.4296624 C7.24968039,57.2003167 7.50431778,57.0215646 7.80111814,56.8934008 C8.0979185,56.7652371 8.42506854,56.7011561 8.78257806,56.7011561 C9.1738149,56.7011561 9.51445565,56.7837868 9.80451055,56.9490506 C10.0945654,57.1143145 10.3239077,57.314989 10.4925443,57.5510802 L10.5127806,57.5510802 L10.5127806,53.9793755 L11.4638861,53.9793755 L11.4638861,61.628692 L10.543135,61.628692 L10.543135,60.8698312 L10.5228987,60.8698312 Z M7.36603797,59.2205738 C7.36603797,59.4431741 7.39976478,59.6590257 7.46721941,59.868135 C7.53467404,60.0772444 7.63585446,60.2627418 7.77076371,60.4246329 C7.90567297,60.586524 8.07093432,60.7163722 8.26655274,60.8141814 C8.46217116,60.9119906 8.69151345,60.9608945 8.9545865,60.9608945 C9.19742316,60.9608945 9.41833374,60.913677 9.61732489,60.8192405 C9.81631604,60.724804 9.98663642,60.5983285 10.1282911,60.4398101 C10.2699459,60.2812918 10.379558,60.0974807 10.4571308,59.8883713 C10.5347036,59.679262 10.5734895,59.4600377 10.5734895,59.230692 C10.5734895,59.0013463 10.5347036,58.782122 10.4571308,58.5730127 C10.379558,58.3639033 10.2699459,58.1784059 10.1282911,58.0165148 C9.98663642,57.8546237 9.81631604,57.7264618 9.61732489,57.6320253 C9.41833374,57.5375888 9.19742316,57.4903713 8.9545865,57.4903713 C8.69151345,57.4903713 8.46217116,57.5375888 8.26655274,57.6320253 C8.07093432,57.7264618 7.90567297,57.8546237 7.77076371,58.0165148 C7.63585446,58.1784059 7.53467404,58.3639033 7.46721941,58.5730127 C7.39976478,58.782122 7.36603797,58.9979736 7.36603797,59.2205738 Z M16.9479198,60.8698312 C16.7657923,61.1598861 16.5179003,61.3807967 16.2042363,61.5325696 C15.8905723,61.6843425 15.5617359,61.7602278 15.2177173,61.7602278 C14.8467169,61.7602278 14.5128215,61.6944606 14.2160211,61.5629241 C13.9192207,61.4313875 13.6662697,61.2509491 13.4571603,61.0216034 C13.248051,60.7922576 13.0861623,60.5224432 12.9714895,60.2121519 C12.8568166,59.9018606 12.799481,59.5713379 12.799481,59.2205738 C12.799481,58.8698098 12.8568166,58.5409734 12.9714895,58.2340549 C13.0861623,57.9271363 13.2497373,57.6590082 13.4622194,57.4296624 C13.6747015,57.2003167 13.9293389,57.0215646 14.2261392,56.8934008 C14.5229396,56.7652371 14.8500896,56.7011561 15.2075992,56.7011561 C15.598836,56.7011561 15.9394767,56.7837868 16.2295316,56.9490506 C16.5195865,57.1143145 16.7489288,57.314989 16.9175654,57.5510802 L16.9378017,57.5510802 L16.9378017,53.9793755 L17.8889072,53.9793755 L17.8889072,61.628692 L16.9681561,61.628692 L16.9681561,60.8698312 L16.9479198,60.8698312 Z M13.7910591,59.2205738 C13.7910591,59.4431741 13.8247859,59.6590257 13.8922405,59.868135 C13.9596951,60.0772444 14.0608756,60.2627418 14.1957848,60.4246329 C14.3306941,60.586524 14.4959554,60.7163722 14.6915738,60.8141814 C14.8871923,60.9119906 15.1165345,60.9608945 15.3796076,60.9608945 C15.6224443,60.9608945 15.8433548,60.913677 16.042346,60.8192405 C16.2413371,60.724804 16.4116575,60.5983285 16.5533122,60.4398101 C16.694967,60.2812918 16.8045791,60.0974807 16.8821519,59.8883713 C16.9597247,59.679262 16.9985105,59.4600377 16.9985105,59.230692 C16.9985105,59.0013463 16.9597247,58.782122 16.8821519,58.5730127 C16.8045791,58.3639033 16.694967,58.1784059 16.5533122,58.0165148 C16.4116575,57.8546237 16.2413371,57.7264618 16.042346,57.6320253 C15.8433548,57.5375888 15.6224443,57.4903713 15.3796076,57.4903713 C15.1165345,57.4903713 14.8871923,57.5375888 14.6915738,57.6320253 C14.4959554,57.7264618 14.3306941,57.8546237 14.1957848,58.0165148 C14.0608756,58.1784059 13.9596951,58.3639033 13.8922405,58.5730127 C13.8247859,58.782122 13.7910591,58.9979736 13.7910591,59.2205738 Z M23.0289241,64.0570464 L22.0778186,64.0570464 L22.0778186,56.832692 L23.0086878,56.832692 L23.0086878,57.5814346 L23.0390422,57.5814346 C23.1941878,57.325107 23.4218438,57.1143145 23.7220169,56.9490506 C24.02219,56.7837868 24.3712624,56.7011561 24.7692447,56.7011561 C25.1267542,56.7011561 25.4522179,56.7652371 25.7456456,56.8934008 C26.0390732,57.0215646 26.2920243,57.2003167 26.5045063,57.4296624 C26.7169884,57.6590082 26.8805634,57.9271363 26.9952363,58.2340549 C27.1099092,58.5409734 27.1672447,58.8698098 27.1672447,59.2205738 C27.1672447,59.5713379 27.1099092,59.9018606 26.9952363,60.2121519 C26.8805634,60.5224432 26.7186747,60.7922576 26.5095654,61.0216034 C26.3004561,61.2509491 26.047505,61.4313875 25.7507046,61.5629241 C25.4539043,61.6944606 25.1200089,61.7602278 24.7490084,61.7602278 C24.4049898,61.7602278 24.0812125,61.6860289 23.7776667,61.5376287 C23.4741208,61.3892285 23.2346605,61.1801223 23.0592785,60.9103038 L23.0289241,60.9103038 L23.0289241,64.0570464 Z M26.1857848,59.2205738 C26.1857848,58.9979736 26.152058,58.782122 26.0846034,58.5730127 C26.0171487,58.3639033 25.9159683,58.1784059 25.7810591,58.0165148 C25.6461498,57.8546237 25.4792021,57.7264618 25.280211,57.6320253 C25.0812198,57.5375888 24.8501912,57.4903713 24.5871181,57.4903713 C24.3442815,57.4903713 24.1233709,57.5375888 23.9243797,57.6320253 C23.7253886,57.7264618 23.5550682,57.8546237 23.4134135,58.0165148 C23.2717588,58.1784059 23.1621467,58.3639033 23.0845738,58.5730127 C23.007001,58.782122 22.9682152,59.0013463 22.9682152,59.230692 C22.9682152,59.4600377 23.007001,59.679262 23.0845738,59.8883713 C23.1621467,60.0974807 23.2717588,60.2812918 23.4134135,60.4398101 C23.5550682,60.5983285 23.7253886,60.724804 23.9243797,60.8192405 C24.1233709,60.913677 24.3442815,60.9608945 24.5871181,60.9608945 C24.8501912,60.9608945 25.0812198,60.9119906 25.280211,60.8141814 C25.4792021,60.7163722 25.6461498,60.586524 25.7810591,60.4246329 C25.9159683,60.2627418 26.0171487,60.0772444 26.0846034,59.868135 C26.152058,59.6590257 26.1857848,59.4431741 26.1857848,59.2205738 Z M29.4842996,57.5611983 C29.5989724,57.3251071 29.7945879,57.1227463 30.0711519,56.9541097 C30.3477159,56.7854731 30.6580025,56.7011561 31.0020211,56.7011561 C31.3123124,56.7011561 31.5787542,56.7534327 31.8013544,56.8579873 C32.0239547,56.962542 32.2094521,57.1025083 32.3578523,57.2778903 C32.5062525,57.4532723 32.6158646,57.6590059 32.686692,57.895097 C32.7575193,58.1311882 32.7929325,58.3841393 32.7929325,58.6539578 L32.7929325,61.628692 L31.841827,61.628692 L31.841827,58.9777384 C31.841827,58.78212 31.8266499,58.5966225 31.7962954,58.4212405 C31.7659408,58.2458585 31.7102915,58.0907152 31.629346,57.9558059 C31.5484004,57.8208967 31.4387883,57.7129709 31.3005063,57.6320253 C31.1622243,57.5510798 30.9817859,57.5106076 30.7591857,57.5106076 C30.3814397,57.5106076 30.0711531,57.6539465 29.8283165,57.9406287 C29.5854798,58.2273109 29.4640633,58.6101101 29.4640633,59.089038 L29.4640633,61.628692 L28.5129578,61.628692 L28.5129578,53.9793755 L29.4640633,53.9793755 L29.4640633,57.5611983 L29.4842996,57.5611983 Z M39.2584262,59.2205738 C39.2584262,59.5915743 39.1926589,59.932215 39.0611224,60.2425063 C38.9295858,60.5527976 38.7474611,60.8209257 38.5147426,61.0468987 C38.2820242,61.2728717 38.0071507,61.4482511 37.6901139,61.5730422 C37.3730772,61.6978333 37.0324364,61.7602278 36.6681814,61.7602278 C36.3039264,61.7602278 35.9632857,61.6978333 35.6462489,61.5730422 C35.3292122,61.4482511 35.0560251,61.2728717 34.8266793,61.0468987 C34.5973336,60.8209257 34.4168952,60.5527976 34.2853586,60.2425063 C34.1538221,59.932215 34.0880549,59.5915743 34.0880549,59.2205738 C34.0880549,58.8495734 34.1538221,58.510619 34.2853586,58.2037004 C34.4168952,57.8967819 34.5973336,57.6320264 34.8266793,57.4094262 C35.0560251,57.1868259 35.3292122,57.0131328 35.6462489,56.8883418 C35.9632857,56.7635507 36.3039264,56.7011561 36.6681814,56.7011561 C37.0324364,56.7011561 37.3730772,56.7635507 37.6901139,56.8883418 C38.0071507,57.0131328 38.2820242,57.1868259 38.5147426,57.4094262 C38.7474611,57.6320264 38.9295858,57.8967819 39.0611224,58.2037004 C39.1926589,58.510619 39.2584262,58.8495734 39.2584262,59.2205738 Z M38.2668481,59.2205738 C38.2668481,58.9912281 38.231435,58.7720039 38.1606076,58.5628945 C38.0897802,58.3537852 37.9869135,58.1699741 37.8520042,58.0114557 C37.717095,57.8529373 37.5501473,57.7264618 37.3511561,57.6320253 C37.152165,57.5375888 36.924509,57.4903713 36.6681814,57.4903713 C36.4118539,57.4903713 36.1841979,57.5375888 35.9852068,57.6320253 C35.7862156,57.7264618 35.6192679,57.8529373 35.4843586,58.0114557 C35.3494494,58.1699741 35.2465826,58.3537852 35.1757553,58.5628945 C35.1049279,58.7720039 35.0695148,58.9912281 35.0695148,59.2205738 C35.0695148,59.4499196 35.1049279,59.6691438 35.1757553,59.8782532 C35.2465826,60.0873625 35.3494494,60.27286 35.4843586,60.4347511 C35.6192679,60.5966422 35.7862156,60.724804 35.9852068,60.8192405 C36.1841979,60.913677 36.4118539,60.9608945 36.6681814,60.9608945 C36.924509,60.9608945 37.152165,60.913677 37.3511561,60.8192405 C37.5501473,60.724804 37.717095,60.5966422 37.8520042,60.4347511 C37.9869135,60.27286 38.0897802,60.0873625 38.1606076,59.8782532 C38.231435,59.6691438 38.2668481,59.4499196 38.2668481,59.2205738 Z M42.9211941,57.611789 L41.646308,57.611789 L41.646308,60.1109705 C41.646308,60.4010254 41.7002709,60.6084452 41.8081983,60.7332363 C41.9161257,60.8580273 42.0881324,60.9204219 42.3242236,60.9204219 C42.4119146,60.9204219 42.5063497,60.9103039 42.6075316,60.8900675 C42.7087136,60.8698311 42.799776,60.839477 42.8807215,60.7990042 L42.9110759,61.5781013 C42.7964031,61.618574 42.6699276,61.6506145 42.5316456,61.6742236 C42.3933636,61.6978327 42.2500247,61.7096371 42.1016245,61.7096371 C41.6496785,61.7096371 41.3039787,61.5848479 41.0645148,61.3352658 C40.8250508,61.0856837 40.7053207,60.7113161 40.7053207,60.2121519 L40.7053207,57.611789 L39.7845696,57.611789 L39.7845696,56.832692 L40.7053207,56.832692 L40.7053207,55.4566245 L41.646308,55.4566245 L41.646308,56.832692 L42.9211941,56.832692 L42.9211941,57.611789 Z M48.7593629,59.2205738 C48.7593629,59.5915743 48.6935956,59.932215 48.5620591,60.2425063 C48.4305225,60.5527976 48.2483978,60.8209257 48.0156793,61.0468987 C47.7829609,61.2728717 47.5080874,61.4482511 47.1910506,61.5730422 C46.8740139,61.6978333 46.5333731,61.7602278 46.1691181,61.7602278 C45.8048632,61.7602278 45.4642224,61.6978333 45.1471857,61.5730422 C44.8301489,61.4482511 44.5569618,61.2728717 44.327616,61.0468987 C44.0982703,60.8209257 43.9178319,60.5527976 43.7862954,60.2425063 C43.6547588,59.932215 43.5889916,59.5915743 43.5889916,59.2205738 C43.5889916,58.8495734 43.6547588,58.510619 43.7862954,58.2037004 C43.9178319,57.8967819 44.0982703,57.6320264 44.327616,57.4094262 C44.5569618,57.1868259 44.8301489,57.0131328 45.1471857,56.8883418 C45.4642224,56.7635507 45.8048632,56.7011561 46.1691181,56.7011561 C46.5333731,56.7011561 46.8740139,56.7635507 47.1910506,56.8883418 C47.5080874,57.0131328 47.7829609,57.1868259 48.0156793,57.4094262 C48.2483978,57.6320264 48.4305225,57.8967819 48.5620591,58.2037004 C48.6935956,58.510619 48.7593629,58.8495734 48.7593629,59.2205738 Z M47.7677848,59.2205738 C47.7677848,58.9912281 47.7323717,58.7720039 47.6615443,58.5628945 C47.5907169,58.3537852 47.4878502,58.1699741 47.3529409,58.0114557 C47.2180317,57.8529373 47.051084,57.7264618 46.8520928,57.6320253 C46.6531017,57.5375888 46.4254457,57.4903713 46.1691181,57.4903713 C45.9127906,57.4903713 45.6851346,57.5375888 45.4861435,57.6320253 C45.2871523,57.7264618 45.1202046,57.8529373 44.9852954,58.0114557 C44.8503861,58.1699741 44.7475193,58.3537852 44.676692,58.5628945 C44.6058646,58.7720039 44.5704515,58.9912281 44.5704515,59.2205738 C44.5704515,59.4499196 44.6058646,59.6691438 44.676692,59.8782532 C44.7475193,60.0873625 44.8503861,60.27286 44.9852954,60.4347511 C45.1202046,60.5966422 45.2871523,60.724804 45.4861435,60.8192405 C45.6851346,60.913677 45.9127906,60.9608945 46.1691181,60.9608945 C46.4254457,60.9608945 46.6531017,60.913677 46.8520928,60.8192405 C47.051084,60.724804 47.2180317,60.5966422 47.3529409,60.4347511 C47.4878502,60.27286 47.5907169,60.0873625 47.6615443,59.8782532 C47.7323717,59.6691438 47.7677848,59.4499196 47.7677848,59.2205738 Z" id="add-photo" fill="#33373D"></path>
            </g>
        </g>
    </g>
</svg>