<?xml version="1.0" encoding="UTF-8" standalone="no"?>
<svg width="541px" height="159px" viewBox="0 0 541 159" version="1.1" xmlns="http://www.w3.org/2000/svg" xmlns:xlink="http://www.w3.org/1999/xlink">
    <!-- Generator: Sketch 49.3 (51167) - http://www.bohemiancoding.com/sketch -->
    <title>Group 16 Copy</title>
    <desc>Created with Sketch.</desc>
    <defs></defs>
    <g id="Final" stroke="none" stroke-width="1" fill="none" fill-rule="evenodd">
        <g id="Group-16-Copy">
            <polygon id="Triangle" fill="#649AD0" points="380 113 390 123 370 123"></polygon>
            <text id="VERY-GOOD" font-family="AvenirNext-Bold, Avenir Next" font-size="31" font-weight="bold" letter-spacing="1.37777781" fill="#5A8CBE">
                <tspan x="280" y="158">VERY GOOD</tspan>
            </text>
            <g id="Group-9">
                <g id="Group" transform="translate(0.000000, 10.106952)" fill="#AAADBD">
                    <path d="M40.4278075,8.52492407 C22.8364146,8.52492407 8.52333948,22.835386 8.52333948,40.4270907 C8.52333948,58.017362 22.8364146,72.3306909 40.4278075,72.3306909 C58.0192004,72.3306909 72.330842,58.017362 72.330842,40.4270907 C72.330842,22.835386 58.0192004,8.52492407 40.4278075,8.52492407 M40.4278075,80.855615 C18.1346734,80.855615 0,62.7191866 0,40.4270907 C0,18.1364283 18.1346734,0 40.4278075,0 C62.7209416,0 80.855615,18.1364283 80.855615,40.4270907 C80.855615,62.7191866 62.7209416,80.855615 40.4278075,80.855615" id="Fill-66"></path>
                    <polygon id="1" points="38.5479144 54.8663102 38.5479144 32.5905882 33.5348663 33.8034225 32.0390374 27.6988235 40.6097326 25.2327273 46.2291979 25.2327273 46.2291979 54.8663102"></polygon>
                </g>
                <g id="Group-2" transform="translate(109.732620, 10.106952)" fill="#AAADBD">
                    <path d="M40.4270907,8.52492407 C22.8368195,8.52492407 8.52349059,22.835386 8.52349059,40.4270907 C8.52349059,58.017362 22.8368195,72.3306909 40.4270907,72.3306909 C58.017362,72.3306909 72.3306909,58.017362 72.3306909,40.4270907 C72.3306909,22.835386 58.017362,8.52492407 40.4270907,8.52492407 M40.4270907,80.855615 C18.1349949,80.855615 0,62.7191866 0,40.4270907 C0,18.1364283 18.1349949,0 40.4270907,0 C62.7191866,0 80.855615,18.1364283 80.855615,40.4270907 C80.855615,62.7191866 62.7191866,80.855615 40.4270907,80.855615" id="Fill-71"></path>
                    <path d="M28.8452406,54.8663102 L28.8452406,48.9234225 L39.5990374,40.5952941 C42.5098396,38.2909091 43.682246,36.8759358 43.682246,34.9354011 C43.682246,32.9544385 42.3077005,31.7820321 40.2458824,31.7820321 C38.1840642,31.7820321 36.6478075,32.9544385 34.3434225,35.6226738 L29.0473797,31.2160428 C32.1603209,27.173262 35.2328342,24.9497326 40.8118717,24.9497326 C47.1590374,24.9497326 51.5252406,28.7095187 51.5252406,34.2481283 L51.5252406,34.328984 C51.5252406,39.0994652 49.0591444,41.5251337 44.5312299,44.8806417 L39.5181818,48.4382888 L51.8082353,48.4382888 L51.8082353,54.8663102 L28.8452406,54.8663102 Z" id="2"></path>
                </g>
                <g id="Group-3" transform="translate(219.000000, 10.000000)" fill="#AAADBD">
                    <path d="M40.4270907,8.52492407 C22.8368195,8.52492407 8.52349059,22.835386 8.52349059,40.4270907 C8.52349059,58.017362 22.8368195,72.3306909 40.4270907,72.3306909 C58.017362,72.3306909 72.3306909,58.017362 72.3306909,40.4270907 C72.3306909,22.835386 58.017362,8.52492407 40.4270907,8.52492407 M40.4270907,80.855615 C18.1349949,80.855615 0,62.7191866 0,40.4270907 C0,18.1364283 18.1349949,0 40.4270907,0 C62.7191866,0 80.855615,18.1364283 80.855615,40.4270907 C80.855615,62.7191866 62.7191866,80.855615 40.4270907,80.855615" id="Fill-81"></path>
                    <path d="M40.6299465,55.4322995 C35.0104813,55.4322995 31.088984,53.3704813 28.2994652,50.2575401 L33.3125134,45.2849198 C35.3743316,47.4680214 37.597861,48.6808556 40.3469519,48.6808556 C42.6917647,48.6808556 44.1875936,47.4680214 44.1875936,45.6083422 L44.1875936,45.5274866 C44.1875936,43.5060963 42.4087701,42.3336898 39.1745455,42.3336898 L35.899893,42.3336898 L34.7679144,38.1291979 L41.6002139,31.8224599 L30.2804278,31.8224599 L30.2804278,25.4348663 L51.2624599,25.4348663 L51.2624599,31.0543316 L44.1471658,37.3206417 C48.3112299,38.2100535 51.7880214,40.4740107 51.7880214,45.6083422 L51.7880214,45.6891979 C51.7880214,51.5512299 47.1388235,55.4322995 40.6299465,55.4322995 Z" id="3"></path>
                </g>
                <g id="Group-4" transform="translate(460.000000, 10.000000)" fill="#AAADBD">
                    <path d="M40.4270907,8.52492407 C22.8368195,8.52492407 8.52349059,22.835386 8.52349059,40.4270907 C8.52349059,58.017362 22.8368195,72.3306909 40.4270907,72.3306909 C58.017362,72.3306909 72.3306909,58.017362 72.3306909,40.4270907 C72.3306909,22.835386 58.017362,8.52492407 40.4270907,8.52492407 M40.4270907,80.855615 C18.1349949,80.855615 0,62.7191866 0,40.4270907 C0,18.1364283 18.1349949,0 40.4270907,0 C62.7191866,0 80.855615,18.1364283 80.855615,40.4270907 C80.855615,62.7191866 62.7191866,80.855615 40.4270907,80.855615" id="Fill-76"></path>
                    <path d="M40.734124,54.9200001 C35.6130458,54.9200001 32.0242588,53.1457683 29,50.3231267 L33.5162264,45.0407548 C35.8549865,47.0569273 38.1130998,48.2263073 40.6131537,48.2263073 C43.3551483,48.2263073 45.0487332,46.85531 45.0487332,44.6375203 L45.0487332,44.5568734 C45.0487332,42.3794071 43.1938545,41.0487332 40.5325068,41.0487332 C38.7179515,41.0487332 37.1856604,41.6535849 35.8146631,42.460054 L31.1774663,39.7987062 L32.0242588,25 L51.3391914,25 L51.3391914,31.4920755 L38.2743936,31.4920755 L37.9921294,36.0889488 C39.3228033,35.5244205 40.6131537,35.121186 42.5486793,35.121186 C47.9116982,35.121186 52.6295418,38.0244744 52.6295418,44.4762265 L52.6295418,44.5568734 C52.6295418,51.0086254 47.7504044,54.9200001 40.734124,54.9200001 Z" id="5"></path>
                </g>
                <g id="Group-17" transform="translate(329.000000, 0.000000)">
                    <path d="M101.069519,50.537612 C101.069519,78.4436963 78.4451226,101.069519 50.537612,101.069519 C22.6286751,101.069519 0,78.4436963 0,50.537612 C0,22.6272487 22.6286751,0 50.537612,0 C78.4451226,0 101.069519,22.6272487 101.069519,50.537612" id="Fill-84" fill="#5A8CBE"></path>
                    <path d="M96.7379679,50.5373675 C96.7379679,76.0515017 76.0528058,96.7379679 50.5373675,96.7379679 C25.0206251,96.7379679 4.3315508,76.0515017 4.3315508,50.5373675 C4.3315508,25.0193211 25.0206251,4.3315508 50.5373675,4.3315508 C76.0528058,4.3315508 96.7379679,25.0193211 96.7379679,50.5373675" id="Fill-84" fill="#649AD0"></path>
                    <path d="M90.855615,50.4300896 C90.855615,72.7549571 72.7560981,90.855615 50.4300896,90.855615 C28.10294,90.855615 10,72.7549571 10,50.4300896 C10,28.101799 28.10294,10 50.4300896,10 C72.7560981,10 90.855615,28.101799 90.855615,50.4300896" id="Fill-84" fill="#5A8CBE"></path>
                    <path d="M51.7947482,79.6300011 L51.7947482,68.031979 L23.4795771,68.031979 L21,57.1538342 L51.5547891,21 L66.6722109,21 L66.6722109,56.3539706 L74.1109423,56.3539706 L74.1109423,68.031979 L66.6722109,68.031979 L66.6722109,79.6300011 L51.7947482,79.6300011 Z M37.5571763,56.433957 L51.7947482,56.433957 L51.7947482,39.3968625 L37.5571763,56.433957 Z" id="4" fill="#FFFFFF"></path>
                </g>
            </g>
        </g>
    </g>
</svg>