<?xml version="1.0" encoding="UTF-8" standalone="no"?>
<svg width="510px" height="114px" viewBox="0 0 510 114" version="1.1" xmlns="http://www.w3.org/2000/svg" xmlns:xlink="http://www.w3.org/1999/xlink">
    <!-- Generator: Sketch 49.3 (51167) - http://www.bohemiancoding.com/sketch -->
    <title>Group 16 Copy</title>
    <desc>Created with Sketch.</desc>
    <defs>
        <rect id="path-1" x="0" y="0" width="480" height="84" rx="8"></rect>
        <filter x="-4.7%" y="-26.8%" width="109.4%" height="153.6%" filterUnits="objectBoundingBox" id="filter-2">
            <feOffset dx="0" dy="0" in="SourceAlpha" result="shadowOffsetOuter1"></feOffset>
            <feGaussianBlur stdDeviation="7.5" in="shadowOffsetOuter1" result="shadowBlurOuter1"></feGaussianBlur>
            <feColorMatrix values="0 0 0 0 0   0 0 0 0 0   0 0 0 0 0  0 0 0 0.2 0" type="matrix" in="shadowBlurOuter1"></feColorMatrix>
        </filter>
    </defs>
    <g id="Final" stroke="none" stroke-width="1" fill="none" fill-rule="evenodd">
        <g id="Group-16-Copy" transform="translate(15.000000, 15.000000)">
            <g id="Rectangle">
                <use fill="black" fill-opacity="1" filter="url(#filter-2)" xlink:href="#path-1"></use>
                <use fill="#FFFFFF" fill-rule="evenodd" xlink:href="#path-1"></use>
            </g>
            <path d="M368,36.2679901 L369.875931,36.2679901 L369.875931,40.8238213 L369.920596,40.8238213 L374.327543,36.2679901 L376.858561,36.2679901 L371.930521,41.1364764 L377.186104,46.808933 L374.550868,46.808933 L369.920596,41.5235732 L369.875931,41.5235732 L369.875931,46.808933 L368,46.808933 L368,36.2679901 Z M378.258065,36.2679901 L380.744417,36.2679901 L385.64268,44.1588089 L385.672457,44.1588089 L385.672457,36.2679901 L387.548387,36.2679901 L387.548387,46.808933 L385.166253,46.808933 L380.163772,38.6650124 L380.133995,38.6650124 L380.133995,46.808933 L378.258065,46.808933 L378.258065,36.2679901 Z M389.364764,41.5086849 C389.364764,40.6650082 389.506202,39.9032292 389.789082,39.2233251 C390.071962,38.5434209 390.464017,37.9652629 390.965261,37.4888337 C391.466504,37.0124046 392.062031,36.6451626 392.751861,36.3870968 C393.441691,36.129031 394.193544,36 395.007444,36 C395.83127,36 396.590567,36.129031 397.28536,36.3870968 C397.980152,36.6451626 398.580643,37.0124046 399.086849,37.4888337 C399.593055,37.9652629 399.987592,38.5434209 400.270471,39.2233251 C400.553351,39.9032292 400.694789,40.6650082 400.694789,41.5086849 C400.694789,42.3325103 400.553351,43.0843638 400.270471,43.764268 C399.987592,44.4441721 399.593055,45.0297742 399.086849,45.5210918 C398.580643,46.0124094 397.980152,46.3945396 397.28536,46.6674938 C396.590567,46.940448 395.83127,47.0769231 395.007444,47.0769231 C394.193544,47.0769231 393.441691,46.940448 392.751861,46.6674938 C392.062031,46.3945396 391.466504,46.0124094 390.965261,45.5210918 C390.464017,45.0297742 390.071962,44.4441721 389.789082,43.764268 C389.506202,43.0843638 389.364764,42.3325103 389.364764,41.5086849 Z M391.404467,41.5086849 C391.404467,42.0744445 391.491314,42.5930498 391.665012,43.0645161 C391.838711,43.5359825 392.086847,43.9454077 392.409429,44.292804 C392.732012,44.6402002 393.114142,44.910669 393.555831,45.1042184 C393.997521,45.2977677 394.48635,45.3945409 395.022333,45.3945409 C395.558315,45.3945409 396.049626,45.2977677 396.496278,45.1042184 C396.94293,44.910669 397.327542,44.6402002 397.650124,44.292804 C397.972706,43.9454077 398.220843,43.5359825 398.394541,43.0645161 C398.568239,42.5930498 398.655087,42.0744445 398.655087,41.5086849 C398.655087,40.9627764 398.568239,40.456578 398.394541,39.9900744 C398.220843,39.5235709 397.975188,39.116627 397.657568,38.7692308 C397.339949,38.4218345 396.957819,38.1488844 396.511166,37.9503722 C396.064514,37.75186 395.568241,37.6526055 395.022333,37.6526055 C394.476424,37.6526055 393.982632,37.75186 393.540943,37.9503722 C393.099253,38.1488844 392.719605,38.4218345 392.401985,38.7692308 C392.084366,39.116627 391.838711,39.5235709 391.665012,39.9900744 C391.491314,40.456578 391.404467,40.9627764 391.404467,41.5086849 Z M401.439206,36.2679901 L403.493797,36.2679901 L405.533499,44.0099256 L405.563275,44.0099256 L407.885856,36.2679901 L409.82134,36.2679901 L412.099256,44.0099256 L412.129032,44.0099256 L414.2134,36.2679901 L416.208437,36.2679901 L413.126551,46.808933 L411.310174,46.808933 L408.83871,38.9032258 L408.808933,38.9032258 L406.337469,46.808933 L404.521092,46.808933 L401.439206,36.2679901 Z M421.002481,36.2679901 L423.935484,36.2679901 L426.674938,43.7568238 L426.719603,43.7568238 L429.42928,36.2679901 L432.377171,36.2679901 L432.377171,46.808933 L430.516129,46.808933 L430.516129,38.337469 L430.486352,38.337469 L427.28536,46.808933 L425.975186,46.808933 L422.818859,38.337469 L422.789082,38.337469 L422.789082,46.808933 L421.002481,46.808933 L421.002481,36.2679901 Z M434.193548,41.5086849 C434.193548,40.6650082 434.334986,39.9032292 434.617866,39.2233251 C434.900746,38.5434209 435.292801,37.9652629 435.794045,37.4888337 C436.295288,37.0124046 436.890815,36.6451626 437.580645,36.3870968 C438.270475,36.129031 439.022328,36 439.836228,36 C440.660054,36 441.419351,36.129031 442.114144,36.3870968 C442.808936,36.6451626 443.409427,37.0124046 443.915633,37.4888337 C444.421839,37.9652629 444.816376,38.5434209 445.099256,39.2233251 C445.382135,39.9032292 445.523573,40.6650082 445.523573,41.5086849 C445.523573,42.3325103 445.382135,43.0843638 445.099256,43.764268 C444.816376,44.4441721 444.421839,45.0297742 443.915633,45.5210918 C443.409427,46.0124094 442.808936,46.3945396 442.114144,46.6674938 C441.419351,46.940448 440.660054,47.0769231 439.836228,47.0769231 C439.022328,47.0769231 438.270475,46.940448 437.580645,46.6674938 C436.890815,46.3945396 436.295288,46.0124094 435.794045,45.5210918 C435.292801,45.0297742 434.900746,44.4441721 434.617866,43.764268 C434.334986,43.0843638 434.193548,42.3325103 434.193548,41.5086849 Z M436.233251,41.5086849 C436.233251,42.0744445 436.320098,42.5930498 436.493797,43.0645161 C436.667495,43.5359825 436.915631,43.9454077 437.238213,44.292804 C437.560796,44.6402002 437.942926,44.910669 438.384615,45.1042184 C438.826305,45.2977677 439.315134,45.3945409 439.851117,45.3945409 C440.387099,45.3945409 440.87841,45.2977677 441.325062,45.1042184 C441.771714,44.910669 442.156326,44.6402002 442.478908,44.292804 C442.80149,43.9454077 443.049627,43.5359825 443.223325,43.0645161 C443.397023,42.5930498 443.483871,42.0744445 443.483871,41.5086849 C443.483871,40.9627764 443.397023,40.456578 443.223325,39.9900744 C443.049627,39.5235709 442.803972,39.116627 442.486352,38.7692308 C442.168733,38.4218345 441.786603,38.1488844 441.33995,37.9503722 C440.893298,37.75186 440.397025,37.6526055 439.851117,37.6526055 C439.305208,37.6526055 438.811417,37.75186 438.369727,37.9503722 C437.928037,38.1488844 437.548389,38.4218345 437.230769,38.7692308 C436.91315,39.116627 436.667495,39.5235709 436.493797,39.9900744 C436.320098,40.456578 436.233251,40.9627764 436.233251,41.5086849 Z M447.33995,36.2679901 L451.002481,36.2679901 C451.498762,36.2679901 451.980147,36.3200987 452.44665,36.4243176 C452.913154,36.5285365 453.327542,36.6997507 453.689826,36.9379653 C454.052111,37.1761799 454.342431,37.4888318 454.560794,37.8759305 C454.779157,38.2630292 454.888337,38.7344885 454.888337,39.2903226 C454.888337,40.0545944 454.672459,40.6774169 454.240695,41.1588089 C453.808931,41.6402009 453.220847,41.9652597 452.476427,42.133995 L455.290323,46.808933 L453.027295,46.808933 L450.585608,42.3424318 L449.215881,42.3424318 L449.215881,46.808933 L447.33995,46.808933 L447.33995,36.2679901 Z M450.74938,40.808933 C451.017371,40.808933 451.285358,40.7890821 451.55335,40.7493797 C451.821341,40.7096772 452.062034,40.6352363 452.275434,40.5260546 C452.488835,40.4168729 452.665012,40.2605469 452.80397,40.057072 C452.942929,39.853597 453.012407,39.5930537 453.012407,39.2754342 C453.012407,38.9875916 452.947891,38.751862 452.818859,38.5682382 C452.689826,38.3846145 452.526056,38.2382139 452.327543,38.1290323 C452.129031,38.0198506 451.903227,37.9454096 451.650124,37.9057072 C451.397021,37.8660048 451.151366,37.8461538 450.913151,37.8461538 L449.215881,37.8461538 L449.215881,40.808933 L450.74938,40.808933 Z M456.704715,36.2679901 L463.687345,36.2679901 L463.687345,37.9057072 L458.580645,37.9057072 L458.580645,40.5856079 L463.419355,40.5856079 L463.419355,42.1637717 L458.580645,42.1637717 L458.580645,45.1414392 L463.955335,45.1414392 L463.955335,46.808933 L456.704715,46.808933 L456.704715,36.2679901 Z" id="Know-More" fill="#01B460"></path>
            <path d="M77.5686957,19.8747826 L84.7217391,19.8747826 L84.7217391,21.5965217 L79.5408696,21.5965217 L79.5408696,24.6330435 L84.4243478,24.6330435 L84.4243478,26.2921739 L79.5408696,26.2921739 L79.5408696,30.9565217 L77.5686957,30.9565217 L77.5686957,19.8747826 Z M86.0052174,25.3843478 C86.0052174,24.4973869 86.1539116,23.6965253 86.4513043,22.9817391 C86.7486971,22.2669529 87.1608669,21.6591329 87.6878261,21.1582609 C88.2147852,20.6573888 88.8408659,20.2713057 89.566087,20 C90.291308,19.7286943 91.0817349,19.5930435 91.9373913,19.5930435 C92.8034826,19.5930435 93.6017355,19.7286943 94.3321739,20 C95.0626123,20.2713057 95.6939104,20.6573888 96.226087,21.1582609 C96.7582635,21.6591329 97.173042,22.2669529 97.4704348,22.9817391 C97.7678276,23.6965253 97.9165217,24.4973869 97.9165217,25.3843478 C97.9165217,26.2504391 97.7678276,27.040866 97.4704348,27.7556522 C97.173042,28.4704384 96.7582635,29.0860844 96.226087,29.6026087 C95.6939104,30.119133 95.0626123,30.5208681 94.3321739,30.8078261 C93.6017355,31.094784 92.8034826,31.2382609 91.9373913,31.2382609 C91.0817349,31.2382609 90.291308,31.094784 89.566087,30.8078261 C88.8408659,30.5208681 88.2147852,30.119133 87.6878261,29.6026087 C87.1608669,29.0860844 86.7486971,28.4704384 86.4513043,27.7556522 C86.1539116,27.040866 86.0052174,26.2504391 86.0052174,25.3843478 Z M88.1495652,25.3843478 C88.1495652,25.9791334 88.2408687,26.5243453 88.4234783,27.02 C88.6060879,27.5156547 88.8669548,27.9460851 89.206087,28.3113043 C89.5452191,28.6765236 89.9469542,28.9608685 90.4113043,29.1643478 C90.8756545,29.3678271 91.3895624,29.4695652 91.9530435,29.4695652 C92.5165246,29.4695652 93.0330411,29.3678271 93.5026087,29.1643478 C93.9721763,28.9608685 94.37652,28.6765236 94.7156522,28.3113043 C95.0547843,27.9460851 95.3156513,27.5156547 95.4982609,27.02 C95.6808705,26.5243453 95.7721739,25.9791334 95.7721739,25.3843478 C95.7721739,24.8104319 95.6808705,24.2782633 95.4982609,23.7878261 C95.3156513,23.2973889 95.057393,22.869567 94.7234783,22.5043478 C94.3895635,22.1391286 93.9878284,21.852175 93.5182609,21.6434783 C93.0486933,21.4347816 92.5269594,21.3304348 91.9530435,21.3304348 C91.3791276,21.3304348 90.8600023,21.4347816 90.3956522,21.6434783 C89.931302,21.852175 89.5321756,22.1391286 89.1982609,22.5043478 C88.8643462,22.869567 88.6060879,23.2973889 88.4234783,23.7878261 C88.2408687,24.2782633 88.1495652,24.8104319 88.1495652,25.3843478 Z M99.293913,25.3843478 C99.293913,24.4973869 99.4426072,23.6965253 99.74,22.9817391 C100.037393,22.2669529 100.449563,21.6591329 100.976522,21.1582609 C101.503481,20.6573888 102.129562,20.2713057 102.854783,20 C103.580004,19.7286943 104.370431,19.5930435 105.226087,19.5930435 C106.092178,19.5930435 106.890431,19.7286943 107.62087,20 C108.351308,20.2713057 108.982606,20.6573888 109.514783,21.1582609 C110.046959,21.6591329 110.461738,22.2669529 110.75913,22.9817391 C111.056523,23.6965253 111.205217,24.4973869 111.205217,25.3843478 C111.205217,26.2504391 111.056523,27.040866 110.75913,27.7556522 C110.461738,28.4704384 110.046959,29.0860844 109.514783,29.6026087 C108.982606,30.119133 108.351308,30.5208681 107.62087,30.8078261 C106.890431,31.094784 106.092178,31.2382609 105.226087,31.2382609 C104.370431,31.2382609 103.580004,31.094784 102.854783,30.8078261 C102.129562,30.5208681 101.503481,30.119133 100.976522,29.6026087 C100.449563,29.0860844 100.037393,28.4704384 99.74,27.7556522 C99.4426072,27.040866 99.293913,26.2504391 99.293913,25.3843478 Z M101.438261,25.3843478 C101.438261,25.9791334 101.529564,26.5243453 101.712174,27.02 C101.894784,27.5156547 102.15565,27.9460851 102.494783,28.3113043 C102.833915,28.6765236 103.23565,28.9608685 103.7,29.1643478 C104.16435,29.3678271 104.678258,29.4695652 105.241739,29.4695652 C105.80522,29.4695652 106.321737,29.3678271 106.791304,29.1643478 C107.260872,28.9608685 107.665216,28.6765236 108.004348,28.3113043 C108.34348,27.9460851 108.604347,27.5156547 108.786957,27.02 C108.969566,26.5243453 109.06087,25.9791334 109.06087,25.3843478 C109.06087,24.8104319 108.969566,24.2782633 108.786957,23.7878261 C108.604347,23.2973889 108.346089,22.869567 108.012174,22.5043478 C107.678259,22.1391286 107.276524,21.852175 106.806957,21.6434783 C106.337389,21.4347816 105.815655,21.3304348 105.241739,21.3304348 C104.667823,21.3304348 104.148698,21.4347816 103.684348,21.6434783 C103.219998,21.852175 102.820871,22.1391286 102.486957,22.5043478 C102.153042,22.869567 101.894784,23.2973889 101.712174,23.7878261 C101.529564,24.2782633 101.438261,24.8104319 101.438261,25.3843478 Z M113.114783,19.8747826 L117.043478,19.8747826 C117.763482,19.8747826 118.488692,19.9686947 119.21913,20.1565217 C119.949569,20.3443488 120.606954,20.6547804 121.191304,21.0878261 C121.775655,21.5208717 122.250433,22.0895617 122.615652,22.793913 C122.980871,23.4982644 123.163478,24.3721687 123.163478,25.4156522 C123.163478,26.3860918 122.980871,27.2208661 122.615652,27.92 C122.250433,28.6191339 121.775655,29.1930412 121.191304,29.6417391 C120.606954,30.090437 119.949569,30.4217381 119.21913,30.6356522 C118.488692,30.8495663 117.763482,30.9565217 117.043478,30.9565217 L113.114783,30.9565217 L113.114783,19.8747826 Z M116.730435,29.2347826 C117.241742,29.2347826 117.753041,29.1747832 118.264348,29.0547826 C118.775655,28.934782 119.237389,28.7313058 119.649565,28.4443478 C120.061741,28.1573899 120.39826,27.7686981 120.65913,27.2782609 C120.920001,26.7878236 121.050435,26.1669603 121.050435,25.4156522 C121.050435,24.6226047 120.920001,23.9756547 120.65913,23.4747826 C120.39826,22.9739105 120.061741,22.5826101 119.649565,22.3008696 C119.237389,22.019129 118.775655,21.8260875 118.264348,21.7217391 C117.753041,21.6173908 117.241742,21.5652174 116.730435,21.5652174 L115.086957,21.5652174 L115.086957,29.2347826 L116.730435,29.2347826 Z M128.986087,19.8747826 L130.958261,19.8747826 L130.958261,24.3513043 L136.13913,24.3513043 L136.13913,19.8747826 L138.111304,19.8747826 L138.111304,30.9565217 L136.13913,30.9565217 L136.13913,26.0417391 L130.958261,26.0417391 L130.958261,30.9565217 L128.986087,30.9565217 L128.986087,19.8747826 Z M143.229565,26.1513043 L139.066087,19.8747826 L141.476522,19.8747826 L144.262609,24.5391304 L147.08,19.8747826 L149.365217,19.8747826 L145.201739,26.1513043 L145.201739,30.9565217 L143.229565,30.9565217 L143.229565,26.1513043 Z M159.554783,30.3773913 C158.991302,30.648697 158.373047,30.8599992 157.7,31.0113043 C157.026953,31.1626095 156.252178,31.2382609 155.375652,31.2382609 C154.478256,31.2382609 153.659134,31.094784 152.918261,30.8078261 C152.177388,30.5208681 151.540872,30.119133 151.008696,29.6026087 C150.476519,29.0860844 150.061741,28.4704384 149.764348,27.7556522 C149.466955,27.040866 149.318261,26.2504391 149.318261,25.3843478 C149.318261,24.4973869 149.472172,23.6965253 149.78,22.9817391 C150.087828,22.2669529 150.510432,21.6591329 151.047826,21.1582609 C151.58522,20.6573888 152.219127,20.2713057 152.949565,20 C153.680004,19.7286943 154.473039,19.5930435 155.328696,19.5930435 C156.215657,19.5930435 157.026953,19.7208683 157.762609,19.9765217 C158.498265,20.2321752 159.090433,20.5686936 159.53913,20.986087 L158.177391,22.4573913 C157.895651,22.1443463 157.501742,21.878262 156.995652,21.6591304 C156.489563,21.4399989 155.939133,21.3304348 155.344348,21.3304348 C154.759997,21.3304348 154.230437,21.4347816 153.755652,21.6434783 C153.280867,21.852175 152.876523,22.1391286 152.542609,22.5043478 C152.208694,22.869567 151.950436,23.2973889 151.767826,23.7878261 C151.585216,24.2782633 151.493913,24.8104319 151.493913,25.3843478 C151.493913,25.9791334 151.585216,26.5243453 151.767826,27.02 C151.950436,27.5156547 152.211303,27.9460851 152.550435,28.3113043 C152.889567,28.6765236 153.301737,28.9608685 153.786957,29.1643478 C154.272176,29.3678271 154.822606,29.4695652 155.438261,29.4695652 C156.283482,29.4695652 157.019127,29.3391317 157.645217,29.0782609 L157.645217,26.2608696 L155.313043,26.2608696 L155.313043,24.6330435 L159.554783,24.6330435 L159.554783,30.3773913 Z M161.949565,19.8747826 L163.921739,19.8747826 L163.921739,30.9565217 L161.949565,30.9565217 L161.949565,19.8747826 Z M166.363478,19.8747826 L173.704348,19.8747826 L173.704348,21.5965217 L168.335652,21.5965217 L168.335652,24.413913 L173.422609,24.413913 L173.422609,26.0730435 L168.335652,26.0730435 L168.335652,29.2034783 L173.986087,29.2034783 L173.986087,30.9565217 L166.363478,30.9565217 L166.363478,19.8747826 Z M175.911304,19.8747826 L178.525217,19.8747826 L183.674783,28.1704348 L183.706087,28.1704348 L183.706087,19.8747826 L185.678261,19.8747826 L185.678261,30.9565217 L183.173913,30.9565217 L177.914783,22.3947826 L177.883478,22.3947826 L177.883478,30.9565217 L175.911304,30.9565217 L175.911304,19.8747826 Z M188.12,19.8747826 L195.46087,19.8747826 L195.46087,21.5965217 L190.092174,21.5965217 L190.092174,24.413913 L195.17913,24.413913 L195.17913,26.0730435 L190.092174,26.0730435 L190.092174,29.2034783 L195.742609,29.2034783 L195.742609,30.9565217 L188.12,30.9565217 L188.12,19.8747826 Z M201.58087,19.8747826 L205.431304,19.8747826 C205.953046,19.8747826 206.459128,19.9295647 206.949565,20.0391304 C207.440002,20.1486962 207.87565,20.3286944 208.256522,20.5791304 C208.637393,20.8295665 208.942608,21.1582588 209.172174,21.5652174 C209.40174,21.9721759 209.516522,22.4678232 209.516522,23.0521739 C209.516522,23.8556562 209.289567,24.5104323 208.835652,25.0165217 C208.381737,25.5226112 207.763482,25.8643469 206.98087,26.0417391 L209.93913,30.9565217 L207.56,30.9565217 L204.993043,26.2608696 L203.553043,26.2608696 L203.553043,30.9565217 L201.58087,30.9565217 L201.58087,19.8747826 Z M205.165217,24.6486957 C205.446958,24.6486957 205.728694,24.6278263 206.010435,24.586087 C206.292175,24.5443476 206.545216,24.4660875 206.769565,24.3513043 C206.993914,24.2365212 207.17913,24.072175 207.325217,23.8582609 C207.471305,23.6443468 207.544348,23.3704365 207.544348,23.0365217 C207.544348,22.7339115 207.476522,22.4860879 207.34087,22.2930435 C207.205217,22.099999 207.033045,21.9460875 206.824348,21.8313043 C206.615651,21.7165212 206.378262,21.6382611 206.112174,21.5965217 C205.846086,21.5547824 205.587827,21.533913 205.337391,21.533913 L203.553043,21.533913 L203.553043,24.6486957 L205.165217,24.6486957 Z M214.90087,19.8747826 L216.606957,19.8747826 L221.38087,30.9565217 L219.126957,30.9565217 L218.093913,28.4208696 L213.288696,28.4208696 L212.286957,30.9565217 L210.08,30.9565217 L214.90087,19.8747826 Z M217.405217,26.7304348 L215.69913,22.2226087 L213.961739,26.7304348 L217.405217,26.7304348 Z M223.775652,21.5965217 L220.37913,21.5965217 L220.37913,19.8747826 L229.144348,19.8747826 L229.144348,21.5965217 L225.747826,21.5965217 L225.747826,30.9565217 L223.775652,30.9565217 L223.775652,21.5965217 Z M230.427826,19.8747826 L232.4,19.8747826 L232.4,30.9565217 L230.427826,30.9565217 L230.427826,19.8747826 Z M234.841739,19.8747826 L237.455652,19.8747826 L242.605217,28.1704348 L242.636522,28.1704348 L242.636522,19.8747826 L244.608696,19.8747826 L244.608696,30.9565217 L242.104348,30.9565217 L236.845217,22.3947826 L236.813913,22.3947826 L236.813913,30.9565217 L234.841739,30.9565217 L234.841739,19.8747826 Z M256.754783,30.3773913 C256.191302,30.648697 255.573047,30.8599992 254.9,31.0113043 C254.226953,31.1626095 253.452178,31.2382609 252.575652,31.2382609 C251.678256,31.2382609 250.859134,31.094784 250.118261,30.8078261 C249.377388,30.5208681 248.740872,30.119133 248.208696,29.6026087 C247.676519,29.0860844 247.261741,28.4704384 246.964348,27.7556522 C246.666955,27.040866 246.518261,26.2504391 246.518261,25.3843478 C246.518261,24.4973869 246.672172,23.6965253 246.98,22.9817391 C247.287828,22.2669529 247.710432,21.6591329 248.247826,21.1582609 C248.78522,20.6573888 249.419127,20.2713057 250.149565,20 C250.880004,19.7286943 251.673039,19.5930435 252.528696,19.5930435 C253.415657,19.5930435 254.226953,19.7208683 254.962609,19.9765217 C255.698265,20.2321752 256.290433,20.5686936 256.73913,20.986087 L255.377391,22.4573913 C255.095651,22.1443463 254.701742,21.878262 254.195652,21.6591304 C253.689563,21.4399989 253.139133,21.3304348 252.544348,21.3304348 C251.959997,21.3304348 251.430437,21.4347816 250.955652,21.6434783 C250.480867,21.852175 250.076523,22.1391286 249.742609,22.5043478 C249.408694,22.869567 249.150436,23.2973889 248.967826,23.7878261 C248.785216,24.2782633 248.693913,24.8104319 248.693913,25.3843478 C248.693913,25.9791334 248.785216,26.5243453 248.967826,27.02 C249.150436,27.5156547 249.411303,27.9460851 249.750435,28.3113043 C250.089567,28.6765236 250.501737,28.9608685 250.986957,29.1643478 C251.472176,29.3678271 252.022606,29.4695652 252.638261,29.4695652 C253.483482,29.4695652 254.219127,29.3391317 254.845217,29.0782609 L254.845217,26.2608696 L252.513043,26.2608696 L252.513043,24.6330435 L256.754783,24.6330435 L256.754783,30.3773913 Z" id="Food-Hygiene-Rating" fill="#888888"></path>
            <g id="Group-9" transform="translate(17.000000, 17.000000)">
                <circle id="Oval-4-Copy" fill="#3C78B4" cx="25" cy="25" r="25"></circle>
                <circle id="Oval-4-Copy-2" fill="#4687C8" cx="25" cy="25" r="20"></circle>
                <circle id="Oval-4-Copy-3" fill="#3C78B4" cx="25" cy="25" r="15"></circle>
                <path d="M30.2114783,19.3666087 L23.8786087,19.3666087 L23.7252174,22.7193043 C23.9735665,22.6462605 24.2693896,22.5951306 24.6126957,22.565913 C24.9560017,22.5366955 25.2664334,22.522087 25.544,22.522087 C26.303656,22.522087 27.0085185,22.6316511 27.6586087,22.8507826 C28.3086989,23.0699141 28.8747802,23.3876501 29.3568696,23.804 C29.8389589,24.2203499 30.2151291,24.7316491 30.4853913,25.337913 C30.7556535,25.9441769 30.8907826,26.6417352 30.8907826,27.4306087 C30.8907826,28.292526 30.741045,29.063127 30.4415652,29.7424348 C30.1420855,30.4217425 29.7366982,30.9951281 29.2253913,31.4626087 C28.7140844,31.9300893 28.1151339,32.2879988 27.4285217,32.5363478 C26.7419096,32.7846969 26.0114821,32.9088696 25.2372174,32.9088696 C23.937037,32.9088696 22.8413958,32.6057422 21.9502609,31.9994783 C21.059126,31.3932144 20.4090455,30.5641792 20,29.5123478 L22.3885217,28.6358261 C22.6076533,29.2493944 22.972867,29.7424329 23.4841739,30.1149565 C23.9954808,30.4874801 24.6017356,30.6737391 25.3029565,30.6737391 C25.6973933,30.6737391 26.0699113,30.6080007 26.4205217,30.4765217 C26.7711322,30.3450428 27.0779117,30.1551317 27.3408696,29.9067826 C27.6038274,29.6584335 27.8119992,29.3480019 27.9653913,28.9754783 C28.1187834,28.6029547 28.1954783,28.1829589 28.1954783,27.7154783 C28.1954783,27.1165187 28.0932184,26.6198281 27.8886957,26.2253913 C27.6841729,25.8309545 27.4175669,25.5132186 27.0888696,25.2721739 C26.7601723,25.0311292 26.3913064,24.8631309 25.9822609,24.7681739 C25.5732153,24.6732169 25.1568717,24.6257391 24.7332174,24.6257391 C24.441042,24.6257391 24.1306103,24.647652 23.801913,24.6914783 C23.4732157,24.7353046 23.1518277,24.7973909 22.8377391,24.8777391 C22.5236506,24.9580874 22.2168711,25.0493908 21.9173913,25.1516522 C21.6179115,25.2539136 21.3513055,25.3634777 21.1175652,25.4803478 L21.3805217,17 L30.2114783,17 L30.2114783,19.3666087 Z" id="5-copy-3" fill="#FFFFFF"></path>
            </g>
            <text id="Excellent" font-family="AvenirNext-Bold, Avenir Next" font-size="22" font-weight="bold" fill="#3C78B4">
                <tspan x="76" y="61">Excellent</tspan>
            </text>
        </g>
    </g>
</svg>