<?xml version="1.0" encoding="UTF-8" standalone="no"?>
<svg width="277px" height="84px" viewBox="0 0 277 84" version="1.1" xmlns="http://www.w3.org/2000/svg" xmlns:xlink="http://www.w3.org/1999/xlink">
    <!-- Generator: Sketch 49.3 (51167) - http://www.bohemiancoding.com/sketch -->
    <title>Group 8 Copy</title>
    <desc>Created with Sketch.</desc>
    <defs></defs>
    <g id="Final" stroke="none" stroke-width="1" fill="none" fill-rule="evenodd">
        <g id="Group-8-Copy">
            <g id="Group-12" transform="translate(0.000000, 18.000000)" fill="#CB202D">
                <path d="M162.86331,31.776 L161.673923,39.136 C159.838179,40.1360946 156.400496,41.5696643 152.429587,41.5696643 C145.674139,41.5696643 144.309021,37.9551017 145.375472,30.2796407 L147.096576,17.9267329 L143.766745,17.9267329 L144.71026,9.93505437 L148.334987,9.75652009 L149.702368,3.95642553 L159.958098,0.087678487 L158.657088,9.75652009 L165.709694,9.75652009 C165.466085,10.7596407 164.638718,16.2420047 164.405667,17.9267329 L157.527284,17.9267329 L155.987943,29.3483877 C155.572374,32.2737778 155.806933,33.3351489 157.822179,33.3351489 C159.304954,33.3351489 161.498193,32.4644161 162.86331,31.776 Z M120.789624,40.9840567 C115.521476,41.6331348 112.052116,39.5391395 111.012062,34.7648605 C110.358917,31.7623073 111.265476,28.3406525 112.854594,26.3011253 C114.974675,23.6352151 118.437247,21.9224965 122.663833,21.4042931 C126.06456,20.982922 128.929799,21.1917163 131.60724,21.7015981 L131.716601,21.2401324 C131.792776,20.5033002 131.873476,19.7649551 131.764116,18.8866572 C131.487321,16.6239622 129.708897,15.2773901 125.319402,15.8182884 C122.359887,16.182922 119.5399,17.2601797 117.347415,18.4773901 L115.220547,12.028974 C118.185341,10.3162553 121.926217,9.01431678 126.209368,8.49233097 C134.38122,7.48164539 140.11924,10.1006525 140.85384,16.1087849 C141.04918,17.7065154 141.074069,19.401078 140.871941,20.9345059 C139.823591,28.3648605 139.149328,33.9576738 138.852924,37.7046241 C138.806917,38.28713 138.816722,39.2826856 138.868008,40.6965863 L128.720884,40.6882648 C128.941112,40.0989504 129.133436,39.3084066 129.303887,38.3120946 C129.418527,37.6584775 129.505261,36.8308652 129.556547,35.8262317 C127.406298,38.7780993 124.464884,40.52713 120.789624,40.9840567 M123.968614,35.2792813 C127.698176,34.8193286 130.265503,31.2070355 130.882446,27.6060898 L130.989543,26.6415508 C129.383079,26.2799433 127.068412,26.0083593 124.817853,26.2859953 C122.679671,26.5500142 120.893705,27.4411726 119.939631,28.7340331 C119.22087,29.6599905 118.852062,30.7682648 119.016479,32.0898723 C119.257072,34.0756879 121.442769,35.5902033 123.968614,35.2792813 M109.610893,19.2392624 C110.379432,13.9346761 109.966879,9.13240662 104.09989,9.13240662 C99.8257886,9.13240662 95.2032431,12.7499953 91.9435529,18.8035177 C92.6570343,13.8113664 92.2414653,9.13240662 86.42727,9.13240662 C82.0430545,9.13240662 77.3043609,12.9421466 74.0393912,19.2392624 C74.8727919,15.12087 74.6947987,10.4441797 74.4534519,9.44408511 C71.0768593,10.0061655 68.1173441,10.317844 63.9661791,10.4441797 C64.0838357,13.3105626 63.9050882,17.057513 63.3726168,20.6092861 L62.007499,29.9679622 C61.4772902,33.6483404 60.8807111,37.8923121 60.2848862,40.5763783 L71.3151892,40.5763783 C71.3747717,38.9514137 71.7880781,36.3944397 72.0859906,34.1491442 L73.0347852,27.7249362 C73.8063407,23.5437541 77.1225966,18.6166619 79.6725764,18.6166619 C81.1515798,18.6166619 81.0919973,20.0479622 80.6817077,22.7335414 L79.6129939,29.9679622 C79.082031,33.6483404 78.4877145,37.8923121 77.8949064,40.5763783 L89.0398492,40.5763783 C89.0964148,38.9514137 89.4531556,36.3944397 89.7488054,34.1491442 L90.7021253,27.7249362 C91.4684013,23.5437541 94.7914451,18.6166619 97.3361455,18.6166619 C98.8226909,18.6166619 98.7616,19.9836596 98.5210074,21.862052 L95.8631758,40.5763783 L106.036698,40.5763783 L109.610893,19.2392624 Z M195.700805,22.5761891 C195.700805,33.0733995 188.312576,41.7958582 178.522193,41.7958582 C169.754516,41.7958582 165.252644,35.7884823 165.252644,27.955669 C165.252644,17.5242742 172.700455,8.8018156 182.429748,8.8018156 C191.318853,8.8018156 195.700805,14.8061655 195.700805,22.5761891 Z M175.922435,27.7461182 C175.922435,31.5505626 177.168388,33.4834232 179.298273,33.4834232 C182.150691,33.4834232 184.398987,28.8710355 184.398987,23.2525012 C184.398987,19.3890496 183.15756,17.5159527 181.081223,17.5159527 C178.232576,17.5159527 175.922435,22.0700898 175.922435,27.7461182 Z M59.7576943,22.799357 C59.7576943,33.1482931 52.4652498,41.7580331 42.8030815,41.7580331 C34.144765,41.7580331 29.700967,35.8346288 29.700967,28.0986478 C29.700967,17.8056927 37.0522397,9.20049173 46.6540714,9.20049173 C55.424765,9.20049173 59.7576943,15.125409 59.7576943,22.799357 Z M40.3752835,27.7461182 C40.3752835,31.5505626 41.6159569,33.4834232 43.7548929,33.4834232 C46.5944889,33.4834232 48.8480646,28.8710355 48.8480646,23.2525012 C48.8480646,19.3890496 47.6036202,17.5159527 45.5280377,17.5159527 C42.6831623,17.5159527 40.3752835,22.0700898 40.3752835,27.7461182 Z M29.8812229,9.94337589 L29.700967,15.6216738 L14.9411017,31.7132104 C21.1052498,31.7132104 25.0188391,31.6542033 27.2701522,31.5248416 C26.6185158,34.5848889 26.0852902,37.0798298 25.5505562,40.8207281 C22.5857616,40.5763783 17.966233,40.5105626 13.3436875,40.5105626 C8.18263704,40.5105626 3.67925657,40.5763783 0.060562963,40.8207281 L0.178219529,35.0834232 L14.9411017,19.0539196 C8.48205791,19.0539196 6.11007138,19.1151962 3.43866397,19.1742033 C4.03750572,16.3063073 4.45307475,13.1259764 4.86638114,9.94337589 C9.54850909,10.1317447 11.3827448,10.1968038 17.4933441,10.1968038 C23.1235125,10.1968038 26.3213576,10.1317447 29.8812229,9.94337589 Z" id="Fill-61"></path>
            </g>
            <g id="Group-22" fill="#9296A7">
                <path d="M6.60146702,6.31475248 L5.28240342,3.12564356 L3.94945494,6.31475248 L6.60146702,6.31475248 Z M4.38980399,0.75039604 L6.22657526,0.75039604 L10.2750096,10.2137624 L8.19227756,10.2137624 L7.31356301,8.07118812 L3.23835073,8.07118812 L2.35963618,10.2137624 L0.32847659,10.2137624 L4.38980399,0.75039604 Z" id="Fill-99"></path>
                <polygon id="Fill-100" points="13.1691144 0.815049505 14.9929926 0.815049505 19.5323566 6.74079208 19.5323566 0.815049505 21.4980589 0.815049505 21.4980589 10.2140594 19.8041035 10.2140594 15.1219236 4.09425743 15.1219236 10.2140594 13.1691144 10.2140594"></polygon>
                <polygon id="Fill-101" points="30.7173217 10.2138614 32.7088102 10.2138614 32.7088102 0.814851485 30.7173217 0.814851485"></polygon>
                <polygon id="Fill-102" points="36.4972005 0.815049505 38.3210787 0.815049505 42.8604427 6.74079208 42.8604427 0.815049505 44.826145 0.815049505 44.826145 10.2140594 43.1311979 10.2140594 38.4500097 4.09425743 38.4500097 10.2140594 36.4972005 10.2140594"></polygon>
                <polygon id="Fill-103" points="48.6139403 10.2138614 50.6054288 10.2138614 50.6054288 0.814851485 48.6139403 0.814851485"></polygon>
                <polygon id="Fill-104" points="56.6058788 2.64732673 53.707906 2.64732673 53.707906 0.814653465 61.4814553 0.814653465 61.4814553 2.64732673 58.5973673 2.64732673 58.5973673 10.2146535 56.6058788 10.2146535"></polygon>
                <polygon id="Fill-105" points="64.5835358 10.2138614 66.5750243 10.2138614 66.5750243 0.814851485 64.5835358 0.814851485"></polygon>
                <path d="M75.821561,6.31475248 L74.5024974,3.12564356 L73.1705407,6.31475248 L75.821561,6.31475248 Z M73.6108897,0.75039604 L75.447661,0.75039604 L79.4960953,10.2137624 L77.4123715,10.2137624 L76.5346488,8.07118812 L72.4584447,8.07118812 L71.5797302,10.2137624 L69.5485706,10.2137624 L73.6108897,0.75039604 Z" id="Fill-106"></path>
                <polygon id="Fill-107" points="83.3993334 2.64732673 80.5013606 2.64732673 80.5013606 0.814653465 88.2759017 0.814653465 88.2759017 2.64732673 85.3908219 2.64732673 85.3908219 10.2146535 83.3993334 10.2146535"></polygon>
                <polygon id="Fill-108" points="91.3773871 10.2138614 93.3698674 10.2138614 93.3698674 0.814851485 91.3773871 0.814851485"></polygon>
                <polygon id="Fill-109" points="96.3428186 0.815049505 98.5425803 0.815049505 101.076571 7.55465347 103.612545 0.815049505 105.758751 0.815049505 101.930491 10.2794059 100.17207 10.2794059"></polygon>
                <polygon id="Fill-110" points="108.642244 0.815049505 115.71659 0.815049505 115.71659 2.58336634 110.606954 2.58336634 110.606954 4.59722772 115.108631 4.59722772 115.108631 6.36554455 110.606954 6.36554455 110.606954 8.44475248 115.781056 8.44475248 115.781056 10.2140594 108.642244 10.2140594"></polygon>
                <path d="M128.853571,6.30217822 L126.40884,6.30217822 L126.40884,8.47148515 L128.93093,8.47148515 C129.887994,8.47148515 130.471159,8.1229703 130.471159,7.39920792 L130.471159,7.37445545 C130.471159,6.70217822 129.965353,6.30217822 128.853571,6.30217822 Z M129.940559,3.56356436 C129.940559,2.93188119 129.435744,2.55762376 128.531243,2.55762376 L126.40884,2.55762376 L126.40884,4.64871287 L128.401321,4.64871287 C129.344501,4.64871287 129.940559,4.32594059 129.940559,3.59128713 L129.940559,3.56356436 Z M124.481817,0.815049505 L128.814892,0.815049505 C129.887994,0.815049505 130.741915,1.11207921 131.285408,1.64178218 C131.712864,2.07940594 131.919154,2.59623762 131.919154,3.24178218 L131.919154,3.26752475 C131.919154,4.33980198 131.336981,4.93287129 130.664556,5.30811881 C131.750552,5.70811881 132.448763,6.34079208 132.448763,7.60514851 L132.448763,7.63188119 C132.448763,9.34871287 131.052341,10.2140594 128.93093,10.2140594 L124.481817,10.2140594 L124.481817,0.815049505 Z" id="Fill-111"></path>
                <polygon id="Fill-112" points="137.853155 6.50811881 134.219284 0.815049505 136.547976 0.815049505 138.863776 4.66158416 141.229164 0.815049505 143.493392 0.815049505 139.845635 6.47049505 139.845635 10.2140594 137.853155 10.2140594"></polygon>
            </g>
            <path d="M3.50457799,81.5893048 C2.09045003,81.5893048 1.09133788,80.9903743 1.09133788,79.2085561 L1.09133788,74.8064171 L0,74.8064171 L0,73.2491979 L1.09133788,73.2491979 L1.09133788,70.973262 L2.93585262,70.973262 L2.93585262,73.2491979 L5.24149603,73.2491979 L5.24149603,74.8064171 L2.93585262,74.8064171 L2.93585262,78.9240642 C2.93585262,79.6727273 3.33549748,79.9871658 4.01181954,79.9871658 C4.44220631,79.9871658 4.82648022,79.8823529 5.21075412,79.7026738 L5.21075412,81.1850267 C4.73425448,81.4395722 4.21164197,81.5893048 3.50457799,81.5893048 Z M7.34731702,81.4545455 L7.34731702,70.0898396 L9.19183175,70.0898396 L9.19183175,74.5368984 C9.74518617,73.7582888 10.5444759,73.084492 11.8663781,73.084492 C13.7723767,73.084492 14.8944565,74.3272727 14.8944565,76.2438503 L14.8944565,81.4545455 L13.0345708,81.4545455 L13.0345708,76.7828877 C13.0345708,75.4802139 12.3582487,74.7315508 11.1746851,74.7315508 C10.0064924,74.7315508 9.19183175,75.5101604 9.19183175,76.8128342 L9.19183175,81.4545455 L7.34731702,81.4545455 Z M21.2119194,81.6342246 C18.7833084,81.6342246 16.9080517,79.9122995 16.9080517,77.3818182 L16.9080517,77.3518717 C16.9080517,75.0010695 18.6142278,73.084492 21.012097,73.084492 C23.6712724,73.084492 25.0239165,75.1208556 25.0239165,77.486631 C25.0239165,77.6513369 25.0239165,77.8160428 25.0085456,77.9957219 L18.7679374,77.9957219 C18.9677598,79.3882353 19.966872,80.1518717 21.2426613,80.1518717 C22.2110316,80.1518717 22.9027246,79.8074866 23.5636757,79.1636364 L24.6703846,80.1069519 C23.8557239,81.0352941 22.764386,81.6342246 21.2119194,81.6342246 Z M18.7371955,76.797861 L23.1947728,76.797861 C23.0564342,75.540107 22.3186283,74.5668449 20.996726,74.5668449 C19.7824205,74.5668449 18.921647,75.4802139 18.7371955,76.797861 Z M36.0448921,81.6342246 C33.4779424,81.6342246 31.5873148,79.7326203 31.5873148,77.3967914 L31.5873148,77.3668449 C31.5873148,75.031016 33.4933134,73.084492 36.075634,73.084492 C38.6425837,73.084492 40.5332113,74.9860963 40.5332113,77.3368984 L40.5332113,77.3668449 C40.5332113,79.7026738 38.6272127,81.6342246 36.0448921,81.6342246 Z M36.075634,80.0620321 C37.6588425,80.0620321 38.6886965,78.8491979 38.6886965,77.3967914 L38.6886965,77.3668449 C38.6886965,75.8994652 37.5819877,74.6566845 36.0448921,74.6566845 C34.4616836,74.6566845 33.4318295,75.884492 33.4318295,77.3368984 L33.4318295,77.3668449 C33.4318295,78.8342246 34.5385384,80.0620321 36.075634,80.0620321 Z M42.6544032,81.4545455 L42.6544032,73.2491979 L44.4989179,73.2491979 L44.4989179,74.5368984 C45.0522723,73.7582888 45.8515621,73.084492 47.1734643,73.084492 C49.0794628,73.084492 50.2015426,74.3272727 50.2015426,76.2438503 L50.2015426,81.4545455 L48.341657,81.4545455 L48.341657,76.7828877 C48.341657,75.4802139 47.6653349,74.7315508 46.4817713,74.7315508 C45.3135786,74.7315508 44.4989179,75.5101604 44.4989179,76.8128342 L44.4989179,81.4545455 L42.6544032,81.4545455 Z M52.7838633,81.4545455 L52.7838633,70.0898396 L54.643749,70.0898396 L54.643749,81.4545455 L52.7838633,81.4545455 Z M60.9765829,79.4331551 L63.2207425,73.2491979 L65.1574829,73.2491979 L61.7912435,81.6791444 C61.1149215,83.371123 60.3617446,84 59.0091005,84 C58.2251817,84 57.6410854,83.8203209 57.0416181,83.5058824 L57.6718273,82.1433155 C58.0253593,82.3379679 58.4096332,82.4727273 58.824649,82.4727273 C59.3933744,82.4727273 59.7315354,82.2181818 60.0850674,81.4545455 L56.5343766,73.2491979 L58.5172299,73.2491979 L60.9765829,79.4331551 Z M72.3357194,81.4545455 L72.3357194,74.8064171 L71.2751235,74.8064171 L71.2751235,73.2941176 L72.3357194,73.2941176 L72.3357194,72.6802139 C72.3357194,71.7668449 72.5816547,71.0780749 73.0427834,70.6438503 C73.4731702,70.2245989 74.1033794,70 74.9180401,70 C75.5943621,70 76.0401199,70.0748663 76.4705066,70.2096257 L76.4705066,71.7368984 C76.0708618,71.6171123 75.7327007,71.542246 75.3176849,71.542246 C74.5645081,71.542246 74.1802342,71.9465241 74.1802342,72.8299465 L74.1802342,73.3090909 L76.4397647,73.3090909 L76.4397647,74.8064171 L74.1956051,74.8064171 L74.1956051,81.4545455 L72.3357194,81.4545455 Z M81.8657122,81.6342246 C79.2987626,81.6342246 77.408135,79.7326203 77.408135,77.3967914 L77.408135,77.3668449 C77.408135,75.031016 79.3141335,73.084492 81.8964541,73.084492 C84.4634038,73.084492 86.3540314,74.9860963 86.3540314,77.3368984 L86.3540314,77.3668449 C86.3540314,79.7026738 84.4480329,81.6342246 81.8657122,81.6342246 Z M81.8964541,80.0620321 C83.4796626,80.0620321 84.5095167,78.8491979 84.5095167,77.3967914 L84.5095167,77.3668449 C84.5095167,75.8994652 83.4028078,74.6566845 81.8657122,74.6566845 C80.2825037,74.6566845 79.2526497,75.884492 79.2526497,77.3368984 L79.2526497,77.3668449 C79.2526497,78.8342246 80.3593585,80.0620321 81.8964541,80.0620321 Z M92.4716719,81.6342246 C89.9047223,81.6342246 88.0140947,79.7326203 88.0140947,77.3967914 L88.0140947,77.3668449 C88.0140947,75.031016 89.9200932,73.084492 92.5024139,73.084492 C95.0693635,73.084492 96.9599911,74.9860963 96.9599911,77.3368984 L96.9599911,77.3668449 C96.9599911,79.7026738 95.0539926,81.6342246 92.4716719,81.6342246 Z M92.5024139,80.0620321 C94.0856223,80.0620321 95.1154764,78.8491979 95.1154764,77.3967914 L95.1154764,77.3668449 C95.1154764,75.8994652 94.0087675,74.6566845 92.4716719,74.6566845 C90.8884635,74.6566845 89.8586094,75.884492 89.8586094,77.3368984 L89.8586094,77.3668449 C89.8586094,78.8342246 90.9653182,80.0620321 92.5024139,80.0620321 Z M103.000777,80.0620321 C104.33805,80.0620321 105.521614,78.9839572 105.521614,77.3668449 L105.521614,77.3368984 C105.521614,75.7197861 104.33805,74.6417112 103.000777,74.6417112 C101.648133,74.6417112 100.526053,75.6748663 100.526053,77.3368984 L100.526053,77.3668449 C100.526053,78.9989305 101.663504,80.0620321 103.000777,80.0620321 Z M102.57039,81.6192513 C100.587537,81.6192513 98.6507963,80.0919786 98.6507963,77.3668449 L98.6507963,77.3368984 C98.6507963,74.626738 100.556795,73.084492 102.57039,73.084492 C103.984518,73.084492 104.876034,73.773262 105.475501,74.5518717 L105.475501,70.0898396 L107.335386,70.0898396 L107.335386,81.4545455 L105.475501,81.4545455 L105.475501,80.0470588 C104.845292,80.9304813 103.953776,81.6192513 102.57039,81.6192513 Z M117.772266,80.3016043 C119.094168,80.3016043 120.09328,79.5679144 120.09328,78.5048128 L120.09328,77.9058824 C119.586039,77.7262032 118.909716,77.5764706 118.110427,77.5764706 C116.834637,77.5764706 116.081461,78.115508 116.081461,78.9839572 L116.081461,79.0139037 C116.081461,79.8374332 116.834637,80.3016043 117.772266,80.3016043 Z M117.280395,81.6192513 C115.697187,81.6192513 114.267688,80.7358289 114.267688,79.0887701 L114.267688,79.0588235 C114.267688,77.2919786 115.697187,76.4235294 117.756895,76.4235294 C118.709894,76.4235294 119.401587,76.5582888 120.062538,76.7679144 L120.062538,76.5582888 C120.062538,75.3604278 119.309361,74.7165775 117.925975,74.7165775 C116.972976,74.7165775 116.265912,74.9112299 115.497364,75.2256684 L115.005494,73.8181818 C115.927751,73.4139037 116.834637,73.144385 118.171911,73.144385 C119.416958,73.144385 120.354586,73.4737968 120.954054,74.057754 C121.568892,74.6417112 121.845569,75.4951872 121.845569,76.573262 L121.845569,81.4545455 L120.047167,81.4545455 L120.047167,80.4064171 C119.478442,81.0802139 118.586926,81.6192513 117.280395,81.6192513 Z M128.654903,80.0620321 C130.007547,80.0620321 131.129627,79.028877 131.129627,77.3668449 L131.129627,77.3368984 C131.129627,75.7048128 129.992176,74.6417112 128.654903,74.6417112 C127.317629,74.6417112 126.134066,75.7197861 126.134066,77.3368984 L126.134066,77.3668449 C126.134066,78.9839572 127.317629,80.0620321 128.654903,80.0620321 Z M124.320293,83.940107 L124.320293,73.2491979 L126.164808,73.2491979 L126.164808,74.6566845 C126.795017,73.773262 127.701903,73.084492 129.085289,73.084492 C131.068143,73.084492 133.004883,74.6117647 133.004883,77.3368984 L133.004883,77.3668449 C133.004883,80.0770053 131.083514,81.6192513 129.085289,81.6192513 C127.671161,81.6192513 126.779646,80.9304813 126.164808,80.1518717 L126.164808,83.940107 L124.320293,83.940107 Z M139.491427,80.0620321 C140.844071,80.0620321 141.966151,79.028877 141.966151,77.3668449 L141.966151,77.3368984 C141.966151,75.7048128 140.8287,74.6417112 139.491427,74.6417112 C138.154153,74.6417112 136.97059,75.7197861 136.97059,77.3368984 L136.97059,77.3668449 C136.97059,78.9839572 138.154153,80.0620321 139.491427,80.0620321 Z M135.156817,83.940107 L135.156817,73.2491979 L137.001332,73.2491979 L137.001332,74.6566845 C137.631541,73.773262 138.538427,73.084492 139.921813,73.084492 C141.904667,73.084492 143.841407,74.6117647 143.841407,77.3368984 L143.841407,77.3668449 C143.841407,80.0770053 141.920038,81.6192513 139.921813,81.6192513 C138.507685,81.6192513 137.61617,80.9304813 137.001332,80.1518717 L137.001332,83.940107 L135.156817,83.940107 Z M154.554964,79.4331551 L156.799123,73.2491979 L158.735864,73.2491979 L155.369624,81.6791444 C154.693302,83.371123 153.940125,84 152.587481,84 C151.803563,84 151.219466,83.8203209 150.619999,83.5058824 L151.250208,82.1433155 C151.60374,82.3379679 151.988014,82.4727273 152.40303,82.4727273 C152.971755,82.4727273 153.309916,82.2181818 153.663448,81.4545455 L150.112757,73.2491979 L152.095611,73.2491979 L154.554964,79.4331551 Z M164.084956,81.6342246 C161.518007,81.6342246 159.627379,79.7326203 159.627379,77.3967914 L159.627379,77.3668449 C159.627379,75.031016 161.533378,73.084492 164.115698,73.084492 C166.682648,73.084492 168.573276,74.9860963 168.573276,77.3368984 L168.573276,77.3668449 C168.573276,79.7026738 166.667277,81.6342246 164.084956,81.6342246 Z M164.115698,80.0620321 C165.698907,80.0620321 166.728761,78.8491979 166.728761,77.3967914 L166.728761,77.3668449 C166.728761,75.8994652 165.622052,74.6566845 164.084956,74.6566845 C162.501748,74.6566845 161.471894,75.884492 161.471894,77.3368984 L161.471894,77.3668449 C161.471894,78.8342246 162.578603,80.0620321 164.115698,80.0620321 Z M173.63032,81.6192513 C171.708951,81.6192513 170.586871,80.3764706 170.586871,78.459893 L170.586871,73.2491979 L172.446757,73.2491979 L172.446757,77.9208556 C172.446757,79.2235294 173.13845,79.9721925 174.306642,79.9721925 C175.474835,79.9721925 176.289496,79.1935829 176.289496,77.8909091 L176.289496,73.2491979 L178.13401,73.2491979 L178.13401,81.4545455 L176.289496,81.4545455 L176.289496,80.1668449 C175.736141,80.9454545 174.952222,81.6192513 173.63032,81.6192513 Z M180.455025,75.1657754 L180.839299,70.5540107 L182.975861,70.5540107 L182.975861,70.628877 L181.438766,75.1657754 L180.455025,75.1657754 Z M185.20465,81.4545455 L185.20465,70.0898396 L187.064536,70.0898396 L187.064536,81.4545455 L185.20465,81.4545455 Z M189.86205,81.4545455 L189.86205,70.0898396 L191.721936,70.0898396 L191.721936,81.4545455 L189.86205,81.4545455 Z M203.173298,81.6342246 C200.744687,81.6342246 198.86943,79.9122995 198.86943,77.3818182 L198.86943,77.3518717 C198.86943,75.0010695 200.575606,73.084492 202.973475,73.084492 C205.632651,73.084492 206.985295,75.1208556 206.985295,77.486631 C206.985295,77.6513369 206.985295,77.8160428 206.969924,77.9957219 L200.729316,77.9957219 C200.929138,79.3882353 201.92825,80.1518717 203.20404,80.1518717 C204.17241,80.1518717 204.864103,79.8074866 205.525054,79.1636364 L206.631763,80.1069519 C205.817102,81.0352941 204.725764,81.6342246 203.173298,81.6342246 Z M200.698574,76.797861 L205.156151,76.797861 C205.017813,75.540107 204.280007,74.5668449 202.958104,74.5668449 C201.743799,74.5668449 200.883025,75.4802139 200.698574,76.797861 Z M211.366017,81.5144385 L207.892181,73.2491979 L209.890406,73.2491979 L212.21142,79.3582888 L214.563176,73.2491979 L216.515288,73.2491979 L213.041452,81.5144385 L211.366017,81.5144385 Z M221.664558,81.6342246 C219.235947,81.6342246 217.36069,79.9122995 217.36069,77.3818182 L217.36069,77.3518717 C217.36069,75.0010695 219.066866,73.084492 221.464736,73.084492 C224.123911,73.084492 225.476555,75.1208556 225.476555,77.486631 C225.476555,77.6513369 225.476555,77.8160428 225.461184,77.9957219 L219.220576,77.9957219 C219.420398,79.3882353 220.419511,80.1518717 221.6953,80.1518717 C222.66367,80.1518717 223.355363,79.8074866 224.016314,79.1636364 L225.123023,80.1069519 C224.308362,81.0352941 223.217025,81.6342246 221.664558,81.6342246 Z M219.189834,76.797861 L223.647411,76.797861 C223.509073,75.540107 222.771267,74.5668449 221.449365,74.5668449 C220.235059,74.5668449 219.374286,75.4802139 219.189834,76.797861 Z M227.582376,81.4545455 L227.582376,73.2491979 L229.426891,73.2491979 L229.426891,75.1358289 C229.980245,73.8930481 230.979357,73.0395722 232.47034,73.0994652 L232.47034,75.0010695 L232.362743,75.0010695 C230.656567,75.0010695 229.426891,76.1090909 229.426891,78.3101604 L229.426891,81.4545455 L227.582376,81.4545455 Z M239.202819,81.4545455 L239.202819,73.2491979 L241.047334,73.2491979 L241.047334,74.5368984 C241.600688,73.7582888 242.399978,73.084492 243.72188,73.084492 C245.627879,73.084492 246.749958,74.3272727 246.749958,76.2438503 L246.749958,81.4545455 L244.890073,81.4545455 L244.890073,76.7828877 C244.890073,75.4802139 244.213751,74.7315508 243.030187,74.7315508 C241.861994,74.7315508 241.047334,75.5101604 241.047334,76.8128342 L241.047334,81.4545455 L239.202819,81.4545455 Z M253.067421,81.6342246 C250.63881,81.6342246 248.763554,79.9122995 248.763554,77.3818182 L248.763554,77.3518717 C248.763554,75.0010695 250.46973,73.084492 252.867599,73.084492 C255.526774,73.084492 256.879418,75.1208556 256.879418,77.486631 C256.879418,77.6513369 256.879418,77.8160428 256.864048,77.9957219 L250.623439,77.9957219 C250.823262,79.3882353 251.822374,80.1518717 253.098163,80.1518717 C254.066533,80.1518717 254.758227,79.8074866 255.419178,79.1636364 L256.525886,80.1069519 C255.711226,81.0352941 254.619888,81.6342246 253.067421,81.6342246 Z M250.592697,76.797861 L255.050275,76.797861 C254.911936,75.540107 254.17413,74.5668449 252.852228,74.5668449 C251.637922,74.5668449 250.777149,75.4802139 250.592697,76.797861 Z M262.827978,81.6342246 C260.399367,81.6342246 258.524111,79.9122995 258.524111,77.3818182 L258.524111,77.3518717 C258.524111,75.0010695 260.230287,73.084492 262.628156,73.084492 C265.287331,73.084492 266.639976,75.1208556 266.639976,77.486631 C266.639976,77.6513369 266.639976,77.8160428 266.624605,77.9957219 L260.383996,77.9957219 C260.583819,79.3882353 261.582931,80.1518717 262.85872,80.1518717 C263.827091,80.1518717 264.518784,79.8074866 265.179735,79.1636364 L266.286444,80.1069519 C265.471783,81.0352941 264.380445,81.6342246 262.827978,81.6342246 Z M260.353255,76.797861 L264.810832,76.797861 C264.672493,75.540107 263.934687,74.5668449 262.612785,74.5668449 C261.39848,74.5668449 260.537706,75.4802139 260.353255,76.797861 Z M272.66539,80.0620321 C274.002664,80.0620321 275.186227,78.9839572 275.186227,77.3668449 L275.186227,77.3368984 C275.186227,75.7197861 274.002664,74.6417112 272.66539,74.6417112 C271.312746,74.6417112 270.190666,75.6748663 270.190666,77.3368984 L270.190666,77.3668449 C270.190666,78.9989305 271.328117,80.0620321 272.66539,80.0620321 Z M272.235004,81.6192513 C270.25215,81.6192513 268.31541,80.0919786 268.31541,77.3668449 L268.31541,77.3368984 C268.31541,74.626738 270.221408,73.084492 272.235004,73.084492 C273.649132,73.084492 274.540647,73.773262 275.140114,74.5518717 L275.140114,70.0898396 L277,70.0898396 L277,81.4545455 L275.140114,81.4545455 L275.140114,80.0470588 C274.509905,80.9304813 273.61839,81.6192513 272.235004,81.6192513 Z" id="the-only-food-app-yo-copy" fill="#000000"></path>
        </g>
    </g>
</svg>